%TF.GenerationSoftware,KiCad,Pcbnew,(6.0.2)*%
%TF.CreationDate,2022-10-27T18:33:53-05:00*%
%TF.ProjectId,REF1329_Breakout,52454631-3332-4395-9f42-7265616b6f75,rev?*%
%TF.SameCoordinates,Original*%
%TF.FileFunction,Legend,Bot*%
%TF.FilePolarity,Positive*%
%FSLAX46Y46*%
G04 Gerber Fmt 4.6, Leading zero omitted, Abs format (unit mm)*
G04 Created by KiCad (PCBNEW (6.0.2)) date 2022-10-27 18:33:53*
%MOMM*%
%LPD*%
G01*
G04 APERTURE LIST*
%ADD10C,0.125000*%
%ADD11C,0.120000*%
G04 APERTURE END LIST*
D10*
X150768257Y-49401590D02*
X150768257Y-48901590D01*
X150649209Y-48901590D01*
X150577780Y-48925400D01*
X150530161Y-48973019D01*
X150506352Y-49020638D01*
X150482542Y-49115876D01*
X150482542Y-49187304D01*
X150506352Y-49282542D01*
X150530161Y-49330161D01*
X150577780Y-49377780D01*
X150649209Y-49401590D01*
X150768257Y-49401590D01*
X150101590Y-49139685D02*
X150030161Y-49163495D01*
X150006352Y-49187304D01*
X149982542Y-49234923D01*
X149982542Y-49306352D01*
X150006352Y-49353971D01*
X150030161Y-49377780D01*
X150077780Y-49401590D01*
X150268257Y-49401590D01*
X150268257Y-48901590D01*
X150101590Y-48901590D01*
X150053971Y-48925400D01*
X150030161Y-48949209D01*
X150006352Y-48996828D01*
X150006352Y-49044447D01*
X150030161Y-49092066D01*
X150053971Y-49115876D01*
X150101590Y-49139685D01*
X150268257Y-49139685D01*
X149792066Y-48949209D02*
X149768257Y-48925400D01*
X149720638Y-48901590D01*
X149601590Y-48901590D01*
X149553971Y-48925400D01*
X149530161Y-48949209D01*
X149506352Y-48996828D01*
X149506352Y-49044447D01*
X149530161Y-49115876D01*
X149815876Y-49401590D01*
X149506352Y-49401590D01*
X149053971Y-48901590D02*
X149292066Y-48901590D01*
X149315876Y-49139685D01*
X149292066Y-49115876D01*
X149244447Y-49092066D01*
X149125400Y-49092066D01*
X149077780Y-49115876D01*
X149053971Y-49139685D01*
X149030161Y-49187304D01*
X149030161Y-49306352D01*
X149053971Y-49353971D01*
X149077780Y-49377780D01*
X149125400Y-49401590D01*
X149244447Y-49401590D01*
X149292066Y-49377780D01*
X149315876Y-49353971D01*
X148434923Y-49401590D02*
X148434923Y-48901590D01*
X148244447Y-48901590D01*
X148196828Y-48925400D01*
X148173019Y-48949209D01*
X148149209Y-48996828D01*
X148149209Y-49068257D01*
X148173019Y-49115876D01*
X148196828Y-49139685D01*
X148244447Y-49163495D01*
X148434923Y-49163495D01*
X147720638Y-49401590D02*
X147720638Y-49139685D01*
X147744447Y-49092066D01*
X147792066Y-49068257D01*
X147887304Y-49068257D01*
X147934923Y-49092066D01*
X147720638Y-49377780D02*
X147768257Y-49401590D01*
X147887304Y-49401590D01*
X147934923Y-49377780D01*
X147958733Y-49330161D01*
X147958733Y-49282542D01*
X147934923Y-49234923D01*
X147887304Y-49211114D01*
X147768257Y-49211114D01*
X147720638Y-49187304D01*
X147482542Y-49401590D02*
X147482542Y-49068257D01*
X147482542Y-49163495D02*
X147458733Y-49115876D01*
X147434923Y-49092066D01*
X147387304Y-49068257D01*
X147339685Y-49068257D01*
X146958733Y-49401590D02*
X146958733Y-49139685D01*
X146982542Y-49092066D01*
X147030161Y-49068257D01*
X147125400Y-49068257D01*
X147173019Y-49092066D01*
X146958733Y-49377780D02*
X147006352Y-49401590D01*
X147125400Y-49401590D01*
X147173019Y-49377780D01*
X147196828Y-49330161D01*
X147196828Y-49282542D01*
X147173019Y-49234923D01*
X147125400Y-49211114D01*
X147006352Y-49211114D01*
X146958733Y-49187304D01*
X146649209Y-49401590D02*
X146696828Y-49377780D01*
X146720638Y-49330161D01*
X146720638Y-48901590D01*
X146387304Y-49401590D02*
X146434923Y-49377780D01*
X146458733Y-49330161D01*
X146458733Y-48901590D01*
X146006352Y-49377780D02*
X146053971Y-49401590D01*
X146149209Y-49401590D01*
X146196828Y-49377780D01*
X146220638Y-49330161D01*
X146220638Y-49139685D01*
X146196828Y-49092066D01*
X146149209Y-49068257D01*
X146053971Y-49068257D01*
X146006352Y-49092066D01*
X145982542Y-49139685D01*
X145982542Y-49187304D01*
X146220638Y-49234923D01*
X145696828Y-49401590D02*
X145744447Y-49377780D01*
X145768257Y-49330161D01*
X145768257Y-48901590D01*
X145125400Y-49401590D02*
X145125400Y-48901590D01*
X144934923Y-48901590D01*
X144887304Y-48925400D01*
X144863495Y-48949209D01*
X144839685Y-48996828D01*
X144839685Y-49068257D01*
X144863495Y-49115876D01*
X144887304Y-49139685D01*
X144934923Y-49163495D01*
X145125400Y-49163495D01*
X144553971Y-49401590D02*
X144601590Y-49377780D01*
X144625400Y-49353971D01*
X144649209Y-49306352D01*
X144649209Y-49163495D01*
X144625400Y-49115876D01*
X144601590Y-49092066D01*
X144553971Y-49068257D01*
X144482542Y-49068257D01*
X144434923Y-49092066D01*
X144411114Y-49115876D01*
X144387304Y-49163495D01*
X144387304Y-49306352D01*
X144411114Y-49353971D01*
X144434923Y-49377780D01*
X144482542Y-49401590D01*
X144553971Y-49401590D01*
X144173019Y-49401590D02*
X144173019Y-49068257D01*
X144173019Y-49163495D02*
X144149209Y-49115876D01*
X144125400Y-49092066D01*
X144077780Y-49068257D01*
X144030161Y-49068257D01*
X143934923Y-49068257D02*
X143744447Y-49068257D01*
X143863495Y-48901590D02*
X143863495Y-49330161D01*
X143839685Y-49377780D01*
X143792066Y-49401590D01*
X143744447Y-49401590D01*
X143553971Y-49377780D02*
X143553971Y-49401590D01*
X143577780Y-49449209D01*
X143601590Y-49473019D01*
X142958733Y-49401590D02*
X142958733Y-48901590D01*
X142792066Y-49258733D01*
X142625400Y-48901590D01*
X142625400Y-49401590D01*
X142173019Y-49401590D02*
X142173019Y-49139685D01*
X142196828Y-49092066D01*
X142244447Y-49068257D01*
X142339685Y-49068257D01*
X142387304Y-49092066D01*
X142173019Y-49377780D02*
X142220638Y-49401590D01*
X142339685Y-49401590D01*
X142387304Y-49377780D01*
X142411114Y-49330161D01*
X142411114Y-49282542D01*
X142387304Y-49234923D01*
X142339685Y-49211114D01*
X142220638Y-49211114D01*
X142173019Y-49187304D01*
X141863495Y-49401590D02*
X141911114Y-49377780D01*
X141934923Y-49330161D01*
X141934923Y-48901590D01*
X141482542Y-49377780D02*
X141530161Y-49401590D01*
X141625400Y-49401590D01*
X141673019Y-49377780D01*
X141696828Y-49330161D01*
X141696828Y-49139685D01*
X141673019Y-49092066D01*
X141625400Y-49068257D01*
X141530161Y-49068257D01*
X141482542Y-49092066D01*
X141458733Y-49139685D01*
X141458733Y-49187304D01*
X141696828Y-49234923D01*
D11*
%TO.C,J1*%
X163273400Y-46675762D02*
X162773400Y-46675762D01*
X171953400Y-47570100D02*
X120853400Y-47570100D01*
X119793400Y-48630100D02*
X119793400Y-59130100D01*
X127536930Y-51618356D02*
X128436198Y-56718356D01*
X163023400Y-47108775D02*
X163273400Y-46675762D01*
X120853400Y-60190100D02*
X171953400Y-60190100D01*
X162735821Y-58090100D02*
X130070979Y-58090100D01*
X173013400Y-59130100D02*
X173013400Y-48630100D01*
X162773400Y-46675762D02*
X163023400Y-47108775D01*
X163635089Y-49670100D02*
X129171711Y-49670100D01*
X165269870Y-51618356D02*
X164370602Y-56718356D01*
X129171711Y-49670100D02*
G75*
G03*
X127536930Y-51618356I-1J-1659999D01*
G01*
X173013400Y-48630100D02*
G75*
G03*
X171953400Y-47570100I-1060001J-1D01*
G01*
X120853400Y-47570100D02*
G75*
G03*
X119793400Y-48630100I1J-1060001D01*
G01*
X162735821Y-58090100D02*
G75*
G03*
X164370602Y-56718356I1J1659999D01*
G01*
X119793400Y-59130100D02*
G75*
G03*
X120853400Y-60190100I1060001J1D01*
G01*
X128436198Y-56718356D02*
G75*
G03*
X130070979Y-58090100I1634780J288255D01*
G01*
X171953400Y-60190100D02*
G75*
G03*
X173013400Y-59130100I-1J1060001D01*
G01*
X165269870Y-51618356D02*
G75*
G03*
X163635089Y-49670100I-1634780J288257D01*
G01*
%TD*%
M02*
