M48
; DRILL file {KiCad (6.0.2)} date Thu Oct 27 18:33:55 2022
; FORMAT={-:-/ absolute / metric / decimal}
; #@! TF.CreationDate,2022-10-27T18:33:55-05:00
; #@! TF.GenerationSoftware,Kicad,Pcbnew,(6.0.2)
; #@! TF.FileFunction,Plated,1,2,PTH
FMAT,2
METRIC
; #@! TA.AperFunction,Plated,PTH,ViaDrill
T1C0.400
; #@! TA.AperFunction,Plated,PTH,ComponentDrill
T2C0.800
; #@! TA.AperFunction,Plated,PTH,ComponentDrill
T3C1.000
; #@! TA.AperFunction,Plated,PTH,ComponentDrill
T4C4.450
%
G90
G05
T1
X95.558Y-139.094
X97.525Y-135.324
X98.307Y-112.495
X98.521Y-108.538
X98.562Y-101.859
X98.693Y-103.426
X98.736Y-116.694
X98.992Y-97.86
X99.171Y-75.705
X99.185Y-120.186
X99.347Y-119.186
X99.581Y-121.202
X100.0Y-95.85
X100.302Y-97.52
X100.587Y-118.174
X101.267Y-93.799
X101.297Y-119.563
X101.443Y-115.151
X101.826Y-68.144
X102.224Y-106.083
X102.262Y-108.609
X102.782Y-137.733
X103.142Y-107.637
X104.113Y-125.555
X104.289Y-104.126
X105.113Y-125.803
X105.303Y-124.803
X105.351Y-107.639
X105.424Y-132.497
X105.48Y-128.283
X106.059Y-60.378
X106.069Y-63.901
X106.224Y-122.51
X106.799Y-112.804
X107.006Y-128.6
X107.173Y-109.021
X107.311Y-100.03
X107.439Y-98.623
X107.439Y-101.411
X107.449Y-123.335
X107.869Y-107.876
X107.889Y-91.424
X107.889Y-93.532
X108.124Y-122.323
X108.834Y-125.53
X108.971Y-113.956
X109.34Y-100.827
X109.34Y-101.827
X109.474Y-123.025
X109.789Y-108.384
X109.9Y-130.789
X110.14Y-102.573
X110.142Y-122.099
X110.975Y-117.756
X112.735Y-119.767
X113.637Y-126.402
X113.647Y-131.495
X113.671Y-121.911
X114.142Y-128.112
X114.279Y-130.702
X114.42Y-124.03
X114.727Y-121.08
X114.923Y-57.032
X114.93Y-55.935
X114.93Y-50.127
X115.101Y-122.42
X116.558Y-131.462
X117.04Y-130.287
X117.249Y-137.95
X117.426Y-123.837
X117.534Y-145.419
X117.694Y-127.019
X117.83Y-125.552
X118.187Y-108.623
X118.915Y-104.671
X119.281Y-109.699
X119.412Y-73.924
X119.497Y-32.642
X119.884Y-36.571
X121.743Y-140.39
X123.058Y-130.477
X123.326Y-90.129
X123.579Y-137.189
X123.901Y-131.261
X124.099Y-141.231
X124.579Y-132.051
X124.754Y-64.478
X124.886Y-63.478
X125.358Y-136.403
X125.484Y-127.451
X125.576Y-45.647
X125.837Y-133.02
X125.974Y-123.299
X126.632Y-142.497
X126.808Y-56.954
X127.015Y-64.531
X127.027Y-111.871
X127.292Y-116.851
X127.359Y-126.148
X127.579Y-135.424
X127.975Y-62.054
X128.591Y-32.54
X128.598Y-38.095
X128.635Y-117.88
X128.637Y-145.414
X129.579Y-137.152
X129.6Y-122.645
X129.623Y-125.682
X130.27Y-123.39
X130.551Y-115.81
X130.653Y-85.504
X130.675Y-124.391
X131.211Y-57.233
X131.27Y-123.122
X131.31Y-125.194
X131.353Y-33.705
X131.68Y-105.107
X131.913Y-132.836
X132.359Y-118.484
X132.509Y-65.259
X132.838Y-134.356
X132.999Y-133.337
X133.081Y-49.672
X133.311Y-136.653
X133.793Y-76.59
X133.806Y-124.173
X133.808Y-110.439
X134.057Y-125.173
X135.094Y-103.331
X135.579Y-136.19
X135.829Y-96.849
X136.079Y-123.101
X136.091Y-145.356
X136.152Y-32.624
X136.712Y-140.656
X137.28Y-99.222
X137.579Y-141.203
X138.083Y-142.114
X138.241Y-98.288
X138.764Y-122.677
X138.981Y-110.828
X139.319Y-45.094
X139.492Y-136.603
X139.722Y-102.491
X139.793Y-122.778
X139.884Y-142.542
X139.928Y-141.542
X140.112Y-132.646
X140.12Y-47.25
X140.504Y-101.552
X141.811Y-130.098
X141.816Y-135.775
X142.519Y-65.432
X143.145Y-96.076
X143.408Y-79.44
X144.586Y-95.069
X144.759Y-47.25
X145.31Y-133.72
X145.311Y-135.569
X145.433Y-129.834
X145.676Y-131.904
X146.346Y-142.325
X148.046Y-32.533
X148.816Y-144.192
X149.068Y-134.878
X149.068Y-139.693
X149.751Y-87.651
X150.348Y-66.188
X150.363Y-133.844
X150.363Y-140.126
X150.38Y-32.56
X150.81Y-88.851
X150.973Y-81.31
X151.109Y-75.663
X151.332Y-143.531
X151.581Y-103.558
X151.613Y-34.522
X151.814Y-135.785
X151.831Y-144.659
X152.917Y-129.141
X153.007Y-47.396
X153.415Y-115.438
X153.524Y-45.986
X154.524Y-119.462
X155.17Y-81.93
X155.881Y-44.423
X156.373Y-145.414
X156.397Y-126.479
X156.447Y-111.748
X156.636Y-32.55
X156.672Y-43.052
X157.324Y-56.506
X157.71Y-139.756
X157.751Y-109.033
X158.116Y-42.257
X158.71Y-139.568
X158.946Y-97.539
X159.741Y-35.099
X159.916Y-62.392
X159.975Y-97.545
X160.734Y-144.151
X160.746Y-36.737
X160.974Y-99.536
X161.899Y-141.915
X163.029Y-132.24
X163.337Y-66.368
X164.854Y-109.571
X164.874Y-52.3
X165.211Y-36.883
X166.589Y-33.454
X167.369Y-110.584
X167.597Y-133.835
X167.684Y-63.916
X168.0Y-99.536
X170.154Y-145.486
X171.316Y-110.755
X171.464Y-32.593
X172.202Y-106.857
X172.202Y-141.388
X172.619Y-145.266
X172.927Y-109.533
X172.948Y-139.948
X173.056Y-99.159
X173.275Y-93.294
X173.329Y-32.659
X174.92Y-135.751
X174.93Y-139.498
X176.016Y-91.646
X176.075Y-93.294
X176.509Y-32.517
X176.555Y-145.411
X177.384Y-110.49
X177.594Y-105.806
X177.822Y-89.387
X178.117Y-86.459
X178.129Y-140.096
X178.304Y-94.202
X178.63Y-138.148
X178.662Y-90.191
X178.866Y-81.344
X178.888Y-78.021
X179.828Y-130.406
X180.89Y-133.411
X181.714Y-136.363
X182.971Y-99.074
X183.061Y-117.604
X183.549Y-136.142
X183.766Y-64.264
X183.831Y-79.16
X183.996Y-78.091
X184.474Y-134.664
X184.566Y-73.143
X184.663Y-91.478
X185.855Y-88.826
X186.209Y-93.144
X186.785Y-80.841
X187.007Y-54.433
X187.328Y-91.609
X187.474Y-44.423
X187.7Y-131.242
X188.201Y-43.335
X188.201Y-73.734
X188.243Y-91.109
X188.62Y-119.465
X189.827Y-45.986
X189.827Y-79.855
X190.44Y-78.091
X190.573Y-89.416
X190.722Y-87.616
X190.96Y-60.305
X191.657Y-45.997
X191.697Y-106.734
X191.734Y-50.562
X192.522Y-85.37
X192.522Y-87.626
X192.677Y-59.267
X193.007Y-98.554
X193.923Y-104.107
X194.127Y-49.148
X195.803Y-121.942
X196.101Y-47.396
T2
X165.597Y-95.581
X165.597Y-98.121
X165.597Y-100.661
X165.597Y-103.201
X165.597Y-105.741
X170.677Y-95.581
X170.677Y-98.121
X170.677Y-100.661
X170.677Y-103.201
X170.677Y-105.741
T3
X106.571Y-83.977
X106.576Y-68.175
X106.578Y-71.774
X106.578Y-80.375
X109.111Y-83.977
X109.116Y-68.175
X109.118Y-71.774
X109.118Y-80.375
X111.651Y-83.977
X111.656Y-68.175
X111.658Y-71.774
X111.658Y-80.375
X114.191Y-83.977
X114.196Y-68.175
X114.198Y-71.774
X114.198Y-80.375
X116.731Y-83.977
X116.736Y-68.175
X116.738Y-71.774
X116.738Y-80.375
X119.271Y-83.977
X119.276Y-68.175
X119.278Y-71.774
X119.278Y-80.375
X121.811Y-83.977
X121.816Y-68.175
X121.818Y-71.774
X121.818Y-80.375
X124.351Y-83.977
X124.356Y-68.175
X124.358Y-71.774
X124.358Y-80.375
X126.891Y-83.977
X126.896Y-68.175
X126.898Y-71.774
X126.898Y-80.375
X129.431Y-83.977
X129.436Y-68.175
X129.438Y-71.774
X129.438Y-80.375
X129.783Y-52.46
X131.168Y-55.3
X131.971Y-83.977
X131.976Y-68.175
X131.978Y-71.774
X131.978Y-80.375
X132.553Y-52.46
X133.938Y-55.3
X134.511Y-83.977
X134.516Y-68.175
X134.518Y-71.774
X134.518Y-80.375
X135.323Y-52.46
X136.708Y-55.3
X137.051Y-83.977
X137.056Y-68.175
X137.058Y-71.774
X137.058Y-80.375
X138.093Y-52.46
X139.478Y-55.3
X139.591Y-83.977
X139.596Y-68.175
X139.598Y-71.774
X139.598Y-80.375
X140.863Y-52.46
X142.131Y-83.977
X142.136Y-68.175
X142.138Y-71.774
X142.138Y-80.375
X142.248Y-55.3
X143.633Y-52.46
X144.671Y-83.977
X144.676Y-68.175
X144.678Y-71.774
X144.678Y-80.375
X145.018Y-55.3
X146.403Y-52.46
X147.211Y-83.977
X147.216Y-68.175
X147.218Y-71.774
X147.218Y-80.375
X147.788Y-55.3
X149.173Y-52.46
X149.751Y-83.977
X149.756Y-68.175
X149.758Y-71.774
X149.758Y-80.375
X150.558Y-55.3
X151.943Y-52.46
X152.291Y-83.977
X152.296Y-68.175
X152.298Y-71.774
X152.298Y-80.375
X153.328Y-55.3
X154.713Y-52.46
X154.831Y-83.977
X154.836Y-68.175
X154.838Y-71.774
X154.838Y-80.375
X156.098Y-55.3
X157.371Y-83.977
X157.376Y-68.175
X157.378Y-71.774
X157.378Y-80.375
X157.483Y-52.46
X158.868Y-55.3
X159.911Y-83.977
X159.916Y-68.175
X159.918Y-71.774
X159.918Y-80.375
X160.253Y-52.46
X161.638Y-55.3
X162.451Y-83.977
X162.456Y-68.175
X162.458Y-71.774
X162.458Y-80.375
X163.023Y-52.46
X164.991Y-83.977
X164.996Y-68.175
X164.998Y-71.774
X164.998Y-80.375
X167.531Y-83.977
X167.536Y-68.175
X167.538Y-71.774
X167.538Y-80.375
X170.071Y-83.977
X170.076Y-68.175
X170.078Y-71.774
X170.078Y-80.375
X172.611Y-83.977
X172.616Y-68.175
X172.618Y-71.774
X172.618Y-80.375
X175.151Y-83.977
X175.156Y-68.175
X175.158Y-71.774
X175.158Y-80.375
X177.691Y-83.977
X177.696Y-68.175
X177.698Y-71.774
X177.698Y-80.375
X180.231Y-83.977
X180.236Y-68.175
X180.238Y-71.774
X180.238Y-80.375
X182.771Y-83.977
X182.776Y-68.175
X182.778Y-71.774
X182.778Y-80.375
X185.311Y-83.977
X185.316Y-68.175
X185.318Y-71.774
X185.318Y-80.375
X190.044Y-116.046
X190.084Y-109.696
X194.53Y-116.049
X194.569Y-109.697
T4
X101.501Y-141.759
X105.352Y-28.947
X187.783Y-28.986
X190.958Y-141.804
T0
M30
