%TF.GenerationSoftware,KiCad,Pcbnew,(6.0.2)*%
%TF.CreationDate,2022-10-27T18:33:53-05:00*%
%TF.ProjectId,REF1329_Breakout,52454631-3332-4395-9f42-7265616b6f75,rev?*%
%TF.SameCoordinates,Original*%
%TF.FileFunction,Copper,L2,Bot*%
%TF.FilePolarity,Positive*%
%FSLAX46Y46*%
G04 Gerber Fmt 4.6, Leading zero omitted, Abs format (unit mm)*
G04 Created by KiCad (PCBNEW (6.0.2)) date 2022-10-27 18:33:53*
%MOMM*%
%LPD*%
G01*
G04 APERTURE LIST*
%TA.AperFunction,NonConductor*%
%ADD10C,0.000001*%
%TD*%
%TA.AperFunction,ComponentPad*%
%ADD11R,1.700000X1.700000*%
%TD*%
%TA.AperFunction,ComponentPad*%
%ADD12O,1.700000X1.700000*%
%TD*%
%TA.AperFunction,ComponentPad*%
%ADD13R,1.590000X1.590000*%
%TD*%
%TA.AperFunction,ComponentPad*%
%ADD14C,4.680000*%
%TD*%
%TA.AperFunction,SMDPad,CuDef*%
%ADD15R,1.530000X9.000000*%
%TD*%
%TA.AperFunction,ComponentPad*%
%ADD16R,1.600000X1.600000*%
%TD*%
%TA.AperFunction,ComponentPad*%
%ADD17C,1.600000*%
%TD*%
%TA.AperFunction,SMDPad,CuDef*%
%ADD18R,1.530000X6.250000*%
%TD*%
%TA.AperFunction,ViaPad*%
%ADD19C,0.800000*%
%TD*%
%TA.AperFunction,Conductor*%
%ADD20C,0.250000*%
%TD*%
%TA.AperFunction,Conductor*%
%ADD21C,0.600000*%
%TD*%
G04 APERTURE END LIST*
D10*
X177067600Y-90017100D02*
G75*
G03*
X177067600Y-90017100I0J0D01*
G01*
X177067600Y-90603100D02*
G75*
G03*
X177067600Y-90603100I0J0D01*
G01*
X177067600Y-88316100D02*
G75*
G03*
X177067600Y-88316100I0J0D01*
G01*
D11*
%TO.P,J7,1,Pin_1*%
%TO.N,/A16*%
X106570700Y-83977000D03*
D12*
%TO.P,J7,2,Pin_2*%
%TO.N,/A17*%
X109110700Y-83977000D03*
%TO.P,J7,3,Pin_3*%
%TO.N,/A18*%
X111650700Y-83977000D03*
%TO.P,J7,4,Pin_4*%
%TO.N,/{slash}read_bottom*%
X114190700Y-83977000D03*
%TO.P,J7,5,Pin_5*%
%TO.N,/{slash}write*%
X116730700Y-83977000D03*
%TO.P,J7,6,Pin_6*%
%TO.N,/ALE_H*%
X119270700Y-83977000D03*
%TO.P,J7,7,Pin_7*%
%TO.N,/ALE_L*%
X121810700Y-83977000D03*
%TO.P,J7,8,Pin_8*%
%TO.N,/Chip_Enable*%
X124350700Y-83977000D03*
%TO.P,J7,9,Pin_9*%
%TO.N,/Output_Enable*%
X126890700Y-83977000D03*
%TO.P,J7,10,Pin_10*%
%TO.N,/PIC.GP4*%
X129430700Y-83977000D03*
%TO.P,J7,11,Pin_11*%
%TO.N,/PIC.GP5*%
X131970700Y-83977000D03*
%TO.P,J7,12,Pin_12*%
%TO.N,/Button*%
X134510700Y-83977000D03*
%TO.P,J7,13,Pin_13*%
%TO.N,/{slash}read_top*%
X137050700Y-83977000D03*
%TO.P,J7,14,Pin_14*%
%TO.N,/{slash}COLD_RESET*%
X139590700Y-83977000D03*
%TO.P,J7,15,Pin_15*%
%TO.N,/PPort_2*%
X142130700Y-83977000D03*
%TO.P,J7,16,Pin_16*%
%TO.N,/PPort_3*%
X144670700Y-83977000D03*
%TO.P,J7,17,Pin_17*%
%TO.N,/PPort_4*%
X147210700Y-83977000D03*
%TO.P,J7,18,Pin_18*%
%TO.N,/PPort_5*%
X149750700Y-83977000D03*
%TO.P,J7,19,Pin_19*%
%TO.N,/PPort_6*%
X152290700Y-83977000D03*
%TO.P,J7,20,Pin_20*%
%TO.N,/74HC04*%
X154830700Y-83977000D03*
%TO.P,J7,21,Pin_21*%
%TO.N,/74HC164_DSA_DSB*%
X157370700Y-83977000D03*
%TO.P,J7,22,Pin_22*%
%TO.N,/74HC164_CP*%
X159910700Y-83977000D03*
%TO.P,J7,23,Pin_23*%
%TO.N,/Pin_1*%
X162450700Y-83977000D03*
%TO.P,J7,24,Pin_24*%
%TO.N,/Pin_33*%
X164990700Y-83977000D03*
%TO.P,J7,25,Pin_25*%
%TO.N,/Pin_34*%
X167530700Y-83977000D03*
%TO.P,J7,26,Pin_26*%
%TO.N,/Pin_39*%
X170070700Y-83977000D03*
%TO.P,J7,27,Pin_27*%
%TO.N,/Pin_42*%
X172610700Y-83977000D03*
%TO.P,J7,28,Pin_28*%
%TO.N,unconnected-(J7-Pad28)*%
X175150700Y-83977000D03*
%TO.P,J7,29,Pin_29*%
%TO.N,unconnected-(J7-Pad29)*%
X177690700Y-83977000D03*
%TO.P,J7,30,Pin_30*%
%TO.N,unconnected-(J7-Pad30)*%
X180230700Y-83977000D03*
%TO.P,J7,31,Pin_31*%
%TO.N,unconnected-(J7-Pad31)*%
X182770700Y-83977000D03*
%TO.P,J7,32,Pin_32*%
%TO.N,unconnected-(J7-Pad32)*%
X185310700Y-83977000D03*
%TD*%
D13*
%TO.P,SW1,1,1*%
%TO.N,/GND*%
X190043900Y-116045900D03*
X190083900Y-109695900D03*
%TO.P,SW1,2,2*%
%TO.N,/Button*%
X194529900Y-116048900D03*
X194568900Y-109696900D03*
%TD*%
D14*
%TO.P,Hole1,1*%
%TO.N,N/C*%
X105352400Y-28947400D03*
%TD*%
D15*
%TO.P,J5,26,Pin_25*%
%TO.N,/GND*%
X116029400Y-150518400D03*
%TO.P,J5,27,Pin_24*%
X118547400Y-150532400D03*
%TO.P,J5,28,Pin_23*%
%TO.N,/AD0*%
X121072400Y-150520400D03*
%TO.P,J5,29,Pin_22*%
%TO.N,/AD1*%
X123599400Y-150514400D03*
%TO.P,J5,30,Pin_21*%
%TO.N,/AD2*%
X126118400Y-150528400D03*
%TO.P,J5,31,Pin_20*%
%TO.N,/GND*%
X128637400Y-150514400D03*
%TO.P,J5,32,Pin_19*%
%TO.N,/AD3*%
X131160400Y-150503400D03*
%TO.P,J5,33,Pin_18*%
%TO.N,/ALE_L*%
X133679400Y-150489400D03*
%TO.P,J5,34,Pin_17*%
%TO.N,/VCC*%
X136198400Y-150517400D03*
%TO.P,J5,35,Pin_16*%
%TO.N,/ALE_H*%
X138726400Y-150517400D03*
%TO.P,J5,36,Pin_15*%
%TO.N,/AD4*%
X141251400Y-150508400D03*
%TO.P,J5,37,Pin_14*%
%TO.N,/AD5*%
X143772400Y-150500400D03*
%TO.P,J5,38,Pin_13*%
%TO.N,/12V_Rear*%
X146296400Y-150484400D03*
%TO.P,J5,39,Pin_12*%
%TO.N,/UNUSED_Rear*%
X148816400Y-150457400D03*
%TO.P,J5,40,Pin_11*%
%TO.N,/AD6*%
X151336400Y-150469400D03*
%TO.P,J5,41,Pin_10*%
%TO.N,/AD7*%
X153855400Y-150455400D03*
%TO.P,J5,42,Pin_9*%
%TO.N,/VCC*%
X156373400Y-150521400D03*
%TO.P,J5,43,Pin_8*%
%TO.N,/CIC_DATA2*%
X158897400Y-150515400D03*
%TO.P,J5,44,Pin_7*%
%TO.N,/Unknown_1*%
X161423400Y-150505400D03*
%TO.P,J5,45,Pin_6*%
%TO.N,/{slash}OS EVENT*%
X163941400Y-150501400D03*
%TO.P,J5,46,Pin_5*%
%TO.N,/Unknown_2*%
X166461400Y-150486400D03*
%TO.P,J5,47,Pin_4*%
%TO.N,/GND*%
X168980400Y-150486400D03*
%TO.P,J5,48,Pin_3*%
X171510400Y-150470400D03*
%TO.P,J5,49,Pin_2*%
%TO.N,/RAUDIO*%
X174036400Y-150469400D03*
%TO.P,J5,50,Pin_1*%
%TO.N,/GND*%
X176555400Y-150528400D03*
%TD*%
D14*
%TO.P,Hole2,1*%
%TO.N,N/C*%
X101501400Y-141759400D03*
%TD*%
D16*
%TO.P,U3,1,CA*%
%TO.N,/VCC*%
X165596900Y-95580900D03*
D17*
%TO.P,U3,2,F*%
%TO.N,/F*%
X165596900Y-98120900D03*
%TO.P,U3,3,G*%
%TO.N,/G*%
X165596900Y-100660900D03*
%TO.P,U3,4,E*%
%TO.N,/E*%
X165596900Y-103200900D03*
%TO.P,U3,5,D*%
%TO.N,/D*%
X165596900Y-105740900D03*
%TO.P,U3,6,CA*%
%TO.N,/VCC*%
X170676900Y-105740900D03*
%TO.P,U3,7,DP*%
%TO.N,/DP*%
X170676900Y-103200900D03*
%TO.P,U3,8,C*%
%TO.N,/C*%
X170676900Y-100660900D03*
%TO.P,U3,9,B*%
%TO.N,/B*%
X170676900Y-98120900D03*
%TO.P,U3,10,A*%
%TO.N,/A*%
X170676900Y-95580900D03*
%TD*%
D11*
%TO.P,J9,1,Pin_1*%
%TO.N,/GND*%
X106577700Y-80375000D03*
D12*
%TO.P,J9,2,Pin_2*%
X109117700Y-80375000D03*
%TO.P,J9,3,Pin_3*%
X111657700Y-80375000D03*
%TO.P,J9,4,Pin_4*%
X114197700Y-80375000D03*
%TO.P,J9,5,Pin_5*%
X116737700Y-80375000D03*
%TO.P,J9,6,Pin_6*%
X119277700Y-80375000D03*
%TO.P,J9,7,Pin_7*%
X121817700Y-80375000D03*
%TO.P,J9,8,Pin_8*%
X124357700Y-80375000D03*
%TO.P,J9,9,Pin_9*%
X126897700Y-80375000D03*
%TO.P,J9,10,Pin_10*%
X129437700Y-80375000D03*
%TO.P,J9,11,Pin_11*%
X131977700Y-80375000D03*
%TO.P,J9,12,Pin_12*%
X134517700Y-80375000D03*
%TO.P,J9,13,Pin_13*%
X137057700Y-80375000D03*
%TO.P,J9,14,Pin_14*%
X139597700Y-80375000D03*
%TO.P,J9,15,Pin_15*%
X142137700Y-80375000D03*
%TO.P,J9,16,Pin_16*%
X144677700Y-80375000D03*
%TO.P,J9,17,Pin_17*%
X147217700Y-80375000D03*
%TO.P,J9,18,Pin_18*%
X149757700Y-80375000D03*
%TO.P,J9,19,Pin_19*%
X152297700Y-80375000D03*
%TO.P,J9,20,Pin_20*%
X154837700Y-80375000D03*
%TO.P,J9,21,Pin_21*%
X157377700Y-80375000D03*
%TO.P,J9,22,Pin_22*%
X159917700Y-80375000D03*
%TO.P,J9,23,Pin_23*%
X162457700Y-80375000D03*
%TO.P,J9,24,Pin_24*%
X164997700Y-80375000D03*
%TO.P,J9,25,Pin_25*%
X167537700Y-80375000D03*
%TO.P,J9,26,Pin_26*%
X170077700Y-80375000D03*
%TO.P,J9,27,Pin_27*%
X172617700Y-80375000D03*
%TO.P,J9,28,Pin_28*%
X175157700Y-80375000D03*
%TO.P,J9,29,Pin_29*%
X177697700Y-80375000D03*
%TO.P,J9,30,Pin_30*%
X180237700Y-80375000D03*
%TO.P,J9,31,Pin_31*%
X182777700Y-80375000D03*
%TO.P,J9,32,Pin_32*%
X185317700Y-80375000D03*
%TD*%
D11*
%TO.P,J6,1,Pin_1*%
%TO.N,/AD0*%
X106575700Y-68175000D03*
D12*
%TO.P,J6,2,Pin_2*%
%TO.N,/AD1*%
X109115700Y-68175000D03*
%TO.P,J6,3,Pin_3*%
%TO.N,/AD2*%
X111655700Y-68175000D03*
%TO.P,J6,4,Pin_4*%
%TO.N,/AD3*%
X114195700Y-68175000D03*
%TO.P,J6,5,Pin_5*%
%TO.N,/AD4*%
X116735700Y-68175000D03*
%TO.P,J6,6,Pin_6*%
%TO.N,/AD5*%
X119275700Y-68175000D03*
%TO.P,J6,7,Pin_7*%
%TO.N,/AD6*%
X121815700Y-68175000D03*
%TO.P,J6,8,Pin_8*%
%TO.N,/AD7*%
X124355700Y-68175000D03*
%TO.P,J6,9,Pin_9*%
%TO.N,/AD8*%
X126895700Y-68175000D03*
%TO.P,J6,10,Pin_10*%
%TO.N,/AD9*%
X129435700Y-68175000D03*
%TO.P,J6,11,Pin_11*%
%TO.N,/AD10*%
X131975700Y-68175000D03*
%TO.P,J6,12,Pin_12*%
%TO.N,/AD11*%
X134515700Y-68175000D03*
%TO.P,J6,13,Pin_13*%
%TO.N,/AD12*%
X137055700Y-68175000D03*
%TO.P,J6,14,Pin_14*%
%TO.N,/AD13*%
X139595700Y-68175000D03*
%TO.P,J6,15,Pin_15*%
%TO.N,/AD14*%
X142135700Y-68175000D03*
%TO.P,J6,16,Pin_16*%
%TO.N,/AD15*%
X144675700Y-68175000D03*
%TO.P,J6,17,Pin_17*%
%TO.N,/A0*%
X147215700Y-68175000D03*
%TO.P,J6,18,Pin_18*%
%TO.N,/A1*%
X149755700Y-68175000D03*
%TO.P,J6,19,Pin_19*%
%TO.N,/A2*%
X152295700Y-68175000D03*
%TO.P,J6,20,Pin_20*%
%TO.N,/A3*%
X154835700Y-68175000D03*
%TO.P,J6,21,Pin_21*%
%TO.N,/A4*%
X157375700Y-68175000D03*
%TO.P,J6,22,Pin_22*%
%TO.N,/A5*%
X159915700Y-68175000D03*
%TO.P,J6,23,Pin_23*%
%TO.N,/A6*%
X162455700Y-68175000D03*
%TO.P,J6,24,Pin_24*%
%TO.N,/A7*%
X164995700Y-68175000D03*
%TO.P,J6,25,Pin_25*%
%TO.N,/A8*%
X167535700Y-68175000D03*
%TO.P,J6,26,Pin_26*%
%TO.N,/A9*%
X170075700Y-68175000D03*
%TO.P,J6,27,Pin_27*%
%TO.N,/A10*%
X172615700Y-68175000D03*
%TO.P,J6,28,Pin_28*%
%TO.N,/A11*%
X175155700Y-68175000D03*
%TO.P,J6,29,Pin_29*%
%TO.N,/A12*%
X177695700Y-68175000D03*
%TO.P,J6,30,Pin_30*%
%TO.N,/A13*%
X180235700Y-68175000D03*
%TO.P,J6,31,Pin_31*%
%TO.N,/A14*%
X182775700Y-68175000D03*
%TO.P,J6,32,Pin_32*%
%TO.N,/A15*%
X185315700Y-68175000D03*
%TD*%
D14*
%TO.P,Hole3,1*%
%TO.N,N/C*%
X187783400Y-28986400D03*
%TD*%
%TO.P,Hole4,1*%
%TO.N,N/C*%
X190958400Y-141804400D03*
%TD*%
D18*
%TO.P,J3,26,Pin_1*%
%TO.N,/GND*%
X115983400Y-28780400D03*
%TO.P,J3,27,Pin_2*%
X118501400Y-28780400D03*
%TO.P,J3,28,Pin_3*%
%TO.N,/AD0*%
X121026400Y-28780400D03*
%TO.P,J3,29,Pin_4*%
%TO.N,/AD1*%
X123553400Y-28780400D03*
%TO.P,J3,30,Pin_5*%
%TO.N,/AD2*%
X126072400Y-28780400D03*
%TO.P,J3,31,Pin_6*%
%TO.N,/GND*%
X128591400Y-28780400D03*
%TO.P,J3,32,Pin_7*%
%TO.N,/AD3*%
X131114400Y-28780400D03*
%TO.P,J3,33,Pin_8*%
%TO.N,/ALE_L*%
X133633400Y-28780400D03*
%TO.P,J3,34,Pin_9*%
%TO.N,/VCC*%
X136152400Y-28780400D03*
%TO.P,J3,35,Pin_10*%
%TO.N,/ALE_H*%
X138680400Y-28780400D03*
%TO.P,J3,36,Pin_11*%
%TO.N,/AD4*%
X141205400Y-28780400D03*
%TO.P,J3,37,Pin_12*%
%TO.N,/AD5*%
X143726400Y-28780400D03*
%TO.P,J3,38,Pin_13*%
%TO.N,/12V_Rear*%
X146250400Y-28780400D03*
%TO.P,J3,39,Pin_14*%
%TO.N,/UNUSED_Rear*%
X148770400Y-28780400D03*
%TO.P,J3,40,Pin_15*%
%TO.N,/AD6*%
X151290400Y-28780400D03*
%TO.P,J3,41,Pin_16*%
%TO.N,/AD7*%
X153809400Y-28780400D03*
%TO.P,J3,42,Pin_17*%
%TO.N,/VCC*%
X156327400Y-28780400D03*
%TO.P,J3,43,Pin_18*%
%TO.N,/CIC_DATA2*%
X158851400Y-28780400D03*
%TO.P,J3,44,Pin_19*%
%TO.N,/Unknown_1*%
X161377400Y-28780400D03*
%TO.P,J3,45,Pin_20*%
%TO.N,/{slash}OS EVENT*%
X163895400Y-28780400D03*
%TO.P,J3,46,Pin_21*%
%TO.N,/Unknown_2*%
X166415400Y-28780400D03*
%TO.P,J3,47,Pin_22*%
%TO.N,/GND*%
X168934400Y-28780400D03*
%TO.P,J3,48,Pin_23*%
X171464400Y-28780400D03*
%TO.P,J3,49,Pin_24*%
%TO.N,/RAUDIO*%
X173990400Y-28780400D03*
%TO.P,J3,50,Pin_25*%
%TO.N,/GND*%
X176509400Y-28780400D03*
%TD*%
D11*
%TO.P,J8,1,Pin_1*%
%TO.N,/GND*%
X106577700Y-71774000D03*
D12*
%TO.P,J8,2,Pin_2*%
X109117700Y-71774000D03*
%TO.P,J8,3,Pin_3*%
X111657700Y-71774000D03*
%TO.P,J8,4,Pin_4*%
X114197700Y-71774000D03*
%TO.P,J8,5,Pin_5*%
X116737700Y-71774000D03*
%TO.P,J8,6,Pin_6*%
X119277700Y-71774000D03*
%TO.P,J8,7,Pin_7*%
X121817700Y-71774000D03*
%TO.P,J8,8,Pin_8*%
X124357700Y-71774000D03*
%TO.P,J8,9,Pin_9*%
X126897700Y-71774000D03*
%TO.P,J8,10,Pin_10*%
X129437700Y-71774000D03*
%TO.P,J8,11,Pin_11*%
X131977700Y-71774000D03*
%TO.P,J8,12,Pin_12*%
X134517700Y-71774000D03*
%TO.P,J8,13,Pin_13*%
X137057700Y-71774000D03*
%TO.P,J8,14,Pin_14*%
X139597700Y-71774000D03*
%TO.P,J8,15,Pin_15*%
X142137700Y-71774000D03*
%TO.P,J8,16,Pin_16*%
X144677700Y-71774000D03*
%TO.P,J8,17,Pin_17*%
X147217700Y-71774000D03*
%TO.P,J8,18,Pin_18*%
X149757700Y-71774000D03*
%TO.P,J8,19,Pin_19*%
X152297700Y-71774000D03*
%TO.P,J8,20,Pin_20*%
X154837700Y-71774000D03*
%TO.P,J8,21,Pin_21*%
X157377700Y-71774000D03*
%TO.P,J8,22,Pin_22*%
X159917700Y-71774000D03*
%TO.P,J8,23,Pin_23*%
X162457700Y-71774000D03*
%TO.P,J8,24,Pin_24*%
X164997700Y-71774000D03*
%TO.P,J8,25,Pin_25*%
X167537700Y-71774000D03*
%TO.P,J8,26,Pin_26*%
X170077700Y-71774000D03*
%TO.P,J8,27,Pin_27*%
X172617700Y-71774000D03*
%TO.P,J8,28,Pin_28*%
X175157700Y-71774000D03*
%TO.P,J8,29,Pin_29*%
X177697700Y-71774000D03*
%TO.P,J8,30,Pin_30*%
X180237700Y-71774000D03*
%TO.P,J8,31,Pin_31*%
X182777700Y-71774000D03*
%TO.P,J8,32,Pin_32*%
X185317700Y-71774000D03*
%TD*%
D16*
%TO.P,J1,1,1*%
%TO.N,unconnected-(J1-Pad1)*%
X163023400Y-52460100D03*
D17*
%TO.P,J1,2,2*%
%TO.N,/PPort_2*%
X160253400Y-52460100D03*
%TO.P,J1,3,3*%
%TO.N,/PPort_3*%
X157483400Y-52460100D03*
%TO.P,J1,4,4*%
%TO.N,/PPort_4*%
X154713400Y-52460100D03*
%TO.P,J1,5,5*%
%TO.N,/PPort_5*%
X151943400Y-52460100D03*
%TO.P,J1,6,6*%
%TO.N,/PPort_6*%
X149173400Y-52460100D03*
%TO.P,J1,7,7*%
%TO.N,unconnected-(J1-Pad7)*%
X146403400Y-52460100D03*
%TO.P,J1,8,8*%
%TO.N,unconnected-(J1-Pad8)*%
X143633400Y-52460100D03*
%TO.P,J1,9,9*%
%TO.N,unconnected-(J1-Pad9)*%
X140863400Y-52460100D03*
%TO.P,J1,10,10*%
%TO.N,/PPort_10*%
X138093400Y-52460100D03*
%TO.P,J1,11,11*%
%TO.N,/PPort_11*%
X135323400Y-52460100D03*
%TO.P,J1,12,12*%
%TO.N,/PPort_12*%
X132553400Y-52460100D03*
%TO.P,J1,13,13*%
%TO.N,/PPort_13*%
X129783400Y-52460100D03*
%TO.P,J1,14,P14*%
%TO.N,unconnected-(J1-Pad14)*%
X161638400Y-55300100D03*
%TO.P,J1,15,P15*%
%TO.N,/PPort_15*%
X158868400Y-55300100D03*
%TO.P,J1,16,P16*%
%TO.N,unconnected-(J1-Pad16)*%
X156098400Y-55300100D03*
%TO.P,J1,17,P17*%
%TO.N,unconnected-(J1-Pad17)*%
X153328400Y-55300100D03*
%TO.P,J1,18,P18*%
%TO.N,/GND*%
X150558400Y-55300100D03*
%TO.P,J1,19,P19*%
X147788400Y-55300100D03*
%TO.P,J1,20,P20*%
X145018400Y-55300100D03*
%TO.P,J1,21,P21*%
X142248400Y-55300100D03*
%TO.P,J1,22,P22*%
X139478400Y-55300100D03*
%TO.P,J1,23,P23*%
X136708400Y-55300100D03*
%TO.P,J1,24,P24*%
X133938400Y-55300100D03*
%TO.P,J1,25,P25*%
X131168400Y-55300100D03*
%TD*%
D19*
%TO.N,/A18*%
X107449100Y-123335400D03*
X107173000Y-109020700D03*
%TO.N,/A16*%
X108124200Y-122323400D03*
X107869100Y-107875700D03*
%TO.N,/A15*%
X115101400Y-122420200D03*
X106798700Y-112803800D03*
%TO.N,/A12*%
X178888100Y-78021100D03*
X109789000Y-108383600D03*
X109473800Y-123025000D03*
%TO.N,/A7*%
X123058400Y-130477400D03*
X114278900Y-130701600D03*
%TO.N,/A6*%
X113647500Y-131494900D03*
X123901500Y-131261100D03*
X163336500Y-66367700D03*
%TO.N,/A5*%
X106068800Y-63901300D03*
X124579400Y-132051300D03*
X101825600Y-68144500D03*
X127975100Y-62053900D03*
X114922900Y-57032000D03*
X109900000Y-130788800D03*
X159915700Y-62392300D03*
X100000100Y-95849800D03*
X126808400Y-56954200D03*
%TO.N,/A4*%
X114141900Y-128112200D03*
X125484100Y-127450800D03*
X156447100Y-111748300D03*
%TO.N,/A3*%
X133793000Y-76590200D03*
X114419600Y-124029900D03*
X125974300Y-123299000D03*
X142519300Y-65431700D03*
%TO.N,/A2*%
X150348000Y-66188100D03*
X113636900Y-126402500D03*
X138981200Y-110828200D03*
X127359100Y-126147700D03*
%TO.N,/A1*%
X110141600Y-122099400D03*
X118187300Y-108623500D03*
X143407700Y-79440100D03*
%TO.N,/A0*%
X119280900Y-109699200D03*
X119412500Y-73924400D03*
X113670900Y-121911300D03*
%TO.N,/AD0*%
X180889700Y-133410800D03*
X118914900Y-104671400D03*
X145309900Y-133720000D03*
X139792700Y-122778100D03*
%TO.N,/AD1*%
X110139900Y-102573000D03*
X138763800Y-122677500D03*
X145311100Y-135568700D03*
X181713800Y-136362700D03*
%TO.N,/AD2*%
X141816300Y-135774600D03*
X109339800Y-100827000D03*
X136079400Y-123100700D03*
X184474100Y-134663600D03*
%TO.N,/GND*%
X145432700Y-129833900D03*
X176555400Y-145411000D03*
X117533900Y-145418800D03*
X128591400Y-32540000D03*
X171464400Y-32593100D03*
X140111500Y-132645900D03*
X170153700Y-145486300D03*
X119883900Y-36570900D03*
X126631800Y-142496800D03*
X128637400Y-145414000D03*
X176509400Y-32517300D03*
X158115900Y-42257000D03*
X119497500Y-32641700D03*
%TO.N,/AD3*%
X183549000Y-136141600D03*
X134057400Y-125173300D03*
X139491900Y-136602900D03*
X107889500Y-93532000D03*
%TO.N,/AD4*%
X107439400Y-101411100D03*
X131270000Y-123121600D03*
X178629700Y-138147900D03*
X137579400Y-141203300D03*
%TO.N,/AD5*%
X178128600Y-140095800D03*
X136712300Y-140655900D03*
X101267300Y-93799400D03*
X131912800Y-132836200D03*
%TO.N,/AD6*%
X151814000Y-135785300D03*
X135579400Y-136190100D03*
X132998800Y-133337000D03*
X174919900Y-135751200D03*
X100301700Y-97519800D03*
X151831000Y-144658800D03*
%TO.N,/AD7*%
X98991800Y-97859600D03*
X151332400Y-143530900D03*
X99170800Y-75705300D03*
X174930200Y-139498200D03*
X132838300Y-134356500D03*
%TO.N,/Chip_Enable*%
X107311000Y-100030200D03*
X110974800Y-117756300D03*
%TO.N,/A10*%
X98307200Y-112494700D03*
X98562300Y-101859000D03*
%TO.N,/Output_Enable*%
X107439400Y-98622700D03*
X106223800Y-122509900D03*
X105351200Y-107639100D03*
%TO.N,/A11*%
X103141700Y-107637100D03*
X117694400Y-127019300D03*
X104113100Y-125555500D03*
X164854300Y-109571300D03*
%TO.N,/A9*%
X98521500Y-108538200D03*
X105113300Y-125803000D03*
X117829700Y-125552200D03*
X98692900Y-103426400D03*
%TO.N,/A8*%
X117426300Y-123837300D03*
X105302800Y-124802800D03*
X102224200Y-106082900D03*
%TO.N,/A13*%
X107005900Y-128599500D03*
X178661600Y-90191000D03*
X117039600Y-130286600D03*
%TO.N,/A14*%
X105480500Y-128283300D03*
X102262000Y-108608700D03*
X116558200Y-131461900D03*
%TO.N,/A17*%
X98736100Y-116693500D03*
X104288700Y-104126000D03*
X117249000Y-137949500D03*
X102782100Y-137733400D03*
%TO.N,/{slash}write*%
X105424400Y-132496800D03*
X108970700Y-113956200D03*
X130652900Y-85504200D03*
X123325900Y-90128700D03*
X101443400Y-115151500D03*
X127579400Y-135424000D03*
%TO.N,/VCC*%
X141811000Y-130098000D03*
X139927800Y-141541900D03*
X114929600Y-55935200D03*
X190439600Y-78090800D03*
X125836700Y-133020200D03*
X188243000Y-91109200D03*
X136091100Y-145355600D03*
X107889500Y-91423800D03*
X156636300Y-32550200D03*
X159741400Y-35098900D03*
X139319000Y-45094300D03*
X156373400Y-145414100D03*
X109339800Y-101827200D03*
X190960000Y-60305100D03*
X157751400Y-109032900D03*
X164873700Y-52300500D03*
X136152400Y-32624000D03*
%TO.N,/AD8*%
X131309900Y-125194200D03*
X157324100Y-56505800D03*
X114727100Y-121080300D03*
X130551300Y-115809600D03*
%TO.N,/AD9*%
X130674600Y-124390700D03*
X151613200Y-34521900D03*
X112735200Y-119766700D03*
X133081300Y-49671600D03*
X132358600Y-118484100D03*
%TO.N,/AD10*%
X129622900Y-125682500D03*
X133808000Y-110439000D03*
X108833900Y-125529700D03*
%TO.N,/AD11*%
X129579400Y-137152400D03*
X100586500Y-118173700D03*
%TO.N,/AD12*%
X99347000Y-119186200D03*
X121742600Y-140389700D03*
X132509400Y-65259100D03*
X95557600Y-139094300D03*
X114930300Y-50127200D03*
X131352800Y-33704700D03*
%TO.N,/AD13*%
X101297500Y-119562600D03*
X125358200Y-136403300D03*
X127015500Y-64531400D03*
%TO.N,/AD14*%
X99581100Y-121201900D03*
X97525000Y-135324200D03*
X124753700Y-64478500D03*
X124099100Y-141231100D03*
%TO.N,/AD15*%
X106059100Y-60377600D03*
X124885800Y-63478300D03*
X99184800Y-120186400D03*
X123579400Y-137188700D03*
%TO.N,/{slash}read_bottom*%
X130269800Y-123390500D03*
X127292200Y-116851200D03*
%TO.N,/{slash}COLD_RESET*%
X152916600Y-129141000D03*
X191657000Y-45996600D03*
X149750800Y-87650900D03*
X190572800Y-89416100D03*
X192522300Y-85369600D03*
X190722000Y-87615800D03*
X163028600Y-132239600D03*
X165211000Y-36883200D03*
X151580500Y-103558400D03*
X133311000Y-136653400D03*
X186208600Y-93143900D03*
X176075300Y-93293700D03*
X187328100Y-91608800D03*
X173275400Y-93293700D03*
%TO.N,/ALE_L*%
X128597600Y-38095200D03*
X128634600Y-117879700D03*
X129600300Y-122645500D03*
X138083400Y-142113800D03*
%TO.N,/ALE_H*%
X139883700Y-142542100D03*
X127027500Y-111871200D03*
X133806400Y-124173100D03*
X125575700Y-45646700D03*
%TO.N,/Button*%
X145676400Y-131904500D03*
X150809800Y-88850600D03*
X154524400Y-119462100D03*
%TO.N,/PPort_2*%
X186785200Y-80841000D03*
X192676500Y-59266600D03*
%TO.N,/PPort_3*%
X150973200Y-81310000D03*
X151108700Y-75663000D03*
X184565900Y-73143400D03*
X187007000Y-54433100D03*
%TO.N,/PPort_4*%
X155169800Y-81930400D03*
%TO.N,/PPort_6*%
X153415200Y-115437900D03*
X177383600Y-110490000D03*
%TO.N,/PIC.GP4*%
X144586000Y-95068700D03*
%TO.N,/PIC.GP5*%
X143144600Y-96075800D03*
%TO.N,/Pin_33*%
X140503900Y-101551800D03*
%TO.N,/Pin_34*%
X139721600Y-102491100D03*
%TO.N,/74HC164_DSA_DSB*%
X185855200Y-88825900D03*
X138240800Y-98288100D03*
%TO.N,/74HC164_CP*%
X137280200Y-99222300D03*
X184662600Y-91477700D03*
%TO.N,/74HC04*%
X156397000Y-126479300D03*
X179828500Y-130406400D03*
X135828700Y-96849300D03*
%TO.N,/Pin_39*%
X135094000Y-103331300D03*
%TO.N,/{slash}read_top*%
X144758600Y-47249900D03*
X140119900Y-47249900D03*
%TO.N,/Pin_42*%
X131680500Y-105107000D03*
%TO.N,/F*%
X173056100Y-99159400D03*
%TO.N,/D*%
X171316400Y-110755000D03*
X177594400Y-105805600D03*
%TO.N,/DP*%
X178304500Y-94202100D03*
%TO.N,/PPort_10*%
X188619900Y-119464500D03*
%TO.N,/PPort_11*%
X187699500Y-131241500D03*
%TO.N,/PPort_12*%
X191696800Y-106734000D03*
%TO.N,/PPort_13*%
X193922600Y-104106800D03*
X131210800Y-57232900D03*
%TO.N,/PPort_15*%
X183061200Y-117603800D03*
%TO.N,/12V_Rear*%
X148046300Y-32532800D03*
X189826600Y-79854700D03*
X150362900Y-140126500D03*
X150362900Y-133843600D03*
X189826600Y-45985900D03*
X167597200Y-133834800D03*
X167369200Y-110583600D03*
X153524300Y-45985900D03*
%TO.N,/UNUSED_Rear*%
X156671700Y-43051600D03*
X188201300Y-73733800D03*
X158946200Y-97539100D03*
X188201300Y-43334600D03*
X158709800Y-139568100D03*
X178865800Y-81344000D03*
X150379800Y-32560200D03*
X177822300Y-89387200D03*
%TO.N,/CIC_DATA2*%
X160734400Y-144150700D03*
X160973900Y-99535800D03*
X168000100Y-99535800D03*
X191734000Y-50561800D03*
%TO.N,/Unknown_1*%
X161899200Y-141914700D03*
X160746400Y-36736800D03*
%TO.N,/{slash}OS EVENT*%
X194126700Y-49147800D03*
X172948500Y-139948300D03*
X192522300Y-87626200D03*
X172927200Y-109533000D03*
%TO.N,/Unknown_2*%
X166589000Y-33453900D03*
X183996400Y-78091200D03*
X167684200Y-63916400D03*
X183766200Y-64263700D03*
X172202100Y-141388000D03*
X172202100Y-106857000D03*
%TO.N,/RAUDIO*%
X173329400Y-32659400D03*
X172618800Y-145265600D03*
%TO.N,/12V_Front*%
X149068300Y-134878100D03*
X146345900Y-142325000D03*
X153007400Y-47395700D03*
X196100600Y-47395700D03*
X195803000Y-121941900D03*
X149068300Y-139692900D03*
%TO.N,/UNUSED_Front*%
X178116500Y-86458900D03*
X183831100Y-79160300D03*
X148816400Y-144192300D03*
X159974500Y-97545200D03*
X187473600Y-44422600D03*
X155880600Y-44422600D03*
X157709600Y-139755900D03*
X176015900Y-91646400D03*
%TO.N,/Q2*%
X182971000Y-99074100D03*
X193007200Y-98554000D03*
%TD*%
D20*
%TO.N,/A18*%
X104463700Y-89685500D02*
X104463700Y-103275600D01*
X107523800Y-113104200D02*
X107523800Y-109371500D01*
X107399000Y-123285300D02*
X107399000Y-122023000D01*
X107210500Y-113417500D02*
X107523800Y-113104200D01*
X107399000Y-122023000D02*
X107210500Y-121834500D01*
X106960900Y-105772800D02*
X106960900Y-108808600D01*
X107523800Y-109371500D02*
X107173000Y-109020700D01*
X111650700Y-85152100D02*
X108997100Y-85152100D01*
X104463700Y-103275600D02*
X106960900Y-105772800D01*
X107210500Y-121834500D02*
X107210500Y-113417500D01*
X106960900Y-108808600D02*
X107173000Y-109020700D01*
X107449100Y-123335400D02*
X107399000Y-123285300D01*
X111650700Y-83977000D02*
X111650700Y-85152100D01*
X108997100Y-85152100D02*
X104463700Y-89685500D01*
%TO.N,/A16*%
X112825211Y-84629989D02*
X112825211Y-83490501D01*
X108298200Y-86489500D02*
X110965700Y-86489500D01*
X110965700Y-86489500D02*
X112825211Y-84629989D01*
X107745211Y-82802489D02*
X106570700Y-83977000D01*
X107973900Y-113290700D02*
X107973900Y-107980500D01*
X108124200Y-122323400D02*
X108124200Y-122111600D01*
X107690300Y-113574300D02*
X107973900Y-113290700D01*
X107869000Y-107875700D02*
X107869000Y-106044200D01*
X107869000Y-106044200D02*
X104913800Y-103089000D01*
X107973900Y-107980500D02*
X107869100Y-107875700D01*
X107869100Y-107875700D02*
X107869000Y-107875700D01*
X104913800Y-89873900D02*
X108298200Y-86489500D01*
X108124200Y-122111600D02*
X107690300Y-121677700D01*
X104913800Y-103089000D02*
X104913800Y-89873900D01*
X112137199Y-82802489D02*
X107745211Y-82802489D01*
X107690300Y-121677700D02*
X107690300Y-113574300D01*
X112825211Y-83490501D02*
X112137199Y-82802489D01*
%TO.N,/A15*%
X106657100Y-123102100D02*
X106948900Y-122810300D01*
X108314600Y-123750100D02*
X107966100Y-124098600D01*
X106447800Y-109468900D02*
X106727900Y-109749000D01*
X115101400Y-122420200D02*
X114187600Y-122420200D01*
X185879100Y-69350100D02*
X187419600Y-70890600D01*
X177251100Y-77787400D02*
X106239000Y-77787400D01*
X185264000Y-74795800D02*
X180242700Y-74795800D01*
X106239000Y-77787400D02*
X103563500Y-80462900D01*
X103563500Y-80462900D02*
X103563500Y-104568300D01*
X106657100Y-123569100D02*
X106657100Y-123102100D01*
X185315700Y-69350100D02*
X185879100Y-69350100D01*
X180242700Y-74795800D02*
X177251100Y-77787400D01*
X106727900Y-121988500D02*
X106727900Y-112803800D01*
X103563500Y-104568300D02*
X106447800Y-107452600D01*
X107966100Y-124098600D02*
X107186600Y-124098600D01*
X187419600Y-72640200D02*
X185264000Y-74795800D01*
X112857700Y-123750100D02*
X108314600Y-123750100D01*
X114187600Y-122420200D02*
X112857700Y-123750100D01*
X187419600Y-70890600D02*
X187419600Y-72640200D01*
X106948900Y-122810300D02*
X106948900Y-122209500D01*
X106948900Y-122209500D02*
X106727900Y-121988500D01*
X106727900Y-109749000D02*
X106727900Y-112803800D01*
X107186600Y-124098600D02*
X106657100Y-123569100D01*
X106727900Y-112803800D02*
X106798700Y-112803800D01*
X185315700Y-68175000D02*
X185315700Y-69350100D01*
X106447800Y-107452600D02*
X106447800Y-109468900D01*
%TO.N,/A12*%
X115381900Y-83479500D02*
X113810700Y-81908300D01*
X178671700Y-78237500D02*
X178888100Y-78021100D01*
X108198100Y-114219100D02*
X108198100Y-113703100D01*
X109358500Y-115379500D02*
X108198100Y-114219100D01*
X115381900Y-84454200D02*
X115381900Y-83479500D01*
X105363900Y-102902500D02*
X105363900Y-90130400D01*
X109789000Y-107327600D02*
X105363900Y-102902500D01*
X113810700Y-81908300D02*
X105935100Y-81908300D01*
X112896500Y-86939600D02*
X115381900Y-84454200D01*
X109789000Y-108383600D02*
X109789000Y-107327600D01*
X109789000Y-112112200D02*
X109789000Y-108383600D01*
X109358500Y-122909700D02*
X109358500Y-115379500D01*
X106503600Y-78237500D02*
X178671700Y-78237500D01*
X105392200Y-81365400D02*
X105392200Y-79348900D01*
X108198100Y-113703100D02*
X109789000Y-112112200D01*
X105363900Y-90130400D02*
X108554700Y-86939600D01*
X105935100Y-81908300D02*
X105392200Y-81365400D01*
X108554700Y-86939600D02*
X112896500Y-86939600D01*
X109473800Y-123025000D02*
X109358500Y-122909700D01*
X105392200Y-79348900D02*
X106503600Y-78237500D01*
%TO.N,/A7*%
X121321700Y-132214100D02*
X115791400Y-132214100D01*
X181795800Y-98587300D02*
X182484300Y-97898800D01*
X185489600Y-65987100D02*
X167183600Y-65987100D01*
X137193400Y-130477400D02*
X143216100Y-124454700D01*
X123058400Y-130477400D02*
X121321700Y-132214100D01*
X193697600Y-89721700D02*
X193697600Y-74195100D01*
X149223200Y-117889700D02*
X153300400Y-113812500D01*
X171249700Y-113812500D02*
X181795800Y-103266400D01*
X123058400Y-130477400D02*
X137193400Y-130477400D01*
X153300400Y-113812500D02*
X171249700Y-113812500D01*
X143217100Y-124454700D02*
X149223200Y-118448600D01*
X149223200Y-118448600D02*
X149223200Y-117889700D01*
X143216100Y-124454700D02*
X143217100Y-124454700D01*
X167183600Y-65987100D02*
X164995700Y-68175000D01*
X182484300Y-97898800D02*
X185520500Y-97898800D01*
X115791400Y-132214100D02*
X114278900Y-130701600D01*
X193697600Y-74195100D02*
X185489600Y-65987100D01*
X181795800Y-103266400D02*
X181795800Y-98587300D01*
X185520500Y-97898800D02*
X193697600Y-89721700D01*
%TO.N,/A6*%
X113647500Y-131494900D02*
X114816800Y-132664200D01*
X182245900Y-98773700D02*
X182670700Y-98348900D01*
X143403600Y-124904800D02*
X149673300Y-118635100D01*
X122498400Y-132664200D02*
X123901500Y-131261100D01*
X149673300Y-118635100D02*
X149673300Y-118076200D01*
X194147700Y-74008600D02*
X185676100Y-65537000D01*
X164167200Y-65537000D02*
X163336500Y-66367700D01*
X153036800Y-114712700D02*
X170986100Y-114712700D01*
X185707000Y-98348900D02*
X194147700Y-89908200D01*
X149673300Y-118076200D02*
X153036800Y-114712700D01*
X137046300Y-131261100D02*
X143402600Y-124904800D01*
X143402600Y-124904800D02*
X143403600Y-124904800D01*
X185676100Y-65537000D02*
X164167200Y-65537000D01*
X182670700Y-98348900D02*
X185707000Y-98348900D01*
X114816800Y-132664200D02*
X122498400Y-132664200D01*
X194147700Y-89908200D02*
X194147700Y-74008600D01*
X123901500Y-131261100D02*
X137046300Y-131261100D01*
X170986100Y-114712700D02*
X182245900Y-103452900D01*
X182245900Y-103452900D02*
X182245900Y-98773700D01*
%TO.N,/A5*%
X126730600Y-57032000D02*
X114922900Y-57032000D01*
X100450300Y-95849800D02*
X101499100Y-96898600D01*
X102937900Y-125068700D02*
X102937900Y-126042300D01*
X123516400Y-133114300D02*
X124579400Y-132051300D01*
X103823000Y-121338700D02*
X103457100Y-121704600D01*
X112225500Y-133114300D02*
X123516400Y-133114300D01*
X101499100Y-112064900D02*
X103823000Y-114388800D01*
X106960600Y-130788800D02*
X109900000Y-130788800D01*
X103823000Y-114388800D02*
X103823000Y-121338700D01*
X159915700Y-62392300D02*
X159577300Y-62053900D01*
X103262500Y-126366900D02*
X103262500Y-127090700D01*
X109900000Y-130788800D02*
X112225500Y-133114300D01*
X159577300Y-62053900D02*
X127975100Y-62053900D01*
X102937900Y-126042300D02*
X103262500Y-126366900D01*
X106068800Y-63901300D02*
X101825600Y-68144500D01*
X101499100Y-96898600D02*
X101499100Y-112064900D01*
X103457100Y-124549500D02*
X102937900Y-125068700D01*
X126808400Y-56954200D02*
X126730600Y-57032000D01*
X100000100Y-95849800D02*
X100450300Y-95849800D01*
X103262500Y-127090700D02*
X106960600Y-130788800D01*
X103457100Y-121704600D02*
X103457100Y-124549500D01*
%TO.N,/A4*%
X125484100Y-127450800D02*
X124822700Y-128112200D01*
X125484100Y-127450800D02*
X138211000Y-127450800D01*
X124822700Y-128112200D02*
X114141900Y-128112200D01*
X153377100Y-111748300D02*
X156447100Y-111748300D01*
X147872900Y-117252500D02*
X153377100Y-111748300D01*
X138211000Y-127450800D02*
X147872900Y-117788900D01*
X147872900Y-117788900D02*
X147872900Y-117252500D01*
%TO.N,/A3*%
X133793000Y-76590200D02*
X106772600Y-76590200D01*
X104626000Y-108920300D02*
X105623400Y-109917700D01*
X106772600Y-76590200D02*
X103049300Y-80313500D01*
X154835700Y-68175000D02*
X153660600Y-68175000D01*
X105623400Y-122084700D02*
X105440500Y-122267600D01*
X125754100Y-123078800D02*
X115838200Y-123078800D01*
X108459000Y-124242300D02*
X114207200Y-124242300D01*
X105440500Y-122267600D02*
X105440500Y-123000100D01*
X125974300Y-123299000D02*
X125754100Y-123078800D01*
X105623400Y-109917700D02*
X105623400Y-122084700D01*
X103049300Y-80313500D02*
X103049300Y-105192800D01*
X107019500Y-124579100D02*
X108122200Y-124579100D01*
X115838200Y-123078800D02*
X114887100Y-124029900D01*
X103049300Y-105192800D02*
X104626000Y-106769500D01*
X114207200Y-124242300D02*
X114419600Y-124029900D01*
X108122200Y-124579100D02*
X108459000Y-124242300D01*
X142519300Y-65431700D02*
X151404300Y-65431700D01*
X114887100Y-124029900D02*
X114419600Y-124029900D01*
X104626000Y-106769500D02*
X104626000Y-108920300D01*
X105440500Y-123000100D02*
X107019500Y-124579100D01*
X151404300Y-65431700D02*
X153660600Y-67688000D01*
X153660600Y-67688000D02*
X153660600Y-68175000D01*
%TO.N,/A2*%
X152295700Y-68175000D02*
X152295700Y-66999900D01*
X120498200Y-126292900D02*
X113746500Y-126292900D01*
X141054300Y-123209500D02*
X141054300Y-112901300D01*
X137856100Y-126407700D02*
X141054300Y-123209500D01*
X127544900Y-126407700D02*
X137856100Y-126407700D01*
X150348000Y-66188100D02*
X151159800Y-66999900D01*
X120569200Y-126221900D02*
X120498200Y-126292900D01*
X151159800Y-66999900D02*
X152295700Y-66999900D01*
X127359100Y-126221900D02*
X120569200Y-126221900D01*
X127359100Y-126147700D02*
X127359100Y-126221900D01*
X127359100Y-126221900D02*
X127544900Y-126407700D01*
X141054300Y-112901300D02*
X138981200Y-110828200D01*
X113746500Y-126292900D02*
X113636900Y-126402500D01*
%TO.N,/A1*%
X116479500Y-110331300D02*
X118187300Y-108623500D01*
X120540700Y-83493400D02*
X122165000Y-81869100D01*
X142306100Y-81869100D02*
X143407700Y-80767500D01*
X113689700Y-110331300D02*
X113689700Y-109955100D01*
X109018800Y-87839800D02*
X117083400Y-87839800D01*
X113689700Y-109955100D02*
X106264100Y-102529500D01*
X117083400Y-87839800D02*
X120540700Y-84382500D01*
X143407700Y-80767500D02*
X143407700Y-79440100D01*
X113689700Y-110331300D02*
X116479500Y-110331300D01*
X106264100Y-102529500D02*
X106264100Y-90594500D01*
X106264100Y-90594500D02*
X109018800Y-87839800D01*
X122165000Y-81869100D02*
X142306100Y-81869100D01*
X110141600Y-113879400D02*
X113689700Y-110331300D01*
X110141600Y-122099400D02*
X110141600Y-113879400D01*
X120540700Y-84382500D02*
X120540700Y-83493400D01*
%TO.N,/A0*%
X113670900Y-121911300D02*
X113318100Y-121911300D01*
X119412500Y-73924400D02*
X144192900Y-73924400D01*
X112005600Y-116974500D02*
X119280900Y-109699200D01*
X145947700Y-70618100D02*
X147215700Y-69350100D01*
X112005600Y-120598800D02*
X112005600Y-116974500D01*
X147215700Y-68175000D02*
X147215700Y-69350100D01*
X144192900Y-73924400D02*
X145947700Y-72169600D01*
X113318100Y-121911300D02*
X112005600Y-120598800D01*
X145947700Y-72169600D02*
X145947700Y-70618100D01*
%TO.N,/AD0*%
X139792700Y-121453400D02*
X127777100Y-109437800D01*
X144952600Y-134077300D02*
X136662200Y-134077300D01*
X106575700Y-66999900D02*
X106794000Y-66781600D01*
X180889700Y-133410800D02*
X180588600Y-133109700D01*
X106794000Y-46462900D02*
X121026400Y-32230500D01*
X121072400Y-150520400D02*
X121072400Y-145695300D01*
X134849700Y-135889800D02*
X134849700Y-136206100D01*
X121026400Y-28780400D02*
X121026400Y-32230500D01*
X136662200Y-134077300D02*
X134849700Y-135889800D01*
X122699000Y-144068700D02*
X121072400Y-145695300D01*
X119365300Y-104671400D02*
X118914900Y-104671400D01*
X127777100Y-109437800D02*
X124131700Y-109437800D01*
X124131700Y-109437800D02*
X119365300Y-104671400D01*
X139792700Y-122778100D02*
X139792700Y-121453400D01*
X145920200Y-133109700D02*
X145309900Y-133720000D01*
X145309900Y-133720000D02*
X144952600Y-134077300D01*
X106575700Y-68175000D02*
X106575700Y-66999900D01*
X126987100Y-144068700D02*
X122699000Y-144068700D01*
X106794000Y-66781600D02*
X106794000Y-46462900D01*
X180588600Y-133109700D02*
X145920200Y-133109700D01*
X134849700Y-136206100D02*
X126987100Y-144068700D01*
%TO.N,/AD1*%
X119320800Y-105396500D02*
X112963400Y-105396500D01*
X138763700Y-122677500D02*
X138763700Y-121061000D01*
X135131600Y-136915200D02*
X135968600Y-136915200D01*
X109115700Y-45632100D02*
X122517300Y-32230500D01*
X124170200Y-110245900D02*
X119320800Y-105396500D01*
X109115700Y-68175000D02*
X109115700Y-45632100D01*
X144719900Y-134977500D02*
X145311100Y-135568700D01*
X123599400Y-145689300D02*
X124769800Y-144518900D01*
X138763800Y-122677500D02*
X138763700Y-122677500D01*
X112963400Y-105396500D02*
X110139900Y-102573000D01*
X123599400Y-150514400D02*
X123599400Y-145689300D01*
X127948600Y-110245900D02*
X124170200Y-110245900D01*
X138763700Y-121061000D02*
X127948600Y-110245900D01*
X122517300Y-32230500D02*
X123553400Y-32230500D01*
X124769800Y-144518900D02*
X127527900Y-144518900D01*
X181554100Y-136522400D02*
X181713800Y-136362700D01*
X137906300Y-134977500D02*
X144719900Y-134977500D01*
X127527900Y-144518900D02*
X135131600Y-136915200D01*
X123553400Y-28780400D02*
X123553400Y-32230500D01*
X146264800Y-136522400D02*
X181554100Y-136522400D01*
X145311100Y-135568700D02*
X146264800Y-136522400D01*
X135968600Y-136915200D02*
X137906300Y-134977500D01*
%TO.N,/AD2*%
X183978400Y-134663600D02*
X184474100Y-134663600D01*
X181413500Y-137087800D02*
X182014200Y-137087800D01*
X143014300Y-136972600D02*
X181298300Y-136972600D01*
X111655700Y-43744800D02*
X120206900Y-35193600D01*
X109205300Y-100827000D02*
X109339800Y-100827000D01*
X181298300Y-136972600D02*
X181413500Y-137087800D01*
X126118400Y-145703300D02*
X126997300Y-145703300D01*
X126118400Y-150528400D02*
X126118400Y-145703300D01*
X123983700Y-110696000D02*
X119134300Y-105846600D01*
X120206900Y-35193600D02*
X123109300Y-35193600D01*
X119134300Y-105846600D02*
X112258900Y-105846600D01*
X123109300Y-35193600D02*
X126072400Y-32230500D01*
X182014200Y-137087800D02*
X182539200Y-136562800D01*
X141816300Y-135774600D02*
X143014300Y-136972600D01*
X137745900Y-135774600D02*
X141816300Y-135774600D01*
X136155200Y-137365300D02*
X137745900Y-135774600D01*
X108614600Y-102202300D02*
X108614600Y-101417700D01*
X182539200Y-136102800D02*
X183978400Y-134663600D01*
X136079400Y-123100700D02*
X136079400Y-119013300D01*
X127762100Y-110696000D02*
X123983700Y-110696000D01*
X112258900Y-105846600D02*
X108614600Y-102202300D01*
X182539200Y-136562800D02*
X182539200Y-136102800D01*
X126072400Y-28780400D02*
X126072400Y-32230500D01*
X111655700Y-68175000D02*
X111655700Y-43744800D01*
X136079400Y-119013300D02*
X127762100Y-110696000D01*
X108614600Y-101417700D02*
X109205300Y-100827000D01*
X126997300Y-145703300D02*
X135335300Y-137365300D01*
X135335300Y-137365300D02*
X136155200Y-137365300D01*
D21*
%TO.N,/GND*%
X118501400Y-28780400D02*
X118501400Y-32405500D01*
X111657700Y-71774000D02*
X109117700Y-71774000D01*
X154837700Y-71774000D02*
X152297700Y-71774000D01*
X171464400Y-33583100D02*
X170417500Y-34630000D01*
X157377700Y-80375000D02*
X154837700Y-80375000D01*
X128591400Y-28780400D02*
X128591400Y-32405500D01*
X157377700Y-71774000D02*
X154837700Y-71774000D01*
X128591400Y-32540000D02*
X124560500Y-36570900D01*
X142248400Y-55300100D02*
X145018400Y-55300100D01*
X171464400Y-32593100D02*
X171464400Y-32405500D01*
X116737700Y-80375000D02*
X114197700Y-80375000D01*
X182777700Y-80375000D02*
X180237700Y-80375000D01*
X162457700Y-80375000D02*
X159917700Y-80375000D01*
X176555400Y-145430400D02*
X176555400Y-150528400D01*
X109117700Y-80375000D02*
X106577700Y-80375000D01*
X185317700Y-71774000D02*
X182777700Y-71774000D01*
X172246000Y-144365500D02*
X171510400Y-145101100D01*
X135889700Y-132748600D02*
X126631800Y-142006500D01*
X162457700Y-80375000D02*
X164997700Y-80375000D01*
X154837700Y-80375000D02*
X152297700Y-80375000D01*
X126897700Y-80375000D02*
X124357700Y-80375000D01*
X165742900Y-34630000D02*
X158115900Y-42257000D01*
X171464400Y-33583100D02*
X171464400Y-32593100D01*
X170417500Y-34630000D02*
X165742900Y-34630000D01*
X152297700Y-71774000D02*
X149757700Y-71774000D01*
X126631800Y-142496800D02*
X121582900Y-142496800D01*
X176536000Y-145411000D02*
X175490500Y-144365500D01*
X170077700Y-80375000D02*
X167537700Y-80375000D01*
X171510400Y-145101100D02*
X171510400Y-145470300D01*
X133938400Y-55300100D02*
X136708400Y-55300100D01*
X139597700Y-71774000D02*
X137057700Y-71774000D01*
X154694500Y-117992300D02*
X145432700Y-127254100D01*
X129437700Y-71774000D02*
X126897700Y-71774000D01*
X168980400Y-150486400D02*
X168980400Y-145486300D01*
X180237700Y-71774000D02*
X177697700Y-71774000D01*
X147788400Y-55300100D02*
X150558400Y-55300100D01*
X136708400Y-55300100D02*
X139478400Y-55300100D01*
X142620700Y-132645900D02*
X140111500Y-132645900D01*
X188788800Y-109695900D02*
X180492400Y-117992300D01*
X176509400Y-28780400D02*
X176509400Y-31440700D01*
X159917700Y-71774000D02*
X157377700Y-71774000D01*
X170077700Y-71774000D02*
X167537700Y-71774000D01*
X128637400Y-150514400D02*
X128637400Y-145514300D01*
X119277700Y-71774000D02*
X116737700Y-71774000D01*
X118547400Y-145532300D02*
X117554800Y-145532300D01*
X117554800Y-145532300D02*
X116029400Y-147057700D01*
X167537700Y-71774000D02*
X164997700Y-71774000D01*
X134517700Y-71774000D02*
X131977700Y-71774000D01*
X145432700Y-129833900D02*
X142620700Y-132645900D01*
X172617700Y-80375000D02*
X170077700Y-80375000D01*
X170169700Y-145470300D02*
X171510400Y-145470300D01*
X171510400Y-150470400D02*
X171510400Y-145470300D01*
X114197700Y-71774000D02*
X111657700Y-71774000D01*
X129437700Y-80375000D02*
X126897700Y-80375000D01*
X131168400Y-55300100D02*
X133938400Y-55300100D01*
X124357700Y-80375000D02*
X121817700Y-80375000D01*
X137057700Y-71774000D02*
X134517700Y-71774000D01*
X131977700Y-80375000D02*
X129437700Y-80375000D01*
X126631800Y-142006500D02*
X126631800Y-142496800D01*
X139597700Y-80375000D02*
X137057700Y-80375000D01*
X121817700Y-71774000D02*
X119277700Y-71774000D01*
X116737700Y-71774000D02*
X114197700Y-71774000D01*
X164997700Y-71774000D02*
X162457700Y-71774000D01*
X176536000Y-145411000D02*
X176555400Y-145411000D01*
X121817700Y-80375000D02*
X119277700Y-80375000D01*
X185317700Y-80375000D02*
X182777700Y-80375000D01*
X109117700Y-71774000D02*
X106577700Y-71774000D01*
X117554800Y-145532300D02*
X117554800Y-145439700D01*
X140008800Y-132748600D02*
X135889700Y-132748600D01*
X142137700Y-80375000D02*
X139597700Y-80375000D01*
X111657700Y-80375000D02*
X109117700Y-80375000D01*
X116029400Y-150518400D02*
X116029400Y-148018300D01*
X175157700Y-71774000D02*
X172617700Y-71774000D01*
X119277700Y-80375000D02*
X116737700Y-80375000D01*
X170153700Y-145486300D02*
X170169700Y-145470300D01*
X172617700Y-71774000D02*
X170077700Y-71774000D01*
X159917700Y-80375000D02*
X157377700Y-80375000D01*
X124560500Y-36570900D02*
X119883900Y-36570900D01*
X116029400Y-147057700D02*
X116029400Y-148018300D01*
X124357700Y-71774000D02*
X121817700Y-71774000D01*
X180492400Y-117992300D02*
X154694500Y-117992300D01*
X145432700Y-127254100D02*
X145432700Y-129833900D01*
X147217700Y-80375000D02*
X149757700Y-80375000D01*
X121582900Y-142496800D02*
X118547400Y-145532300D01*
X175490500Y-144365500D02*
X172246000Y-144365500D01*
X144677700Y-71774000D02*
X142137700Y-71774000D01*
X128637400Y-145514300D02*
X128637400Y-145414000D01*
X145018400Y-55300100D02*
X147788400Y-55300100D01*
X131977700Y-80375000D02*
X134517700Y-80375000D01*
X177697700Y-71774000D02*
X175157700Y-71774000D01*
X182777700Y-71774000D02*
X180237700Y-71774000D01*
X176509400Y-32517300D02*
X176509400Y-31440700D01*
X176536000Y-145411000D02*
X176555400Y-145430400D01*
X171464400Y-28780400D02*
X168934400Y-28780400D01*
X117554800Y-145439700D02*
X117533900Y-145418800D01*
X142137700Y-71774000D02*
X139597700Y-71774000D01*
X171464400Y-28780400D02*
X171464400Y-32405500D01*
X190083900Y-109695900D02*
X188788800Y-109695900D01*
X134517700Y-80375000D02*
X137057700Y-80375000D01*
X119261300Y-32405500D02*
X119497500Y-32641700D01*
X131977700Y-71774000D02*
X129437700Y-71774000D01*
X139478400Y-55300100D02*
X142248400Y-55300100D01*
X114197700Y-80375000D02*
X111657700Y-80375000D01*
X164997700Y-80375000D02*
X167537700Y-80375000D01*
X168980400Y-145486300D02*
X170153700Y-145486300D01*
X126897700Y-71774000D02*
X124357700Y-71774000D01*
X128591400Y-32405500D02*
X128591400Y-32540000D01*
X176509400Y-32517300D02*
X175443600Y-33583100D01*
X118501400Y-32405500D02*
X119261300Y-32405500D01*
X149757700Y-80375000D02*
X152297700Y-80375000D01*
X175157700Y-80375000D02*
X172617700Y-80375000D01*
X118547400Y-150532400D02*
X118547400Y-145532300D01*
X177697700Y-80375000D02*
X175157700Y-80375000D01*
X118501400Y-28780400D02*
X115983400Y-28780400D01*
X140111500Y-132645900D02*
X140008800Y-132748600D01*
X175443600Y-33583100D02*
X171464400Y-33583100D01*
X162457700Y-71774000D02*
X159917700Y-71774000D01*
D20*
%TO.N,/AD3*%
X134538900Y-124691800D02*
X134538900Y-118109400D01*
X108164500Y-93807000D02*
X107889500Y-93532000D01*
X131114400Y-32230500D02*
X114195700Y-49149200D01*
X182200700Y-137537900D02*
X183549000Y-136189600D01*
X134057400Y-125173300D02*
X134538900Y-124691800D01*
X181227000Y-137537900D02*
X182200700Y-137537900D01*
X134538900Y-118109400D02*
X127575600Y-111146100D01*
X139491900Y-137178300D02*
X138488100Y-137178300D01*
X108164500Y-102412700D02*
X108164500Y-93807000D01*
X183549000Y-136189600D02*
X183549000Y-136141600D01*
X114195700Y-49149200D02*
X114195700Y-66999900D01*
X112056800Y-106305000D02*
X108164500Y-102412700D01*
X131114400Y-28780400D02*
X131114400Y-32230500D01*
X181111800Y-137422700D02*
X181227000Y-137537900D01*
X114195700Y-68175000D02*
X114195700Y-66999900D01*
X127575600Y-111146100D02*
X123664000Y-111146100D01*
X139736300Y-137422700D02*
X181111800Y-137422700D01*
X118822900Y-106305000D02*
X112056800Y-106305000D01*
X131160400Y-144506000D02*
X131160400Y-150503400D01*
X139491900Y-137178300D02*
X139491900Y-136602900D01*
X138488100Y-137178300D02*
X131160400Y-144506000D01*
X123664000Y-111146100D02*
X118822900Y-106305000D01*
X139491900Y-137178300D02*
X139736300Y-137422700D01*
%TO.N,/AD4*%
X127567300Y-57224800D02*
X127567300Y-46449400D01*
X111999300Y-106991500D02*
X118772000Y-106991500D01*
X140228100Y-140816700D02*
X137966000Y-140816700D01*
X137966000Y-140816700D02*
X137579400Y-141203300D01*
X137357800Y-141424900D02*
X136414600Y-141424900D01*
X141251400Y-150508400D02*
X141251400Y-145683300D01*
X135937300Y-140947600D02*
X135937300Y-140396300D01*
X117792200Y-66999900D02*
X127567300Y-57224800D01*
X127567300Y-46449400D02*
X141205400Y-32811300D01*
X141251400Y-141840000D02*
X140228100Y-140816700D01*
X116735700Y-68175000D02*
X116735700Y-66999900D01*
X131270000Y-119489500D02*
X131270000Y-123121600D01*
X107439400Y-101411100D02*
X107439400Y-102431600D01*
X141251400Y-145683300D02*
X141251400Y-141840000D01*
X136414600Y-141424900D02*
X135937300Y-140947600D01*
X141205400Y-32811300D02*
X141205400Y-28780400D01*
X135937300Y-140396300D02*
X138185700Y-138147900D01*
X118772000Y-106991500D02*
X131270000Y-119489500D01*
X116735700Y-66999900D02*
X117792200Y-66999900D01*
X138185700Y-138147900D02*
X178629700Y-138147900D01*
X107439400Y-102431600D02*
X111999300Y-106991500D01*
X137579400Y-141203300D02*
X137357800Y-141424900D01*
%TO.N,/AD5*%
X128218800Y-48131600D02*
X143726400Y-32624000D01*
X143772400Y-145675300D02*
X143772400Y-143724400D01*
X128218800Y-57209900D02*
X128218800Y-48131600D01*
X102487800Y-126228800D02*
X102812400Y-126553400D01*
X143772400Y-143724400D02*
X140414600Y-140366600D01*
X101267300Y-93799400D02*
X100959600Y-93799400D01*
X140414600Y-140366600D02*
X137001600Y-140366600D01*
X102812400Y-127277100D02*
X109284100Y-133748800D01*
X119275700Y-68175000D02*
X119275700Y-66153000D01*
X126224200Y-133748800D02*
X127136800Y-132836200D01*
X102812400Y-126553400D02*
X102812400Y-127277100D01*
X143726400Y-32624000D02*
X143726400Y-28780400D01*
X148745300Y-138751500D02*
X176784300Y-138751500D01*
X102487800Y-124882200D02*
X102487800Y-126228800D01*
X101049000Y-112251400D02*
X102896700Y-114099100D01*
X109284100Y-133748800D02*
X126224200Y-133748800D01*
X100484500Y-96598900D02*
X101049000Y-97163400D01*
X101049000Y-97163400D02*
X101049000Y-112251400D01*
X143772400Y-143724400D02*
X148745300Y-138751500D01*
X102896700Y-114099100D02*
X102896700Y-114223100D01*
X102896700Y-114223100D02*
X103288300Y-114614700D01*
X103288300Y-118618100D02*
X103372900Y-118702700D01*
X99260800Y-95498200D02*
X99260800Y-96169400D01*
X103372900Y-118702700D02*
X103372900Y-121152200D01*
X127136800Y-132836200D02*
X131912800Y-132836200D01*
X103372900Y-121152200D02*
X103007000Y-121518100D01*
X176784300Y-138751500D02*
X178128600Y-140095800D01*
X103007000Y-121518100D02*
X103007000Y-124363000D01*
X143772400Y-150500400D02*
X143772400Y-145675300D01*
X103288300Y-114614700D02*
X103288300Y-118618100D01*
X99260800Y-96169400D02*
X99690300Y-96598900D01*
X119275700Y-66153000D02*
X128218800Y-57209900D01*
X103007000Y-124363000D02*
X102487800Y-124882200D01*
X137001600Y-140366600D02*
X136712300Y-140655900D01*
X100959600Y-93799400D02*
X99260800Y-95498200D01*
X99690300Y-96598900D02*
X100484500Y-96598900D01*
%TO.N,/AD6*%
X151290400Y-32230500D02*
X151290400Y-32675100D01*
X145295300Y-134527400D02*
X137242100Y-134527400D01*
X151290400Y-32675100D02*
X142269000Y-41696500D01*
X146553200Y-135785300D02*
X145295300Y-134527400D01*
X151814000Y-135785300D02*
X146553200Y-135785300D01*
X128668900Y-57396400D02*
X121815700Y-64249600D01*
X102037700Y-126415300D02*
X102362300Y-126739900D01*
X140008900Y-41696500D02*
X130934800Y-50770600D01*
X130934800Y-50770600D02*
X130934800Y-53032200D01*
X102922800Y-118889200D02*
X102922800Y-120965700D01*
X100598900Y-97817000D02*
X100598900Y-112437900D01*
X137242100Y-134527400D02*
X135579400Y-136190100D01*
X102838200Y-114801200D02*
X102838200Y-118804600D01*
X102556900Y-124176500D02*
X102037700Y-124695700D01*
X151814000Y-135785300D02*
X174885800Y-135785300D01*
X121815700Y-64249600D02*
X121815700Y-68175000D01*
X132774500Y-133561300D02*
X132998800Y-133337000D01*
X102446600Y-114285600D02*
X102446600Y-114409600D01*
X130764900Y-134198900D02*
X131402500Y-133561300D01*
X131402500Y-133561300D02*
X132774500Y-133561300D01*
X102556900Y-121331600D02*
X102556900Y-124176500D01*
X100598900Y-112437900D02*
X102446600Y-114285600D01*
X102362300Y-127463600D02*
X109097600Y-134198900D01*
X151336400Y-150469400D02*
X151336400Y-145153400D01*
X102446600Y-114409600D02*
X102838200Y-114801200D01*
X142269000Y-41696500D02*
X140008900Y-41696500D01*
X128668900Y-55298100D02*
X128668900Y-57396400D01*
X151336400Y-145153400D02*
X151831000Y-144658800D01*
X130934800Y-53032200D02*
X128668900Y-55298100D01*
X102037700Y-124695700D02*
X102037700Y-126415300D01*
X151290400Y-28780400D02*
X151290400Y-32230500D01*
X174885800Y-135785300D02*
X174919900Y-135751200D01*
X100301700Y-97519800D02*
X100598900Y-97817000D01*
X102922800Y-120965700D02*
X102556900Y-121331600D01*
X102838200Y-118804600D02*
X102922800Y-118889200D01*
X102362300Y-126739900D02*
X102362300Y-127463600D01*
X109097600Y-134198900D02*
X130764900Y-134198900D01*
%TO.N,/AD7*%
X132545800Y-134649000D02*
X132838300Y-134356500D01*
X138301200Y-45086400D02*
X139336800Y-44050800D01*
X143109800Y-44050800D02*
X153809400Y-33351200D01*
X153809400Y-33351200D02*
X153809400Y-32230500D01*
X133381700Y-50396700D02*
X138301200Y-45477200D01*
X101587600Y-126601800D02*
X101912200Y-126926400D01*
X129119000Y-55484600D02*
X131385200Y-53218400D01*
X131385200Y-53218400D02*
X131385200Y-51994700D01*
X123515000Y-67921800D02*
X123515000Y-63186900D01*
X139336800Y-44050800D02*
X143109800Y-44050800D01*
X123768200Y-68175000D02*
X123515000Y-67921800D01*
X174654000Y-139222000D02*
X174930200Y-139498200D01*
X102388100Y-114987700D02*
X102388100Y-118991100D01*
X153809400Y-28780400D02*
X153809400Y-32230500D01*
X99170800Y-75705300D02*
X105469600Y-69406500D01*
X102388100Y-118991100D02*
X102472700Y-119075700D01*
X160263700Y-139222000D02*
X174654000Y-139222000D01*
X102106800Y-121145100D02*
X102106800Y-123990000D01*
X105469600Y-69406500D02*
X122536700Y-69406500D01*
X101912200Y-126926400D02*
X101912200Y-127650200D01*
X101587600Y-124509200D02*
X101587600Y-126601800D01*
X102106800Y-123990000D02*
X101587600Y-124509200D01*
X100148800Y-112748400D02*
X102388100Y-114987700D01*
X123515000Y-63186900D02*
X129119000Y-57582900D01*
X122536700Y-69406500D02*
X123768200Y-68175000D01*
X151756000Y-143530900D02*
X153855400Y-145630300D01*
X153855400Y-145630300D02*
X160263700Y-139222000D01*
X101912200Y-127650200D02*
X108911000Y-134649000D01*
X124355700Y-68175000D02*
X123768200Y-68175000D01*
X100148800Y-99016600D02*
X100148800Y-112748400D01*
X108911000Y-134649000D02*
X132545800Y-134649000D01*
X102472700Y-120779200D02*
X102106800Y-121145100D01*
X138301200Y-45477200D02*
X138301200Y-45086400D01*
X98991800Y-97859600D02*
X100148800Y-99016600D01*
X131385200Y-51994700D02*
X132983200Y-50396700D01*
X132983200Y-50396700D02*
X133381700Y-50396700D01*
X129119000Y-57582900D02*
X129119000Y-55484600D01*
X102472700Y-119075700D02*
X102472700Y-120779200D01*
X151332400Y-143530900D02*
X151756000Y-143530900D01*
X153855400Y-150455400D02*
X153855400Y-145630300D01*
%TO.N,/Chip_Enable*%
X118004000Y-89460100D02*
X123175600Y-84288500D01*
X118407200Y-107768700D02*
X112139900Y-107768700D01*
X123175600Y-84288500D02*
X123175600Y-83977000D01*
X106714200Y-100627000D02*
X107311000Y-100030200D01*
X112139900Y-107768700D02*
X106714200Y-102343000D01*
X118912600Y-108274100D02*
X118407200Y-107768700D01*
X110974900Y-117756300D02*
X110974900Y-116920500D01*
X106714200Y-102343000D02*
X106714200Y-100627000D01*
X118912600Y-108982800D02*
X118912600Y-108274100D01*
X107311000Y-100030200D02*
X106714200Y-99433400D01*
X108143100Y-89460100D02*
X118004000Y-89460100D01*
X106714200Y-99433400D02*
X106714200Y-90889000D01*
X106714200Y-90889000D02*
X108143100Y-89460100D01*
X124350700Y-83977000D02*
X123175600Y-83977000D01*
X110974900Y-116920500D02*
X118912600Y-108982800D01*
X110974800Y-117756300D02*
X110974900Y-117756300D01*
%TO.N,/A10*%
X145706100Y-74964900D02*
X106483000Y-74964900D01*
X172615700Y-68175000D02*
X170903800Y-66463100D01*
X170903800Y-66463100D02*
X167567100Y-66463100D01*
X97796300Y-111983800D02*
X98307200Y-112494700D01*
X164948700Y-69973500D02*
X149817400Y-69973500D01*
X148487700Y-71303200D02*
X148487700Y-72183300D01*
X98562300Y-101859000D02*
X97796300Y-102625000D01*
X97788800Y-101085500D02*
X98562300Y-101859000D01*
X97796300Y-102625000D02*
X97796300Y-111983800D01*
X166265700Y-67764500D02*
X166265700Y-68656500D01*
X106483000Y-74964900D02*
X97788800Y-83659100D01*
X166265700Y-68656500D02*
X164948700Y-69973500D01*
X167567100Y-66463100D02*
X166265700Y-67764500D01*
X148487700Y-72183300D02*
X145706100Y-74964900D01*
X149817400Y-69973500D02*
X148487700Y-71303200D01*
X97788800Y-83659100D02*
X97788800Y-101085500D01*
%TO.N,/Output_Enable*%
X105351200Y-109008900D02*
X105351200Y-107639100D01*
X107439400Y-98622700D02*
X107164300Y-98347600D01*
X106223800Y-122509900D02*
X106073500Y-122359600D01*
X125715600Y-84344200D02*
X125715600Y-83977000D01*
X108345900Y-89910200D02*
X120149600Y-89910200D01*
X107164300Y-91091800D02*
X108345900Y-89910200D01*
X106073500Y-122359600D02*
X106073500Y-109731200D01*
X126890700Y-83977000D02*
X125715600Y-83977000D01*
X120149600Y-89910200D02*
X125715600Y-84344200D01*
X106073500Y-109731200D02*
X105351200Y-109008900D01*
X107164300Y-98347600D02*
X107164300Y-91091800D01*
%TO.N,/A11*%
X126908300Y-126722300D02*
X122721100Y-126722300D01*
X122721100Y-126722300D02*
X122424100Y-127019300D01*
X127058800Y-126872800D02*
X126908300Y-126722300D01*
X105412500Y-127127600D02*
X117586100Y-127127600D01*
X163625000Y-110800600D02*
X153629800Y-110800600D01*
X153629800Y-110800600D02*
X147263600Y-117166800D01*
X117586100Y-127127600D02*
X117694400Y-127019300D01*
X138027600Y-126872800D02*
X127058800Y-126872800D01*
X147263600Y-117166800D02*
X147263600Y-117636800D01*
X104113100Y-125555500D02*
X104357300Y-125555500D01*
X103141700Y-108773400D02*
X104723200Y-110354900D01*
X104723200Y-121711700D02*
X104357300Y-122077600D01*
X164854300Y-109571300D02*
X163625000Y-110800600D01*
X147263600Y-117636800D02*
X138027600Y-126872800D01*
X104357300Y-122077600D02*
X104357300Y-125555500D01*
X103141700Y-107637100D02*
X103141700Y-108773400D01*
X104357300Y-126072400D02*
X105412500Y-127127600D01*
X104357300Y-125555500D02*
X104357300Y-126072400D01*
X122424100Y-127019300D02*
X117694400Y-127019300D01*
X104723200Y-110354900D02*
X104723200Y-121711700D01*
%TO.N,/A9*%
X109711800Y-125677300D02*
X117704600Y-125677300D01*
X184891000Y-73895600D02*
X153988800Y-73895600D01*
X172499500Y-70598800D02*
X185854600Y-70598800D01*
X99287500Y-102831800D02*
X98692900Y-103426400D01*
X186519400Y-71263600D02*
X186519400Y-72267200D01*
X186519400Y-72267200D02*
X184891000Y-73895600D01*
X98256100Y-98149300D02*
X99287500Y-99180700D01*
X135253100Y-76388200D02*
X134279900Y-75415000D01*
X106669500Y-75415000D02*
X98256100Y-83828400D01*
X134279900Y-75415000D02*
X106669500Y-75415000D01*
X105565100Y-126254800D02*
X109134300Y-126254800D01*
X98256100Y-83828400D02*
X98256100Y-98149300D01*
X98521500Y-108538200D02*
X98692900Y-108366800D01*
X99287500Y-99180700D02*
X99287500Y-102831800D01*
X117704600Y-125677300D02*
X117829700Y-125552200D01*
X151496200Y-76388200D02*
X135253100Y-76388200D01*
X109134300Y-126254800D02*
X109711800Y-125677300D01*
X170075700Y-68175000D02*
X172499500Y-70598800D01*
X105113300Y-125803000D02*
X105565100Y-126254800D01*
X98692900Y-108366800D02*
X98692900Y-103426400D01*
X185854600Y-70598800D02*
X186519400Y-71263600D01*
X153988800Y-73895600D02*
X151496200Y-76388200D01*
%TO.N,/A8*%
X169544800Y-66973800D02*
X170553200Y-66973800D01*
X114776600Y-124777100D02*
X115716400Y-123837300D01*
X105173300Y-121898200D02*
X105173300Y-110168300D01*
X171345700Y-67766300D02*
X171345700Y-68617900D01*
X170553200Y-66973800D02*
X171345700Y-67766300D01*
X104175900Y-109170900D02*
X104175900Y-107592600D01*
X171345700Y-68617900D02*
X172876500Y-70148700D01*
X105302800Y-124802800D02*
X105599200Y-125099200D01*
X108238700Y-125099200D02*
X108560800Y-124777100D01*
X186969500Y-72453700D02*
X185077500Y-74345700D01*
X104990300Y-124490300D02*
X104990300Y-122081200D01*
X161519300Y-76838300D02*
X135066600Y-76838300D01*
X105302800Y-124802800D02*
X104990300Y-124490300D01*
X167535700Y-68175000D02*
X168710800Y-68175000D01*
X102666200Y-106082900D02*
X102224200Y-106082900D01*
X135066600Y-76838300D02*
X134093400Y-75865100D01*
X104175900Y-107592600D02*
X102666200Y-106082900D01*
X186969500Y-71077100D02*
X186969500Y-72453700D01*
X186041100Y-70148700D02*
X186969500Y-71077100D01*
X115716400Y-123837300D02*
X117426300Y-123837300D01*
X105173300Y-110168300D02*
X104175900Y-109170900D01*
X104990300Y-122081200D02*
X105173300Y-121898200D01*
X106861000Y-75865100D02*
X102224200Y-80501900D01*
X134093400Y-75865100D02*
X106861000Y-75865100D01*
X102224200Y-80501900D02*
X102224200Y-106082900D01*
X108560800Y-124777100D02*
X114776600Y-124777100D01*
X168710800Y-68175000D02*
X168710800Y-67807800D01*
X168710800Y-67807800D02*
X169544800Y-66973800D01*
X185077500Y-74345700D02*
X164011900Y-74345700D01*
X164011900Y-74345700D02*
X161519300Y-76838300D01*
X105599200Y-125099200D02*
X108238700Y-125099200D01*
X172876500Y-70148700D02*
X186041100Y-70148700D01*
%TO.N,/A13*%
X174839700Y-98401600D02*
X171310400Y-101930900D01*
X169537300Y-103717100D02*
X170435900Y-104615700D01*
X171808700Y-105205900D02*
X171808700Y-106203400D01*
X163992400Y-112912300D02*
X152927400Y-112912300D01*
X175775000Y-92568600D02*
X174839700Y-93503900D01*
X168407800Y-108496900D02*
X163992400Y-112912300D01*
X117039600Y-130061400D02*
X116037700Y-129059500D01*
X152927400Y-112912300D02*
X148323000Y-117516700D01*
X171310400Y-101930900D02*
X170283400Y-101930900D01*
X137016000Y-129302100D02*
X117798900Y-129302100D01*
X171808700Y-106203400D02*
X169515200Y-108496900D01*
X148323000Y-117516700D02*
X148323000Y-117995100D01*
X174839700Y-93503900D02*
X174839700Y-98401600D01*
X148323000Y-117995100D02*
X137016000Y-129302100D01*
X107465900Y-129059500D02*
X107005900Y-128599500D01*
X169537300Y-102677000D02*
X169537300Y-103717100D01*
X117798900Y-129302100D02*
X117039600Y-130061400D01*
X176284000Y-92568600D02*
X175775000Y-92568600D01*
X170435900Y-104615700D02*
X171218500Y-104615700D01*
X170283400Y-101930900D02*
X169537300Y-102677000D01*
X116037700Y-129059500D02*
X107465900Y-129059500D01*
X171218500Y-104615700D02*
X171808700Y-105205900D01*
X169515200Y-108496900D02*
X168407800Y-108496900D01*
X117039600Y-130061400D02*
X117039600Y-130286600D01*
X178661600Y-90191000D02*
X176284000Y-92568600D01*
%TO.N,/A14*%
X181345700Y-103079900D02*
X181345700Y-98400800D01*
X118606400Y-129752300D02*
X137202400Y-129752300D01*
X185334000Y-97448700D02*
X193247500Y-89535200D01*
X103907200Y-121891100D02*
X103907200Y-124736000D01*
X182775700Y-68175000D02*
X183950800Y-68175000D01*
X148773100Y-117703200D02*
X153113900Y-113362400D01*
X185809400Y-66984500D02*
X184776000Y-66984500D01*
X183950800Y-67809700D02*
X183950800Y-68175000D01*
X103907200Y-124736000D02*
X103388000Y-125255200D01*
X103388000Y-125255200D02*
X103388000Y-125855700D01*
X153113900Y-113362400D02*
X171063200Y-113362400D01*
X114765000Y-129668600D02*
X116558200Y-131461800D01*
X193247500Y-89535200D02*
X193247500Y-74422600D01*
X148773100Y-118181600D02*
X148773100Y-117703200D01*
X105480500Y-128283300D02*
X106865800Y-129668600D01*
X105480500Y-127948200D02*
X105480500Y-128283300D01*
X104273100Y-121525200D02*
X103907200Y-121891100D01*
X102262000Y-108608700D02*
X104273100Y-110619800D01*
X116896900Y-131461800D02*
X118606400Y-129752300D01*
X106865800Y-129668600D02*
X114765000Y-129668600D01*
X103388000Y-125855700D02*
X105480500Y-127948200D01*
X171063200Y-113362400D02*
X181345700Y-103079900D01*
X184776000Y-66984500D02*
X183950800Y-67809700D01*
X181345700Y-98400800D02*
X182297800Y-97448700D01*
X116558200Y-131461900D02*
X116558200Y-131461800D01*
X116558200Y-131461800D02*
X116896900Y-131461800D01*
X182297800Y-97448700D02*
X185334000Y-97448700D01*
X137202400Y-129752300D02*
X148773100Y-118181600D01*
X193247500Y-74422600D02*
X185809400Y-66984500D01*
X104273100Y-110619800D02*
X104273100Y-121525200D01*
%TO.N,/A17*%
X98828200Y-137733400D02*
X96791400Y-135696600D01*
X104288700Y-104126000D02*
X104013600Y-103850900D01*
X102998200Y-137949500D02*
X102782100Y-137733400D01*
X104013600Y-103850900D02*
X104013600Y-89074100D01*
X117249000Y-137949500D02*
X102998200Y-137949500D01*
X96791400Y-118638200D02*
X98736100Y-116693500D01*
X96791400Y-135696600D02*
X96791400Y-118638200D01*
X102782100Y-137733400D02*
X98828200Y-137733400D01*
X104013600Y-89074100D02*
X109110700Y-83977000D01*
%TO.N,/{slash}write*%
X101700300Y-117409900D02*
X101700300Y-117479400D01*
X101462100Y-122310000D02*
X101462100Y-123998100D01*
X101475300Y-115426600D02*
X101475300Y-117184900D01*
X108566500Y-135099100D02*
X108891400Y-135424000D01*
X101137500Y-124322700D02*
X101137500Y-126788300D01*
X108762700Y-87389700D02*
X105814000Y-90338400D01*
X101758800Y-120126800D02*
X101758800Y-120856500D01*
X101462100Y-127112900D02*
X101462100Y-127994700D01*
X113318000Y-87389700D02*
X108762700Y-87389700D01*
X101462100Y-123998100D02*
X101137500Y-124322700D01*
X105619000Y-132302200D02*
X108415800Y-135099100D01*
X101700300Y-117479400D02*
X101761700Y-117540800D01*
X123325900Y-90128700D02*
X127950400Y-85504200D01*
X101758800Y-120856500D02*
X101656700Y-120958600D01*
X105308200Y-131991500D02*
X105619000Y-132302200D01*
X105814000Y-90338400D02*
X105814000Y-102716000D01*
X127950400Y-85504200D02*
X130652900Y-85504200D01*
X101137500Y-126788300D02*
X101462100Y-127112900D01*
X101475300Y-117184900D02*
X101700300Y-117409900D01*
X101761700Y-117540800D02*
X101761700Y-119001300D01*
X116730700Y-83977000D02*
X113318000Y-87389700D01*
X105308200Y-131840800D02*
X105308200Y-131991500D01*
X110517800Y-107419800D02*
X110517800Y-112409100D01*
X108891400Y-135424000D02*
X127579400Y-135424000D01*
X105814000Y-102716000D02*
X110517800Y-107419800D01*
X108415800Y-135099100D02*
X108566500Y-135099100D01*
X101656700Y-121691400D02*
X101656600Y-121691500D01*
X105619000Y-132302200D02*
X105424400Y-132496800D01*
X101443400Y-115394700D02*
X101475300Y-115426600D01*
X102022600Y-119262200D02*
X102022600Y-119863000D01*
X101443400Y-115151500D02*
X101443400Y-115394700D01*
X101656700Y-120958600D02*
X101656700Y-121691400D01*
X101462100Y-127994700D02*
X105308200Y-131840800D01*
X102022600Y-119863000D02*
X101758800Y-120126800D01*
X101761700Y-119001300D02*
X102022600Y-119262200D01*
X101656600Y-121691500D02*
X101656600Y-122115500D01*
X110517800Y-112409100D02*
X108970700Y-113956200D01*
X101656600Y-122115500D02*
X101462100Y-122310000D01*
D21*
%TO.N,/VCC*%
X182955400Y-52300500D02*
X190960000Y-60305100D01*
X146640900Y-45094300D02*
X156636300Y-35098900D01*
X136091100Y-145355600D02*
X136198400Y-145355600D01*
X114929600Y-53846800D02*
X114929600Y-55935200D01*
X169291500Y-107126300D02*
X159658000Y-107126300D01*
X156327400Y-28780400D02*
X156327400Y-32405500D01*
X110239900Y-101598500D02*
X110239900Y-93774200D01*
X136152400Y-32624000D02*
X114929600Y-53846800D01*
X170676900Y-105740900D02*
X168900200Y-103964200D01*
X188585600Y-79808500D02*
X190303300Y-78090800D01*
X138983500Y-142113400D02*
X139555000Y-141541900D01*
X168900200Y-98884200D02*
X165596900Y-95580900D01*
X170676900Y-105740900D02*
X169291500Y-107126300D01*
X156636300Y-35098900D02*
X159741400Y-35098900D01*
X141811000Y-130098000D02*
X141386500Y-130098000D01*
X139548400Y-131936100D02*
X126920800Y-131936100D01*
X164873700Y-52300500D02*
X182955400Y-52300500D01*
X109841300Y-101598500D02*
X109612600Y-101827200D01*
X188585600Y-90766600D02*
X188585600Y-79808500D01*
X136152400Y-28780400D02*
X136152400Y-32624000D01*
X110239900Y-93774200D02*
X107889500Y-91423800D01*
X156327400Y-32405500D02*
X156491600Y-32405500D01*
X117176600Y-101598500D02*
X110239900Y-101598500D01*
X138983500Y-142570500D02*
X138983500Y-142113400D01*
X109612600Y-101827200D02*
X109339800Y-101827200D01*
X136198400Y-150517400D02*
X136198400Y-145517300D01*
X157751400Y-109032900D02*
X157439100Y-108720600D01*
X126920800Y-131936100D02*
X125836700Y-133020200D01*
X110239900Y-101598500D02*
X109841300Y-101598500D01*
X139319000Y-45094300D02*
X146640900Y-45094300D01*
X156491600Y-32405500D02*
X156636300Y-32550200D01*
X188243000Y-91109200D02*
X188585600Y-90766600D01*
X139555000Y-141541900D02*
X139927800Y-141541900D01*
X159658000Y-107126300D02*
X157751400Y-109032900D01*
X168900200Y-103964200D02*
X168900200Y-98884200D01*
X136198400Y-145355600D02*
X138983500Y-142570500D01*
X156373400Y-150521400D02*
X156373400Y-145414100D01*
X141386500Y-130098000D02*
X139548400Y-131936100D01*
X124298700Y-108720600D02*
X117176600Y-101598500D01*
X157439100Y-108720600D02*
X124298700Y-108720600D01*
X136198400Y-145355600D02*
X136198400Y-145517300D01*
X156636300Y-32550200D02*
X156636300Y-35098900D01*
X190303300Y-78090800D02*
X190439600Y-78090800D01*
D20*
%TO.N,/AD8*%
X125720600Y-67618000D02*
X123994000Y-65891400D01*
X123994000Y-65891400D02*
X123994000Y-63344500D01*
X125720600Y-68175000D02*
X125720600Y-67618000D01*
X126895700Y-68175000D02*
X125720600Y-68175000D01*
X123994000Y-63344500D02*
X130832600Y-56505900D01*
X157324100Y-56505900D02*
X157324100Y-56505800D01*
X131309900Y-125194200D02*
X133083800Y-123420300D01*
X129554400Y-124898200D02*
X129864100Y-124898200D01*
X129864100Y-124898200D02*
X130160100Y-125194200D01*
X133083800Y-118166200D02*
X130727200Y-115809600D01*
X125736500Y-121080300D02*
X129554400Y-124898200D01*
X130160100Y-125194200D02*
X131309900Y-125194200D01*
X133083800Y-123420300D02*
X133083800Y-118166200D01*
X130832600Y-56505900D02*
X157324100Y-56505900D01*
X130727200Y-115809600D02*
X130551300Y-115809600D01*
X114727100Y-121080300D02*
X125736500Y-121080300D01*
%TO.N,/AD9*%
X129683600Y-124390700D02*
X125059600Y-119766700D01*
X139032500Y-43600600D02*
X142534500Y-43600600D01*
X130674600Y-124390700D02*
X129683600Y-124390700D01*
X142534500Y-43600600D02*
X151613200Y-34521900D01*
X131028700Y-124390700D02*
X130674600Y-124390700D01*
X132358600Y-118484100D02*
X132358600Y-123060800D01*
X133081300Y-49671600D02*
X133081300Y-49551800D01*
X125059600Y-119766700D02*
X112735200Y-119766700D01*
X133081300Y-49551800D02*
X139032500Y-43600600D01*
X132358600Y-123060800D02*
X131028700Y-124390700D01*
%TO.N,/AD10*%
X140546600Y-123080600D02*
X137707900Y-125919300D01*
X137707900Y-125919300D02*
X129859700Y-125919300D01*
X128748300Y-124807900D02*
X115382500Y-124807900D01*
X115382500Y-124807900D02*
X114963200Y-125227200D01*
X129859700Y-125919300D02*
X129622900Y-125682500D01*
X114963200Y-125227200D02*
X109136400Y-125227200D01*
X109136400Y-125227200D02*
X108833900Y-125529700D01*
X133808000Y-110439000D02*
X140546600Y-117177600D01*
X129622900Y-125682500D02*
X128748300Y-124807900D01*
X140546600Y-117177600D02*
X140546600Y-123080600D01*
%TO.N,/AD11*%
X131732100Y-70148700D02*
X105403100Y-70148700D01*
X100522200Y-120269000D02*
X100797700Y-120544400D01*
X104937600Y-133672000D02*
X105477400Y-133672000D01*
X100756400Y-121318500D02*
X100756400Y-121742500D01*
X100756400Y-121742500D02*
X100561900Y-121937000D01*
X96828900Y-79289900D02*
X96828900Y-112678400D01*
X99895900Y-76222900D02*
X96828900Y-79289900D01*
X100237300Y-123949700D02*
X100237300Y-127161300D01*
X124983000Y-137152400D02*
X129579400Y-137152400D01*
X96828900Y-112678400D02*
X97820400Y-113669900D01*
X105477400Y-133672000D02*
X108129600Y-136324200D01*
X100575100Y-116188400D02*
X100575100Y-118162300D01*
X100575100Y-118162300D02*
X100586500Y-118173700D01*
X100797700Y-120544400D02*
X100756500Y-120585600D01*
X98056600Y-113669900D02*
X100575100Y-116188400D01*
X100561900Y-121937000D02*
X100561900Y-123625100D01*
X97820400Y-113669900D02*
X98056600Y-113669900D01*
X108129600Y-136324200D02*
X124154800Y-136324200D01*
X124154800Y-136324200D02*
X124983000Y-137152400D01*
X99895900Y-75655900D02*
X99895900Y-76222900D01*
X100561900Y-129296300D02*
X104937600Y-133672000D01*
X100237300Y-127161300D02*
X100561900Y-127485900D01*
X100586500Y-118173700D02*
X100522200Y-118238000D01*
X133340600Y-68175000D02*
X133340600Y-68540200D01*
X134515700Y-68175000D02*
X133340600Y-68175000D01*
X100756500Y-121318400D02*
X100756400Y-121318500D01*
X100561900Y-127485900D02*
X100561900Y-129296300D01*
X100756500Y-120585600D02*
X100756500Y-121318400D01*
X100522200Y-118238000D02*
X100522200Y-120269000D01*
X133340600Y-68540200D02*
X131732100Y-70148700D01*
X105403100Y-70148700D02*
X99895900Y-75655900D01*
X100561900Y-123625100D02*
X100237300Y-123949700D01*
%TO.N,/AD12*%
X135880600Y-68175000D02*
X135880600Y-67809800D01*
X99510900Y-117416700D02*
X99510900Y-116397300D01*
X131352800Y-33704700D02*
X114930300Y-50127200D01*
X99081900Y-115968300D02*
X98435700Y-115968300D01*
X99347000Y-117580600D02*
X99510900Y-117416700D01*
X137055700Y-68175000D02*
X135880600Y-68175000D01*
X96332700Y-118071300D02*
X96332700Y-139094300D01*
X99510900Y-116397300D02*
X99081900Y-115968300D01*
X135880600Y-67809800D02*
X133330000Y-65259200D01*
X133330000Y-65259200D02*
X132509400Y-65259200D01*
X132509400Y-65259200D02*
X132509400Y-65259100D01*
X98435700Y-115968300D02*
X96332700Y-118071300D01*
X95557600Y-139094300D02*
X96332700Y-139094300D01*
X96332700Y-139094300D02*
X120447200Y-139094300D01*
X120447200Y-139094300D02*
X121742600Y-140389700D01*
X99347000Y-119186200D02*
X99347000Y-117580600D01*
%TO.N,/AD13*%
X98006900Y-113219800D02*
X98243200Y-113219800D01*
X100687400Y-126974800D02*
X101012000Y-127299400D01*
X138507300Y-67934900D02*
X135103800Y-64531400D01*
X101206500Y-121505000D02*
X101206500Y-121929000D01*
X97287100Y-112500000D02*
X98006900Y-113219800D01*
X124829000Y-135874100D02*
X125358200Y-136403300D01*
X101260200Y-119525300D02*
X101297500Y-119562600D01*
X135103800Y-64531400D02*
X127015500Y-64531400D01*
X105124100Y-133221900D02*
X105663900Y-133221900D01*
X101206500Y-121929000D02*
X101012000Y-122123500D01*
X138507300Y-68389900D02*
X136298400Y-70598800D01*
X101311600Y-119473900D02*
X101260200Y-119525300D01*
X101260200Y-120718500D02*
X101206600Y-120772100D01*
X138507300Y-68175000D02*
X138507300Y-68389900D01*
X101311600Y-117727300D02*
X101311600Y-119473900D01*
X101012000Y-123811600D02*
X100687400Y-124136200D01*
X101206600Y-120772100D02*
X101206600Y-121504900D01*
X105589600Y-70598800D02*
X100346000Y-75842400D01*
X100346000Y-75842400D02*
X100346000Y-76409400D01*
X98243200Y-113219800D02*
X101025200Y-116001800D01*
X100687400Y-124136200D02*
X100687400Y-126974800D01*
X139595700Y-68175000D02*
X138507300Y-68175000D01*
X108316100Y-135874100D02*
X124829000Y-135874100D01*
X97287100Y-79468300D02*
X97287100Y-112500000D01*
X100346000Y-76409400D02*
X97287100Y-79468300D01*
X105663900Y-133221900D02*
X108316100Y-135874100D01*
X101025200Y-116001800D02*
X101025200Y-117440900D01*
X101012000Y-122123500D02*
X101012000Y-123811600D01*
X138507300Y-68175000D02*
X138507300Y-67934900D01*
X101206600Y-121504900D02*
X101206500Y-121505000D01*
X101260200Y-119525300D02*
X101260200Y-120718500D01*
X136298400Y-70598800D02*
X105589600Y-70598800D01*
X101012000Y-129109800D02*
X105124100Y-133221900D01*
X101025200Y-117440900D02*
X101311600Y-117727300D01*
X101012000Y-127299400D02*
X101012000Y-129109800D01*
%TO.N,/AD14*%
X124911100Y-64478500D02*
X125583300Y-63806300D01*
X140960600Y-67807700D02*
X140960600Y-68175000D01*
X99349800Y-123564000D02*
X99349800Y-121487000D01*
X125583300Y-63806300D02*
X136959200Y-63806300D01*
X142135700Y-68175000D02*
X140960600Y-68175000D01*
X99634900Y-121201900D02*
X99581100Y-121201900D01*
X124753700Y-64478500D02*
X124911100Y-64478500D01*
X99349800Y-121487000D02*
X99634900Y-121201900D01*
X99634900Y-135324200D02*
X97525000Y-135324200D01*
X124099100Y-141231100D02*
X120092400Y-137224400D01*
X105729400Y-135324200D02*
X99634900Y-135324200D01*
X136959200Y-63806300D02*
X140960600Y-67807700D01*
X99634900Y-135324200D02*
X99349800Y-135039100D01*
X120092400Y-137224400D02*
X107629600Y-137224400D01*
X107629600Y-137224400D02*
X105729400Y-135324200D01*
X99337100Y-127534300D02*
X99337100Y-123576700D01*
X99349800Y-127547000D02*
X99337100Y-127534300D01*
X99349800Y-135039100D02*
X99349800Y-127547000D01*
X99337100Y-123576700D02*
X99349800Y-123564000D01*
%TO.N,/AD15*%
X96364200Y-70072500D02*
X96364200Y-112850300D01*
X105290900Y-134122100D02*
X107943100Y-136774300D01*
X107943100Y-136774300D02*
X123165000Y-136774300D01*
X99646500Y-120030000D02*
X99341200Y-120030000D01*
X99816300Y-118477600D02*
X100072100Y-118733400D01*
X143500600Y-67809800D02*
X139047000Y-63356200D01*
X100111800Y-121750500D02*
X100111800Y-123438600D01*
X99970600Y-117593700D02*
X99816300Y-117748000D01*
X100306400Y-120689900D02*
X100306400Y-121131900D01*
X100072100Y-118733400D02*
X100072100Y-119604400D01*
X139047000Y-63356200D02*
X125007900Y-63356200D01*
X100072100Y-119604400D02*
X99646500Y-120030000D01*
X96364200Y-112850300D02*
X97633900Y-114120000D01*
X104751100Y-134122100D02*
X105290900Y-134122100D01*
X100306400Y-121131900D02*
X100306300Y-121132000D01*
X99341200Y-120030000D02*
X99184800Y-120186400D01*
X99970600Y-116220500D02*
X99970600Y-117593700D01*
X100111800Y-129482800D02*
X104751100Y-134122100D01*
X97870100Y-114120000D02*
X99970600Y-116220500D01*
X99816300Y-117748000D02*
X99816300Y-118477600D01*
X97633900Y-114120000D02*
X97870100Y-114120000D01*
X100306300Y-121132000D02*
X100306300Y-121556000D01*
X100306300Y-121556000D02*
X100111800Y-121750500D01*
X99787200Y-123763200D02*
X99787200Y-127347800D01*
X100111800Y-123438600D02*
X99787200Y-123763200D01*
X106059100Y-60377600D02*
X96364200Y-70072500D01*
X100111800Y-127672400D02*
X100111800Y-129482800D01*
X144675700Y-68175000D02*
X143500600Y-68175000D01*
X123165000Y-136774300D02*
X123579400Y-137188700D01*
X143500600Y-68175000D02*
X143500600Y-67809800D01*
X99787200Y-127347800D02*
X100111800Y-127672400D01*
X99646500Y-120030000D02*
X100306400Y-120689900D01*
X125007900Y-63356200D02*
X124885800Y-63478300D01*
%TO.N,/{slash}read_bottom*%
X127292200Y-121362700D02*
X129320000Y-123390500D01*
X129320000Y-123390500D02*
X130269800Y-123390500D01*
X127292200Y-116851200D02*
X127292200Y-121362700D01*
%TO.N,/{slash}COLD_RESET*%
X140765800Y-84342300D02*
X144074400Y-87650900D01*
X163028600Y-132239600D02*
X152916600Y-132239600D01*
X188517000Y-91860900D02*
X187580200Y-91860900D01*
X186058800Y-93293700D02*
X186208600Y-93143900D01*
X144208800Y-133627100D02*
X145176400Y-132659500D01*
X140765800Y-83977000D02*
X140765800Y-84342300D01*
X152496700Y-132659500D02*
X152916600Y-132239600D01*
X139590700Y-83977000D02*
X140765800Y-83977000D01*
X154987200Y-103558400D02*
X151580500Y-103558400D01*
X176075300Y-93293700D02*
X186058800Y-93293700D01*
X173275400Y-93293700D02*
X165055100Y-93293700D01*
X136337300Y-133627100D02*
X144208800Y-133627100D01*
X192522300Y-85369600D02*
X192522300Y-85815500D01*
X161924500Y-96424300D02*
X161924500Y-96621100D01*
X152916600Y-132239600D02*
X152916600Y-129141000D01*
X187580200Y-91860900D02*
X187328100Y-91608800D01*
X144074400Y-87650900D02*
X149750800Y-87650900D01*
X161924500Y-96621100D02*
X154987200Y-103558400D01*
X191657000Y-45753400D02*
X182786800Y-36883200D01*
X133311000Y-136653400D02*
X136337300Y-133627100D01*
X145176400Y-132659500D02*
X152496700Y-132659500D01*
X182786800Y-36883200D02*
X165211000Y-36883200D01*
X190572800Y-89416100D02*
X190572800Y-89805100D01*
X190572800Y-89805100D02*
X188517000Y-91860900D01*
X191657000Y-45996600D02*
X191657000Y-45753400D01*
X165055100Y-93293700D02*
X161924500Y-96424300D01*
X192522300Y-85815500D02*
X190722000Y-87615800D01*
%TO.N,/ALE_L*%
X128634600Y-121679800D02*
X128634600Y-117879700D01*
X134532900Y-145664300D02*
X138083400Y-142113800D01*
X133679400Y-150489400D02*
X133679400Y-145664300D01*
X129600300Y-122645500D02*
X128634600Y-121679800D01*
X133633400Y-33059400D02*
X128597600Y-38095200D01*
X133633400Y-28780400D02*
X133633400Y-33059400D01*
X133679400Y-145664300D02*
X134532900Y-145664300D01*
%TO.N,/ALE_H*%
X138726400Y-145692300D02*
X139883700Y-144535000D01*
X138680400Y-32542000D02*
X125575700Y-45646700D01*
X138726400Y-150517400D02*
X138726400Y-145692300D01*
X133806400Y-124173100D02*
X133806400Y-118039200D01*
X139883700Y-144535000D02*
X139883700Y-142542100D01*
X127638400Y-111871200D02*
X127027500Y-111871200D01*
X138680400Y-28780400D02*
X138680400Y-32542000D01*
X133806400Y-118039200D02*
X127638400Y-111871200D01*
%TO.N,/Button*%
X154524400Y-123056500D02*
X145676400Y-131904500D01*
X154524400Y-119462100D02*
X183683600Y-119462100D01*
X154524400Y-119462100D02*
X154524400Y-123056500D01*
X140194100Y-88850600D02*
X150809800Y-88850600D01*
X134510700Y-83977000D02*
X135685800Y-83977000D01*
X183683600Y-119462100D02*
X193448800Y-109696900D01*
X135685800Y-83977000D02*
X135685800Y-84342300D01*
X194568900Y-109696900D02*
X193448800Y-109696900D01*
X135685800Y-84342300D02*
X140194100Y-88850600D01*
%TO.N,/PPort_2*%
X144115700Y-85152200D02*
X143305800Y-84342300D01*
X164148500Y-51525600D02*
X164148500Y-51525500D01*
X156924900Y-82760800D02*
X151836500Y-82760800D01*
X142130700Y-83977000D02*
X143305800Y-83977000D01*
X150264600Y-85152200D02*
X144115700Y-85152200D01*
X143305800Y-84342300D02*
X143305800Y-83977000D01*
X185557100Y-82069100D02*
X174452400Y-82069100D01*
X163958000Y-51335000D02*
X161378500Y-51335000D01*
X161378500Y-51335000D02*
X160253400Y-52460100D01*
X186785200Y-80841000D02*
X185557100Y-82069100D01*
X183074100Y-51525600D02*
X164148500Y-51525600D01*
X190815100Y-59266600D02*
X183074100Y-51525600D01*
X192676500Y-59266600D02*
X190815100Y-59266600D01*
X174253700Y-81870400D02*
X157815300Y-81870400D01*
X174452400Y-82069100D02*
X174253700Y-81870400D01*
X151020700Y-84396100D02*
X150264600Y-85152200D01*
X151836500Y-82760800D02*
X151020700Y-83576600D01*
X157815300Y-81870400D02*
X156924900Y-82760800D01*
X164148500Y-51525500D02*
X163958000Y-51335000D01*
X151020700Y-83576600D02*
X151020700Y-84396100D01*
%TO.N,/PPort_3*%
X145845800Y-83977000D02*
X145845800Y-83609800D01*
X147905400Y-81550200D02*
X150733000Y-81550200D01*
X157483400Y-52460100D02*
X159058600Y-50884900D01*
X183458800Y-50884900D02*
X187007000Y-54433100D01*
X145845800Y-83609800D02*
X147905400Y-81550200D01*
X151108700Y-75663000D02*
X153628300Y-73143400D01*
X144670700Y-83977000D02*
X145845800Y-83977000D01*
X153628300Y-73143400D02*
X184565900Y-73143400D01*
X159058600Y-50884900D02*
X183458800Y-50884900D01*
X150733000Y-81550200D02*
X150973200Y-81310000D01*
%TO.N,/PPort_4*%
X154858400Y-82241800D02*
X149755700Y-82241800D01*
X148385800Y-83611700D02*
X148385800Y-83977000D01*
X149755700Y-82241800D02*
X148385800Y-83611700D01*
X155169800Y-81930400D02*
X154858400Y-82241800D01*
X147210700Y-83977000D02*
X148385800Y-83977000D01*
%TO.N,/PPort_6*%
X153415200Y-115437900D02*
X172435700Y-115437900D01*
X172435700Y-115437900D02*
X177383600Y-110490000D01*
%TO.N,/PIC.GP4*%
X132526300Y-82769300D02*
X133240700Y-83483700D01*
X133240700Y-84402400D02*
X143907000Y-95068700D01*
X130605800Y-83977000D02*
X130605800Y-83611700D01*
X131448200Y-82769300D02*
X132526300Y-82769300D01*
X133240700Y-83483700D02*
X133240700Y-84402400D01*
X143907000Y-95068700D02*
X144586000Y-95068700D01*
X130605800Y-83611700D02*
X131448200Y-82769300D01*
X129430700Y-83977000D02*
X130605800Y-83977000D01*
%TO.N,/PIC.GP5*%
X132220900Y-85152100D02*
X131970700Y-85152100D01*
X131970700Y-83977000D02*
X131970700Y-85152100D01*
X143144600Y-96075800D02*
X132220900Y-85152100D01*
%TO.N,/Pin_33*%
X163815600Y-83977000D02*
X163815600Y-84288200D01*
X163815600Y-84288200D02*
X146552000Y-101551800D01*
X164990700Y-83977000D02*
X163815600Y-83977000D01*
X146552000Y-101551800D02*
X140503900Y-101551800D01*
%TO.N,/Pin_34*%
X139721600Y-102491100D02*
X148206700Y-102491100D01*
X167530700Y-83977000D02*
X166355600Y-83977000D01*
X148206700Y-102491100D02*
X166355600Y-84342200D01*
X166355600Y-84342200D02*
X166355600Y-83977000D01*
%TO.N,/74HC164_DSA_DSB*%
X174330800Y-82584200D02*
X175440300Y-82584200D01*
X176420700Y-86037000D02*
X179209600Y-88825900D01*
X179209600Y-88825900D02*
X185855200Y-88825900D01*
X159027200Y-82320500D02*
X174067100Y-82320500D01*
X157370700Y-83977000D02*
X159027200Y-82320500D01*
X174067100Y-82320500D02*
X174330800Y-82584200D01*
X143034400Y-98288100D02*
X138240800Y-98288100D01*
X157370700Y-83977000D02*
X156195600Y-83977000D01*
X176420700Y-83564600D02*
X176420700Y-86037000D01*
X156195600Y-83977000D02*
X156195600Y-85126900D01*
X175440300Y-82584200D02*
X176420700Y-83564600D01*
X156195600Y-85126900D02*
X143034400Y-98288100D01*
%TO.N,/74HC164_CP*%
X173880700Y-83569700D02*
X173081600Y-82770600D01*
X180989500Y-91477700D02*
X173880700Y-84368900D01*
X173880700Y-84368900D02*
X173880700Y-83569700D01*
X173081600Y-82770600D02*
X161926900Y-82770600D01*
X161085800Y-83611700D02*
X161085800Y-83977000D01*
X159910700Y-83977000D02*
X158735600Y-83977000D01*
X184662600Y-91477700D02*
X180989500Y-91477700D01*
X158735600Y-83977000D02*
X158735600Y-84344200D01*
X143857500Y-99222300D02*
X137280200Y-99222300D01*
X161926900Y-82770600D02*
X161085800Y-83611700D01*
X159910700Y-83977000D02*
X161085800Y-83977000D01*
X158735600Y-84344200D02*
X143857500Y-99222300D01*
%TO.N,/74HC04*%
X156397000Y-126479300D02*
X175901400Y-126479300D01*
X153655600Y-87030300D02*
X153655600Y-83977000D01*
X135828700Y-96849300D02*
X143836600Y-96849300D01*
X143836600Y-96849300D02*
X153655600Y-87030300D01*
X154830700Y-83977000D02*
X153655600Y-83977000D01*
X175901400Y-126479300D02*
X179828500Y-130406400D01*
%TO.N,/Pin_39*%
X170070700Y-83977000D02*
X168895600Y-83977000D01*
X168895600Y-83977000D02*
X168895600Y-84296200D01*
X149860500Y-103331300D02*
X135094000Y-103331300D01*
X168895600Y-84296200D02*
X149860500Y-103331300D01*
%TO.N,/{slash}read_top*%
X140119900Y-47249900D02*
X144758600Y-47249900D01*
%TO.N,/Pin_42*%
X171435600Y-83977000D02*
X171435600Y-84342200D01*
X148721500Y-105107000D02*
X131680500Y-105107000D01*
X169735000Y-86042800D02*
X167785700Y-86042800D01*
X171435600Y-84342200D02*
X169735000Y-86042800D01*
X167785700Y-86042800D02*
X148721500Y-105107000D01*
X172610700Y-83977000D02*
X171435600Y-83977000D01*
%TO.N,/F*%
X164471700Y-94596300D02*
X164612300Y-94455700D01*
X164471700Y-96995700D02*
X164471700Y-94596300D01*
X173056100Y-98854700D02*
X173056100Y-99159400D01*
X166545500Y-94455700D02*
X168795900Y-96706100D01*
X170907500Y-96706100D02*
X173056100Y-98854700D01*
X168795900Y-96706100D02*
X170907500Y-96706100D01*
X165596900Y-98120900D02*
X164471700Y-96995700D01*
X164612300Y-94455700D02*
X166545500Y-94455700D01*
%TO.N,/D*%
X177594400Y-105805600D02*
X177594400Y-105902800D01*
X172742200Y-110755000D02*
X171316400Y-110755000D01*
X177594400Y-105902800D02*
X172742200Y-110755000D01*
%TO.N,/DP*%
X178304500Y-95573300D02*
X178304500Y-94202100D01*
X170676900Y-103200900D02*
X178304500Y-95573300D01*
%TO.N,/PPort_10*%
X188619900Y-119464500D02*
X188702700Y-119464500D01*
X139218600Y-53585300D02*
X138093400Y-52460100D01*
X188702700Y-119464500D02*
X195948100Y-112219100D01*
X176270800Y-53585300D02*
X139218600Y-53585300D01*
X195948100Y-112219100D02*
X195948100Y-73262600D01*
X195948100Y-73262600D02*
X176270800Y-53585300D01*
%TO.N,/PPort_11*%
X196582500Y-122358500D02*
X187699500Y-131241500D01*
X135323400Y-52460100D02*
X137355800Y-50427700D01*
X196582500Y-62111600D02*
X196582500Y-122358500D01*
X184898600Y-50427700D02*
X196582500Y-62111600D01*
X137355800Y-50427700D02*
X184898600Y-50427700D01*
%TO.N,/PPort_12*%
X156430200Y-54035500D02*
X134128800Y-54035500D01*
X157223600Y-54828900D02*
X156430200Y-54035500D01*
X191696800Y-106734000D02*
X192320900Y-106734000D01*
X134128800Y-54035500D02*
X132553400Y-52460100D01*
X157223600Y-55382900D02*
X157223600Y-54828900D01*
X157624203Y-55781289D02*
X157621989Y-55781289D01*
X195047900Y-73635600D02*
X184443300Y-63031000D01*
X192320900Y-106734000D02*
X195047900Y-104007000D01*
X184443300Y-63031000D02*
X164871700Y-63031000D01*
X164871700Y-63031000D02*
X158048611Y-56207911D01*
X158048611Y-56205697D02*
X157624203Y-55781289D01*
X157621989Y-55781289D02*
X157223600Y-55382900D01*
X195047900Y-104007000D02*
X195047900Y-73635600D01*
X158048611Y-56207911D02*
X158048611Y-56205697D01*
%TO.N,/PPort_13*%
X131210800Y-57232900D02*
X157419000Y-57232900D01*
X194597800Y-73822100D02*
X194597800Y-103431600D01*
X185796600Y-65020900D02*
X194597800Y-73822100D01*
X157419000Y-57232900D02*
X165207000Y-65020900D01*
X165207000Y-65020900D02*
X185796600Y-65020900D01*
X194597800Y-103431600D02*
X193922600Y-104106800D01*
%TO.N,/PPort_15*%
X160769600Y-57201300D02*
X158868400Y-55300100D01*
X183061200Y-117603800D02*
X184259200Y-117603800D01*
X195498000Y-73449100D02*
X179250200Y-57201300D01*
X195498000Y-106365000D02*
X195498000Y-73449100D01*
X184259200Y-117603800D02*
X195498000Y-106365000D01*
X179250200Y-57201300D02*
X160769600Y-57201300D01*
D21*
%TO.N,/12V_Rear*%
X191528100Y-89733900D02*
X185338600Y-95923400D01*
X185338600Y-95923400D02*
X182302200Y-95923400D01*
X180270500Y-100061600D02*
X169748500Y-110583600D01*
X191528100Y-89098400D02*
X191528100Y-89733900D01*
X190293200Y-88516000D02*
X190945700Y-88516000D01*
X189826600Y-79854700D02*
X189761600Y-79919700D01*
X180270500Y-97955100D02*
X180270500Y-100061600D01*
X169748500Y-110583600D02*
X167369200Y-110583600D01*
X146250400Y-32405500D02*
X147919000Y-32405500D01*
X146296400Y-144193000D02*
X150362900Y-140126500D01*
X146250400Y-28780400D02*
X146250400Y-32405500D01*
X147919000Y-32405500D02*
X148046300Y-32532800D01*
X190945700Y-88516000D02*
X191528100Y-89098400D01*
X189761600Y-87984400D02*
X190293200Y-88516000D01*
X167588400Y-133843600D02*
X167597200Y-133834800D01*
X182302200Y-95923400D02*
X180270500Y-97955100D01*
X150362900Y-133843600D02*
X167588400Y-133843600D01*
X146296400Y-150484400D02*
X146296400Y-144193000D01*
X189826600Y-45985900D02*
X153524300Y-45985900D01*
X189761600Y-79919700D02*
X189761600Y-87984400D01*
D20*
%TO.N,/UNUSED_Rear*%
X158709800Y-139829200D02*
X158709800Y-139568100D01*
X148816400Y-145632300D02*
X150607300Y-143841400D01*
X150607300Y-143230600D02*
X151032100Y-142805800D01*
X181836400Y-79199800D02*
X187302400Y-73733800D01*
X148770400Y-28780400D02*
X148770400Y-32230500D01*
X151032100Y-142805800D02*
X155733200Y-142805800D01*
X178967700Y-81242100D02*
X178967700Y-79971000D01*
X177822300Y-89387200D02*
X167098100Y-89387200D01*
X188201300Y-43334600D02*
X156954700Y-43334600D01*
X148770400Y-32230500D02*
X150050100Y-32230500D01*
X156954700Y-43334600D02*
X156671700Y-43051600D01*
X148816400Y-150457400D02*
X148816400Y-145632300D01*
X155733200Y-142805800D02*
X158709800Y-139829200D01*
X178865800Y-81344000D02*
X178967700Y-81242100D01*
X179738900Y-79199800D02*
X181836400Y-79199800D01*
X187302400Y-73733800D02*
X188201300Y-73733800D01*
X150050100Y-32230500D02*
X150379800Y-32560200D01*
X167098100Y-89387200D02*
X158946200Y-97539100D01*
X150607300Y-143841400D02*
X150607300Y-143230600D01*
X178967700Y-79971000D02*
X179738900Y-79199800D01*
%TO.N,/CIC_DATA2*%
X160973900Y-99535800D02*
X168000100Y-99535800D01*
X190770100Y-49597900D02*
X191734000Y-50561800D01*
X151806500Y-48016800D02*
X153387600Y-49597900D01*
X158851400Y-33180700D02*
X160466700Y-34796000D01*
X158851400Y-28780400D02*
X158851400Y-33180700D01*
X160466700Y-35826400D02*
X151806500Y-44486600D01*
X153387600Y-49597900D02*
X190770100Y-49597900D01*
X160437000Y-144150700D02*
X160734400Y-144150700D01*
X158897400Y-145690300D02*
X160437000Y-144150700D01*
X160466700Y-34796000D02*
X160466700Y-35826400D01*
X158897400Y-150515400D02*
X158897400Y-145690300D01*
X151806500Y-44486600D02*
X151806500Y-48016800D01*
%TO.N,/Unknown_1*%
X161899200Y-141914700D02*
X161899200Y-145204500D01*
X161899200Y-145204500D02*
X161423400Y-145680300D01*
X161377400Y-28780400D02*
X161377400Y-36105800D01*
X161377400Y-36105800D02*
X160746400Y-36736800D01*
X161423400Y-150505400D02*
X161423400Y-145680300D01*
%TO.N,/{slash}OS EVENT*%
X161046800Y-37461900D02*
X163895400Y-34613300D01*
X172927200Y-109447400D02*
X172927200Y-109533000D01*
X153656800Y-49147800D02*
X152280100Y-47771100D01*
X163895400Y-28780400D02*
X163895400Y-32230500D01*
X185147500Y-96998600D02*
X182111300Y-96998600D01*
X152280100Y-46126700D02*
X160944900Y-37461900D01*
X192522300Y-87626200D02*
X192522300Y-89623800D01*
X182111300Y-96998600D02*
X180895600Y-98214300D01*
X163941400Y-150501400D02*
X163941400Y-145676300D01*
X160944900Y-37461900D02*
X161046800Y-37461900D01*
X192522300Y-89623800D02*
X185147500Y-96998600D01*
X163941400Y-145676300D02*
X169669400Y-139948300D01*
X152280100Y-47771100D02*
X152280100Y-46126700D01*
X180895600Y-101479000D02*
X172927200Y-109447400D01*
X169669400Y-139948300D02*
X172948500Y-139948300D01*
X163895400Y-34613300D02*
X163895400Y-32230500D01*
X194126700Y-49147800D02*
X153656800Y-49147800D01*
X180895600Y-98214300D02*
X180895600Y-101479000D01*
%TO.N,/Unknown_2*%
X185712200Y-78091200D02*
X187960500Y-80339500D01*
X187960500Y-80339500D02*
X187960500Y-85160300D01*
X166461400Y-150486400D02*
X166461400Y-145661300D01*
X170734700Y-141388000D02*
X172202100Y-141388000D01*
X166415400Y-33280300D02*
X166589000Y-33453900D01*
X186603000Y-86517800D02*
X186603000Y-91926800D01*
X166415400Y-28780400D02*
X166415400Y-32230500D01*
X167684200Y-63916400D02*
X183418900Y-63916400D01*
X179645400Y-99413700D02*
X172202100Y-106857000D01*
X185079600Y-95298300D02*
X182043200Y-95298300D01*
X179645400Y-97696100D02*
X179645400Y-99413700D01*
X186984600Y-93393300D02*
X185079600Y-95298300D01*
X166415400Y-32230500D02*
X166415400Y-33280300D01*
X166461400Y-145661300D02*
X170734700Y-141388000D01*
X182043200Y-95298300D02*
X179645400Y-97696100D01*
X187960500Y-85160300D02*
X186603000Y-86517800D01*
X186984600Y-92308400D02*
X186984600Y-93393300D01*
X183996400Y-78091200D02*
X185712200Y-78091200D01*
X183418900Y-63916400D02*
X183766200Y-64263700D01*
X186603000Y-91926800D02*
X186984600Y-92308400D01*
%TO.N,/RAUDIO*%
X173990400Y-28780400D02*
X173990400Y-32230500D01*
X172618800Y-145265600D02*
X172997500Y-145644300D01*
X172997500Y-145644300D02*
X174036400Y-145644300D01*
X174036400Y-150469400D02*
X174036400Y-145644300D01*
X173990400Y-32230500D02*
X173758300Y-32230500D01*
X173758300Y-32230500D02*
X173329400Y-32659400D01*
D21*
%TO.N,/12V_Front*%
X193990200Y-121941900D02*
X181466400Y-134465700D01*
X174547100Y-134465700D02*
X174134700Y-134878100D01*
X149068300Y-139692900D02*
X146436200Y-142325000D01*
X153007400Y-47395700D02*
X196100600Y-47395700D01*
X195803000Y-121941900D02*
X193990200Y-121941900D01*
X174134700Y-134878100D02*
X149068300Y-134878100D01*
X146436200Y-142325000D02*
X146345900Y-142325000D01*
X181466400Y-134465700D02*
X174547100Y-134465700D01*
D20*
%TO.N,/UNUSED_Front*%
X184546900Y-86458900D02*
X187510400Y-83495400D01*
X186144700Y-79160300D02*
X183831100Y-79160300D01*
X176015900Y-91646400D02*
X165873300Y-91646400D01*
X165873300Y-91646400D02*
X159974500Y-97545200D01*
X187510400Y-80526000D02*
X186144700Y-79160300D01*
X153252800Y-139755900D02*
X157709600Y-139755900D01*
X187510400Y-83495400D02*
X187510400Y-80526000D01*
X178116500Y-86458900D02*
X184546900Y-86458900D01*
X148816400Y-144192300D02*
X153252800Y-139755900D01*
X155880600Y-44422600D02*
X187473600Y-44422600D01*
%TO.N,/Q2*%
X182971000Y-99074100D02*
X192487100Y-99074100D01*
X192487100Y-99074100D02*
X193007200Y-98554000D01*
%TD*%
M02*
