%TF.GenerationSoftware,KiCad,Pcbnew,(6.0.2)*%
%TF.CreationDate,2022-10-27T18:33:53-05:00*%
%TF.ProjectId,REF1329_Breakout,52454631-3332-4395-9f42-7265616b6f75,rev?*%
%TF.SameCoordinates,Original*%
%TF.FileFunction,Legend,Top*%
%TF.FilePolarity,Positive*%
%FSLAX46Y46*%
G04 Gerber Fmt 4.6, Leading zero omitted, Abs format (unit mm)*
G04 Created by KiCad (PCBNEW (6.0.2)) date 2022-10-27 18:33:53*
%MOMM*%
%LPD*%
G01*
G04 APERTURE LIST*
%ADD10C,0.150000*%
%ADD11C,0.125000*%
%ADD12C,0.120000*%
G04 APERTURE END LIST*
D10*
X178666400Y-94001400D02*
X182286400Y-94001400D01*
X182286400Y-94001400D02*
X182286400Y-95876400D01*
X182286400Y-95876400D02*
X178666400Y-95876400D01*
X178666400Y-95876400D02*
X178666400Y-94001400D01*
X178666400Y-103542400D02*
X182321400Y-103542400D01*
X182321400Y-103542400D02*
X182321400Y-105432400D01*
X182321400Y-105432400D02*
X178666400Y-105432400D01*
X178666400Y-105432400D02*
X178666400Y-103542400D01*
X178666400Y-105440400D02*
X182321400Y-105440400D01*
X182321400Y-105440400D02*
X182321400Y-107266400D01*
X182321400Y-107266400D02*
X178666400Y-107266400D01*
X178666400Y-107266400D02*
X178666400Y-105440400D01*
X178666400Y-97782400D02*
X182252400Y-97782400D01*
X182252400Y-97782400D02*
X182252400Y-99697400D01*
X182252400Y-99697400D02*
X178666400Y-99697400D01*
X178666400Y-99697400D02*
X178666400Y-97782400D01*
X178666400Y-95884400D02*
X182263400Y-95884400D01*
X182263400Y-95884400D02*
X182263400Y-97782400D01*
X182263400Y-97782400D02*
X178666400Y-97782400D01*
X178666400Y-97782400D02*
X178666400Y-95884400D01*
X178666400Y-99689400D02*
X182279400Y-99689400D01*
X182279400Y-99689400D02*
X182279400Y-101612400D01*
X182279400Y-101612400D02*
X178666400Y-101612400D01*
X178666400Y-101612400D02*
X178666400Y-99689400D01*
X178666400Y-101612400D02*
X182286400Y-101612400D01*
X182286400Y-101612400D02*
X182286400Y-103517400D01*
X182286400Y-103517400D02*
X178666400Y-103517400D01*
X178666400Y-103517400D02*
X178666400Y-101612400D01*
X178666400Y-92052400D02*
X182267400Y-92052400D01*
X182267400Y-92052400D02*
X182267400Y-93982400D01*
X182267400Y-93982400D02*
X178666400Y-93982400D01*
X178666400Y-93982400D02*
X178666400Y-92052400D01*
X162922052Y-89951189D02*
X161922052Y-89951189D01*
X161922052Y-89570237D01*
X161969672Y-89474999D01*
X162017291Y-89427380D01*
X162112529Y-89379761D01*
X162255386Y-89379761D01*
X162350624Y-89427380D01*
X162398243Y-89474999D01*
X162445862Y-89570237D01*
X162445862Y-89951189D01*
X162922052Y-88951189D02*
X162255386Y-88951189D01*
X161922052Y-88951189D02*
X161969672Y-88998808D01*
X162017291Y-88951189D01*
X161969672Y-88903570D01*
X161922052Y-88951189D01*
X162017291Y-88951189D01*
X162255386Y-88474999D02*
X162922052Y-88474999D01*
X162350624Y-88474999D02*
X162303005Y-88427380D01*
X162255386Y-88332142D01*
X162255386Y-88189285D01*
X162303005Y-88094046D01*
X162398243Y-88046427D01*
X162922052Y-88046427D01*
X162922052Y-86284523D02*
X162922052Y-86855951D01*
X162922052Y-86570237D02*
X161922052Y-86570237D01*
X162064910Y-86665475D01*
X162160148Y-86760713D01*
X162207767Y-86855951D01*
X122800685Y-135885935D02*
X122372114Y-135885935D01*
X122586400Y-135885935D02*
X122586400Y-135135935D01*
X122514971Y-135243078D01*
X122443542Y-135314507D01*
X122372114Y-135350221D01*
X122586400Y-137343435D02*
X122586400Y-136272007D01*
X137192434Y-65563286D02*
X137192434Y-65087095D01*
X137478148Y-65658524D02*
X136478148Y-65325190D01*
X137478148Y-64991857D01*
X137478148Y-64658524D02*
X136478148Y-64658524D01*
X136478148Y-64420429D01*
X136525768Y-64277571D01*
X136621006Y-64182333D01*
X136716244Y-64134714D01*
X136906720Y-64087095D01*
X137049577Y-64087095D01*
X137240053Y-64134714D01*
X137335291Y-64182333D01*
X137430529Y-64277571D01*
X137478148Y-64420429D01*
X137478148Y-64658524D01*
X137478148Y-63134714D02*
X137478148Y-63706143D01*
X137478148Y-63420429D02*
X136478148Y-63420429D01*
X136621006Y-63515667D01*
X136716244Y-63610905D01*
X136763863Y-63706143D01*
X136573387Y-62753762D02*
X136525768Y-62706143D01*
X136478148Y-62610905D01*
X136478148Y-62372810D01*
X136525768Y-62277571D01*
X136573387Y-62229952D01*
X136668625Y-62182333D01*
X136763863Y-62182333D01*
X136906720Y-62229952D01*
X137478148Y-62801381D01*
X137478148Y-62182333D01*
D11*
X105654971Y-102940780D02*
X105726400Y-102964590D01*
X105845447Y-102964590D01*
X105893066Y-102940780D01*
X105916876Y-102916971D01*
X105940685Y-102869352D01*
X105940685Y-102821733D01*
X105916876Y-102774114D01*
X105893066Y-102750304D01*
X105845447Y-102726495D01*
X105750209Y-102702685D01*
X105702590Y-102678876D01*
X105678780Y-102655066D01*
X105654971Y-102607447D01*
X105654971Y-102559828D01*
X105678780Y-102512209D01*
X105702590Y-102488400D01*
X105750209Y-102464590D01*
X105869257Y-102464590D01*
X105940685Y-102488400D01*
X106131161Y-102940780D02*
X106202590Y-102964590D01*
X106321638Y-102964590D01*
X106369257Y-102940780D01*
X106393066Y-102916971D01*
X106416876Y-102869352D01*
X106416876Y-102821733D01*
X106393066Y-102774114D01*
X106369257Y-102750304D01*
X106321638Y-102726495D01*
X106226400Y-102702685D01*
X106178780Y-102678876D01*
X106154971Y-102655066D01*
X106131161Y-102607447D01*
X106131161Y-102559828D01*
X106154971Y-102512209D01*
X106178780Y-102488400D01*
X106226400Y-102464590D01*
X106345447Y-102464590D01*
X106416876Y-102488400D01*
X106559733Y-102464590D02*
X106845447Y-102464590D01*
X106702590Y-102964590D02*
X106702590Y-102464590D01*
X104714495Y-103317209D02*
X104738304Y-103293400D01*
X104785923Y-103269590D01*
X104904971Y-103269590D01*
X104952590Y-103293400D01*
X104976400Y-103317209D01*
X105000209Y-103364828D01*
X105000209Y-103412447D01*
X104976400Y-103483876D01*
X104690685Y-103769590D01*
X105000209Y-103769590D01*
X105285923Y-103483876D02*
X105238304Y-103460066D01*
X105214495Y-103436257D01*
X105190685Y-103388638D01*
X105190685Y-103364828D01*
X105214495Y-103317209D01*
X105238304Y-103293400D01*
X105285923Y-103269590D01*
X105381161Y-103269590D01*
X105428780Y-103293400D01*
X105452590Y-103317209D01*
X105476400Y-103364828D01*
X105476400Y-103388638D01*
X105452590Y-103436257D01*
X105428780Y-103460066D01*
X105381161Y-103483876D01*
X105285923Y-103483876D01*
X105238304Y-103507685D01*
X105214495Y-103531495D01*
X105190685Y-103579114D01*
X105190685Y-103674352D01*
X105214495Y-103721971D01*
X105238304Y-103745780D01*
X105285923Y-103769590D01*
X105381161Y-103769590D01*
X105428780Y-103745780D01*
X105452590Y-103721971D01*
X105476400Y-103674352D01*
X105476400Y-103579114D01*
X105452590Y-103531495D01*
X105428780Y-103507685D01*
X105381161Y-103483876D01*
X105928780Y-103769590D02*
X105690685Y-103769590D01*
X105690685Y-103269590D01*
X106262114Y-103507685D02*
X106095447Y-103507685D01*
X106095447Y-103769590D02*
X106095447Y-103269590D01*
X106333542Y-103269590D01*
X106619257Y-103269590D02*
X106666876Y-103269590D01*
X106714495Y-103293400D01*
X106738304Y-103317209D01*
X106762114Y-103364828D01*
X106785923Y-103460066D01*
X106785923Y-103579114D01*
X106762114Y-103674352D01*
X106738304Y-103721971D01*
X106714495Y-103745780D01*
X106666876Y-103769590D01*
X106619257Y-103769590D01*
X106571638Y-103745780D01*
X106547828Y-103721971D01*
X106524019Y-103674352D01*
X106500209Y-103579114D01*
X106500209Y-103460066D01*
X106524019Y-103364828D01*
X106547828Y-103317209D01*
X106571638Y-103293400D01*
X106619257Y-103269590D01*
X107214495Y-103436257D02*
X107214495Y-103769590D01*
X107095447Y-103245780D02*
X106976400Y-103602923D01*
X107285923Y-103602923D01*
X107571638Y-103269590D02*
X107619257Y-103269590D01*
X107666876Y-103293400D01*
X107690685Y-103317209D01*
X107714495Y-103364828D01*
X107738304Y-103460066D01*
X107738304Y-103579114D01*
X107714495Y-103674352D01*
X107690685Y-103721971D01*
X107666876Y-103745780D01*
X107619257Y-103769590D01*
X107571638Y-103769590D01*
X107524019Y-103745780D01*
X107500209Y-103721971D01*
X107476400Y-103674352D01*
X107452590Y-103579114D01*
X107452590Y-103460066D01*
X107476400Y-103364828D01*
X107500209Y-103317209D01*
X107524019Y-103293400D01*
X107571638Y-103269590D01*
X104702590Y-104122209D02*
X104726400Y-104098400D01*
X104774019Y-104074590D01*
X104893066Y-104074590D01*
X104940685Y-104098400D01*
X104964495Y-104122209D01*
X104988304Y-104169828D01*
X104988304Y-104217447D01*
X104964495Y-104288876D01*
X104678780Y-104574590D01*
X104988304Y-104574590D01*
X105226400Y-104574590D02*
X105321638Y-104574590D01*
X105369257Y-104550780D01*
X105393066Y-104526971D01*
X105440685Y-104455542D01*
X105464495Y-104360304D01*
X105464495Y-104169828D01*
X105440685Y-104122209D01*
X105416876Y-104098400D01*
X105369257Y-104074590D01*
X105274019Y-104074590D01*
X105226400Y-104098400D01*
X105202590Y-104122209D01*
X105178780Y-104169828D01*
X105178780Y-104288876D01*
X105202590Y-104336495D01*
X105226400Y-104360304D01*
X105274019Y-104384114D01*
X105369257Y-104384114D01*
X105416876Y-104360304D01*
X105440685Y-104336495D01*
X105464495Y-104288876D01*
X105916876Y-104574590D02*
X105678780Y-104574590D01*
X105678780Y-104074590D01*
X106083542Y-104312685D02*
X106250209Y-104312685D01*
X106321638Y-104574590D02*
X106083542Y-104574590D01*
X106083542Y-104074590D01*
X106321638Y-104074590D01*
X106631161Y-104074590D02*
X106678780Y-104074590D01*
X106726400Y-104098400D01*
X106750209Y-104122209D01*
X106774019Y-104169828D01*
X106797828Y-104265066D01*
X106797828Y-104384114D01*
X106774019Y-104479352D01*
X106750209Y-104526971D01*
X106726400Y-104550780D01*
X106678780Y-104574590D01*
X106631161Y-104574590D01*
X106583542Y-104550780D01*
X106559733Y-104526971D01*
X106535923Y-104479352D01*
X106512114Y-104384114D01*
X106512114Y-104265066D01*
X106535923Y-104169828D01*
X106559733Y-104122209D01*
X106583542Y-104098400D01*
X106631161Y-104074590D01*
X107274019Y-104574590D02*
X106988304Y-104574590D01*
X107131161Y-104574590D02*
X107131161Y-104074590D01*
X107083542Y-104146019D01*
X107035923Y-104193638D01*
X106988304Y-104217447D01*
X107583542Y-104074590D02*
X107631161Y-104074590D01*
X107678780Y-104098400D01*
X107702590Y-104122209D01*
X107726400Y-104169828D01*
X107750209Y-104265066D01*
X107750209Y-104384114D01*
X107726400Y-104479352D01*
X107702590Y-104526971D01*
X107678780Y-104550780D01*
X107631161Y-104574590D01*
X107583542Y-104574590D01*
X107535923Y-104550780D01*
X107512114Y-104526971D01*
X107488304Y-104479352D01*
X107464495Y-104384114D01*
X107464495Y-104265066D01*
X107488304Y-104169828D01*
X107512114Y-104122209D01*
X107535923Y-104098400D01*
X107583542Y-104074590D01*
D10*
X132110306Y-65563286D02*
X132110306Y-65087095D01*
X132396020Y-65658524D02*
X131396020Y-65325190D01*
X132396020Y-64991857D01*
X132396020Y-64658524D02*
X131396020Y-64658524D01*
X131396020Y-64420429D01*
X131443640Y-64277571D01*
X131538878Y-64182333D01*
X131634116Y-64134714D01*
X131824592Y-64087095D01*
X131967449Y-64087095D01*
X132157925Y-64134714D01*
X132253163Y-64182333D01*
X132348401Y-64277571D01*
X132396020Y-64420429D01*
X132396020Y-64658524D01*
X132396020Y-63134714D02*
X132396020Y-63706143D01*
X132396020Y-63420429D02*
X131396020Y-63420429D01*
X131538878Y-63515667D01*
X131634116Y-63610905D01*
X131681735Y-63706143D01*
X131396020Y-62515667D02*
X131396020Y-62420429D01*
X131443640Y-62325190D01*
X131491259Y-62277571D01*
X131586497Y-62229952D01*
X131776973Y-62182333D01*
X132015068Y-62182333D01*
X132205544Y-62229952D01*
X132300782Y-62277571D01*
X132348401Y-62325190D01*
X132396020Y-62420429D01*
X132396020Y-62515667D01*
X132348401Y-62610905D01*
X132300782Y-62658524D01*
X132205544Y-62706143D01*
X132015068Y-62753762D01*
X131776973Y-62753762D01*
X131586497Y-62706143D01*
X131491259Y-62658524D01*
X131443640Y-62610905D01*
X131396020Y-62515667D01*
X121946050Y-65563285D02*
X121946050Y-65087095D01*
X122231764Y-65658523D02*
X121231764Y-65325190D01*
X122231764Y-64991857D01*
X122231764Y-64658523D02*
X121231764Y-64658523D01*
X121231764Y-64420428D01*
X121279384Y-64277571D01*
X121374622Y-64182333D01*
X121469860Y-64134714D01*
X121660336Y-64087095D01*
X121803193Y-64087095D01*
X121993669Y-64134714D01*
X122088907Y-64182333D01*
X122184145Y-64277571D01*
X122231764Y-64420428D01*
X122231764Y-64658523D01*
X121231764Y-63229952D02*
X121231764Y-63420428D01*
X121279384Y-63515666D01*
X121327003Y-63563285D01*
X121469860Y-63658523D01*
X121660336Y-63706142D01*
X122041288Y-63706142D01*
X122136526Y-63658523D01*
X122184145Y-63610904D01*
X122231764Y-63515666D01*
X122231764Y-63325190D01*
X122184145Y-63229952D01*
X122136526Y-63182333D01*
X122041288Y-63134714D01*
X121803193Y-63134714D01*
X121707955Y-63182333D01*
X121660336Y-63229952D01*
X121612717Y-63325190D01*
X121612717Y-63515666D01*
X121660336Y-63610904D01*
X121707955Y-63658523D01*
X121803193Y-63706142D01*
X109179242Y-88665476D02*
X109179242Y-88189285D01*
X109464956Y-88760714D02*
X108464956Y-88427380D01*
X109464956Y-88094047D01*
X109464956Y-87236904D02*
X109464956Y-87808333D01*
X109464956Y-87522619D02*
X108464956Y-87522619D01*
X108607814Y-87617857D01*
X108703052Y-87713095D01*
X108750671Y-87808333D01*
X108464956Y-86903571D02*
X108464956Y-86236904D01*
X109464956Y-86665476D01*
X106699666Y-65563285D02*
X106699666Y-65087095D01*
X106985380Y-65658523D02*
X105985380Y-65325190D01*
X106985380Y-64991857D01*
X106985380Y-64658523D02*
X105985380Y-64658523D01*
X105985380Y-64420428D01*
X106033000Y-64277571D01*
X106128238Y-64182333D01*
X106223476Y-64134714D01*
X106413952Y-64087095D01*
X106556809Y-64087095D01*
X106747285Y-64134714D01*
X106842523Y-64182333D01*
X106937761Y-64277571D01*
X106985380Y-64420428D01*
X106985380Y-64658523D01*
X105985380Y-63468047D02*
X105985380Y-63372809D01*
X106033000Y-63277571D01*
X106080619Y-63229952D01*
X106175857Y-63182333D01*
X106366333Y-63134714D01*
X106604428Y-63134714D01*
X106794904Y-63182333D01*
X106890142Y-63229952D01*
X106937761Y-63277571D01*
X106985380Y-63372809D01*
X106985380Y-63468047D01*
X106937761Y-63563285D01*
X106890142Y-63610904D01*
X106794904Y-63658523D01*
X106604428Y-63706142D01*
X106366333Y-63706142D01*
X106175857Y-63658523D01*
X106080619Y-63610904D01*
X106033000Y-63563285D01*
X105985380Y-63468047D01*
X113508489Y-93189285D02*
X114794204Y-94046428D01*
X114556108Y-92855952D02*
X113889442Y-92855952D01*
X114079918Y-92855952D02*
X113984680Y-92808333D01*
X113937061Y-92760714D01*
X113889442Y-92665476D01*
X113889442Y-92570237D01*
X114508489Y-91855952D02*
X114556108Y-91951190D01*
X114556108Y-92141666D01*
X114508489Y-92236904D01*
X114413251Y-92284523D01*
X114032299Y-92284523D01*
X113937061Y-92236904D01*
X113889442Y-92141666D01*
X113889442Y-91951190D01*
X113937061Y-91855952D01*
X114032299Y-91808333D01*
X114127537Y-91808333D01*
X114222775Y-92284523D01*
X114556108Y-90951190D02*
X114032299Y-90951190D01*
X113937061Y-90998809D01*
X113889442Y-91094047D01*
X113889442Y-91284523D01*
X113937061Y-91379761D01*
X114508489Y-90951190D02*
X114556108Y-91046428D01*
X114556108Y-91284523D01*
X114508489Y-91379761D01*
X114413251Y-91427380D01*
X114318013Y-91427380D01*
X114222775Y-91379761D01*
X114175156Y-91284523D01*
X114175156Y-91046428D01*
X114127537Y-90951190D01*
X114556108Y-90046428D02*
X113556108Y-90046428D01*
X114508489Y-90046428D02*
X114556108Y-90141666D01*
X114556108Y-90332142D01*
X114508489Y-90427380D01*
X114460870Y-90474999D01*
X114365632Y-90522618D01*
X114079918Y-90522618D01*
X113984680Y-90474999D01*
X113937061Y-90427380D01*
X113889442Y-90332142D01*
X113889442Y-90141666D01*
X113937061Y-90046428D01*
X114651347Y-89808333D02*
X114651347Y-89046428D01*
X114556108Y-88808333D02*
X113556108Y-88808333D01*
X114556108Y-88236904D01*
X113556108Y-88236904D01*
X113556108Y-87332142D02*
X113556108Y-87522618D01*
X113603728Y-87617857D01*
X113651347Y-87665476D01*
X113794204Y-87760714D01*
X113984680Y-87808333D01*
X114365632Y-87808333D01*
X114460870Y-87760714D01*
X114508489Y-87713095D01*
X114556108Y-87617857D01*
X114556108Y-87427380D01*
X114508489Y-87332142D01*
X114460870Y-87284523D01*
X114365632Y-87236904D01*
X114127537Y-87236904D01*
X114032299Y-87284523D01*
X113984680Y-87332142D01*
X113937061Y-87427380D01*
X113937061Y-87617857D01*
X113984680Y-87713095D01*
X114032299Y-87760714D01*
X114127537Y-87808333D01*
X113889442Y-86379761D02*
X114556108Y-86379761D01*
X113508489Y-86617857D02*
X114222775Y-86855952D01*
X114222775Y-86236904D01*
D11*
X105015971Y-125606780D02*
X105087400Y-125630590D01*
X105206447Y-125630590D01*
X105254066Y-125606780D01*
X105277876Y-125582971D01*
X105301685Y-125535352D01*
X105301685Y-125487733D01*
X105277876Y-125440114D01*
X105254066Y-125416304D01*
X105206447Y-125392495D01*
X105111209Y-125368685D01*
X105063590Y-125344876D01*
X105039780Y-125321066D01*
X105015971Y-125273447D01*
X105015971Y-125225828D01*
X105039780Y-125178209D01*
X105063590Y-125154400D01*
X105111209Y-125130590D01*
X105230257Y-125130590D01*
X105301685Y-125154400D01*
X105492161Y-125606780D02*
X105563590Y-125630590D01*
X105682638Y-125630590D01*
X105730257Y-125606780D01*
X105754066Y-125582971D01*
X105777876Y-125535352D01*
X105777876Y-125487733D01*
X105754066Y-125440114D01*
X105730257Y-125416304D01*
X105682638Y-125392495D01*
X105587400Y-125368685D01*
X105539780Y-125344876D01*
X105515971Y-125321066D01*
X105492161Y-125273447D01*
X105492161Y-125225828D01*
X105515971Y-125178209D01*
X105539780Y-125154400D01*
X105587400Y-125130590D01*
X105706447Y-125130590D01*
X105777876Y-125154400D01*
X105920733Y-125130590D02*
X106206447Y-125130590D01*
X106063590Y-125630590D02*
X106063590Y-125130590D01*
X104075495Y-125983209D02*
X104099304Y-125959400D01*
X104146923Y-125935590D01*
X104265971Y-125935590D01*
X104313590Y-125959400D01*
X104337400Y-125983209D01*
X104361209Y-126030828D01*
X104361209Y-126078447D01*
X104337400Y-126149876D01*
X104051685Y-126435590D01*
X104361209Y-126435590D01*
X104646923Y-126149876D02*
X104599304Y-126126066D01*
X104575495Y-126102257D01*
X104551685Y-126054638D01*
X104551685Y-126030828D01*
X104575495Y-125983209D01*
X104599304Y-125959400D01*
X104646923Y-125935590D01*
X104742161Y-125935590D01*
X104789780Y-125959400D01*
X104813590Y-125983209D01*
X104837400Y-126030828D01*
X104837400Y-126054638D01*
X104813590Y-126102257D01*
X104789780Y-126126066D01*
X104742161Y-126149876D01*
X104646923Y-126149876D01*
X104599304Y-126173685D01*
X104575495Y-126197495D01*
X104551685Y-126245114D01*
X104551685Y-126340352D01*
X104575495Y-126387971D01*
X104599304Y-126411780D01*
X104646923Y-126435590D01*
X104742161Y-126435590D01*
X104789780Y-126411780D01*
X104813590Y-126387971D01*
X104837400Y-126340352D01*
X104837400Y-126245114D01*
X104813590Y-126197495D01*
X104789780Y-126173685D01*
X104742161Y-126149876D01*
X105289780Y-126435590D02*
X105051685Y-126435590D01*
X105051685Y-125935590D01*
X105623114Y-126173685D02*
X105456447Y-126173685D01*
X105456447Y-126435590D02*
X105456447Y-125935590D01*
X105694542Y-125935590D01*
X105980257Y-125935590D02*
X106027876Y-125935590D01*
X106075495Y-125959400D01*
X106099304Y-125983209D01*
X106123114Y-126030828D01*
X106146923Y-126126066D01*
X106146923Y-126245114D01*
X106123114Y-126340352D01*
X106099304Y-126387971D01*
X106075495Y-126411780D01*
X106027876Y-126435590D01*
X105980257Y-126435590D01*
X105932638Y-126411780D01*
X105908828Y-126387971D01*
X105885019Y-126340352D01*
X105861209Y-126245114D01*
X105861209Y-126126066D01*
X105885019Y-126030828D01*
X105908828Y-125983209D01*
X105932638Y-125959400D01*
X105980257Y-125935590D01*
X106575495Y-126102257D02*
X106575495Y-126435590D01*
X106456447Y-125911780D02*
X106337400Y-126268923D01*
X106646923Y-126268923D01*
X106932638Y-125935590D02*
X106980257Y-125935590D01*
X107027876Y-125959400D01*
X107051685Y-125983209D01*
X107075495Y-126030828D01*
X107099304Y-126126066D01*
X107099304Y-126245114D01*
X107075495Y-126340352D01*
X107051685Y-126387971D01*
X107027876Y-126411780D01*
X106980257Y-126435590D01*
X106932638Y-126435590D01*
X106885019Y-126411780D01*
X106861209Y-126387971D01*
X106837400Y-126340352D01*
X106813590Y-126245114D01*
X106813590Y-126126066D01*
X106837400Y-126030828D01*
X106861209Y-125983209D01*
X106885019Y-125959400D01*
X106932638Y-125935590D01*
X104063590Y-126788209D02*
X104087400Y-126764400D01*
X104135019Y-126740590D01*
X104254066Y-126740590D01*
X104301685Y-126764400D01*
X104325495Y-126788209D01*
X104349304Y-126835828D01*
X104349304Y-126883447D01*
X104325495Y-126954876D01*
X104039780Y-127240590D01*
X104349304Y-127240590D01*
X104587400Y-127240590D02*
X104682638Y-127240590D01*
X104730257Y-127216780D01*
X104754066Y-127192971D01*
X104801685Y-127121542D01*
X104825495Y-127026304D01*
X104825495Y-126835828D01*
X104801685Y-126788209D01*
X104777876Y-126764400D01*
X104730257Y-126740590D01*
X104635019Y-126740590D01*
X104587400Y-126764400D01*
X104563590Y-126788209D01*
X104539780Y-126835828D01*
X104539780Y-126954876D01*
X104563590Y-127002495D01*
X104587400Y-127026304D01*
X104635019Y-127050114D01*
X104730257Y-127050114D01*
X104777876Y-127026304D01*
X104801685Y-127002495D01*
X104825495Y-126954876D01*
X105277876Y-127240590D02*
X105039780Y-127240590D01*
X105039780Y-126740590D01*
X105444542Y-126978685D02*
X105611209Y-126978685D01*
X105682638Y-127240590D02*
X105444542Y-127240590D01*
X105444542Y-126740590D01*
X105682638Y-126740590D01*
X105992161Y-126740590D02*
X106039780Y-126740590D01*
X106087400Y-126764400D01*
X106111209Y-126788209D01*
X106135019Y-126835828D01*
X106158828Y-126931066D01*
X106158828Y-127050114D01*
X106135019Y-127145352D01*
X106111209Y-127192971D01*
X106087400Y-127216780D01*
X106039780Y-127240590D01*
X105992161Y-127240590D01*
X105944542Y-127216780D01*
X105920733Y-127192971D01*
X105896923Y-127145352D01*
X105873114Y-127050114D01*
X105873114Y-126931066D01*
X105896923Y-126835828D01*
X105920733Y-126788209D01*
X105944542Y-126764400D01*
X105992161Y-126740590D01*
X106635019Y-127240590D02*
X106349304Y-127240590D01*
X106492161Y-127240590D02*
X106492161Y-126740590D01*
X106444542Y-126812019D01*
X106396923Y-126859638D01*
X106349304Y-126883447D01*
X106944542Y-126740590D02*
X106992161Y-126740590D01*
X107039780Y-126764400D01*
X107063590Y-126788209D01*
X107087400Y-126835828D01*
X107111209Y-126931066D01*
X107111209Y-127050114D01*
X107087400Y-127145352D01*
X107063590Y-127192971D01*
X107039780Y-127216780D01*
X106992161Y-127240590D01*
X106944542Y-127240590D01*
X106896923Y-127216780D01*
X106873114Y-127192971D01*
X106849304Y-127145352D01*
X106825495Y-127050114D01*
X106825495Y-126931066D01*
X106849304Y-126835828D01*
X106873114Y-126788209D01*
X106896923Y-126764400D01*
X106944542Y-126740590D01*
D10*
X142557444Y-93189285D02*
X141557444Y-93189285D01*
X141557444Y-92808333D01*
X141605064Y-92713094D01*
X141652683Y-92665475D01*
X141747921Y-92617856D01*
X141890778Y-92617856D01*
X141986016Y-92665475D01*
X142033635Y-92713094D01*
X142081254Y-92808333D01*
X142081254Y-93189285D01*
X142557444Y-91760714D02*
X142033635Y-91760714D01*
X141938397Y-91808333D01*
X141890778Y-91903571D01*
X141890778Y-92094047D01*
X141938397Y-92189285D01*
X142509825Y-91760714D02*
X142557444Y-91855952D01*
X142557444Y-92094047D01*
X142509825Y-92189285D01*
X142414587Y-92236904D01*
X142319349Y-92236904D01*
X142224111Y-92189285D01*
X142176492Y-92094047D01*
X142176492Y-91855952D01*
X142128873Y-91760714D01*
X142557444Y-91284523D02*
X141890778Y-91284523D01*
X142081254Y-91284523D02*
X141986016Y-91236904D01*
X141938397Y-91189285D01*
X141890778Y-91094047D01*
X141890778Y-90998809D01*
X142557444Y-90665475D02*
X141557444Y-90665475D01*
X141557444Y-90284523D01*
X141605064Y-90189285D01*
X141652683Y-90141666D01*
X141747921Y-90094047D01*
X141890778Y-90094047D01*
X141986016Y-90141666D01*
X142033635Y-90189285D01*
X142081254Y-90284523D01*
X142081254Y-90665475D01*
X142557444Y-89522618D02*
X142509825Y-89617856D01*
X142462206Y-89665475D01*
X142366968Y-89713094D01*
X142081254Y-89713094D01*
X141986016Y-89665475D01*
X141938397Y-89617856D01*
X141890778Y-89522618D01*
X141890778Y-89379761D01*
X141938397Y-89284523D01*
X141986016Y-89236904D01*
X142081254Y-89189285D01*
X142366968Y-89189285D01*
X142462206Y-89236904D01*
X142509825Y-89284523D01*
X142557444Y-89379761D01*
X142557444Y-89522618D01*
X142557444Y-88760714D02*
X141890778Y-88760714D01*
X142081254Y-88760714D02*
X141986016Y-88713094D01*
X141938397Y-88665475D01*
X141890778Y-88570237D01*
X141890778Y-88474999D01*
X141890778Y-88284523D02*
X141890778Y-87903571D01*
X141557444Y-88141666D02*
X142414587Y-88141666D01*
X142509825Y-88094047D01*
X142557444Y-87998809D01*
X142557444Y-87903571D01*
X142652683Y-87808333D02*
X142652683Y-87046428D01*
X141652683Y-86855952D02*
X141605064Y-86808333D01*
X141557444Y-86713094D01*
X141557444Y-86474999D01*
X141605064Y-86379761D01*
X141652683Y-86332142D01*
X141747921Y-86284523D01*
X141843159Y-86284523D01*
X141986016Y-86332142D01*
X142557444Y-86903571D01*
X142557444Y-86284523D01*
X129829564Y-92046427D02*
X128829564Y-92046427D01*
X128829564Y-91665475D01*
X128877184Y-91570237D01*
X128924803Y-91522618D01*
X129020041Y-91474999D01*
X129162898Y-91474999D01*
X129258136Y-91522618D01*
X129305755Y-91570237D01*
X129353374Y-91665475D01*
X129353374Y-92046427D01*
X129829564Y-91046427D02*
X128829564Y-91046427D01*
X129734326Y-89998808D02*
X129781945Y-90046427D01*
X129829564Y-90189285D01*
X129829564Y-90284523D01*
X129781945Y-90427380D01*
X129686707Y-90522618D01*
X129591469Y-90570237D01*
X129400993Y-90617856D01*
X129258136Y-90617856D01*
X129067660Y-90570237D01*
X128972422Y-90522618D01*
X128877184Y-90427380D01*
X128829564Y-90284523D01*
X128829564Y-90189285D01*
X128877184Y-90046427D01*
X128924803Y-89998808D01*
X129924803Y-89808332D02*
X129924803Y-89046427D01*
X128877184Y-88284523D02*
X128829564Y-88379761D01*
X128829564Y-88522618D01*
X128877184Y-88665475D01*
X128972422Y-88760713D01*
X129067660Y-88808332D01*
X129258136Y-88855951D01*
X129400993Y-88855951D01*
X129591469Y-88808332D01*
X129686707Y-88760713D01*
X129781945Y-88665475D01*
X129829564Y-88522618D01*
X129829564Y-88427380D01*
X129781945Y-88284523D01*
X129734326Y-88236904D01*
X129400993Y-88236904D01*
X129400993Y-88427380D01*
X129829564Y-87808332D02*
X128829564Y-87808332D01*
X128829564Y-87427380D01*
X128877184Y-87332142D01*
X128924803Y-87284523D01*
X129020041Y-87236904D01*
X129162898Y-87236904D01*
X129258136Y-87284523D01*
X129305755Y-87332142D01*
X129353374Y-87427380D01*
X129353374Y-87808332D01*
X129162898Y-86379761D02*
X129829564Y-86379761D01*
X128781945Y-86617856D02*
X129496231Y-86855951D01*
X129496231Y-86236904D01*
X170558780Y-90903571D02*
X169558780Y-90903571D01*
X169558780Y-90522618D01*
X169606400Y-90427380D01*
X169654019Y-90379761D01*
X169749257Y-90332142D01*
X169892114Y-90332142D01*
X169987352Y-90379761D01*
X170034971Y-90427380D01*
X170082590Y-90522618D01*
X170082590Y-90903571D01*
X170558780Y-89903571D02*
X169892114Y-89903571D01*
X169558780Y-89903571D02*
X169606400Y-89951190D01*
X169654019Y-89903571D01*
X169606400Y-89855952D01*
X169558780Y-89903571D01*
X169654019Y-89903571D01*
X169892114Y-89427380D02*
X170558780Y-89427380D01*
X169987352Y-89427380D02*
X169939733Y-89379761D01*
X169892114Y-89284523D01*
X169892114Y-89141666D01*
X169939733Y-89046428D01*
X170034971Y-88998809D01*
X170558780Y-88998809D01*
X169558780Y-87855952D02*
X169558780Y-87236904D01*
X169939733Y-87570237D01*
X169939733Y-87427380D01*
X169987352Y-87332142D01*
X170034971Y-87284523D01*
X170130209Y-87236904D01*
X170368304Y-87236904D01*
X170463542Y-87284523D01*
X170511161Y-87332142D01*
X170558780Y-87427380D01*
X170558780Y-87713095D01*
X170511161Y-87808333D01*
X170463542Y-87855952D01*
X170558780Y-86760714D02*
X170558780Y-86570237D01*
X170511161Y-86474999D01*
X170463542Y-86427380D01*
X170320685Y-86332142D01*
X170130209Y-86284523D01*
X169749257Y-86284523D01*
X169654019Y-86332142D01*
X169606400Y-86379761D01*
X169558780Y-86474999D01*
X169558780Y-86665476D01*
X169606400Y-86760714D01*
X169654019Y-86808333D01*
X169749257Y-86855952D01*
X169987352Y-86855952D01*
X170082590Y-86808333D01*
X170130209Y-86760714D01*
X170177828Y-86665476D01*
X170177828Y-86474999D01*
X170130209Y-86379761D01*
X170082590Y-86332142D01*
X169987352Y-86284523D01*
X154979882Y-65563285D02*
X154979882Y-65087095D01*
X155265596Y-65658523D02*
X154265596Y-65325190D01*
X155265596Y-64991857D01*
X154265596Y-64753761D02*
X154265596Y-64134714D01*
X154646549Y-64468047D01*
X154646549Y-64325190D01*
X154694168Y-64229952D01*
X154741787Y-64182333D01*
X154837025Y-64134714D01*
X155075120Y-64134714D01*
X155170358Y-64182333D01*
X155217977Y-64229952D01*
X155265596Y-64325190D01*
X155265596Y-64610904D01*
X155217977Y-64706142D01*
X155170358Y-64753761D01*
X147648596Y-93189285D02*
X146648596Y-93189285D01*
X146648596Y-92808333D01*
X146696216Y-92713094D01*
X146743835Y-92665475D01*
X146839073Y-92617856D01*
X146981930Y-92617856D01*
X147077168Y-92665475D01*
X147124787Y-92713094D01*
X147172406Y-92808333D01*
X147172406Y-93189285D01*
X147648596Y-91760714D02*
X147124787Y-91760714D01*
X147029549Y-91808333D01*
X146981930Y-91903571D01*
X146981930Y-92094047D01*
X147029549Y-92189285D01*
X147600977Y-91760714D02*
X147648596Y-91855952D01*
X147648596Y-92094047D01*
X147600977Y-92189285D01*
X147505739Y-92236904D01*
X147410501Y-92236904D01*
X147315263Y-92189285D01*
X147267644Y-92094047D01*
X147267644Y-91855952D01*
X147220025Y-91760714D01*
X147648596Y-91284523D02*
X146981930Y-91284523D01*
X147172406Y-91284523D02*
X147077168Y-91236904D01*
X147029549Y-91189285D01*
X146981930Y-91094047D01*
X146981930Y-90998809D01*
X147648596Y-90665475D02*
X146648596Y-90665475D01*
X146648596Y-90284523D01*
X146696216Y-90189285D01*
X146743835Y-90141666D01*
X146839073Y-90094047D01*
X146981930Y-90094047D01*
X147077168Y-90141666D01*
X147124787Y-90189285D01*
X147172406Y-90284523D01*
X147172406Y-90665475D01*
X147648596Y-89522618D02*
X147600977Y-89617856D01*
X147553358Y-89665475D01*
X147458120Y-89713094D01*
X147172406Y-89713094D01*
X147077168Y-89665475D01*
X147029549Y-89617856D01*
X146981930Y-89522618D01*
X146981930Y-89379761D01*
X147029549Y-89284523D01*
X147077168Y-89236904D01*
X147172406Y-89189285D01*
X147458120Y-89189285D01*
X147553358Y-89236904D01*
X147600977Y-89284523D01*
X147648596Y-89379761D01*
X147648596Y-89522618D01*
X147648596Y-88760714D02*
X146981930Y-88760714D01*
X147172406Y-88760714D02*
X147077168Y-88713094D01*
X147029549Y-88665475D01*
X146981930Y-88570237D01*
X146981930Y-88474999D01*
X146981930Y-88284523D02*
X146981930Y-87903571D01*
X146648596Y-88141666D02*
X147505739Y-88141666D01*
X147600977Y-88094047D01*
X147648596Y-87998809D01*
X147648596Y-87903571D01*
X147743835Y-87808333D02*
X147743835Y-87046428D01*
X146981930Y-86379761D02*
X147648596Y-86379761D01*
X146600977Y-86617856D02*
X147315263Y-86855952D01*
X147315263Y-86236904D01*
D11*
X187497257Y-98927590D02*
X187497257Y-98427590D01*
X187497257Y-98665685D02*
X187782971Y-98665685D01*
X187782971Y-98927590D02*
X187782971Y-98427590D01*
X188306780Y-98879971D02*
X188282971Y-98903780D01*
X188211542Y-98927590D01*
X188163923Y-98927590D01*
X188092495Y-98903780D01*
X188044876Y-98856161D01*
X188021066Y-98808542D01*
X187997257Y-98713304D01*
X187997257Y-98641876D01*
X188021066Y-98546638D01*
X188044876Y-98499019D01*
X188092495Y-98451400D01*
X188163923Y-98427590D01*
X188211542Y-98427590D01*
X188282971Y-98451400D01*
X188306780Y-98475209D01*
X188782971Y-98927590D02*
X188497257Y-98927590D01*
X188640114Y-98927590D02*
X188640114Y-98427590D01*
X188592495Y-98499019D01*
X188544876Y-98546638D01*
X188497257Y-98570447D01*
X189211542Y-98427590D02*
X189116304Y-98427590D01*
X189068685Y-98451400D01*
X189044876Y-98475209D01*
X188997257Y-98546638D01*
X188973447Y-98641876D01*
X188973447Y-98832352D01*
X188997257Y-98879971D01*
X189021066Y-98903780D01*
X189068685Y-98927590D01*
X189163923Y-98927590D01*
X189211542Y-98903780D01*
X189235352Y-98879971D01*
X189259161Y-98832352D01*
X189259161Y-98713304D01*
X189235352Y-98665685D01*
X189211542Y-98641876D01*
X189163923Y-98618066D01*
X189068685Y-98618066D01*
X189021066Y-98641876D01*
X188997257Y-98665685D01*
X188973447Y-98713304D01*
X189687733Y-98594257D02*
X189687733Y-98927590D01*
X189568685Y-98403780D02*
X189449638Y-98760923D01*
X189759161Y-98760923D01*
D10*
X124690793Y-91236904D02*
X124738412Y-91094047D01*
X124738412Y-90855952D01*
X124690793Y-90760714D01*
X124643174Y-90713094D01*
X124547936Y-90665475D01*
X124452698Y-90665475D01*
X124357460Y-90713094D01*
X124309841Y-90760714D01*
X124262222Y-90855952D01*
X124214603Y-91046428D01*
X124166984Y-91141666D01*
X124119365Y-91189285D01*
X124024127Y-91236904D01*
X123928889Y-91236904D01*
X123833651Y-91189285D01*
X123786032Y-91141666D01*
X123738412Y-91046428D01*
X123738412Y-90808333D01*
X123786032Y-90665475D01*
X124690793Y-90284523D02*
X124738412Y-90141666D01*
X124738412Y-89903571D01*
X124690793Y-89808333D01*
X124643174Y-89760714D01*
X124547936Y-89713094D01*
X124452698Y-89713094D01*
X124357460Y-89760714D01*
X124309841Y-89808333D01*
X124262222Y-89903571D01*
X124214603Y-90094047D01*
X124166984Y-90189285D01*
X124119365Y-90236904D01*
X124024127Y-90284523D01*
X123928889Y-90284523D01*
X123833651Y-90236904D01*
X123786032Y-90189285D01*
X123738412Y-90094047D01*
X123738412Y-89855952D01*
X123786032Y-89713094D01*
X123738412Y-89427380D02*
X123738412Y-88855952D01*
X124738412Y-89141666D02*
X123738412Y-89141666D01*
X124833651Y-88760714D02*
X124833651Y-87998809D01*
X124643174Y-87189285D02*
X124690793Y-87236904D01*
X124738412Y-87379761D01*
X124738412Y-87474999D01*
X124690793Y-87617856D01*
X124595555Y-87713094D01*
X124500317Y-87760714D01*
X124309841Y-87808333D01*
X124166984Y-87808333D01*
X123976508Y-87760714D01*
X123881270Y-87713094D01*
X123786032Y-87617856D01*
X123738412Y-87474999D01*
X123738412Y-87379761D01*
X123786032Y-87236904D01*
X123833651Y-87189285D01*
X124214603Y-86760714D02*
X124214603Y-86427380D01*
X124738412Y-86284523D02*
X124738412Y-86760714D01*
X123738412Y-86760714D01*
X123738412Y-86284523D01*
X139733498Y-65563286D02*
X139733498Y-65087095D01*
X140019212Y-65658524D02*
X139019212Y-65325190D01*
X140019212Y-64991857D01*
X140019212Y-64658524D02*
X139019212Y-64658524D01*
X139019212Y-64420429D01*
X139066832Y-64277571D01*
X139162070Y-64182333D01*
X139257308Y-64134714D01*
X139447784Y-64087095D01*
X139590641Y-64087095D01*
X139781117Y-64134714D01*
X139876355Y-64182333D01*
X139971593Y-64277571D01*
X140019212Y-64420429D01*
X140019212Y-64658524D01*
X140019212Y-63134714D02*
X140019212Y-63706143D01*
X140019212Y-63420429D02*
X139019212Y-63420429D01*
X139162070Y-63515667D01*
X139257308Y-63610905D01*
X139304927Y-63706143D01*
X139019212Y-62801381D02*
X139019212Y-62182333D01*
X139400165Y-62515667D01*
X139400165Y-62372810D01*
X139447784Y-62277571D01*
X139495403Y-62229952D01*
X139590641Y-62182333D01*
X139828736Y-62182333D01*
X139923974Y-62229952D01*
X139971593Y-62277571D01*
X140019212Y-62372810D01*
X140019212Y-62658524D01*
X139971593Y-62753762D01*
X139923974Y-62801381D01*
D11*
X189143733Y-104069590D02*
X188858019Y-104069590D01*
X189000876Y-104069590D02*
X189000876Y-103569590D01*
X188953257Y-103641019D01*
X188905638Y-103688638D01*
X188858019Y-103712447D01*
X189358019Y-103879114D02*
X189738971Y-103879114D01*
X129727495Y-126773590D02*
X129489400Y-126773590D01*
X129489400Y-126273590D01*
X129846542Y-126273590D02*
X130179876Y-126273590D01*
X129846542Y-126773590D01*
X130179876Y-126773590D01*
X130394161Y-126773590D02*
X130489400Y-126773590D01*
X130537019Y-126749780D01*
X130560828Y-126725971D01*
X130608447Y-126654542D01*
X130632257Y-126559304D01*
X130632257Y-126368828D01*
X130608447Y-126321209D01*
X130584638Y-126297400D01*
X130537019Y-126273590D01*
X130441780Y-126273590D01*
X130394161Y-126297400D01*
X130370352Y-126321209D01*
X130346542Y-126368828D01*
X130346542Y-126487876D01*
X130370352Y-126535495D01*
X130394161Y-126559304D01*
X130441780Y-126583114D01*
X130537019Y-126583114D01*
X130584638Y-126559304D01*
X130608447Y-126535495D01*
X130632257Y-126487876D01*
X131013209Y-126511685D02*
X130846542Y-126511685D01*
X130846542Y-126773590D02*
X130846542Y-126273590D01*
X131084638Y-126273590D01*
X131560828Y-126725971D02*
X131537019Y-126749780D01*
X131465590Y-126773590D01*
X131417971Y-126773590D01*
X131346542Y-126749780D01*
X131298923Y-126702161D01*
X131275114Y-126654542D01*
X131251304Y-126559304D01*
X131251304Y-126487876D01*
X131275114Y-126392638D01*
X131298923Y-126345019D01*
X131346542Y-126297400D01*
X131417971Y-126273590D01*
X131465590Y-126273590D01*
X131537019Y-126297400D01*
X131560828Y-126321209D01*
X132037019Y-126773590D02*
X131751304Y-126773590D01*
X131894161Y-126773590D02*
X131894161Y-126273590D01*
X131846542Y-126345019D01*
X131798923Y-126392638D01*
X131751304Y-126416447D01*
X132203685Y-126273590D02*
X132537019Y-126273590D01*
X132322733Y-126773590D01*
X129167971Y-127578590D02*
X129167971Y-127078590D01*
X129287019Y-127078590D01*
X129358447Y-127102400D01*
X129406066Y-127150019D01*
X129429876Y-127197638D01*
X129453685Y-127292876D01*
X129453685Y-127364304D01*
X129429876Y-127459542D01*
X129406066Y-127507161D01*
X129358447Y-127554780D01*
X129287019Y-127578590D01*
X129167971Y-127578590D01*
X129644161Y-127435733D02*
X129882257Y-127435733D01*
X129596542Y-127578590D02*
X129763209Y-127078590D01*
X129929876Y-127578590D01*
X130025114Y-127078590D02*
X130310828Y-127078590D01*
X130167971Y-127578590D02*
X130167971Y-127078590D01*
X130477495Y-127316685D02*
X130644161Y-127316685D01*
X130715590Y-127578590D02*
X130477495Y-127578590D01*
X130477495Y-127078590D01*
X130715590Y-127078590D01*
X131167971Y-127578590D02*
X130929876Y-127578590D01*
X130929876Y-127078590D01*
X131977495Y-127102400D02*
X131929876Y-127078590D01*
X131858447Y-127078590D01*
X131787019Y-127102400D01*
X131739400Y-127150019D01*
X131715590Y-127197638D01*
X131691780Y-127292876D01*
X131691780Y-127364304D01*
X131715590Y-127459542D01*
X131739400Y-127507161D01*
X131787019Y-127554780D01*
X131858447Y-127578590D01*
X131906066Y-127578590D01*
X131977495Y-127554780D01*
X132001304Y-127530971D01*
X132001304Y-127364304D01*
X131906066Y-127364304D01*
X132191780Y-127435733D02*
X132429876Y-127435733D01*
X132144161Y-127578590D02*
X132310828Y-127078590D01*
X132477495Y-127578590D01*
X132882257Y-127578590D02*
X132644161Y-127578590D01*
X132644161Y-127078590D01*
X128513209Y-128240733D02*
X128751304Y-128240733D01*
X128465590Y-128383590D02*
X128632257Y-127883590D01*
X128798923Y-128383590D01*
X129179876Y-128359780D02*
X129132257Y-128383590D01*
X129037019Y-128383590D01*
X128989400Y-128359780D01*
X128965590Y-128335971D01*
X128941780Y-128288352D01*
X128941780Y-128145495D01*
X128965590Y-128097876D01*
X128989400Y-128074066D01*
X129037019Y-128050257D01*
X129132257Y-128050257D01*
X129179876Y-128074066D01*
X129322733Y-128050257D02*
X129513209Y-128050257D01*
X129394161Y-127883590D02*
X129394161Y-128312161D01*
X129417971Y-128359780D01*
X129465590Y-128383590D01*
X129513209Y-128383590D01*
X129679876Y-128383590D02*
X129679876Y-128050257D01*
X129679876Y-127883590D02*
X129656066Y-127907400D01*
X129679876Y-127931209D01*
X129703685Y-127907400D01*
X129679876Y-127883590D01*
X129679876Y-127931209D01*
X129989400Y-128383590D02*
X129941780Y-128359780D01*
X129917971Y-128335971D01*
X129894161Y-128288352D01*
X129894161Y-128145495D01*
X129917971Y-128097876D01*
X129941780Y-128074066D01*
X129989400Y-128050257D01*
X130060828Y-128050257D01*
X130108447Y-128074066D01*
X130132257Y-128097876D01*
X130156066Y-128145495D01*
X130156066Y-128288352D01*
X130132257Y-128335971D01*
X130108447Y-128359780D01*
X130060828Y-128383590D01*
X129989400Y-128383590D01*
X130370352Y-128050257D02*
X130370352Y-128383590D01*
X130370352Y-128097876D02*
X130394161Y-128074066D01*
X130441780Y-128050257D01*
X130513209Y-128050257D01*
X130560828Y-128074066D01*
X130584638Y-128121685D01*
X130584638Y-128383590D01*
X131489400Y-128383590D02*
X131322733Y-128145495D01*
X131203685Y-128383590D02*
X131203685Y-127883590D01*
X131394161Y-127883590D01*
X131441780Y-127907400D01*
X131465590Y-127931209D01*
X131489400Y-127978828D01*
X131489400Y-128050257D01*
X131465590Y-128097876D01*
X131441780Y-128121685D01*
X131394161Y-128145495D01*
X131203685Y-128145495D01*
X131894161Y-128359780D02*
X131846542Y-128383590D01*
X131751304Y-128383590D01*
X131703685Y-128359780D01*
X131679876Y-128312161D01*
X131679876Y-128121685D01*
X131703685Y-128074066D01*
X131751304Y-128050257D01*
X131846542Y-128050257D01*
X131894161Y-128074066D01*
X131917971Y-128121685D01*
X131917971Y-128169304D01*
X131679876Y-128216923D01*
X132132257Y-128050257D02*
X132132257Y-128550257D01*
X132132257Y-128074066D02*
X132179876Y-128050257D01*
X132275114Y-128050257D01*
X132322733Y-128074066D01*
X132346542Y-128097876D01*
X132370352Y-128145495D01*
X132370352Y-128288352D01*
X132346542Y-128335971D01*
X132322733Y-128359780D01*
X132275114Y-128383590D01*
X132179876Y-128383590D01*
X132132257Y-128359780D01*
X132656066Y-128383590D02*
X132608447Y-128359780D01*
X132584638Y-128312161D01*
X132584638Y-127883590D01*
X133060828Y-128383590D02*
X133060828Y-128121685D01*
X133037019Y-128074066D01*
X132989400Y-128050257D01*
X132894161Y-128050257D01*
X132846542Y-128074066D01*
X133060828Y-128359780D02*
X133013209Y-128383590D01*
X132894161Y-128383590D01*
X132846542Y-128359780D01*
X132822733Y-128312161D01*
X132822733Y-128264542D01*
X132846542Y-128216923D01*
X132894161Y-128193114D01*
X133013209Y-128193114D01*
X133060828Y-128169304D01*
X133251304Y-128050257D02*
X133370352Y-128383590D01*
X133489400Y-128050257D02*
X133370352Y-128383590D01*
X133322733Y-128502638D01*
X133298923Y-128526447D01*
X133251304Y-128550257D01*
D10*
X134651370Y-65563286D02*
X134651370Y-65087095D01*
X134937084Y-65658524D02*
X133937084Y-65325190D01*
X134937084Y-64991857D01*
X134937084Y-64658524D02*
X133937084Y-64658524D01*
X133937084Y-64420429D01*
X133984704Y-64277571D01*
X134079942Y-64182333D01*
X134175180Y-64134714D01*
X134365656Y-64087095D01*
X134508513Y-64087095D01*
X134698989Y-64134714D01*
X134794227Y-64182333D01*
X134889465Y-64277571D01*
X134937084Y-64420429D01*
X134937084Y-64658524D01*
X134937084Y-63134714D02*
X134937084Y-63706143D01*
X134937084Y-63420429D02*
X133937084Y-63420429D01*
X134079942Y-63515667D01*
X134175180Y-63610905D01*
X134222799Y-63706143D01*
X134937084Y-62182333D02*
X134937084Y-62753762D01*
X134937084Y-62468048D02*
X133937084Y-62468048D01*
X134079942Y-62563286D01*
X134175180Y-62658524D01*
X134222799Y-62753762D01*
D11*
X106294257Y-131630090D02*
X106008542Y-131630090D01*
X106151400Y-131630090D02*
X106151400Y-131130090D01*
X106103780Y-131201519D01*
X106056161Y-131249138D01*
X106008542Y-131272947D01*
X106151400Y-132601757D02*
X106151400Y-131887471D01*
D10*
X144815626Y-65563286D02*
X144815626Y-65087095D01*
X145101340Y-65658524D02*
X144101340Y-65325190D01*
X145101340Y-64991857D01*
X145101340Y-64658524D02*
X144101340Y-64658524D01*
X144101340Y-64420429D01*
X144148960Y-64277571D01*
X144244198Y-64182333D01*
X144339436Y-64134714D01*
X144529912Y-64087095D01*
X144672769Y-64087095D01*
X144863245Y-64134714D01*
X144958483Y-64182333D01*
X145053721Y-64277571D01*
X145101340Y-64420429D01*
X145101340Y-64658524D01*
X145101340Y-63134714D02*
X145101340Y-63706143D01*
X145101340Y-63420429D02*
X144101340Y-63420429D01*
X144244198Y-63515667D01*
X144339436Y-63610905D01*
X144387055Y-63706143D01*
X144101340Y-62229952D02*
X144101340Y-62706143D01*
X144577531Y-62753762D01*
X144529912Y-62706143D01*
X144482293Y-62610905D01*
X144482293Y-62372810D01*
X144529912Y-62277571D01*
X144577531Y-62229952D01*
X144672769Y-62182333D01*
X144910864Y-62182333D01*
X145006102Y-62229952D01*
X145053721Y-62277571D01*
X145101340Y-62372810D01*
X145101340Y-62610905D01*
X145053721Y-62706143D01*
X145006102Y-62753762D01*
X111781794Y-65563285D02*
X111781794Y-65087095D01*
X112067508Y-65658523D02*
X111067508Y-65325190D01*
X112067508Y-64991857D01*
X112067508Y-64658523D02*
X111067508Y-64658523D01*
X111067508Y-64420428D01*
X111115128Y-64277571D01*
X111210366Y-64182333D01*
X111305604Y-64134714D01*
X111496080Y-64087095D01*
X111638937Y-64087095D01*
X111829413Y-64134714D01*
X111924651Y-64182333D01*
X112019889Y-64277571D01*
X112067508Y-64420428D01*
X112067508Y-64658523D01*
X111162747Y-63706142D02*
X111115128Y-63658523D01*
X111067508Y-63563285D01*
X111067508Y-63325190D01*
X111115128Y-63229952D01*
X111162747Y-63182333D01*
X111257985Y-63134714D01*
X111353223Y-63134714D01*
X111496080Y-63182333D01*
X112067508Y-63753761D01*
X112067508Y-63134714D01*
X119404986Y-65563285D02*
X119404986Y-65087095D01*
X119690700Y-65658523D02*
X118690700Y-65325190D01*
X119690700Y-64991857D01*
X119690700Y-64658523D02*
X118690700Y-64658523D01*
X118690700Y-64420428D01*
X118738320Y-64277571D01*
X118833558Y-64182333D01*
X118928796Y-64134714D01*
X119119272Y-64087095D01*
X119262129Y-64087095D01*
X119452605Y-64134714D01*
X119547843Y-64182333D01*
X119643081Y-64277571D01*
X119690700Y-64420428D01*
X119690700Y-64658523D01*
X118690700Y-63182333D02*
X118690700Y-63658523D01*
X119166891Y-63706142D01*
X119119272Y-63658523D01*
X119071653Y-63563285D01*
X119071653Y-63325190D01*
X119119272Y-63229952D01*
X119166891Y-63182333D01*
X119262129Y-63134714D01*
X119500224Y-63134714D01*
X119595462Y-63182333D01*
X119643081Y-63229952D01*
X119690700Y-63325190D01*
X119690700Y-63563285D01*
X119643081Y-63658523D01*
X119595462Y-63706142D01*
X180390522Y-65563286D02*
X180390522Y-65087095D01*
X180676236Y-65658524D02*
X179676236Y-65325190D01*
X180676236Y-64991857D01*
X180676236Y-64134714D02*
X180676236Y-64706143D01*
X180676236Y-64420429D02*
X179676236Y-64420429D01*
X179819094Y-64515667D01*
X179914332Y-64610905D01*
X179961951Y-64706143D01*
X179676236Y-63801381D02*
X179676236Y-63182333D01*
X180057189Y-63515667D01*
X180057189Y-63372810D01*
X180104808Y-63277571D01*
X180152427Y-63229952D01*
X180247665Y-63182333D01*
X180485760Y-63182333D01*
X180580998Y-63229952D01*
X180628617Y-63277571D01*
X180676236Y-63372810D01*
X180676236Y-63658524D01*
X180628617Y-63753762D01*
X180580998Y-63801381D01*
X106633666Y-88665476D02*
X106633666Y-88189285D01*
X106919380Y-88760714D02*
X105919380Y-88427380D01*
X106919380Y-88094047D01*
X106919380Y-87236904D02*
X106919380Y-87808333D01*
X106919380Y-87522619D02*
X105919380Y-87522619D01*
X106062238Y-87617857D01*
X106157476Y-87713095D01*
X106205095Y-87808333D01*
X105919380Y-86379761D02*
X105919380Y-86570238D01*
X105967000Y-86665476D01*
X106014619Y-86713095D01*
X106157476Y-86808333D01*
X106347952Y-86855952D01*
X106728904Y-86855952D01*
X106824142Y-86808333D01*
X106871761Y-86760714D01*
X106919380Y-86665476D01*
X106919380Y-86475000D01*
X106871761Y-86379761D01*
X106824142Y-86332142D01*
X106728904Y-86284523D01*
X106490809Y-86284523D01*
X106395571Y-86332142D01*
X106347952Y-86379761D01*
X106300333Y-86475000D01*
X106300333Y-86665476D01*
X106347952Y-86760714D01*
X106395571Y-86808333D01*
X106490809Y-86855952D01*
X116054065Y-89760713D02*
X117339780Y-90617856D01*
X116435018Y-89522618D02*
X117101684Y-89332142D01*
X116625494Y-89141666D01*
X117101684Y-88951190D01*
X116435018Y-88760713D01*
X117101684Y-88379761D02*
X116435018Y-88379761D01*
X116625494Y-88379761D02*
X116530256Y-88332142D01*
X116482637Y-88284523D01*
X116435018Y-88189285D01*
X116435018Y-88094047D01*
X117101684Y-87760713D02*
X116435018Y-87760713D01*
X116101684Y-87760713D02*
X116149304Y-87808332D01*
X116196923Y-87760713D01*
X116149304Y-87713094D01*
X116101684Y-87760713D01*
X116196923Y-87760713D01*
X116435018Y-87427380D02*
X116435018Y-87046428D01*
X116101684Y-87284523D02*
X116958827Y-87284523D01*
X117054065Y-87236904D01*
X117101684Y-87141666D01*
X117101684Y-87046428D01*
X117054065Y-86332142D02*
X117101684Y-86427380D01*
X117101684Y-86617856D01*
X117054065Y-86713094D01*
X116958827Y-86760713D01*
X116577875Y-86760713D01*
X116482637Y-86713094D01*
X116435018Y-86617856D01*
X116435018Y-86427380D01*
X116482637Y-86332142D01*
X116577875Y-86284523D01*
X116673113Y-86284523D01*
X116768351Y-86760713D01*
X188583761Y-71328000D02*
X188488523Y-71280380D01*
X188345666Y-71280380D01*
X188202809Y-71328000D01*
X188107571Y-71423238D01*
X188059952Y-71518476D01*
X188012333Y-71708952D01*
X188012333Y-71851809D01*
X188059952Y-72042285D01*
X188107571Y-72137523D01*
X188202809Y-72232761D01*
X188345666Y-72280380D01*
X188440904Y-72280380D01*
X188583761Y-72232761D01*
X188631380Y-72185142D01*
X188631380Y-71851809D01*
X188440904Y-71851809D01*
X189059952Y-72280380D02*
X189059952Y-71280380D01*
X189631380Y-72280380D01*
X189631380Y-71280380D01*
X190107571Y-72280380D02*
X190107571Y-71280380D01*
X190345666Y-71280380D01*
X190488523Y-71328000D01*
X190583761Y-71423238D01*
X190631380Y-71518476D01*
X190679000Y-71708952D01*
X190679000Y-71851809D01*
X190631380Y-72042285D01*
X190583761Y-72137523D01*
X190488523Y-72232761D01*
X190345666Y-72280380D01*
X190107571Y-72280380D01*
X192440904Y-72280380D02*
X192107571Y-71804190D01*
X191869476Y-72280380D02*
X191869476Y-71280380D01*
X192250428Y-71280380D01*
X192345666Y-71328000D01*
X192393285Y-71375619D01*
X192440904Y-71470857D01*
X192440904Y-71613714D01*
X192393285Y-71708952D01*
X192345666Y-71756571D01*
X192250428Y-71804190D01*
X191869476Y-71804190D01*
X193298047Y-72280380D02*
X193298047Y-71756571D01*
X193250428Y-71661333D01*
X193155190Y-71613714D01*
X192964714Y-71613714D01*
X192869476Y-71661333D01*
X193298047Y-72232761D02*
X193202809Y-72280380D01*
X192964714Y-72280380D01*
X192869476Y-72232761D01*
X192821857Y-72137523D01*
X192821857Y-72042285D01*
X192869476Y-71947047D01*
X192964714Y-71899428D01*
X193202809Y-71899428D01*
X193298047Y-71851809D01*
X193774238Y-72280380D02*
X193774238Y-71613714D01*
X193774238Y-71280380D02*
X193726619Y-71328000D01*
X193774238Y-71375619D01*
X193821857Y-71328000D01*
X193774238Y-71280380D01*
X193774238Y-71375619D01*
X194393285Y-72280380D02*
X194298047Y-72232761D01*
X194250428Y-72137523D01*
X194250428Y-71280380D01*
D11*
X168970590Y-105265828D02*
X168470590Y-105265828D01*
X168708685Y-105265828D02*
X168708685Y-104980114D01*
X168970590Y-104980114D02*
X168470590Y-104980114D01*
X168970590Y-104742019D02*
X168470590Y-104742019D01*
X168470590Y-104622971D01*
X168494400Y-104551542D01*
X168542019Y-104503923D01*
X168589638Y-104480114D01*
X168684876Y-104456304D01*
X168756304Y-104456304D01*
X168851542Y-104480114D01*
X168899161Y-104503923D01*
X168946780Y-104551542D01*
X168970590Y-104622971D01*
X168970590Y-104742019D01*
X168946780Y-104265828D02*
X168970590Y-104194400D01*
X168970590Y-104075352D01*
X168946780Y-104027733D01*
X168922971Y-104003923D01*
X168875352Y-103980114D01*
X168827733Y-103980114D01*
X168780114Y-104003923D01*
X168756304Y-104027733D01*
X168732495Y-104075352D01*
X168708685Y-104170590D01*
X168684876Y-104218209D01*
X168661066Y-104242019D01*
X168613447Y-104265828D01*
X168565828Y-104265828D01*
X168518209Y-104242019D01*
X168494400Y-104218209D01*
X168470590Y-104170590D01*
X168470590Y-104051542D01*
X168494400Y-103980114D01*
X168970590Y-103765828D02*
X168470590Y-103765828D01*
X168470590Y-103575352D01*
X168494400Y-103527733D01*
X168518209Y-103503923D01*
X168565828Y-103480114D01*
X168637257Y-103480114D01*
X168684876Y-103503923D01*
X168708685Y-103527733D01*
X168732495Y-103575352D01*
X168732495Y-103765828D01*
X168780114Y-103265828D02*
X168780114Y-102884876D01*
X168470590Y-102694400D02*
X168470590Y-102361066D01*
X168970590Y-102575352D01*
X168637257Y-101956304D02*
X168970590Y-101956304D01*
X168446780Y-102075352D02*
X168803923Y-102194400D01*
X168803923Y-101884876D01*
X168470590Y-101599161D02*
X168470590Y-101551542D01*
X168494400Y-101503923D01*
X168518209Y-101480114D01*
X168565828Y-101456304D01*
X168661066Y-101432495D01*
X168780114Y-101432495D01*
X168875352Y-101456304D01*
X168922971Y-101480114D01*
X168946780Y-101503923D01*
X168970590Y-101551542D01*
X168970590Y-101599161D01*
X168946780Y-101646780D01*
X168922971Y-101670590D01*
X168875352Y-101694400D01*
X168780114Y-101718209D01*
X168661066Y-101718209D01*
X168565828Y-101694400D01*
X168518209Y-101670590D01*
X168494400Y-101646780D01*
X168470590Y-101599161D01*
X168970590Y-100956304D02*
X168970590Y-101242019D01*
X168970590Y-101099161D02*
X168470590Y-101099161D01*
X168542019Y-101146780D01*
X168589638Y-101194400D01*
X168613447Y-101242019D01*
X168446780Y-100384876D02*
X169089638Y-100813447D01*
X168470590Y-100265828D02*
X168470590Y-99932495D01*
X168970590Y-100146780D01*
X168470590Y-99503923D02*
X168470590Y-99742019D01*
X168708685Y-99765828D01*
X168684876Y-99742019D01*
X168661066Y-99694400D01*
X168661066Y-99575352D01*
X168684876Y-99527733D01*
X168708685Y-99503923D01*
X168756304Y-99480114D01*
X168875352Y-99480114D01*
X168922971Y-99503923D01*
X168946780Y-99527733D01*
X168970590Y-99575352D01*
X168970590Y-99694400D01*
X168946780Y-99742019D01*
X168922971Y-99765828D01*
X168470590Y-99170590D02*
X168470590Y-99122971D01*
X168494400Y-99075352D01*
X168518209Y-99051542D01*
X168565828Y-99027733D01*
X168661066Y-99003923D01*
X168780114Y-99003923D01*
X168875352Y-99027733D01*
X168922971Y-99051542D01*
X168946780Y-99075352D01*
X168970590Y-99122971D01*
X168970590Y-99170590D01*
X168946780Y-99218209D01*
X168922971Y-99242019D01*
X168875352Y-99265828D01*
X168780114Y-99289638D01*
X168661066Y-99289638D01*
X168565828Y-99265828D01*
X168518209Y-99242019D01*
X168494400Y-99218209D01*
X168470590Y-99170590D01*
X168970590Y-98527733D02*
X168970590Y-98813447D01*
X168970590Y-98670590D02*
X168470590Y-98670590D01*
X168542019Y-98718209D01*
X168589638Y-98765828D01*
X168613447Y-98813447D01*
X168446780Y-97956304D02*
X169089638Y-98384876D01*
X168470590Y-97837257D02*
X168470590Y-97503923D01*
X168970590Y-97718209D01*
X168684876Y-97242019D02*
X168661066Y-97289638D01*
X168637257Y-97313447D01*
X168589638Y-97337257D01*
X168565828Y-97337257D01*
X168518209Y-97313447D01*
X168494400Y-97289638D01*
X168470590Y-97242019D01*
X168470590Y-97146780D01*
X168494400Y-97099161D01*
X168518209Y-97075352D01*
X168565828Y-97051542D01*
X168589638Y-97051542D01*
X168637257Y-97075352D01*
X168661066Y-97099161D01*
X168684876Y-97146780D01*
X168684876Y-97242019D01*
X168708685Y-97289638D01*
X168732495Y-97313447D01*
X168780114Y-97337257D01*
X168875352Y-97337257D01*
X168922971Y-97313447D01*
X168946780Y-97289638D01*
X168970590Y-97242019D01*
X168970590Y-97146780D01*
X168946780Y-97099161D01*
X168922971Y-97075352D01*
X168875352Y-97051542D01*
X168780114Y-97051542D01*
X168732495Y-97075352D01*
X168708685Y-97099161D01*
X168684876Y-97146780D01*
X168470590Y-96742019D02*
X168470590Y-96694400D01*
X168494400Y-96646780D01*
X168518209Y-96622971D01*
X168565828Y-96599161D01*
X168661066Y-96575352D01*
X168780114Y-96575352D01*
X168875352Y-96599161D01*
X168922971Y-96622971D01*
X168946780Y-96646780D01*
X168970590Y-96694400D01*
X168970590Y-96742019D01*
X168946780Y-96789638D01*
X168922971Y-96813447D01*
X168875352Y-96837257D01*
X168780114Y-96861066D01*
X168661066Y-96861066D01*
X168565828Y-96837257D01*
X168518209Y-96813447D01*
X168494400Y-96789638D01*
X168470590Y-96742019D01*
X168970590Y-96099161D02*
X168970590Y-96384876D01*
X168970590Y-96242019D02*
X168470590Y-96242019D01*
X168542019Y-96289638D01*
X168589638Y-96337257D01*
X168613447Y-96384876D01*
D10*
X170226266Y-65563285D02*
X170226266Y-65087095D01*
X170511980Y-65658523D02*
X169511980Y-65325190D01*
X170511980Y-64991857D01*
X170511980Y-64610904D02*
X170511980Y-64420428D01*
X170464361Y-64325190D01*
X170416742Y-64277571D01*
X170273885Y-64182333D01*
X170083409Y-64134714D01*
X169702457Y-64134714D01*
X169607219Y-64182333D01*
X169559600Y-64229952D01*
X169511980Y-64325190D01*
X169511980Y-64515666D01*
X169559600Y-64610904D01*
X169607219Y-64658523D01*
X169702457Y-64706142D01*
X169940552Y-64706142D01*
X170035790Y-64658523D01*
X170083409Y-64610904D01*
X170131028Y-64515666D01*
X170131028Y-64325190D01*
X170083409Y-64229952D01*
X170035790Y-64182333D01*
X169940552Y-64134714D01*
X127028178Y-65563285D02*
X127028178Y-65087095D01*
X127313892Y-65658523D02*
X126313892Y-65325190D01*
X127313892Y-64991857D01*
X127313892Y-64658523D02*
X126313892Y-64658523D01*
X126313892Y-64420428D01*
X126361512Y-64277571D01*
X126456750Y-64182333D01*
X126551988Y-64134714D01*
X126742464Y-64087095D01*
X126885321Y-64087095D01*
X127075797Y-64134714D01*
X127171035Y-64182333D01*
X127266273Y-64277571D01*
X127313892Y-64420428D01*
X127313892Y-64658523D01*
X126742464Y-63515666D02*
X126694845Y-63610904D01*
X126647226Y-63658523D01*
X126551988Y-63706142D01*
X126504369Y-63706142D01*
X126409131Y-63658523D01*
X126361512Y-63610904D01*
X126313892Y-63515666D01*
X126313892Y-63325190D01*
X126361512Y-63229952D01*
X126409131Y-63182333D01*
X126504369Y-63134714D01*
X126551988Y-63134714D01*
X126647226Y-63182333D01*
X126694845Y-63229952D01*
X126742464Y-63325190D01*
X126742464Y-63515666D01*
X126790083Y-63610904D01*
X126837702Y-63658523D01*
X126932940Y-63706142D01*
X127123416Y-63706142D01*
X127218654Y-63658523D01*
X127266273Y-63610904D01*
X127313892Y-63515666D01*
X127313892Y-63325190D01*
X127266273Y-63229952D01*
X127218654Y-63182333D01*
X127123416Y-63134714D01*
X126932940Y-63134714D01*
X126837702Y-63182333D01*
X126790083Y-63229952D01*
X126742464Y-63325190D01*
X116863922Y-65563285D02*
X116863922Y-65087095D01*
X117149636Y-65658523D02*
X116149636Y-65325190D01*
X117149636Y-64991857D01*
X117149636Y-64658523D02*
X116149636Y-64658523D01*
X116149636Y-64420428D01*
X116197256Y-64277571D01*
X116292494Y-64182333D01*
X116387732Y-64134714D01*
X116578208Y-64087095D01*
X116721065Y-64087095D01*
X116911541Y-64134714D01*
X117006779Y-64182333D01*
X117102017Y-64277571D01*
X117149636Y-64420428D01*
X117149636Y-64658523D01*
X116482970Y-63229952D02*
X117149636Y-63229952D01*
X116102017Y-63468047D02*
X116816303Y-63706142D01*
X116816303Y-63087095D01*
X152438818Y-65563285D02*
X152438818Y-65087095D01*
X152724532Y-65658523D02*
X151724532Y-65325190D01*
X152724532Y-64991857D01*
X151819771Y-64706142D02*
X151772152Y-64658523D01*
X151724532Y-64563285D01*
X151724532Y-64325190D01*
X151772152Y-64229952D01*
X151819771Y-64182333D01*
X151915009Y-64134714D01*
X152010247Y-64134714D01*
X152153104Y-64182333D01*
X152724532Y-64753761D01*
X152724532Y-64134714D01*
X182931586Y-65563286D02*
X182931586Y-65087095D01*
X183217300Y-65658524D02*
X182217300Y-65325190D01*
X183217300Y-64991857D01*
X183217300Y-64134714D02*
X183217300Y-64706143D01*
X183217300Y-64420429D02*
X182217300Y-64420429D01*
X182360158Y-64515667D01*
X182455396Y-64610905D01*
X182503015Y-64706143D01*
X182550634Y-63277571D02*
X183217300Y-63277571D01*
X182169681Y-63515667D02*
X182883967Y-63753762D01*
X182883967Y-63134714D01*
X147356690Y-65563285D02*
X147356690Y-65087095D01*
X147642404Y-65658523D02*
X146642404Y-65325190D01*
X147642404Y-64991857D01*
X146642404Y-64468047D02*
X146642404Y-64372809D01*
X146690024Y-64277571D01*
X146737643Y-64229952D01*
X146832881Y-64182333D01*
X147023357Y-64134714D01*
X147261452Y-64134714D01*
X147451928Y-64182333D01*
X147547166Y-64229952D01*
X147594785Y-64277571D01*
X147642404Y-64372809D01*
X147642404Y-64468047D01*
X147594785Y-64563285D01*
X147547166Y-64610904D01*
X147451928Y-64658523D01*
X147261452Y-64706142D01*
X147023357Y-64706142D01*
X146832881Y-64658523D01*
X146737643Y-64610904D01*
X146690024Y-64563285D01*
X146642404Y-64468047D01*
D11*
X182677733Y-142043590D02*
X182392019Y-142043590D01*
X182534876Y-142043590D02*
X182534876Y-141543590D01*
X182487257Y-141615019D01*
X182439638Y-141662638D01*
X182392019Y-141686447D01*
X182892019Y-141853114D02*
X183272971Y-141853114D01*
X180632257Y-134790590D02*
X180632257Y-134290590D01*
X180632257Y-134528685D02*
X180917971Y-134528685D01*
X180917971Y-134790590D02*
X180917971Y-134290590D01*
X181441780Y-134742971D02*
X181417971Y-134766780D01*
X181346542Y-134790590D01*
X181298923Y-134790590D01*
X181227495Y-134766780D01*
X181179876Y-134719161D01*
X181156066Y-134671542D01*
X181132257Y-134576304D01*
X181132257Y-134504876D01*
X181156066Y-134409638D01*
X181179876Y-134362019D01*
X181227495Y-134314400D01*
X181298923Y-134290590D01*
X181346542Y-134290590D01*
X181417971Y-134314400D01*
X181441780Y-134338209D01*
X181608447Y-134290590D02*
X181917971Y-134290590D01*
X181751304Y-134481066D01*
X181822733Y-134481066D01*
X181870352Y-134504876D01*
X181894161Y-134528685D01*
X181917971Y-134576304D01*
X181917971Y-134695352D01*
X181894161Y-134742971D01*
X181870352Y-134766780D01*
X181822733Y-134790590D01*
X181679876Y-134790590D01*
X181632257Y-134766780D01*
X181608447Y-134742971D01*
X182084638Y-134290590D02*
X182417971Y-134290590D01*
X182203685Y-134790590D01*
X182822733Y-134457257D02*
X182822733Y-134790590D01*
X182703685Y-134266780D02*
X182584638Y-134623923D01*
X182894161Y-134623923D01*
D10*
X119361546Y-90284523D02*
X119361546Y-89808332D01*
X119647260Y-90379761D02*
X118647260Y-90046427D01*
X119647260Y-89713094D01*
X119647260Y-88903570D02*
X119647260Y-89379761D01*
X118647260Y-89379761D01*
X119123451Y-88570237D02*
X119123451Y-88236903D01*
X119647260Y-88094046D02*
X119647260Y-88570237D01*
X118647260Y-88570237D01*
X118647260Y-88094046D01*
X119742499Y-87903570D02*
X119742499Y-87141665D01*
X119647260Y-86903570D02*
X118647260Y-86903570D01*
X119123451Y-86903570D02*
X119123451Y-86332142D01*
X119647260Y-86332142D02*
X118647260Y-86332142D01*
D11*
X180120733Y-128195590D02*
X179835019Y-128195590D01*
X179977876Y-128195590D02*
X179977876Y-127695590D01*
X179930257Y-127767019D01*
X179882638Y-127814638D01*
X179835019Y-127838447D01*
X180335019Y-128005114D02*
X180715971Y-128005114D01*
D10*
X149897754Y-65563285D02*
X149897754Y-65087095D01*
X150183468Y-65658523D02*
X149183468Y-65325190D01*
X150183468Y-64991857D01*
X150183468Y-64134714D02*
X150183468Y-64706142D01*
X150183468Y-64420428D02*
X149183468Y-64420428D01*
X149326326Y-64515666D01*
X149421564Y-64610904D01*
X149469183Y-64706142D01*
D11*
X106319257Y-108119090D02*
X106033542Y-108119090D01*
X106176400Y-108119090D02*
X106176400Y-107619090D01*
X106128780Y-107690519D01*
X106081161Y-107738138D01*
X106033542Y-107761947D01*
X106176400Y-109090757D02*
X106176400Y-108376471D01*
D10*
X156830900Y-96903571D02*
X156830900Y-96236904D01*
X157830900Y-96665476D01*
X157164234Y-95427380D02*
X157830900Y-95427380D01*
X156783281Y-95665476D02*
X157497567Y-95903571D01*
X157497567Y-95284523D01*
X157830900Y-94903571D02*
X156830900Y-94903571D01*
X157307091Y-94903571D02*
X157307091Y-94332142D01*
X157830900Y-94332142D02*
X156830900Y-94332142D01*
X157735662Y-93284523D02*
X157783281Y-93332142D01*
X157830900Y-93474999D01*
X157830900Y-93570238D01*
X157783281Y-93713095D01*
X157688043Y-93808333D01*
X157592805Y-93855952D01*
X157402329Y-93903571D01*
X157259472Y-93903571D01*
X157068996Y-93855952D01*
X156973758Y-93808333D01*
X156878520Y-93713095D01*
X156830900Y-93570238D01*
X156830900Y-93474999D01*
X156878520Y-93332142D01*
X156926139Y-93284523D01*
X157830900Y-92332142D02*
X157830900Y-92903571D01*
X157830900Y-92617857D02*
X156830900Y-92617857D01*
X156973758Y-92713095D01*
X157068996Y-92808333D01*
X157116615Y-92903571D01*
X156830900Y-91474999D02*
X156830900Y-91665476D01*
X156878520Y-91760714D01*
X156926139Y-91808333D01*
X157068996Y-91903571D01*
X157259472Y-91951190D01*
X157640424Y-91951190D01*
X157735662Y-91903571D01*
X157783281Y-91855952D01*
X157830900Y-91760714D01*
X157830900Y-91570238D01*
X157783281Y-91474999D01*
X157735662Y-91427380D01*
X157640424Y-91379761D01*
X157402329Y-91379761D01*
X157307091Y-91427380D01*
X157259472Y-91474999D01*
X157211853Y-91570238D01*
X157211853Y-91760714D01*
X157259472Y-91855952D01*
X157307091Y-91903571D01*
X157402329Y-91951190D01*
X157164234Y-90522618D02*
X157830900Y-90522618D01*
X156783281Y-90760714D02*
X157497567Y-90998809D01*
X157497567Y-90379761D01*
X157926139Y-90236904D02*
X157926139Y-89474999D01*
X157830900Y-89236904D02*
X156830900Y-89236904D01*
X156830900Y-88998809D01*
X156878520Y-88855952D01*
X156973758Y-88760714D01*
X157068996Y-88713095D01*
X157259472Y-88665476D01*
X157402329Y-88665476D01*
X157592805Y-88713095D01*
X157688043Y-88760714D01*
X157783281Y-88855952D01*
X157830900Y-88998809D01*
X157830900Y-89236904D01*
X157830900Y-87808333D02*
X157307091Y-87808333D01*
X157211853Y-87855952D01*
X157164234Y-87951190D01*
X157164234Y-88141666D01*
X157211853Y-88236904D01*
X157783281Y-87808333D02*
X157830900Y-87903571D01*
X157830900Y-88141666D01*
X157783281Y-88236904D01*
X157688043Y-88284523D01*
X157592805Y-88284523D01*
X157497567Y-88236904D01*
X157449948Y-88141666D01*
X157449948Y-87903571D01*
X157402329Y-87808333D01*
X157164234Y-87474999D02*
X157164234Y-87094047D01*
X156830900Y-87332142D02*
X157688043Y-87332142D01*
X157783281Y-87284523D01*
X157830900Y-87189285D01*
X157830900Y-87094047D01*
X157830900Y-86332142D02*
X157307091Y-86332142D01*
X157211853Y-86379761D01*
X157164234Y-86474999D01*
X157164234Y-86665476D01*
X157211853Y-86760714D01*
X157783281Y-86332142D02*
X157830900Y-86427380D01*
X157830900Y-86665476D01*
X157783281Y-86760714D01*
X157688043Y-86808333D01*
X157592805Y-86808333D01*
X157497567Y-86760714D01*
X157449948Y-86665476D01*
X157449948Y-86427380D01*
X157402329Y-86332142D01*
X121907122Y-90046428D02*
X121907122Y-89570237D01*
X122192836Y-90141666D02*
X121192836Y-89808333D01*
X122192836Y-89474999D01*
X122192836Y-88665476D02*
X122192836Y-89141666D01*
X121192836Y-89141666D01*
X121669027Y-88332142D02*
X121669027Y-87998809D01*
X122192836Y-87855952D02*
X122192836Y-88332142D01*
X121192836Y-88332142D01*
X121192836Y-87855952D01*
X122288075Y-87665476D02*
X122288075Y-86903571D01*
X122192836Y-86189285D02*
X122192836Y-86665476D01*
X121192836Y-86665476D01*
X167685202Y-65563285D02*
X167685202Y-65087095D01*
X167970916Y-65658523D02*
X166970916Y-65325190D01*
X167970916Y-64991857D01*
X167399488Y-64515666D02*
X167351869Y-64610904D01*
X167304250Y-64658523D01*
X167209012Y-64706142D01*
X167161393Y-64706142D01*
X167066155Y-64658523D01*
X167018536Y-64610904D01*
X166970916Y-64515666D01*
X166970916Y-64325190D01*
X167018536Y-64229952D01*
X167066155Y-64182333D01*
X167161393Y-64134714D01*
X167209012Y-64134714D01*
X167304250Y-64182333D01*
X167351869Y-64229952D01*
X167399488Y-64325190D01*
X167399488Y-64515666D01*
X167447107Y-64610904D01*
X167494726Y-64658523D01*
X167589964Y-64706142D01*
X167780440Y-64706142D01*
X167875678Y-64658523D01*
X167923297Y-64610904D01*
X167970916Y-64515666D01*
X167970916Y-64325190D01*
X167923297Y-64229952D01*
X167875678Y-64182333D01*
X167780440Y-64134714D01*
X167589964Y-64134714D01*
X167494726Y-64182333D01*
X167447107Y-64229952D01*
X167399488Y-64325190D01*
X159376476Y-95522619D02*
X159376476Y-94855952D01*
X160376476Y-95284523D01*
X159709810Y-94046428D02*
X160376476Y-94046428D01*
X159328857Y-94284523D02*
X160043143Y-94522619D01*
X160043143Y-93903571D01*
X160376476Y-93522619D02*
X159376476Y-93522619D01*
X159852667Y-93522619D02*
X159852667Y-92951190D01*
X160376476Y-92951190D02*
X159376476Y-92951190D01*
X160281238Y-91903571D02*
X160328857Y-91951190D01*
X160376476Y-92094047D01*
X160376476Y-92189285D01*
X160328857Y-92332142D01*
X160233619Y-92427381D01*
X160138381Y-92475000D01*
X159947905Y-92522619D01*
X159805048Y-92522619D01*
X159614572Y-92475000D01*
X159519334Y-92427381D01*
X159424096Y-92332142D01*
X159376476Y-92189285D01*
X159376476Y-92094047D01*
X159424096Y-91951190D01*
X159471715Y-91903571D01*
X160376476Y-90951190D02*
X160376476Y-91522619D01*
X160376476Y-91236904D02*
X159376476Y-91236904D01*
X159519334Y-91332142D01*
X159614572Y-91427381D01*
X159662191Y-91522619D01*
X159376476Y-90094047D02*
X159376476Y-90284523D01*
X159424096Y-90379762D01*
X159471715Y-90427381D01*
X159614572Y-90522619D01*
X159805048Y-90570238D01*
X160186000Y-90570238D01*
X160281238Y-90522619D01*
X160328857Y-90475000D01*
X160376476Y-90379762D01*
X160376476Y-90189285D01*
X160328857Y-90094047D01*
X160281238Y-90046428D01*
X160186000Y-89998809D01*
X159947905Y-89998809D01*
X159852667Y-90046428D01*
X159805048Y-90094047D01*
X159757429Y-90189285D01*
X159757429Y-90379762D01*
X159805048Y-90475000D01*
X159852667Y-90522619D01*
X159947905Y-90570238D01*
X159709810Y-89141666D02*
X160376476Y-89141666D01*
X159328857Y-89379762D02*
X160043143Y-89617857D01*
X160043143Y-88998809D01*
X160471715Y-88855952D02*
X160471715Y-88094047D01*
X160281238Y-87284523D02*
X160328857Y-87332142D01*
X160376476Y-87475000D01*
X160376476Y-87570238D01*
X160328857Y-87713095D01*
X160233619Y-87808333D01*
X160138381Y-87855952D01*
X159947905Y-87903571D01*
X159805048Y-87903571D01*
X159614572Y-87855952D01*
X159519334Y-87808333D01*
X159424096Y-87713095D01*
X159376476Y-87570238D01*
X159376476Y-87475000D01*
X159424096Y-87332142D01*
X159471715Y-87284523D01*
X160376476Y-86855952D02*
X159376476Y-86855952D01*
X159376476Y-86475000D01*
X159424096Y-86379762D01*
X159471715Y-86332142D01*
X159566953Y-86284523D01*
X159709810Y-86284523D01*
X159805048Y-86332142D01*
X159852667Y-86379762D01*
X159900286Y-86475000D01*
X159900286Y-86855952D01*
X165144138Y-65563285D02*
X165144138Y-65087095D01*
X165429852Y-65658523D02*
X164429852Y-65325190D01*
X165429852Y-64991857D01*
X164429852Y-64753761D02*
X164429852Y-64087095D01*
X165429852Y-64515666D01*
X142274562Y-65563286D02*
X142274562Y-65087095D01*
X142560276Y-65658524D02*
X141560276Y-65325190D01*
X142560276Y-64991857D01*
X142560276Y-64658524D02*
X141560276Y-64658524D01*
X141560276Y-64420429D01*
X141607896Y-64277571D01*
X141703134Y-64182333D01*
X141798372Y-64134714D01*
X141988848Y-64087095D01*
X142131705Y-64087095D01*
X142322181Y-64134714D01*
X142417419Y-64182333D01*
X142512657Y-64277571D01*
X142560276Y-64420429D01*
X142560276Y-64658524D01*
X142560276Y-63134714D02*
X142560276Y-63706143D01*
X142560276Y-63420429D02*
X141560276Y-63420429D01*
X141703134Y-63515667D01*
X141798372Y-63610905D01*
X141845991Y-63706143D01*
X141893610Y-62277571D02*
X142560276Y-62277571D01*
X141512657Y-62515667D02*
X142226943Y-62753762D01*
X142226943Y-62134714D01*
X157520946Y-65563285D02*
X157520946Y-65087095D01*
X157806660Y-65658523D02*
X156806660Y-65325190D01*
X157806660Y-64991857D01*
X157139994Y-64229952D02*
X157806660Y-64229952D01*
X156759041Y-64468047D02*
X157473327Y-64706142D01*
X157473327Y-64087095D01*
X124487114Y-65563285D02*
X124487114Y-65087095D01*
X124772828Y-65658523D02*
X123772828Y-65325190D01*
X124772828Y-64991857D01*
X124772828Y-64658523D02*
X123772828Y-64658523D01*
X123772828Y-64420428D01*
X123820448Y-64277571D01*
X123915686Y-64182333D01*
X124010924Y-64134714D01*
X124201400Y-64087095D01*
X124344257Y-64087095D01*
X124534733Y-64134714D01*
X124629971Y-64182333D01*
X124725209Y-64277571D01*
X124772828Y-64420428D01*
X124772828Y-64658523D01*
X123772828Y-63753761D02*
X123772828Y-63087095D01*
X124772828Y-63515666D01*
X172767330Y-65563286D02*
X172767330Y-65087095D01*
X173053044Y-65658524D02*
X172053044Y-65325190D01*
X173053044Y-64991857D01*
X173053044Y-64134714D02*
X173053044Y-64706143D01*
X173053044Y-64420429D02*
X172053044Y-64420429D01*
X172195902Y-64515667D01*
X172291140Y-64610905D01*
X172338759Y-64706143D01*
X172053044Y-63515667D02*
X172053044Y-63420429D01*
X172100664Y-63325190D01*
X172148283Y-63277571D01*
X172243521Y-63229952D01*
X172433997Y-63182333D01*
X172672092Y-63182333D01*
X172862568Y-63229952D01*
X172957806Y-63277571D01*
X173005425Y-63325190D01*
X173053044Y-63420429D01*
X173053044Y-63515667D01*
X173005425Y-63610905D01*
X172957806Y-63658524D01*
X172862568Y-63706143D01*
X172672092Y-63753762D01*
X172433997Y-63753762D01*
X172243521Y-63706143D01*
X172148283Y-63658524D01*
X172100664Y-63610905D01*
X172053044Y-63515667D01*
X145103020Y-93189285D02*
X144103020Y-93189285D01*
X144103020Y-92808333D01*
X144150640Y-92713094D01*
X144198259Y-92665475D01*
X144293497Y-92617856D01*
X144436354Y-92617856D01*
X144531592Y-92665475D01*
X144579211Y-92713094D01*
X144626830Y-92808333D01*
X144626830Y-93189285D01*
X145103020Y-91760714D02*
X144579211Y-91760714D01*
X144483973Y-91808333D01*
X144436354Y-91903571D01*
X144436354Y-92094047D01*
X144483973Y-92189285D01*
X145055401Y-91760714D02*
X145103020Y-91855952D01*
X145103020Y-92094047D01*
X145055401Y-92189285D01*
X144960163Y-92236904D01*
X144864925Y-92236904D01*
X144769687Y-92189285D01*
X144722068Y-92094047D01*
X144722068Y-91855952D01*
X144674449Y-91760714D01*
X145103020Y-91284523D02*
X144436354Y-91284523D01*
X144626830Y-91284523D02*
X144531592Y-91236904D01*
X144483973Y-91189285D01*
X144436354Y-91094047D01*
X144436354Y-90998809D01*
X145103020Y-90665475D02*
X144103020Y-90665475D01*
X144103020Y-90284523D01*
X144150640Y-90189285D01*
X144198259Y-90141666D01*
X144293497Y-90094047D01*
X144436354Y-90094047D01*
X144531592Y-90141666D01*
X144579211Y-90189285D01*
X144626830Y-90284523D01*
X144626830Y-90665475D01*
X145103020Y-89522618D02*
X145055401Y-89617856D01*
X145007782Y-89665475D01*
X144912544Y-89713094D01*
X144626830Y-89713094D01*
X144531592Y-89665475D01*
X144483973Y-89617856D01*
X144436354Y-89522618D01*
X144436354Y-89379761D01*
X144483973Y-89284523D01*
X144531592Y-89236904D01*
X144626830Y-89189285D01*
X144912544Y-89189285D01*
X145007782Y-89236904D01*
X145055401Y-89284523D01*
X145103020Y-89379761D01*
X145103020Y-89522618D01*
X145103020Y-88760714D02*
X144436354Y-88760714D01*
X144626830Y-88760714D02*
X144531592Y-88713094D01*
X144483973Y-88665475D01*
X144436354Y-88570237D01*
X144436354Y-88474999D01*
X144436354Y-88284523D02*
X144436354Y-87903571D01*
X144103020Y-88141666D02*
X144960163Y-88141666D01*
X145055401Y-88094047D01*
X145103020Y-87998809D01*
X145103020Y-87903571D01*
X145198259Y-87808333D02*
X145198259Y-87046428D01*
X144103020Y-86903571D02*
X144103020Y-86284523D01*
X144483973Y-86617856D01*
X144483973Y-86474999D01*
X144531592Y-86379761D01*
X144579211Y-86332142D01*
X144674449Y-86284523D01*
X144912544Y-86284523D01*
X145007782Y-86332142D01*
X145055401Y-86379761D01*
X145103020Y-86474999D01*
X145103020Y-86760714D01*
X145055401Y-86855952D01*
X145007782Y-86903571D01*
X168013204Y-90903571D02*
X167013204Y-90903571D01*
X167013204Y-90522618D01*
X167060824Y-90427380D01*
X167108443Y-90379761D01*
X167203681Y-90332142D01*
X167346538Y-90332142D01*
X167441776Y-90379761D01*
X167489395Y-90427380D01*
X167537014Y-90522618D01*
X167537014Y-90903571D01*
X168013204Y-89903571D02*
X167346538Y-89903571D01*
X167013204Y-89903571D02*
X167060824Y-89951190D01*
X167108443Y-89903571D01*
X167060824Y-89855952D01*
X167013204Y-89903571D01*
X167108443Y-89903571D01*
X167346538Y-89427380D02*
X168013204Y-89427380D01*
X167441776Y-89427380D02*
X167394157Y-89379761D01*
X167346538Y-89284523D01*
X167346538Y-89141666D01*
X167394157Y-89046428D01*
X167489395Y-88998809D01*
X168013204Y-88998809D01*
X167013204Y-87855952D02*
X167013204Y-87236904D01*
X167394157Y-87570237D01*
X167394157Y-87427380D01*
X167441776Y-87332142D01*
X167489395Y-87284523D01*
X167584633Y-87236904D01*
X167822728Y-87236904D01*
X167917966Y-87284523D01*
X167965585Y-87332142D01*
X168013204Y-87427380D01*
X168013204Y-87713095D01*
X167965585Y-87808333D01*
X167917966Y-87855952D01*
X167346538Y-86379761D02*
X168013204Y-86379761D01*
X166965585Y-86617857D02*
X167679871Y-86855952D01*
X167679871Y-86236904D01*
X152739748Y-93189285D02*
X151739748Y-93189285D01*
X151739748Y-92808333D01*
X151787368Y-92713094D01*
X151834987Y-92665475D01*
X151930225Y-92617856D01*
X152073082Y-92617856D01*
X152168320Y-92665475D01*
X152215939Y-92713094D01*
X152263558Y-92808333D01*
X152263558Y-93189285D01*
X152739748Y-91760714D02*
X152215939Y-91760714D01*
X152120701Y-91808333D01*
X152073082Y-91903571D01*
X152073082Y-92094047D01*
X152120701Y-92189285D01*
X152692129Y-91760714D02*
X152739748Y-91855952D01*
X152739748Y-92094047D01*
X152692129Y-92189285D01*
X152596891Y-92236904D01*
X152501653Y-92236904D01*
X152406415Y-92189285D01*
X152358796Y-92094047D01*
X152358796Y-91855952D01*
X152311177Y-91760714D01*
X152739748Y-91284523D02*
X152073082Y-91284523D01*
X152263558Y-91284523D02*
X152168320Y-91236904D01*
X152120701Y-91189285D01*
X152073082Y-91094047D01*
X152073082Y-90998809D01*
X152739748Y-90665475D02*
X151739748Y-90665475D01*
X151739748Y-90284523D01*
X151787368Y-90189285D01*
X151834987Y-90141666D01*
X151930225Y-90094047D01*
X152073082Y-90094047D01*
X152168320Y-90141666D01*
X152215939Y-90189285D01*
X152263558Y-90284523D01*
X152263558Y-90665475D01*
X152739748Y-89522618D02*
X152692129Y-89617856D01*
X152644510Y-89665475D01*
X152549272Y-89713094D01*
X152263558Y-89713094D01*
X152168320Y-89665475D01*
X152120701Y-89617856D01*
X152073082Y-89522618D01*
X152073082Y-89379761D01*
X152120701Y-89284523D01*
X152168320Y-89236904D01*
X152263558Y-89189285D01*
X152549272Y-89189285D01*
X152644510Y-89236904D01*
X152692129Y-89284523D01*
X152739748Y-89379761D01*
X152739748Y-89522618D01*
X152739748Y-88760714D02*
X152073082Y-88760714D01*
X152263558Y-88760714D02*
X152168320Y-88713094D01*
X152120701Y-88665475D01*
X152073082Y-88570237D01*
X152073082Y-88474999D01*
X152073082Y-88284523D02*
X152073082Y-87903571D01*
X151739748Y-88141666D02*
X152596891Y-88141666D01*
X152692129Y-88094047D01*
X152739748Y-87998809D01*
X152739748Y-87903571D01*
X152834987Y-87808333D02*
X152834987Y-87046428D01*
X151739748Y-86379761D02*
X151739748Y-86570237D01*
X151787368Y-86665475D01*
X151834987Y-86713094D01*
X151977844Y-86808333D01*
X152168320Y-86855952D01*
X152549272Y-86855952D01*
X152644510Y-86808333D01*
X152692129Y-86760714D01*
X152739748Y-86665475D01*
X152739748Y-86474999D01*
X152692129Y-86379761D01*
X152644510Y-86332142D01*
X152549272Y-86284523D01*
X152311177Y-86284523D01*
X152215939Y-86332142D01*
X152168320Y-86379761D01*
X152120701Y-86474999D01*
X152120701Y-86665475D01*
X152168320Y-86760714D01*
X152215939Y-86808333D01*
X152311177Y-86855952D01*
X177849458Y-65563286D02*
X177849458Y-65087095D01*
X178135172Y-65658524D02*
X177135172Y-65325190D01*
X178135172Y-64991857D01*
X178135172Y-64134714D02*
X178135172Y-64706143D01*
X178135172Y-64420429D02*
X177135172Y-64420429D01*
X177278030Y-64515667D01*
X177373268Y-64610905D01*
X177420887Y-64706143D01*
X177230411Y-63753762D02*
X177182792Y-63706143D01*
X177135172Y-63610905D01*
X177135172Y-63372810D01*
X177182792Y-63277571D01*
X177230411Y-63229952D01*
X177325649Y-63182333D01*
X177420887Y-63182333D01*
X177563744Y-63229952D01*
X178135172Y-63801381D01*
X178135172Y-63182333D01*
X136418673Y-93189285D02*
X137704388Y-94046428D01*
X137466292Y-92855952D02*
X136799626Y-92855952D01*
X136990102Y-92855952D02*
X136894864Y-92808333D01*
X136847245Y-92760714D01*
X136799626Y-92665476D01*
X136799626Y-92570237D01*
X137418673Y-91855952D02*
X137466292Y-91951190D01*
X137466292Y-92141666D01*
X137418673Y-92236904D01*
X137323435Y-92284523D01*
X136942483Y-92284523D01*
X136847245Y-92236904D01*
X136799626Y-92141666D01*
X136799626Y-91951190D01*
X136847245Y-91855952D01*
X136942483Y-91808333D01*
X137037721Y-91808333D01*
X137132959Y-92284523D01*
X137466292Y-90951190D02*
X136942483Y-90951190D01*
X136847245Y-90998809D01*
X136799626Y-91094047D01*
X136799626Y-91284523D01*
X136847245Y-91379761D01*
X137418673Y-90951190D02*
X137466292Y-91046428D01*
X137466292Y-91284523D01*
X137418673Y-91379761D01*
X137323435Y-91427380D01*
X137228197Y-91427380D01*
X137132959Y-91379761D01*
X137085340Y-91284523D01*
X137085340Y-91046428D01*
X137037721Y-90951190D01*
X137466292Y-90046428D02*
X136466292Y-90046428D01*
X137418673Y-90046428D02*
X137466292Y-90141666D01*
X137466292Y-90332142D01*
X137418673Y-90427380D01*
X137371054Y-90474999D01*
X137275816Y-90522618D01*
X136990102Y-90522618D01*
X136894864Y-90474999D01*
X136847245Y-90427380D01*
X136799626Y-90332142D01*
X136799626Y-90141666D01*
X136847245Y-90046428D01*
X137561531Y-89808333D02*
X137561531Y-89046428D01*
X137418673Y-88379761D02*
X137466292Y-88474999D01*
X137466292Y-88665476D01*
X137418673Y-88760714D01*
X137371054Y-88808333D01*
X137275816Y-88855952D01*
X136990102Y-88855952D01*
X136894864Y-88808333D01*
X136847245Y-88760714D01*
X136799626Y-88665476D01*
X136799626Y-88474999D01*
X136847245Y-88379761D01*
X137466292Y-87522618D02*
X136942483Y-87522618D01*
X136847245Y-87570237D01*
X136799626Y-87665476D01*
X136799626Y-87855952D01*
X136847245Y-87951190D01*
X137418673Y-87522618D02*
X137466292Y-87617857D01*
X137466292Y-87855952D01*
X137418673Y-87951190D01*
X137323435Y-87998809D01*
X137228197Y-87998809D01*
X137132959Y-87951190D01*
X137085340Y-87855952D01*
X137085340Y-87617857D01*
X137037721Y-87522618D01*
X137466292Y-87046428D02*
X136799626Y-87046428D01*
X136990102Y-87046428D02*
X136894864Y-86998809D01*
X136847245Y-86951190D01*
X136799626Y-86855952D01*
X136799626Y-86760714D01*
X136799626Y-86570237D02*
X136799626Y-86189285D01*
X136466292Y-86427380D02*
X137323435Y-86427380D01*
X137418673Y-86379761D01*
X137466292Y-86284523D01*
X137466292Y-86189285D01*
D11*
X179708209Y-122593828D02*
X179708209Y-122927161D01*
X179208209Y-122712876D01*
X179541542Y-123331923D02*
X179208209Y-123331923D01*
X179732019Y-123212876D02*
X179374876Y-123093828D01*
X179374876Y-123403352D01*
X179208209Y-123593828D02*
X179708209Y-123593828D01*
X179470114Y-123593828D02*
X179470114Y-123879542D01*
X179208209Y-123879542D02*
X179708209Y-123879542D01*
X179255828Y-124403352D02*
X179232019Y-124379542D01*
X179208209Y-124308114D01*
X179208209Y-124260495D01*
X179232019Y-124189066D01*
X179279638Y-124141447D01*
X179327257Y-124117638D01*
X179422495Y-124093828D01*
X179493923Y-124093828D01*
X179589161Y-124117638D01*
X179636780Y-124141447D01*
X179684400Y-124189066D01*
X179708209Y-124260495D01*
X179708209Y-124308114D01*
X179684400Y-124379542D01*
X179660590Y-124403352D01*
X179708209Y-124712876D02*
X179708209Y-124760495D01*
X179684400Y-124808114D01*
X179660590Y-124831923D01*
X179612971Y-124855733D01*
X179517733Y-124879542D01*
X179398685Y-124879542D01*
X179303447Y-124855733D01*
X179255828Y-124831923D01*
X179232019Y-124808114D01*
X179208209Y-124760495D01*
X179208209Y-124712876D01*
X179232019Y-124665257D01*
X179255828Y-124641447D01*
X179303447Y-124617638D01*
X179398685Y-124593828D01*
X179517733Y-124593828D01*
X179612971Y-124617638D01*
X179660590Y-124641447D01*
X179684400Y-124665257D01*
X179708209Y-124712876D01*
X179541542Y-125308114D02*
X179208209Y-125308114D01*
X179732019Y-125189066D02*
X179374876Y-125070019D01*
X179374876Y-125379542D01*
X179208209Y-125570019D02*
X179708209Y-125570019D01*
X179351066Y-125736685D01*
X179708209Y-125903352D01*
X179208209Y-125903352D01*
X190169971Y-112604935D02*
X189741400Y-112604935D01*
X189955685Y-112604935D02*
X189955685Y-111854935D01*
X189884257Y-111962078D01*
X189812828Y-112033507D01*
X189741400Y-112069221D01*
X191384257Y-112569221D02*
X191312828Y-112604935D01*
X191169971Y-112604935D01*
X191098542Y-112569221D01*
X191062828Y-112533507D01*
X191027114Y-112462078D01*
X191027114Y-112247792D01*
X191062828Y-112176364D01*
X191098542Y-112140650D01*
X191169971Y-112104935D01*
X191312828Y-112104935D01*
X191384257Y-112140650D01*
X191705685Y-112604935D02*
X191705685Y-112104935D01*
X191705685Y-112176364D02*
X191741400Y-112140650D01*
X191812828Y-112104935D01*
X191919971Y-112104935D01*
X191991400Y-112140650D01*
X192027114Y-112212078D01*
X192027114Y-112604935D01*
X192027114Y-112212078D02*
X192062828Y-112140650D01*
X192134257Y-112104935D01*
X192241400Y-112104935D01*
X192312828Y-112140650D01*
X192348542Y-112212078D01*
X192348542Y-112604935D01*
X193169971Y-111854935D02*
X193598542Y-111854935D01*
X193384257Y-112604935D02*
X193384257Y-111854935D01*
X194169971Y-112604935D02*
X194169971Y-112212078D01*
X194134257Y-112140650D01*
X194062828Y-112104935D01*
X193919971Y-112104935D01*
X193848542Y-112140650D01*
X194169971Y-112569221D02*
X194098542Y-112604935D01*
X193919971Y-112604935D01*
X193848542Y-112569221D01*
X193812828Y-112497792D01*
X193812828Y-112426364D01*
X193848542Y-112354935D01*
X193919971Y-112319221D01*
X194098542Y-112319221D01*
X194169971Y-112283507D01*
X194634257Y-112604935D02*
X194562828Y-112569221D01*
X194527114Y-112497792D01*
X194527114Y-111854935D01*
X195027114Y-112604935D02*
X194955685Y-112569221D01*
X194919971Y-112497792D01*
X194919971Y-111854935D01*
X189080685Y-113812435D02*
X189080685Y-113062435D01*
X189366400Y-113062435D01*
X189437828Y-113098150D01*
X189473542Y-113133864D01*
X189509257Y-113205292D01*
X189509257Y-113312435D01*
X189473542Y-113383864D01*
X189437828Y-113419578D01*
X189366400Y-113455292D01*
X189080685Y-113455292D01*
X190152114Y-113312435D02*
X190152114Y-113812435D01*
X189830685Y-113312435D02*
X189830685Y-113705292D01*
X189866400Y-113776721D01*
X189937828Y-113812435D01*
X190044971Y-113812435D01*
X190116400Y-113776721D01*
X190152114Y-113741007D01*
X190473542Y-113776721D02*
X190544971Y-113812435D01*
X190687828Y-113812435D01*
X190759257Y-113776721D01*
X190794971Y-113705292D01*
X190794971Y-113669578D01*
X190759257Y-113598150D01*
X190687828Y-113562435D01*
X190580685Y-113562435D01*
X190509257Y-113526721D01*
X190473542Y-113455292D01*
X190473542Y-113419578D01*
X190509257Y-113348150D01*
X190580685Y-113312435D01*
X190687828Y-113312435D01*
X190759257Y-113348150D01*
X191116400Y-113812435D02*
X191116400Y-113062435D01*
X191437828Y-113812435D02*
X191437828Y-113419578D01*
X191402114Y-113348150D01*
X191330685Y-113312435D01*
X191223542Y-113312435D01*
X191152114Y-113348150D01*
X191116400Y-113383864D01*
X192616400Y-113419578D02*
X192723542Y-113455292D01*
X192759257Y-113491007D01*
X192794971Y-113562435D01*
X192794971Y-113669578D01*
X192759257Y-113741007D01*
X192723542Y-113776721D01*
X192652114Y-113812435D01*
X192366400Y-113812435D01*
X192366400Y-113062435D01*
X192616400Y-113062435D01*
X192687828Y-113098150D01*
X192723542Y-113133864D01*
X192759257Y-113205292D01*
X192759257Y-113276721D01*
X192723542Y-113348150D01*
X192687828Y-113383864D01*
X192616400Y-113419578D01*
X192366400Y-113419578D01*
X193437828Y-113312435D02*
X193437828Y-113812435D01*
X193116400Y-113312435D02*
X193116400Y-113705292D01*
X193152114Y-113776721D01*
X193223542Y-113812435D01*
X193330685Y-113812435D01*
X193402114Y-113776721D01*
X193437828Y-113741007D01*
X193687828Y-113312435D02*
X193973542Y-113312435D01*
X193794971Y-113062435D02*
X193794971Y-113705292D01*
X193830685Y-113776721D01*
X193902114Y-113812435D01*
X193973542Y-113812435D01*
X194116400Y-113312435D02*
X194402114Y-113312435D01*
X194223542Y-113062435D02*
X194223542Y-113705292D01*
X194259257Y-113776721D01*
X194330685Y-113812435D01*
X194402114Y-113812435D01*
X194759257Y-113812435D02*
X194687828Y-113776721D01*
X194652114Y-113741007D01*
X194616400Y-113669578D01*
X194616400Y-113455292D01*
X194652114Y-113383864D01*
X194687828Y-113348150D01*
X194759257Y-113312435D01*
X194866400Y-113312435D01*
X194937828Y-113348150D01*
X194973542Y-113383864D01*
X195009257Y-113455292D01*
X195009257Y-113669578D01*
X194973542Y-113741007D01*
X194937828Y-113776721D01*
X194866400Y-113812435D01*
X194759257Y-113812435D01*
X195330685Y-113312435D02*
X195330685Y-113812435D01*
X195330685Y-113383864D02*
X195366400Y-113348150D01*
X195437828Y-113312435D01*
X195544971Y-113312435D01*
X195616400Y-113348150D01*
X195652114Y-113419578D01*
X195652114Y-113812435D01*
D10*
X160062010Y-65563285D02*
X160062010Y-65087095D01*
X160347724Y-65658523D02*
X159347724Y-65325190D01*
X160347724Y-64991857D01*
X159347724Y-64182333D02*
X159347724Y-64658523D01*
X159823915Y-64706142D01*
X159776296Y-64658523D01*
X159728677Y-64563285D01*
X159728677Y-64325190D01*
X159776296Y-64229952D01*
X159823915Y-64182333D01*
X159919153Y-64134714D01*
X160157248Y-64134714D01*
X160252486Y-64182333D01*
X160300105Y-64229952D01*
X160347724Y-64325190D01*
X160347724Y-64563285D01*
X160300105Y-64658523D01*
X160252486Y-64706142D01*
X162603074Y-65563285D02*
X162603074Y-65087095D01*
X162888788Y-65658523D02*
X161888788Y-65325190D01*
X162888788Y-64991857D01*
X161888788Y-64229952D02*
X161888788Y-64420428D01*
X161936408Y-64515666D01*
X161984027Y-64563285D01*
X162126884Y-64658523D01*
X162317360Y-64706142D01*
X162698312Y-64706142D01*
X162793550Y-64658523D01*
X162841169Y-64610904D01*
X162888788Y-64515666D01*
X162888788Y-64325190D01*
X162841169Y-64229952D01*
X162793550Y-64182333D01*
X162698312Y-64134714D01*
X162460217Y-64134714D01*
X162364979Y-64182333D01*
X162317360Y-64229952D01*
X162269741Y-64325190D01*
X162269741Y-64515666D01*
X162317360Y-64610904D01*
X162364979Y-64658523D01*
X162460217Y-64706142D01*
X150194172Y-93189285D02*
X149194172Y-93189285D01*
X149194172Y-92808333D01*
X149241792Y-92713094D01*
X149289411Y-92665475D01*
X149384649Y-92617856D01*
X149527506Y-92617856D01*
X149622744Y-92665475D01*
X149670363Y-92713094D01*
X149717982Y-92808333D01*
X149717982Y-93189285D01*
X150194172Y-91760714D02*
X149670363Y-91760714D01*
X149575125Y-91808333D01*
X149527506Y-91903571D01*
X149527506Y-92094047D01*
X149575125Y-92189285D01*
X150146553Y-91760714D02*
X150194172Y-91855952D01*
X150194172Y-92094047D01*
X150146553Y-92189285D01*
X150051315Y-92236904D01*
X149956077Y-92236904D01*
X149860839Y-92189285D01*
X149813220Y-92094047D01*
X149813220Y-91855952D01*
X149765601Y-91760714D01*
X150194172Y-91284523D02*
X149527506Y-91284523D01*
X149717982Y-91284523D02*
X149622744Y-91236904D01*
X149575125Y-91189285D01*
X149527506Y-91094047D01*
X149527506Y-90998809D01*
X150194172Y-90665475D02*
X149194172Y-90665475D01*
X149194172Y-90284523D01*
X149241792Y-90189285D01*
X149289411Y-90141666D01*
X149384649Y-90094047D01*
X149527506Y-90094047D01*
X149622744Y-90141666D01*
X149670363Y-90189285D01*
X149717982Y-90284523D01*
X149717982Y-90665475D01*
X150194172Y-89522618D02*
X150146553Y-89617856D01*
X150098934Y-89665475D01*
X150003696Y-89713094D01*
X149717982Y-89713094D01*
X149622744Y-89665475D01*
X149575125Y-89617856D01*
X149527506Y-89522618D01*
X149527506Y-89379761D01*
X149575125Y-89284523D01*
X149622744Y-89236904D01*
X149717982Y-89189285D01*
X150003696Y-89189285D01*
X150098934Y-89236904D01*
X150146553Y-89284523D01*
X150194172Y-89379761D01*
X150194172Y-89522618D01*
X150194172Y-88760714D02*
X149527506Y-88760714D01*
X149717982Y-88760714D02*
X149622744Y-88713094D01*
X149575125Y-88665475D01*
X149527506Y-88570237D01*
X149527506Y-88474999D01*
X149527506Y-88284523D02*
X149527506Y-87903571D01*
X149194172Y-88141666D02*
X150051315Y-88141666D01*
X150146553Y-88094047D01*
X150194172Y-87998809D01*
X150194172Y-87903571D01*
X150289411Y-87808333D02*
X150289411Y-87046428D01*
X149194172Y-86332142D02*
X149194172Y-86808333D01*
X149670363Y-86855952D01*
X149622744Y-86808333D01*
X149575125Y-86713094D01*
X149575125Y-86474999D01*
X149622744Y-86379761D01*
X149670363Y-86332142D01*
X149765601Y-86284523D01*
X150003696Y-86284523D01*
X150098934Y-86332142D01*
X150146553Y-86379761D01*
X150194172Y-86474999D01*
X150194172Y-86713094D01*
X150146553Y-86808333D01*
X150098934Y-86855952D01*
X127236369Y-91284523D02*
X127283988Y-91141665D01*
X127283988Y-90903570D01*
X127236369Y-90808332D01*
X127188750Y-90760713D01*
X127093512Y-90713094D01*
X126998274Y-90713094D01*
X126903036Y-90760713D01*
X126855417Y-90808332D01*
X126807798Y-90903570D01*
X126760179Y-91094046D01*
X126712560Y-91189284D01*
X126664941Y-91236903D01*
X126569703Y-91284523D01*
X126474465Y-91284523D01*
X126379227Y-91236903D01*
X126331608Y-91189284D01*
X126283988Y-91094046D01*
X126283988Y-90855951D01*
X126331608Y-90713094D01*
X127236369Y-90332142D02*
X127283988Y-90189284D01*
X127283988Y-89951189D01*
X127236369Y-89855951D01*
X127188750Y-89808332D01*
X127093512Y-89760713D01*
X126998274Y-89760713D01*
X126903036Y-89808332D01*
X126855417Y-89855951D01*
X126807798Y-89951189D01*
X126760179Y-90141665D01*
X126712560Y-90236903D01*
X126664941Y-90284523D01*
X126569703Y-90332142D01*
X126474465Y-90332142D01*
X126379227Y-90284523D01*
X126331608Y-90236903D01*
X126283988Y-90141665D01*
X126283988Y-89903570D01*
X126331608Y-89760713D01*
X126283988Y-89474999D02*
X126283988Y-88903570D01*
X127283988Y-89189284D02*
X126283988Y-89189284D01*
X127379227Y-88808332D02*
X127379227Y-88046427D01*
X126283988Y-87617856D02*
X126283988Y-87427380D01*
X126331608Y-87332142D01*
X126426846Y-87236903D01*
X126617322Y-87189284D01*
X126950655Y-87189284D01*
X127141131Y-87236903D01*
X127236369Y-87332142D01*
X127283988Y-87427380D01*
X127283988Y-87617856D01*
X127236369Y-87713094D01*
X127141131Y-87808332D01*
X126950655Y-87855951D01*
X126617322Y-87855951D01*
X126426846Y-87808332D01*
X126331608Y-87713094D01*
X126283988Y-87617856D01*
X126760179Y-86760713D02*
X126760179Y-86427380D01*
X127283988Y-86284523D02*
X127283988Y-86760713D01*
X126283988Y-86760713D01*
X126283988Y-86284523D01*
X185472666Y-65563286D02*
X185472666Y-65087095D01*
X185758380Y-65658524D02*
X184758380Y-65325190D01*
X185758380Y-64991857D01*
X185758380Y-64134714D02*
X185758380Y-64706143D01*
X185758380Y-64420429D02*
X184758380Y-64420429D01*
X184901238Y-64515667D01*
X184996476Y-64610905D01*
X185044095Y-64706143D01*
X184758380Y-63229952D02*
X184758380Y-63706143D01*
X185234571Y-63753762D01*
X185186952Y-63706143D01*
X185139333Y-63610905D01*
X185139333Y-63372810D01*
X185186952Y-63277571D01*
X185234571Y-63229952D01*
X185329809Y-63182333D01*
X185567904Y-63182333D01*
X185663142Y-63229952D01*
X185710761Y-63277571D01*
X185758380Y-63372810D01*
X185758380Y-63610905D01*
X185710761Y-63706143D01*
X185663142Y-63753762D01*
X138964249Y-94379761D02*
X140249964Y-95236904D01*
X139916630Y-93474999D02*
X139964249Y-93522618D01*
X140011868Y-93665475D01*
X140011868Y-93760714D01*
X139964249Y-93903571D01*
X139869011Y-93998809D01*
X139773773Y-94046428D01*
X139583297Y-94094047D01*
X139440440Y-94094047D01*
X139249964Y-94046428D01*
X139154726Y-93998809D01*
X139059488Y-93903571D01*
X139011868Y-93760714D01*
X139011868Y-93665475D01*
X139059488Y-93522618D01*
X139107107Y-93474999D01*
X140011868Y-92903571D02*
X139964249Y-92998809D01*
X139916630Y-93046428D01*
X139821392Y-93094047D01*
X139535678Y-93094047D01*
X139440440Y-93046428D01*
X139392821Y-92998809D01*
X139345202Y-92903571D01*
X139345202Y-92760714D01*
X139392821Y-92665475D01*
X139440440Y-92617856D01*
X139535678Y-92570237D01*
X139821392Y-92570237D01*
X139916630Y-92617856D01*
X139964249Y-92665475D01*
X140011868Y-92760714D01*
X140011868Y-92903571D01*
X140011868Y-91998809D02*
X139964249Y-92094047D01*
X139869011Y-92141666D01*
X139011868Y-92141666D01*
X140011868Y-91189285D02*
X139011868Y-91189285D01*
X139964249Y-91189285D02*
X140011868Y-91284523D01*
X140011868Y-91474999D01*
X139964249Y-91570237D01*
X139916630Y-91617856D01*
X139821392Y-91665475D01*
X139535678Y-91665475D01*
X139440440Y-91617856D01*
X139392821Y-91570237D01*
X139345202Y-91474999D01*
X139345202Y-91284523D01*
X139392821Y-91189285D01*
X140107107Y-90951190D02*
X140107107Y-90189285D01*
X140011868Y-89379761D02*
X139535678Y-89713095D01*
X140011868Y-89951190D02*
X139011868Y-89951190D01*
X139011868Y-89570237D01*
X139059488Y-89474999D01*
X139107107Y-89427380D01*
X139202345Y-89379761D01*
X139345202Y-89379761D01*
X139440440Y-89427380D01*
X139488059Y-89474999D01*
X139535678Y-89570237D01*
X139535678Y-89951190D01*
X139964249Y-88570237D02*
X140011868Y-88665475D01*
X140011868Y-88855952D01*
X139964249Y-88951190D01*
X139869011Y-88998809D01*
X139488059Y-88998809D01*
X139392821Y-88951190D01*
X139345202Y-88855952D01*
X139345202Y-88665475D01*
X139392821Y-88570237D01*
X139488059Y-88522618D01*
X139583297Y-88522618D01*
X139678535Y-88998809D01*
X139964249Y-88141666D02*
X140011868Y-88046428D01*
X140011868Y-87855952D01*
X139964249Y-87760714D01*
X139869011Y-87713095D01*
X139821392Y-87713095D01*
X139726154Y-87760714D01*
X139678535Y-87855952D01*
X139678535Y-87998809D01*
X139630916Y-88094047D01*
X139535678Y-88141666D01*
X139488059Y-88141666D01*
X139392821Y-88094047D01*
X139345202Y-87998809D01*
X139345202Y-87855952D01*
X139392821Y-87760714D01*
X139964249Y-86903571D02*
X140011868Y-86998809D01*
X140011868Y-87189285D01*
X139964249Y-87284523D01*
X139869011Y-87332142D01*
X139488059Y-87332142D01*
X139392821Y-87284523D01*
X139345202Y-87189285D01*
X139345202Y-86998809D01*
X139392821Y-86903571D01*
X139488059Y-86855952D01*
X139583297Y-86855952D01*
X139678535Y-87332142D01*
X139345202Y-86570237D02*
X139345202Y-86189285D01*
X139011868Y-86427380D02*
X139869011Y-86427380D01*
X139964249Y-86379761D01*
X140011868Y-86284523D01*
X140011868Y-86189285D01*
X109240730Y-65563285D02*
X109240730Y-65087095D01*
X109526444Y-65658523D02*
X108526444Y-65325190D01*
X109526444Y-64991857D01*
X109526444Y-64658523D02*
X108526444Y-64658523D01*
X108526444Y-64420428D01*
X108574064Y-64277571D01*
X108669302Y-64182333D01*
X108764540Y-64134714D01*
X108955016Y-64087095D01*
X109097873Y-64087095D01*
X109288349Y-64134714D01*
X109383587Y-64182333D01*
X109478825Y-64277571D01*
X109526444Y-64420428D01*
X109526444Y-64658523D01*
X109526444Y-63134714D02*
X109526444Y-63706142D01*
X109526444Y-63420428D02*
X108526444Y-63420428D01*
X108669302Y-63515666D01*
X108764540Y-63610904D01*
X108812159Y-63706142D01*
X188544761Y-80023000D02*
X188449523Y-79975380D01*
X188306666Y-79975380D01*
X188163809Y-80023000D01*
X188068571Y-80118238D01*
X188020952Y-80213476D01*
X187973333Y-80403952D01*
X187973333Y-80546809D01*
X188020952Y-80737285D01*
X188068571Y-80832523D01*
X188163809Y-80927761D01*
X188306666Y-80975380D01*
X188401904Y-80975380D01*
X188544761Y-80927761D01*
X188592380Y-80880142D01*
X188592380Y-80546809D01*
X188401904Y-80546809D01*
X189020952Y-80975380D02*
X189020952Y-79975380D01*
X189592380Y-80975380D01*
X189592380Y-79975380D01*
X190068571Y-80975380D02*
X190068571Y-79975380D01*
X190306666Y-79975380D01*
X190449523Y-80023000D01*
X190544761Y-80118238D01*
X190592380Y-80213476D01*
X190640000Y-80403952D01*
X190640000Y-80546809D01*
X190592380Y-80737285D01*
X190544761Y-80832523D01*
X190449523Y-80927761D01*
X190306666Y-80975380D01*
X190068571Y-80975380D01*
X192401904Y-80975380D02*
X192068571Y-80499190D01*
X191830476Y-80975380D02*
X191830476Y-79975380D01*
X192211428Y-79975380D01*
X192306666Y-80023000D01*
X192354285Y-80070619D01*
X192401904Y-80165857D01*
X192401904Y-80308714D01*
X192354285Y-80403952D01*
X192306666Y-80451571D01*
X192211428Y-80499190D01*
X191830476Y-80499190D01*
X193259047Y-80975380D02*
X193259047Y-80451571D01*
X193211428Y-80356333D01*
X193116190Y-80308714D01*
X192925714Y-80308714D01*
X192830476Y-80356333D01*
X193259047Y-80927761D02*
X193163809Y-80975380D01*
X192925714Y-80975380D01*
X192830476Y-80927761D01*
X192782857Y-80832523D01*
X192782857Y-80737285D01*
X192830476Y-80642047D01*
X192925714Y-80594428D01*
X193163809Y-80594428D01*
X193259047Y-80546809D01*
X193735238Y-80975380D02*
X193735238Y-80308714D01*
X193735238Y-79975380D02*
X193687619Y-80023000D01*
X193735238Y-80070619D01*
X193782857Y-80023000D01*
X193735238Y-79975380D01*
X193735238Y-80070619D01*
X194354285Y-80975380D02*
X194259047Y-80927761D01*
X194211428Y-80832523D01*
X194211428Y-79975380D01*
D11*
X176675614Y-106668923D02*
X176675614Y-106287971D01*
X176675614Y-106049876D02*
X176675614Y-105668923D01*
X176675614Y-105430828D02*
X176675614Y-105049876D01*
X176675614Y-104811780D02*
X176675614Y-104430828D01*
X176675614Y-104192733D02*
X176675614Y-103811780D01*
X176675614Y-103573685D02*
X176675614Y-103192733D01*
X176675614Y-102954638D02*
X176675614Y-102573685D01*
X176675614Y-102335590D02*
X176675614Y-101954638D01*
X176413709Y-101740352D02*
X176389900Y-101716542D01*
X176366090Y-101668923D01*
X176366090Y-101549876D01*
X176389900Y-101502257D01*
X176413709Y-101478447D01*
X176461328Y-101454638D01*
X176508947Y-101454638D01*
X176580376Y-101478447D01*
X176866090Y-101764161D01*
X176866090Y-101454638D01*
X176413709Y-101264161D02*
X176389900Y-101240352D01*
X176366090Y-101192733D01*
X176366090Y-101073685D01*
X176389900Y-101026066D01*
X176413709Y-101002257D01*
X176461328Y-100978447D01*
X176508947Y-100978447D01*
X176580376Y-101002257D01*
X176866090Y-101287971D01*
X176866090Y-100978447D01*
X176366090Y-100668923D02*
X176366090Y-100621304D01*
X176389900Y-100573685D01*
X176413709Y-100549876D01*
X176461328Y-100526066D01*
X176556566Y-100502257D01*
X176675614Y-100502257D01*
X176770852Y-100526066D01*
X176818471Y-100549876D01*
X176842280Y-100573685D01*
X176866090Y-100621304D01*
X176866090Y-100668923D01*
X176842280Y-100716542D01*
X176818471Y-100740352D01*
X176770852Y-100764161D01*
X176675614Y-100787971D01*
X176556566Y-100787971D01*
X176461328Y-100764161D01*
X176413709Y-100740352D01*
X176389900Y-100716542D01*
X176366090Y-100668923D01*
X176366090Y-99811780D02*
X176366090Y-99716542D01*
X176389900Y-99668923D01*
X176437519Y-99621304D01*
X176532757Y-99597495D01*
X176699423Y-99597495D01*
X176794661Y-99621304D01*
X176842280Y-99668923D01*
X176866090Y-99716542D01*
X176866090Y-99811780D01*
X176842280Y-99859400D01*
X176794661Y-99907019D01*
X176699423Y-99930828D01*
X176532757Y-99930828D01*
X176437519Y-99907019D01*
X176389900Y-99859400D01*
X176366090Y-99811780D01*
X176866090Y-99383209D02*
X176366090Y-99383209D01*
X176866090Y-99168923D02*
X176604185Y-99168923D01*
X176556566Y-99192733D01*
X176532757Y-99240352D01*
X176532757Y-99311780D01*
X176556566Y-99359400D01*
X176580376Y-99383209D01*
X176866090Y-98930828D02*
X176532757Y-98930828D01*
X176580376Y-98930828D02*
X176556566Y-98907019D01*
X176532757Y-98859400D01*
X176532757Y-98787971D01*
X176556566Y-98740352D01*
X176604185Y-98716542D01*
X176866090Y-98716542D01*
X176604185Y-98716542D02*
X176556566Y-98692733D01*
X176532757Y-98645114D01*
X176532757Y-98573685D01*
X176556566Y-98526066D01*
X176604185Y-98502257D01*
X176866090Y-98502257D01*
X176675614Y-98264161D02*
X176675614Y-97883209D01*
X176675614Y-97645114D02*
X176675614Y-97264161D01*
X176675614Y-97026066D02*
X176675614Y-96645114D01*
X176675614Y-96407019D02*
X176675614Y-96026066D01*
X176675614Y-95787971D02*
X176675614Y-95407019D01*
X176675614Y-95168923D02*
X176675614Y-94787971D01*
X176675614Y-94549876D02*
X176675614Y-94168923D01*
X176675614Y-93930828D02*
X176675614Y-93549876D01*
X177837757Y-106633209D02*
X177123471Y-106633209D01*
X177671090Y-101037971D02*
X177432995Y-101204638D01*
X177671090Y-101323685D02*
X177171090Y-101323685D01*
X177171090Y-101133209D01*
X177194900Y-101085590D01*
X177218709Y-101061780D01*
X177266328Y-101037971D01*
X177337757Y-101037971D01*
X177385376Y-101061780D01*
X177409185Y-101085590D01*
X177432995Y-101133209D01*
X177432995Y-101323685D01*
X177647280Y-100633209D02*
X177671090Y-100680828D01*
X177671090Y-100776066D01*
X177647280Y-100823685D01*
X177599661Y-100847495D01*
X177409185Y-100847495D01*
X177361566Y-100823685D01*
X177337757Y-100776066D01*
X177337757Y-100680828D01*
X177361566Y-100633209D01*
X177409185Y-100609400D01*
X177456804Y-100609400D01*
X177504423Y-100847495D01*
X177647280Y-100418923D02*
X177671090Y-100371304D01*
X177671090Y-100276066D01*
X177647280Y-100228447D01*
X177599661Y-100204638D01*
X177575852Y-100204638D01*
X177528233Y-100228447D01*
X177504423Y-100276066D01*
X177504423Y-100347495D01*
X177480614Y-100395114D01*
X177432995Y-100418923D01*
X177409185Y-100418923D01*
X177361566Y-100395114D01*
X177337757Y-100347495D01*
X177337757Y-100276066D01*
X177361566Y-100228447D01*
X177671090Y-99990352D02*
X177337757Y-99990352D01*
X177171090Y-99990352D02*
X177194900Y-100014161D01*
X177218709Y-99990352D01*
X177194900Y-99966542D01*
X177171090Y-99990352D01*
X177218709Y-99990352D01*
X177647280Y-99776066D02*
X177671090Y-99728447D01*
X177671090Y-99633209D01*
X177647280Y-99585590D01*
X177599661Y-99561780D01*
X177575852Y-99561780D01*
X177528233Y-99585590D01*
X177504423Y-99633209D01*
X177504423Y-99704638D01*
X177480614Y-99752257D01*
X177432995Y-99776066D01*
X177409185Y-99776066D01*
X177361566Y-99752257D01*
X177337757Y-99704638D01*
X177337757Y-99633209D01*
X177361566Y-99585590D01*
X177337757Y-99418923D02*
X177337757Y-99228447D01*
X177171090Y-99347495D02*
X177599661Y-99347495D01*
X177647280Y-99323685D01*
X177671090Y-99276066D01*
X177671090Y-99228447D01*
X177671090Y-98990352D02*
X177647280Y-99037971D01*
X177623471Y-99061780D01*
X177575852Y-99085590D01*
X177432995Y-99085590D01*
X177385376Y-99061780D01*
X177361566Y-99037971D01*
X177337757Y-98990352D01*
X177337757Y-98918923D01*
X177361566Y-98871304D01*
X177385376Y-98847495D01*
X177432995Y-98823685D01*
X177575852Y-98823685D01*
X177623471Y-98847495D01*
X177647280Y-98871304D01*
X177671090Y-98918923D01*
X177671090Y-98990352D01*
X177671090Y-98609400D02*
X177337757Y-98609400D01*
X177432995Y-98609400D02*
X177385376Y-98585590D01*
X177361566Y-98561780D01*
X177337757Y-98514161D01*
X177337757Y-98466542D01*
X177647280Y-98323685D02*
X177671090Y-98276066D01*
X177671090Y-98180828D01*
X177647280Y-98133209D01*
X177599661Y-98109400D01*
X177575852Y-98109400D01*
X177528233Y-98133209D01*
X177504423Y-98180828D01*
X177504423Y-98252257D01*
X177480614Y-98299876D01*
X177432995Y-98323685D01*
X177409185Y-98323685D01*
X177361566Y-98299876D01*
X177337757Y-98252257D01*
X177337757Y-98180828D01*
X177361566Y-98133209D01*
X177837757Y-93585590D02*
X177123471Y-93585590D01*
D10*
X165467628Y-90903571D02*
X164467628Y-90903571D01*
X164467628Y-90522618D01*
X164515248Y-90427380D01*
X164562867Y-90379761D01*
X164658105Y-90332142D01*
X164800962Y-90332142D01*
X164896200Y-90379761D01*
X164943819Y-90427380D01*
X164991438Y-90522618D01*
X164991438Y-90903571D01*
X165467628Y-89903571D02*
X164800962Y-89903571D01*
X164467628Y-89903571D02*
X164515248Y-89951190D01*
X164562867Y-89903571D01*
X164515248Y-89855952D01*
X164467628Y-89903571D01*
X164562867Y-89903571D01*
X164800962Y-89427380D02*
X165467628Y-89427380D01*
X164896200Y-89427380D02*
X164848581Y-89379761D01*
X164800962Y-89284523D01*
X164800962Y-89141666D01*
X164848581Y-89046428D01*
X164943819Y-88998809D01*
X165467628Y-88998809D01*
X164467628Y-87855952D02*
X164467628Y-87236904D01*
X164848581Y-87570237D01*
X164848581Y-87427380D01*
X164896200Y-87332142D01*
X164943819Y-87284523D01*
X165039057Y-87236904D01*
X165277152Y-87236904D01*
X165372390Y-87284523D01*
X165420009Y-87332142D01*
X165467628Y-87427380D01*
X165467628Y-87713095D01*
X165420009Y-87808333D01*
X165372390Y-87855952D01*
X164467628Y-86903571D02*
X164467628Y-86284523D01*
X164848581Y-86617857D01*
X164848581Y-86474999D01*
X164896200Y-86379761D01*
X164943819Y-86332142D01*
X165039057Y-86284523D01*
X165277152Y-86284523D01*
X165372390Y-86332142D01*
X165420009Y-86379761D01*
X165467628Y-86474999D01*
X165467628Y-86760714D01*
X165420009Y-86855952D01*
X165372390Y-86903571D01*
X132375140Y-92046427D02*
X131375140Y-92046427D01*
X131375140Y-91665475D01*
X131422760Y-91570237D01*
X131470379Y-91522618D01*
X131565617Y-91474999D01*
X131708474Y-91474999D01*
X131803712Y-91522618D01*
X131851331Y-91570237D01*
X131898950Y-91665475D01*
X131898950Y-92046427D01*
X132375140Y-91046427D02*
X131375140Y-91046427D01*
X132279902Y-89998808D02*
X132327521Y-90046427D01*
X132375140Y-90189285D01*
X132375140Y-90284523D01*
X132327521Y-90427380D01*
X132232283Y-90522618D01*
X132137045Y-90570237D01*
X131946569Y-90617856D01*
X131803712Y-90617856D01*
X131613236Y-90570237D01*
X131517998Y-90522618D01*
X131422760Y-90427380D01*
X131375140Y-90284523D01*
X131375140Y-90189285D01*
X131422760Y-90046427D01*
X131470379Y-89998808D01*
X132470379Y-89808332D02*
X132470379Y-89046427D01*
X131422760Y-88284523D02*
X131375140Y-88379761D01*
X131375140Y-88522618D01*
X131422760Y-88665475D01*
X131517998Y-88760713D01*
X131613236Y-88808332D01*
X131803712Y-88855951D01*
X131946569Y-88855951D01*
X132137045Y-88808332D01*
X132232283Y-88760713D01*
X132327521Y-88665475D01*
X132375140Y-88522618D01*
X132375140Y-88427380D01*
X132327521Y-88284523D01*
X132279902Y-88236904D01*
X131946569Y-88236904D01*
X131946569Y-88427380D01*
X132375140Y-87808332D02*
X131375140Y-87808332D01*
X131375140Y-87427380D01*
X131422760Y-87332142D01*
X131470379Y-87284523D01*
X131565617Y-87236904D01*
X131708474Y-87236904D01*
X131803712Y-87284523D01*
X131851331Y-87332142D01*
X131898950Y-87427380D01*
X131898950Y-87808332D01*
X131375140Y-86332142D02*
X131375140Y-86808332D01*
X131851331Y-86855951D01*
X131803712Y-86808332D01*
X131756093Y-86713094D01*
X131756093Y-86474999D01*
X131803712Y-86379761D01*
X131851331Y-86332142D01*
X131946569Y-86284523D01*
X132184664Y-86284523D01*
X132279902Y-86332142D01*
X132327521Y-86379761D01*
X132375140Y-86474999D01*
X132375140Y-86713094D01*
X132327521Y-86808332D01*
X132279902Y-86855951D01*
X173104380Y-90903571D02*
X172104380Y-90903571D01*
X172104380Y-90522618D01*
X172152000Y-90427380D01*
X172199619Y-90379761D01*
X172294857Y-90332142D01*
X172437714Y-90332142D01*
X172532952Y-90379761D01*
X172580571Y-90427380D01*
X172628190Y-90522618D01*
X172628190Y-90903571D01*
X173104380Y-89903571D02*
X172437714Y-89903571D01*
X172104380Y-89903571D02*
X172152000Y-89951190D01*
X172199619Y-89903571D01*
X172152000Y-89855952D01*
X172104380Y-89903571D01*
X172199619Y-89903571D01*
X172437714Y-89427380D02*
X173104380Y-89427380D01*
X172532952Y-89427380D02*
X172485333Y-89379761D01*
X172437714Y-89284523D01*
X172437714Y-89141666D01*
X172485333Y-89046428D01*
X172580571Y-88998809D01*
X173104380Y-88998809D01*
X172437714Y-87332142D02*
X173104380Y-87332142D01*
X172056761Y-87570237D02*
X172771047Y-87808333D01*
X172771047Y-87189285D01*
X172199619Y-86855952D02*
X172152000Y-86808333D01*
X172104380Y-86713095D01*
X172104380Y-86474999D01*
X172152000Y-86379761D01*
X172199619Y-86332142D01*
X172294857Y-86284523D01*
X172390095Y-86284523D01*
X172532952Y-86332142D01*
X173104380Y-86903571D01*
X173104380Y-86284523D01*
X154285324Y-91808333D02*
X154285324Y-91141666D01*
X155285324Y-91570238D01*
X154618658Y-90332142D02*
X155285324Y-90332142D01*
X154237705Y-90570238D02*
X154951991Y-90808333D01*
X154951991Y-90189285D01*
X155285324Y-89808333D02*
X154285324Y-89808333D01*
X154761515Y-89808333D02*
X154761515Y-89236904D01*
X155285324Y-89236904D02*
X154285324Y-89236904D01*
X155190086Y-88189285D02*
X155237705Y-88236904D01*
X155285324Y-88379761D01*
X155285324Y-88474999D01*
X155237705Y-88617857D01*
X155142467Y-88713095D01*
X155047229Y-88760714D01*
X154856753Y-88808333D01*
X154713896Y-88808333D01*
X154523420Y-88760714D01*
X154428182Y-88713095D01*
X154332944Y-88617857D01*
X154285324Y-88474999D01*
X154285324Y-88379761D01*
X154332944Y-88236904D01*
X154380563Y-88189285D01*
X154285324Y-87570238D02*
X154285324Y-87474999D01*
X154332944Y-87379761D01*
X154380563Y-87332142D01*
X154475801Y-87284523D01*
X154666277Y-87236904D01*
X154904372Y-87236904D01*
X155094848Y-87284523D01*
X155190086Y-87332142D01*
X155237705Y-87379761D01*
X155285324Y-87474999D01*
X155285324Y-87570238D01*
X155237705Y-87665476D01*
X155190086Y-87713095D01*
X155094848Y-87760714D01*
X154904372Y-87808333D01*
X154666277Y-87808333D01*
X154475801Y-87760714D01*
X154380563Y-87713095D01*
X154332944Y-87665476D01*
X154285324Y-87570238D01*
X154618658Y-86379761D02*
X155285324Y-86379761D01*
X154237705Y-86617857D02*
X154951991Y-86855952D01*
X154951991Y-86236904D01*
X129569242Y-65563285D02*
X129569242Y-65087095D01*
X129854956Y-65658523D02*
X128854956Y-65325190D01*
X129854956Y-64991857D01*
X129854956Y-64658523D02*
X128854956Y-64658523D01*
X128854956Y-64420428D01*
X128902576Y-64277571D01*
X128997814Y-64182333D01*
X129093052Y-64134714D01*
X129283528Y-64087095D01*
X129426385Y-64087095D01*
X129616861Y-64134714D01*
X129712099Y-64182333D01*
X129807337Y-64277571D01*
X129854956Y-64420428D01*
X129854956Y-64658523D01*
X129854956Y-63610904D02*
X129854956Y-63420428D01*
X129807337Y-63325190D01*
X129759718Y-63277571D01*
X129616861Y-63182333D01*
X129426385Y-63134714D01*
X129045433Y-63134714D01*
X128950195Y-63182333D01*
X128902576Y-63229952D01*
X128854956Y-63325190D01*
X128854956Y-63515666D01*
X128902576Y-63610904D01*
X128950195Y-63658523D01*
X129045433Y-63706142D01*
X129283528Y-63706142D01*
X129378766Y-63658523D01*
X129426385Y-63610904D01*
X129474004Y-63515666D01*
X129474004Y-63325190D01*
X129426385Y-63229952D01*
X129378766Y-63182333D01*
X129283528Y-63134714D01*
X134396907Y-90379761D02*
X134444526Y-90236904D01*
X134492145Y-90189285D01*
X134587383Y-90141666D01*
X134730240Y-90141666D01*
X134825478Y-90189285D01*
X134873097Y-90236904D01*
X134920716Y-90332142D01*
X134920716Y-90713095D01*
X133920716Y-90713095D01*
X133920716Y-90379761D01*
X133968336Y-90284523D01*
X134015955Y-90236904D01*
X134111193Y-90189285D01*
X134206431Y-90189285D01*
X134301669Y-90236904D01*
X134349288Y-90284523D01*
X134396907Y-90379761D01*
X134396907Y-90713095D01*
X134254050Y-89284523D02*
X134920716Y-89284523D01*
X134254050Y-89713095D02*
X134777859Y-89713095D01*
X134873097Y-89665476D01*
X134920716Y-89570238D01*
X134920716Y-89427380D01*
X134873097Y-89332142D01*
X134825478Y-89284523D01*
X134254050Y-88951190D02*
X134254050Y-88570238D01*
X133920716Y-88808333D02*
X134777859Y-88808333D01*
X134873097Y-88760714D01*
X134920716Y-88665476D01*
X134920716Y-88570238D01*
X134254050Y-88379761D02*
X134254050Y-87998809D01*
X133920716Y-88236904D02*
X134777859Y-88236904D01*
X134873097Y-88189285D01*
X134920716Y-88094047D01*
X134920716Y-87998809D01*
X134920716Y-87522619D02*
X134873097Y-87617857D01*
X134825478Y-87665476D01*
X134730240Y-87713095D01*
X134444526Y-87713095D01*
X134349288Y-87665476D01*
X134301669Y-87617857D01*
X134254050Y-87522619D01*
X134254050Y-87379761D01*
X134301669Y-87284523D01*
X134349288Y-87236904D01*
X134444526Y-87189285D01*
X134730240Y-87189285D01*
X134825478Y-87236904D01*
X134873097Y-87284523D01*
X134920716Y-87379761D01*
X134920716Y-87522619D01*
X134254050Y-86760714D02*
X134920716Y-86760714D01*
X134349288Y-86760714D02*
X134301669Y-86713095D01*
X134254050Y-86617857D01*
X134254050Y-86474999D01*
X134301669Y-86379761D01*
X134396907Y-86332142D01*
X134920716Y-86332142D01*
X111724818Y-88665476D02*
X111724818Y-88189285D01*
X112010532Y-88760714D02*
X111010532Y-88427380D01*
X112010532Y-88094047D01*
X112010532Y-87236904D02*
X112010532Y-87808333D01*
X112010532Y-87522619D02*
X111010532Y-87522619D01*
X111153390Y-87617857D01*
X111248628Y-87713095D01*
X111296247Y-87808333D01*
X111439104Y-86665476D02*
X111391485Y-86760714D01*
X111343866Y-86808333D01*
X111248628Y-86855952D01*
X111201009Y-86855952D01*
X111105771Y-86808333D01*
X111058152Y-86760714D01*
X111010532Y-86665476D01*
X111010532Y-86475000D01*
X111058152Y-86379761D01*
X111105771Y-86332142D01*
X111201009Y-86284523D01*
X111248628Y-86284523D01*
X111343866Y-86332142D01*
X111391485Y-86379761D01*
X111439104Y-86475000D01*
X111439104Y-86665476D01*
X111486723Y-86760714D01*
X111534342Y-86808333D01*
X111629580Y-86855952D01*
X111820056Y-86855952D01*
X111915294Y-86808333D01*
X111962913Y-86760714D01*
X112010532Y-86665476D01*
X112010532Y-86475000D01*
X111962913Y-86379761D01*
X111915294Y-86332142D01*
X111820056Y-86284523D01*
X111629580Y-86284523D01*
X111534342Y-86332142D01*
X111486723Y-86379761D01*
X111439104Y-86475000D01*
X114322858Y-65563285D02*
X114322858Y-65087095D01*
X114608572Y-65658523D02*
X113608572Y-65325190D01*
X114608572Y-64991857D01*
X114608572Y-64658523D02*
X113608572Y-64658523D01*
X113608572Y-64420428D01*
X113656192Y-64277571D01*
X113751430Y-64182333D01*
X113846668Y-64134714D01*
X114037144Y-64087095D01*
X114180001Y-64087095D01*
X114370477Y-64134714D01*
X114465715Y-64182333D01*
X114560953Y-64277571D01*
X114608572Y-64420428D01*
X114608572Y-64658523D01*
X113608572Y-63753761D02*
X113608572Y-63134714D01*
X113989525Y-63468047D01*
X113989525Y-63325190D01*
X114037144Y-63229952D01*
X114084763Y-63182333D01*
X114180001Y-63134714D01*
X114418096Y-63134714D01*
X114513334Y-63182333D01*
X114560953Y-63229952D01*
X114608572Y-63325190D01*
X114608572Y-63610904D01*
X114560953Y-63706142D01*
X114513334Y-63753761D01*
X175308394Y-65563286D02*
X175308394Y-65087095D01*
X175594108Y-65658524D02*
X174594108Y-65325190D01*
X175594108Y-64991857D01*
X175594108Y-64134714D02*
X175594108Y-64706143D01*
X175594108Y-64420429D02*
X174594108Y-64420429D01*
X174736966Y-64515667D01*
X174832204Y-64610905D01*
X174879823Y-64706143D01*
X175594108Y-63182333D02*
X175594108Y-63753762D01*
X175594108Y-63468048D02*
X174594108Y-63468048D01*
X174736966Y-63563286D01*
X174832204Y-63658524D01*
X174879823Y-63753762D01*
D11*
%TO.C,R1*%
X154784257Y-130027090D02*
X154498542Y-130027090D01*
X154641400Y-130027090D02*
X154641400Y-129527090D01*
X154593780Y-129598519D01*
X154546161Y-129646138D01*
X154498542Y-129669947D01*
X155093780Y-129527090D02*
X155141400Y-129527090D01*
X155189019Y-129550900D01*
X155212828Y-129574709D01*
X155236638Y-129622328D01*
X155260447Y-129717566D01*
X155260447Y-129836614D01*
X155236638Y-129931852D01*
X155212828Y-129979471D01*
X155189019Y-130003280D01*
X155141400Y-130027090D01*
X155093780Y-130027090D01*
X155046161Y-130003280D01*
X155022352Y-129979471D01*
X154998542Y-129931852D01*
X154974733Y-129836614D01*
X154974733Y-129717566D01*
X154998542Y-129622328D01*
X155022352Y-129574709D01*
X155046161Y-129550900D01*
X155093780Y-129527090D01*
X155474733Y-130027090D02*
X155474733Y-129527090D01*
X155760447Y-130027090D02*
X155546161Y-129741376D01*
X155760447Y-129527090D02*
X155474733Y-129812804D01*
X156450923Y-129527090D02*
X156546161Y-129527090D01*
X156593780Y-129550900D01*
X156641400Y-129598519D01*
X156665209Y-129693757D01*
X156665209Y-129860423D01*
X156641400Y-129955661D01*
X156593780Y-130003280D01*
X156546161Y-130027090D01*
X156450923Y-130027090D01*
X156403304Y-130003280D01*
X156355685Y-129955661D01*
X156331876Y-129860423D01*
X156331876Y-129693757D01*
X156355685Y-129598519D01*
X156403304Y-129550900D01*
X156450923Y-129527090D01*
X156879495Y-130027090D02*
X156879495Y-129527090D01*
X157093780Y-130027090D02*
X157093780Y-129765185D01*
X157069971Y-129717566D01*
X157022352Y-129693757D01*
X156950923Y-129693757D01*
X156903304Y-129717566D01*
X156879495Y-129741376D01*
X157331876Y-130027090D02*
X157331876Y-129693757D01*
X157331876Y-129741376D02*
X157355685Y-129717566D01*
X157403304Y-129693757D01*
X157474733Y-129693757D01*
X157522352Y-129717566D01*
X157546161Y-129765185D01*
X157546161Y-130027090D01*
X157546161Y-129765185D02*
X157569971Y-129717566D01*
X157617590Y-129693757D01*
X157689019Y-129693757D01*
X157736638Y-129717566D01*
X157760447Y-129765185D01*
X157760447Y-130027090D01*
%TO.C,C3*%
X149248114Y-132805590D02*
X148962400Y-132805590D01*
X149105257Y-132805590D02*
X149105257Y-132305590D01*
X149057638Y-132377019D01*
X149010019Y-132424638D01*
X148962400Y-132448447D01*
X149557638Y-132305590D02*
X149605257Y-132305590D01*
X149652876Y-132329400D01*
X149676685Y-132353209D01*
X149700495Y-132400828D01*
X149724304Y-132496066D01*
X149724304Y-132615114D01*
X149700495Y-132710352D01*
X149676685Y-132757971D01*
X149652876Y-132781780D01*
X149605257Y-132805590D01*
X149557638Y-132805590D01*
X149510019Y-132781780D01*
X149486209Y-132757971D01*
X149462400Y-132710352D01*
X149438590Y-132615114D01*
X149438590Y-132496066D01*
X149462400Y-132400828D01*
X149486209Y-132353209D01*
X149510019Y-132329400D01*
X149557638Y-132305590D01*
X150033828Y-132305590D02*
X150081447Y-132305590D01*
X150129066Y-132329400D01*
X150152876Y-132353209D01*
X150176685Y-132400828D01*
X150200495Y-132496066D01*
X150200495Y-132615114D01*
X150176685Y-132710352D01*
X150152876Y-132757971D01*
X150129066Y-132781780D01*
X150081447Y-132805590D01*
X150033828Y-132805590D01*
X149986209Y-132781780D01*
X149962400Y-132757971D01*
X149938590Y-132710352D01*
X149914780Y-132615114D01*
X149914780Y-132496066D01*
X149938590Y-132400828D01*
X149962400Y-132353209D01*
X149986209Y-132329400D01*
X150033828Y-132305590D01*
X150795733Y-132472257D02*
X150795733Y-132805590D01*
X150795733Y-132519876D02*
X150819542Y-132496066D01*
X150867161Y-132472257D01*
X150938590Y-132472257D01*
X150986209Y-132496066D01*
X151010019Y-132543685D01*
X151010019Y-132805590D01*
X151414780Y-132543685D02*
X151248114Y-132543685D01*
X151248114Y-132805590D02*
X151248114Y-132305590D01*
X151486209Y-132305590D01*
%TO.C,C1*%
X107284114Y-94660590D02*
X106998400Y-94660590D01*
X107141257Y-94660590D02*
X107141257Y-94160590D01*
X107093638Y-94232019D01*
X107046019Y-94279638D01*
X106998400Y-94303447D01*
X107593638Y-94160590D02*
X107641257Y-94160590D01*
X107688876Y-94184400D01*
X107712685Y-94208209D01*
X107736495Y-94255828D01*
X107760304Y-94351066D01*
X107760304Y-94470114D01*
X107736495Y-94565352D01*
X107712685Y-94612971D01*
X107688876Y-94636780D01*
X107641257Y-94660590D01*
X107593638Y-94660590D01*
X107546019Y-94636780D01*
X107522209Y-94612971D01*
X107498400Y-94565352D01*
X107474590Y-94470114D01*
X107474590Y-94351066D01*
X107498400Y-94255828D01*
X107522209Y-94208209D01*
X107546019Y-94184400D01*
X107593638Y-94160590D01*
X108069828Y-94160590D02*
X108117447Y-94160590D01*
X108165066Y-94184400D01*
X108188876Y-94208209D01*
X108212685Y-94255828D01*
X108236495Y-94351066D01*
X108236495Y-94470114D01*
X108212685Y-94565352D01*
X108188876Y-94612971D01*
X108165066Y-94636780D01*
X108117447Y-94660590D01*
X108069828Y-94660590D01*
X108022209Y-94636780D01*
X107998400Y-94612971D01*
X107974590Y-94565352D01*
X107950780Y-94470114D01*
X107950780Y-94351066D01*
X107974590Y-94255828D01*
X107998400Y-94208209D01*
X108022209Y-94184400D01*
X108069828Y-94160590D01*
X108831733Y-94327257D02*
X108831733Y-94660590D01*
X108831733Y-94374876D02*
X108855542Y-94351066D01*
X108903161Y-94327257D01*
X108974590Y-94327257D01*
X109022209Y-94351066D01*
X109046019Y-94398685D01*
X109046019Y-94660590D01*
X109450780Y-94398685D02*
X109284114Y-94398685D01*
X109284114Y-94660590D02*
X109284114Y-94160590D01*
X109522209Y-94160590D01*
%TO.C,R2*%
X184950257Y-91926090D02*
X184664542Y-91926090D01*
X184807400Y-91926090D02*
X184807400Y-91426090D01*
X184759780Y-91497519D01*
X184712161Y-91545138D01*
X184664542Y-91568947D01*
X185259780Y-91426090D02*
X185307400Y-91426090D01*
X185355019Y-91449900D01*
X185378828Y-91473709D01*
X185402638Y-91521328D01*
X185426447Y-91616566D01*
X185426447Y-91735614D01*
X185402638Y-91830852D01*
X185378828Y-91878471D01*
X185355019Y-91902280D01*
X185307400Y-91926090D01*
X185259780Y-91926090D01*
X185212161Y-91902280D01*
X185188352Y-91878471D01*
X185164542Y-91830852D01*
X185140733Y-91735614D01*
X185140733Y-91616566D01*
X185164542Y-91521328D01*
X185188352Y-91473709D01*
X185212161Y-91449900D01*
X185259780Y-91426090D01*
X185640733Y-91926090D02*
X185640733Y-91426090D01*
X185926447Y-91926090D02*
X185712161Y-91640376D01*
X185926447Y-91426090D02*
X185640733Y-91711804D01*
X186616923Y-91426090D02*
X186712161Y-91426090D01*
X186759780Y-91449900D01*
X186807400Y-91497519D01*
X186831209Y-91592757D01*
X186831209Y-91759423D01*
X186807400Y-91854661D01*
X186759780Y-91902280D01*
X186712161Y-91926090D01*
X186616923Y-91926090D01*
X186569304Y-91902280D01*
X186521685Y-91854661D01*
X186497876Y-91759423D01*
X186497876Y-91592757D01*
X186521685Y-91497519D01*
X186569304Y-91449900D01*
X186616923Y-91426090D01*
X187045495Y-91926090D02*
X187045495Y-91426090D01*
X187259780Y-91926090D02*
X187259780Y-91664185D01*
X187235971Y-91616566D01*
X187188352Y-91592757D01*
X187116923Y-91592757D01*
X187069304Y-91616566D01*
X187045495Y-91640376D01*
X187497876Y-91926090D02*
X187497876Y-91592757D01*
X187497876Y-91640376D02*
X187521685Y-91616566D01*
X187569304Y-91592757D01*
X187640733Y-91592757D01*
X187688352Y-91616566D01*
X187712161Y-91664185D01*
X187712161Y-91926090D01*
X187712161Y-91664185D02*
X187735971Y-91616566D01*
X187783590Y-91592757D01*
X187855019Y-91592757D01*
X187902638Y-91616566D01*
X187926447Y-91664185D01*
X187926447Y-91926090D01*
%TO.C,R3*%
X179105257Y-109070090D02*
X178819542Y-109070090D01*
X178962400Y-109070090D02*
X178962400Y-108570090D01*
X178914780Y-108641519D01*
X178867161Y-108689138D01*
X178819542Y-108712947D01*
X179414780Y-108570090D02*
X179462400Y-108570090D01*
X179510019Y-108593900D01*
X179533828Y-108617709D01*
X179557638Y-108665328D01*
X179581447Y-108760566D01*
X179581447Y-108879614D01*
X179557638Y-108974852D01*
X179533828Y-109022471D01*
X179510019Y-109046280D01*
X179462400Y-109070090D01*
X179414780Y-109070090D01*
X179367161Y-109046280D01*
X179343352Y-109022471D01*
X179319542Y-108974852D01*
X179295733Y-108879614D01*
X179295733Y-108760566D01*
X179319542Y-108665328D01*
X179343352Y-108617709D01*
X179367161Y-108593900D01*
X179414780Y-108570090D01*
X179795733Y-109070090D02*
X179795733Y-108570090D01*
X180081447Y-109070090D02*
X179867161Y-108784376D01*
X180081447Y-108570090D02*
X179795733Y-108855804D01*
X180771923Y-108570090D02*
X180867161Y-108570090D01*
X180914780Y-108593900D01*
X180962400Y-108641519D01*
X180986209Y-108736757D01*
X180986209Y-108903423D01*
X180962400Y-108998661D01*
X180914780Y-109046280D01*
X180867161Y-109070090D01*
X180771923Y-109070090D01*
X180724304Y-109046280D01*
X180676685Y-108998661D01*
X180652876Y-108903423D01*
X180652876Y-108736757D01*
X180676685Y-108641519D01*
X180724304Y-108593900D01*
X180771923Y-108570090D01*
X181200495Y-109070090D02*
X181200495Y-108570090D01*
X181414780Y-109070090D02*
X181414780Y-108808185D01*
X181390971Y-108760566D01*
X181343352Y-108736757D01*
X181271923Y-108736757D01*
X181224304Y-108760566D01*
X181200495Y-108784376D01*
X181652876Y-109070090D02*
X181652876Y-108736757D01*
X181652876Y-108784376D02*
X181676685Y-108760566D01*
X181724304Y-108736757D01*
X181795733Y-108736757D01*
X181843352Y-108760566D01*
X181867161Y-108808185D01*
X181867161Y-109070090D01*
X181867161Y-108808185D02*
X181890971Y-108760566D01*
X181938590Y-108736757D01*
X182010019Y-108736757D01*
X182057638Y-108760566D01*
X182081447Y-108808185D01*
X182081447Y-109070090D01*
%TO.C,C2*%
X104954114Y-139824590D02*
X104668400Y-139824590D01*
X104811257Y-139824590D02*
X104811257Y-139324590D01*
X104763638Y-139396019D01*
X104716019Y-139443638D01*
X104668400Y-139467447D01*
X105263638Y-139324590D02*
X105311257Y-139324590D01*
X105358876Y-139348400D01*
X105382685Y-139372209D01*
X105406495Y-139419828D01*
X105430304Y-139515066D01*
X105430304Y-139634114D01*
X105406495Y-139729352D01*
X105382685Y-139776971D01*
X105358876Y-139800780D01*
X105311257Y-139824590D01*
X105263638Y-139824590D01*
X105216019Y-139800780D01*
X105192209Y-139776971D01*
X105168400Y-139729352D01*
X105144590Y-139634114D01*
X105144590Y-139515066D01*
X105168400Y-139419828D01*
X105192209Y-139372209D01*
X105216019Y-139348400D01*
X105263638Y-139324590D01*
X105739828Y-139324590D02*
X105787447Y-139324590D01*
X105835066Y-139348400D01*
X105858876Y-139372209D01*
X105882685Y-139419828D01*
X105906495Y-139515066D01*
X105906495Y-139634114D01*
X105882685Y-139729352D01*
X105858876Y-139776971D01*
X105835066Y-139800780D01*
X105787447Y-139824590D01*
X105739828Y-139824590D01*
X105692209Y-139800780D01*
X105668400Y-139776971D01*
X105644590Y-139729352D01*
X105620780Y-139634114D01*
X105620780Y-139515066D01*
X105644590Y-139419828D01*
X105668400Y-139372209D01*
X105692209Y-139348400D01*
X105739828Y-139324590D01*
X106501733Y-139491257D02*
X106501733Y-139824590D01*
X106501733Y-139538876D02*
X106525542Y-139515066D01*
X106573161Y-139491257D01*
X106644590Y-139491257D01*
X106692209Y-139515066D01*
X106716019Y-139562685D01*
X106716019Y-139824590D01*
X107120780Y-139562685D02*
X106954114Y-139562685D01*
X106954114Y-139824590D02*
X106954114Y-139324590D01*
X107192209Y-139324590D01*
D10*
%TO.C,R5*%
X178666400Y-93959400D02*
X182267400Y-93959400D01*
X182267400Y-93959400D02*
X182267400Y-95889400D01*
X182267400Y-95889400D02*
X178666400Y-95889400D01*
X178666400Y-95889400D02*
X178666400Y-93959400D01*
D12*
%TO.C,J7*%
X107840700Y-85307000D02*
X186640700Y-85307000D01*
X105240700Y-85307000D02*
X105240700Y-83977000D01*
X107840700Y-82647000D02*
X186640700Y-82647000D01*
X106570700Y-85307000D02*
X105240700Y-85307000D01*
X107840700Y-85307000D02*
X107840700Y-82647000D01*
X186640700Y-85307000D02*
X186640700Y-82647000D01*
D10*
%TO.C,R1*%
X153513400Y-129330900D02*
X158785400Y-129330900D01*
X158785400Y-129330900D02*
X158785400Y-132201900D01*
X158785400Y-132201900D02*
X153513400Y-132201900D01*
X153513400Y-132201900D02*
X153513400Y-129330900D01*
%TO.C,R4*%
X178666400Y-92054400D02*
X182267400Y-92054400D01*
X182267400Y-92054400D02*
X182267400Y-93984400D01*
X182267400Y-93984400D02*
X178666400Y-93984400D01*
X178666400Y-93984400D02*
X178666400Y-92054400D01*
%TO.C,R8*%
X178666400Y-99671400D02*
X182267400Y-99671400D01*
X182267400Y-99671400D02*
X182267400Y-101601400D01*
X182267400Y-101601400D02*
X178666400Y-101601400D01*
X178666400Y-101601400D02*
X178666400Y-99671400D01*
%TO.C,U3*%
X164326900Y-94310900D02*
X164326900Y-107010900D01*
X171946900Y-107010900D02*
X171946900Y-94310900D01*
D12*
X163966900Y-93950900D02*
X165596900Y-93950900D01*
D10*
X164326900Y-107010900D02*
X171946900Y-107010900D01*
D12*
X163966900Y-95580900D02*
X163966900Y-93950900D01*
D10*
X171946900Y-94310900D02*
X164326900Y-94310900D01*
%TO.C,C3*%
X147391400Y-130096400D02*
X152873400Y-130096400D01*
X152873400Y-130096400D02*
X152873400Y-133029400D01*
X152873400Y-133029400D02*
X147391400Y-133029400D01*
X147391400Y-133029400D02*
X147391400Y-130096400D01*
%TO.C,R7*%
X178666400Y-97768400D02*
X182267400Y-97768400D01*
X182267400Y-97768400D02*
X182267400Y-99698400D01*
X182267400Y-99698400D02*
X178666400Y-99698400D01*
X178666400Y-99698400D02*
X178666400Y-97768400D01*
D12*
%TO.C,J9*%
X186647700Y-81705000D02*
X186647700Y-79045000D01*
X107847700Y-81705000D02*
X107847700Y-79045000D01*
X107847700Y-79045000D02*
X186647700Y-79045000D01*
X105247700Y-81705000D02*
X105247700Y-80375000D01*
X106577700Y-81705000D02*
X105247700Y-81705000D01*
X107847700Y-81705000D02*
X186647700Y-81705000D01*
%TO.C,J6*%
X105245700Y-69505000D02*
X105245700Y-68175000D01*
X107845700Y-66845000D02*
X186645700Y-66845000D01*
X107845700Y-69505000D02*
X186645700Y-69505000D01*
X186645700Y-69505000D02*
X186645700Y-66845000D01*
X106575700Y-69505000D02*
X105245700Y-69505000D01*
X107845700Y-69505000D02*
X107845700Y-66845000D01*
D10*
%TO.C,C1*%
X105119400Y-91958400D02*
X110601400Y-91958400D01*
X110601400Y-91958400D02*
X110601400Y-94891400D01*
X110601400Y-94891400D02*
X105119400Y-94891400D01*
X105119400Y-94891400D02*
X105119400Y-91958400D01*
%TO.C,R10*%
X178666400Y-103521400D02*
X182267400Y-103521400D01*
X182267400Y-103521400D02*
X182267400Y-105451400D01*
X182267400Y-105451400D02*
X178666400Y-105451400D01*
X178666400Y-105451400D02*
X178666400Y-103521400D01*
%TO.C,R2*%
X183679400Y-91229900D02*
X188951400Y-91229900D01*
X188951400Y-91229900D02*
X188951400Y-94100900D01*
X188951400Y-94100900D02*
X183679400Y-94100900D01*
X183679400Y-94100900D02*
X183679400Y-91229900D01*
%TO.C,R11*%
X178666400Y-105392400D02*
X182267400Y-105392400D01*
X182267400Y-105392400D02*
X182267400Y-107322400D01*
X182267400Y-107322400D02*
X178666400Y-107322400D01*
X178666400Y-107322400D02*
X178666400Y-105392400D01*
%TO.C,R3*%
X177834400Y-108373900D02*
X183106400Y-108373900D01*
X183106400Y-108373900D02*
X183106400Y-111244900D01*
X183106400Y-111244900D02*
X177834400Y-111244900D01*
X177834400Y-111244900D02*
X177834400Y-108373900D01*
%TO.C,R6*%
X178666400Y-95860400D02*
X182267400Y-95860400D01*
X182267400Y-95860400D02*
X182267400Y-97790400D01*
X182267400Y-97790400D02*
X178666400Y-97790400D01*
X178666400Y-97790400D02*
X178666400Y-95860400D01*
%TO.C,R9*%
X178666400Y-101578400D02*
X182267400Y-101578400D01*
X182267400Y-101578400D02*
X182267400Y-103508400D01*
X182267400Y-103508400D02*
X178666400Y-103508400D01*
X178666400Y-103508400D02*
X178666400Y-101578400D01*
%TO.C,C2*%
X103097400Y-137115400D02*
X108579400Y-137115400D01*
X108579400Y-137115400D02*
X108579400Y-140048400D01*
X108579400Y-140048400D02*
X103097400Y-140048400D01*
X103097400Y-140048400D02*
X103097400Y-137115400D01*
D12*
%TO.C,J8*%
X186647700Y-73104000D02*
X186647700Y-70444000D01*
X107847700Y-70444000D02*
X186647700Y-70444000D01*
X107847700Y-73104000D02*
X186647700Y-73104000D01*
X105247700Y-73104000D02*
X105247700Y-71774000D01*
X107847700Y-73104000D02*
X107847700Y-70444000D01*
X106577700Y-73104000D02*
X105247700Y-73104000D01*
%TD*%
M02*
