%TF.GenerationSoftware,KiCad,Pcbnew,(6.0.2)*%
%TF.CreationDate,2022-10-27T18:33:53-05:00*%
%TF.ProjectId,REF1329_Breakout,52454631-3332-4395-9f42-7265616b6f75,rev?*%
%TF.SameCoordinates,Original*%
%TF.FileFunction,Paste,Top*%
%TF.FilePolarity,Positive*%
%FSLAX46Y46*%
G04 Gerber Fmt 4.6, Leading zero omitted, Abs format (unit mm)*
G04 Created by KiCad (PCBNEW (6.0.2)) date 2022-10-27 18:33:53*
%MOMM*%
%LPD*%
G01*
G04 APERTURE LIST*
%ADD10R,1.310000X1.390000*%
%ADD11R,1.530000X6.250000*%
%ADD12R,1.710000X1.630000*%
%ADD13R,1.700000X1.630000*%
%ADD14R,0.700000X2.270000*%
%ADD15R,2.270000X0.700000*%
%ADD16R,2.000000X0.700000*%
%ADD17R,1.530000X9.000000*%
%ADD18R,0.600000X2.250000*%
%ADD19R,2.250000X0.600000*%
G04 APERTURE END LIST*
D10*
%TO.C,R5*%
X179589900Y-94934400D03*
X181375900Y-94935400D03*
%TD*%
D11*
%TO.C,J2*%
X115983400Y-28780400D03*
X118501400Y-28780400D03*
X121026400Y-28780400D03*
X123553400Y-28780400D03*
X126072400Y-28780400D03*
X128591400Y-28780400D03*
X131114400Y-28780400D03*
X133633400Y-28780400D03*
X136152400Y-28780400D03*
X138680400Y-28780400D03*
X141205400Y-28780400D03*
X143726400Y-28780400D03*
X146250400Y-28780400D03*
X148770400Y-28780400D03*
X151290400Y-28780400D03*
X153809400Y-28780400D03*
X156327400Y-28780400D03*
X158851400Y-28780400D03*
X161377400Y-28780400D03*
X163895400Y-28780400D03*
X166415400Y-28780400D03*
X168934400Y-28780400D03*
X171464400Y-28780400D03*
X173990400Y-28780400D03*
X176509400Y-28780400D03*
%TD*%
D12*
%TO.C,R1*%
X154524400Y-131165300D03*
X157751400Y-131172300D03*
%TD*%
D10*
%TO.C,R4*%
X179589900Y-93029400D03*
X181375900Y-93030400D03*
%TD*%
%TO.C,R8*%
X179589900Y-100646400D03*
X181375900Y-100647400D03*
%TD*%
D13*
%TO.C,C3*%
X148535800Y-131169500D03*
X151753800Y-131169500D03*
%TD*%
D14*
%TO.C,U2*%
X106167900Y-134327400D03*
X107436900Y-134326400D03*
X108746900Y-134325400D03*
X110016900Y-134325400D03*
D15*
X111879900Y-132420400D03*
X111882900Y-131190400D03*
X111880900Y-129883400D03*
X111881900Y-128612400D03*
X111883900Y-127380400D03*
X111880900Y-126069400D03*
X111881900Y-124801400D03*
X111881900Y-123530400D03*
X111881900Y-122262400D03*
D14*
X110056900Y-120356400D03*
X108786900Y-120357400D03*
X107476900Y-120355400D03*
X106205900Y-120353400D03*
X104894900Y-120356400D03*
X103628900Y-120353400D03*
X102397900Y-120355400D03*
D15*
X100451900Y-122261400D03*
X100451900Y-123533400D03*
X100450900Y-124801400D03*
X100451900Y-126072400D03*
X100452900Y-127379400D03*
X100451900Y-128611400D03*
X100454900Y-129880400D03*
X100451900Y-131192400D03*
X100450900Y-132423400D03*
D14*
X102355900Y-134327400D03*
X103586900Y-134324400D03*
X104857900Y-134325400D03*
%TD*%
D10*
%TO.C,R7*%
X179589900Y-98743400D03*
X181375900Y-98744400D03*
%TD*%
D16*
%TO.C,U5*%
X182270400Y-128054400D03*
X182269400Y-126787400D03*
X182275400Y-125473400D03*
X182268400Y-124247400D03*
X182268400Y-122936400D03*
X182269400Y-121664400D03*
X182267400Y-120354400D03*
X176554400Y-120352400D03*
X176554400Y-121663400D03*
X176556400Y-122933400D03*
X176552400Y-124245400D03*
X176553400Y-125471400D03*
X176554400Y-126779400D03*
X176554400Y-128051400D03*
%TD*%
D17*
%TO.C,J4*%
X116029400Y-150518400D03*
X118547400Y-150532400D03*
X121072400Y-150520400D03*
X123599400Y-150514400D03*
X126118400Y-150528400D03*
X128637400Y-150514400D03*
X131160400Y-150503400D03*
X133679400Y-150489400D03*
X136198400Y-150517400D03*
X138726400Y-150517400D03*
X141251400Y-150508400D03*
X143772400Y-150500400D03*
X146296400Y-150484400D03*
X148816400Y-150457400D03*
X151336400Y-150469400D03*
X153855400Y-150455400D03*
X156373400Y-150521400D03*
X158897400Y-150515400D03*
X161423400Y-150505400D03*
X163941400Y-150501400D03*
X166461400Y-150486400D03*
X168980400Y-150486400D03*
X171510400Y-150470400D03*
X174036400Y-150469400D03*
X176555400Y-150528400D03*
%TD*%
D13*
%TO.C,C1*%
X106263800Y-93031500D03*
X109481800Y-93031500D03*
%TD*%
D10*
%TO.C,R10*%
X179589900Y-104496400D03*
X181375900Y-104497400D03*
%TD*%
D16*
%TO.C,U6*%
X186081400Y-142006400D03*
X186078400Y-140736400D03*
X186078400Y-139466400D03*
X186078400Y-138236400D03*
X186079400Y-136927400D03*
X186079400Y-135654400D03*
X186077400Y-134385400D03*
X186079400Y-133115400D03*
X186078400Y-131804400D03*
X186078400Y-130536400D03*
X176554400Y-130533400D03*
X176552400Y-131806400D03*
X176554400Y-133114400D03*
X176552400Y-134386400D03*
X176555400Y-135655400D03*
X176552400Y-136923400D03*
X176554400Y-138235400D03*
X176556400Y-139465400D03*
X176553400Y-140734400D03*
X176553400Y-142003400D03*
%TD*%
D12*
%TO.C,R2*%
X184690400Y-93064300D03*
X187917400Y-93071300D03*
%TD*%
D14*
%TO.C,U1*%
X106167900Y-110799400D03*
X107436900Y-110798400D03*
X108746900Y-110797400D03*
X110016900Y-110797400D03*
D15*
X111879900Y-108892400D03*
X111882900Y-107662400D03*
X111880900Y-106355400D03*
X111881900Y-105084400D03*
X111883900Y-103852400D03*
X111880900Y-102541400D03*
X111881900Y-101273400D03*
X111881900Y-100002400D03*
X111881900Y-98734400D03*
D14*
X110056900Y-96828400D03*
X108786900Y-96829400D03*
X107476900Y-96827400D03*
X106205900Y-96825400D03*
X104894900Y-96828400D03*
X103628900Y-96825400D03*
X102397900Y-96827400D03*
D15*
X100451900Y-98733400D03*
X100451900Y-100005400D03*
X100450900Y-101273400D03*
X100451900Y-102544400D03*
X100452900Y-103851400D03*
X100451900Y-105083400D03*
X100454900Y-106352400D03*
X100451900Y-107664400D03*
X100450900Y-108895400D03*
D14*
X102355900Y-110799400D03*
X103586900Y-110796400D03*
X104857900Y-110797400D03*
%TD*%
D10*
%TO.C,R11*%
X179589900Y-106367400D03*
X181375900Y-106368400D03*
%TD*%
D12*
%TO.C,R3*%
X178845400Y-110208300D03*
X182072400Y-110215300D03*
%TD*%
D18*
%TO.C,U7*%
X122579400Y-138916400D03*
X123579400Y-138916400D03*
X124579400Y-138916400D03*
X125579400Y-138916400D03*
X126579400Y-138916400D03*
X127579400Y-138916400D03*
X128579400Y-138916400D03*
X129579400Y-138916400D03*
X130579400Y-138916400D03*
X131579400Y-138916400D03*
X132579400Y-138916400D03*
X133579400Y-138916400D03*
X134579400Y-138916400D03*
X135579400Y-138916400D03*
X136579400Y-138916400D03*
X137579400Y-138916400D03*
X138579400Y-138916400D03*
X139579400Y-138916400D03*
X140579400Y-138916400D03*
D19*
X143579400Y-135916400D03*
X143579400Y-134916400D03*
X143579400Y-133916400D03*
X143579400Y-132916400D03*
X143579400Y-131916400D03*
X143579400Y-130916400D03*
X143579400Y-129916400D03*
X143579400Y-128916400D03*
X143579400Y-127916400D03*
X143579400Y-126916400D03*
X143579400Y-125916400D03*
X143579400Y-124916400D03*
X143579400Y-123916400D03*
D18*
X140579400Y-120916400D03*
X139579400Y-120916400D03*
X138579400Y-120916400D03*
X137579400Y-120916400D03*
X136579400Y-120916400D03*
X135579400Y-120916400D03*
X134579400Y-120916400D03*
X133579400Y-120916400D03*
X132579400Y-120916400D03*
X131579400Y-120916400D03*
X130579400Y-120916400D03*
X129579400Y-120916400D03*
X128579400Y-120916400D03*
X127579400Y-120916400D03*
X126579400Y-120916400D03*
X125579400Y-120916400D03*
X124579400Y-120916400D03*
X123579400Y-120916400D03*
X122579400Y-120916400D03*
D19*
X119579400Y-123916400D03*
X119579400Y-124916400D03*
X119579400Y-125916400D03*
X119579400Y-126916400D03*
X119579400Y-127916400D03*
X119579400Y-128916400D03*
X119579400Y-129916400D03*
X119579400Y-130916400D03*
X119579400Y-131916400D03*
X119579400Y-132916400D03*
X119579400Y-133916400D03*
X119579400Y-134916400D03*
X119579400Y-135916400D03*
%TD*%
D10*
%TO.C,R6*%
X179589900Y-96835400D03*
X181375900Y-96836400D03*
%TD*%
%TO.C,R9*%
X179589900Y-102553400D03*
X181375900Y-102554400D03*
%TD*%
D13*
%TO.C,C2*%
X104241800Y-138188500D03*
X107459800Y-138188500D03*
%TD*%
D16*
%TO.C,U4*%
X191406900Y-103900400D03*
X191405900Y-102633400D03*
X191411900Y-101319400D03*
X191404900Y-100093400D03*
X191404900Y-98782400D03*
X191405900Y-97510400D03*
X191403900Y-96200400D03*
X185690900Y-96198400D03*
X185690900Y-97509400D03*
X185692900Y-98779400D03*
X185688900Y-100091400D03*
X185689900Y-101317400D03*
X185690900Y-102625400D03*
X185690900Y-103897400D03*
%TD*%
M02*
