%TF.GenerationSoftware,KiCad,Pcbnew,(6.0.2)*%
%TF.CreationDate,2022-10-27T18:33:53-05:00*%
%TF.ProjectId,REF1329_Breakout,52454631-3332-4395-9f42-7265616b6f75,rev?*%
%TF.SameCoordinates,Original*%
%TF.FileFunction,Copper,L1,Top*%
%TF.FilePolarity,Positive*%
%FSLAX46Y46*%
G04 Gerber Fmt 4.6, Leading zero omitted, Abs format (unit mm)*
G04 Created by KiCad (PCBNEW (6.0.2)) date 2022-10-27 18:33:53*
%MOMM*%
%LPD*%
G01*
G04 APERTURE LIST*
%TA.AperFunction,NonConductor*%
%ADD10C,0.000001*%
%TD*%
%TA.AperFunction,SMDPad,CuDef*%
%ADD11R,1.310000X1.390000*%
%TD*%
%TA.AperFunction,SMDPad,CuDef*%
%ADD12R,1.530000X6.250000*%
%TD*%
%TA.AperFunction,ComponentPad*%
%ADD13R,1.700000X1.700000*%
%TD*%
%TA.AperFunction,ComponentPad*%
%ADD14O,1.700000X1.700000*%
%TD*%
%TA.AperFunction,SMDPad,CuDef*%
%ADD15R,1.710000X1.630000*%
%TD*%
%TA.AperFunction,ComponentPad*%
%ADD16R,1.590000X1.590000*%
%TD*%
%TA.AperFunction,ComponentPad*%
%ADD17C,4.680000*%
%TD*%
%TA.AperFunction,ComponentPad*%
%ADD18R,1.600000X1.600000*%
%TD*%
%TA.AperFunction,ComponentPad*%
%ADD19C,1.600000*%
%TD*%
%TA.AperFunction,SMDPad,CuDef*%
%ADD20R,1.700000X1.630000*%
%TD*%
%TA.AperFunction,SMDPad,CuDef*%
%ADD21R,0.700000X2.270000*%
%TD*%
%TA.AperFunction,SMDPad,CuDef*%
%ADD22R,2.270000X0.700000*%
%TD*%
%TA.AperFunction,SMDPad,CuDef*%
%ADD23R,2.000000X0.700000*%
%TD*%
%TA.AperFunction,SMDPad,CuDef*%
%ADD24R,1.530000X9.000000*%
%TD*%
%TA.AperFunction,SMDPad,CuDef*%
%ADD25R,0.600000X2.250000*%
%TD*%
%TA.AperFunction,SMDPad,CuDef*%
%ADD26R,2.250000X0.600000*%
%TD*%
%TA.AperFunction,ViaPad*%
%ADD27C,0.800000*%
%TD*%
%TA.AperFunction,Conductor*%
%ADD28C,0.250000*%
%TD*%
%TA.AperFunction,Conductor*%
%ADD29C,0.600000*%
%TD*%
G04 APERTURE END LIST*
D10*
X177066600Y-89842100D02*
G75*
G03*
X177066600Y-89842100I0J0D01*
G01*
X177061600Y-90613100D02*
G75*
G03*
X177061600Y-90613100I0J0D01*
G01*
X177068600Y-88089100D02*
G75*
G03*
X177068600Y-88089100I0J0D01*
G01*
D11*
%TO.P,R5,1*%
%TO.N,/C*%
X179589900Y-94934400D03*
%TO.P,R5,2*%
%TO.N,/Q1*%
X181375900Y-94935400D03*
%TD*%
D12*
%TO.P,J2,1,Pin_1*%
%TO.N,/GND*%
X115983400Y-28780400D03*
%TO.P,J2,2,Pin_2*%
X118501400Y-28780400D03*
%TO.P,J2,3,Pin_3*%
%TO.N,/AD15*%
X121026400Y-28780400D03*
%TO.P,J2,4,Pin_4*%
%TO.N,/AD14*%
X123553400Y-28780400D03*
%TO.P,J2,5,Pin_5*%
%TO.N,/AD13*%
X126072400Y-28780400D03*
%TO.P,J2,6,Pin_6*%
%TO.N,/GND*%
X128591400Y-28780400D03*
%TO.P,J2,7,Pin_7*%
%TO.N,/AD12*%
X131114400Y-28780400D03*
%TO.P,J2,8,Pin_8*%
%TO.N,/{slash}write*%
X133633400Y-28780400D03*
%TO.P,J2,9,Pin_9*%
%TO.N,/VCC*%
X136152400Y-28780400D03*
%TO.P,J2,10,Pin_10*%
%TO.N,/{slash}read_top*%
X138680400Y-28780400D03*
%TO.P,J2,11,Pin_11*%
%TO.N,/AD11*%
X141205400Y-28780400D03*
%TO.P,J2,12,Pin_12*%
%TO.N,/AD10*%
X143726400Y-28780400D03*
%TO.P,J2,13,Pin_13*%
%TO.N,/12V_Front*%
X146250400Y-28780400D03*
%TO.P,J2,14,Pin_14*%
%TO.N,/UNUSED_Front*%
X148770400Y-28780400D03*
%TO.P,J2,15,Pin_15*%
%TO.N,/AD9*%
X151290400Y-28780400D03*
%TO.P,J2,16,Pin_16*%
%TO.N,/AD8*%
X153809400Y-28780400D03*
%TO.P,J2,17,Pin_17*%
%TO.N,/VCC*%
X156327400Y-28780400D03*
%TO.P,J2,18,Pin_18*%
%TO.N,/CIC_DATA1*%
X158851400Y-28780400D03*
%TO.P,J2,19,Pin_19*%
%TO.N,/1.6MHZ*%
X161377400Y-28780400D03*
%TO.P,J2,20,Pin_20*%
%TO.N,/{slash}COLD_RESET*%
X163895400Y-28780400D03*
%TO.P,J2,21,Pin_21*%
%TO.N,/S_DAT*%
X166415400Y-28780400D03*
%TO.P,J2,22,Pin_22*%
%TO.N,/GND*%
X168934400Y-28780400D03*
%TO.P,J2,23,Pin_23*%
X171464400Y-28780400D03*
%TO.P,J2,24,Pin_24*%
%TO.N,/LAUDIO*%
X173990400Y-28780400D03*
%TO.P,J2,25,Pin_25*%
%TO.N,/GND*%
X176509400Y-28780400D03*
%TD*%
D13*
%TO.P,J7,1,Pin_1*%
%TO.N,/A16*%
X106570700Y-83977000D03*
D14*
%TO.P,J7,2,Pin_2*%
%TO.N,/A17*%
X109110700Y-83977000D03*
%TO.P,J7,3,Pin_3*%
%TO.N,/A18*%
X111650700Y-83977000D03*
%TO.P,J7,4,Pin_4*%
%TO.N,/{slash}read_bottom*%
X114190700Y-83977000D03*
%TO.P,J7,5,Pin_5*%
%TO.N,/{slash}write*%
X116730700Y-83977000D03*
%TO.P,J7,6,Pin_6*%
%TO.N,/ALE_H*%
X119270700Y-83977000D03*
%TO.P,J7,7,Pin_7*%
%TO.N,/ALE_L*%
X121810700Y-83977000D03*
%TO.P,J7,8,Pin_8*%
%TO.N,/Chip_Enable*%
X124350700Y-83977000D03*
%TO.P,J7,9,Pin_9*%
%TO.N,/Output_Enable*%
X126890700Y-83977000D03*
%TO.P,J7,10,Pin_10*%
%TO.N,/PIC.GP4*%
X129430700Y-83977000D03*
%TO.P,J7,11,Pin_11*%
%TO.N,/PIC.GP5*%
X131970700Y-83977000D03*
%TO.P,J7,12,Pin_12*%
%TO.N,/Button*%
X134510700Y-83977000D03*
%TO.P,J7,13,Pin_13*%
%TO.N,/{slash}read_top*%
X137050700Y-83977000D03*
%TO.P,J7,14,Pin_14*%
%TO.N,/{slash}COLD_RESET*%
X139590700Y-83977000D03*
%TO.P,J7,15,Pin_15*%
%TO.N,/PPort_2*%
X142130700Y-83977000D03*
%TO.P,J7,16,Pin_16*%
%TO.N,/PPort_3*%
X144670700Y-83977000D03*
%TO.P,J7,17,Pin_17*%
%TO.N,/PPort_4*%
X147210700Y-83977000D03*
%TO.P,J7,18,Pin_18*%
%TO.N,/PPort_5*%
X149750700Y-83977000D03*
%TO.P,J7,19,Pin_19*%
%TO.N,/PPort_6*%
X152290700Y-83977000D03*
%TO.P,J7,20,Pin_20*%
%TO.N,/74HC04*%
X154830700Y-83977000D03*
%TO.P,J7,21,Pin_21*%
%TO.N,/74HC164_DSA_DSB*%
X157370700Y-83977000D03*
%TO.P,J7,22,Pin_22*%
%TO.N,/74HC164_CP*%
X159910700Y-83977000D03*
%TO.P,J7,23,Pin_23*%
%TO.N,/Pin_1*%
X162450700Y-83977000D03*
%TO.P,J7,24,Pin_24*%
%TO.N,/Pin_33*%
X164990700Y-83977000D03*
%TO.P,J7,25,Pin_25*%
%TO.N,/Pin_34*%
X167530700Y-83977000D03*
%TO.P,J7,26,Pin_26*%
%TO.N,/Pin_39*%
X170070700Y-83977000D03*
%TO.P,J7,27,Pin_27*%
%TO.N,/Pin_42*%
X172610700Y-83977000D03*
%TO.P,J7,28,Pin_28*%
%TO.N,unconnected-(J7-Pad28)*%
X175150700Y-83977000D03*
%TO.P,J7,29,Pin_29*%
%TO.N,unconnected-(J7-Pad29)*%
X177690700Y-83977000D03*
%TO.P,J7,30,Pin_30*%
%TO.N,unconnected-(J7-Pad30)*%
X180230700Y-83977000D03*
%TO.P,J7,31,Pin_31*%
%TO.N,unconnected-(J7-Pad31)*%
X182770700Y-83977000D03*
%TO.P,J7,32,Pin_32*%
%TO.N,unconnected-(J7-Pad32)*%
X185310700Y-83977000D03*
%TD*%
D15*
%TO.P,R1,1*%
%TO.N,/Button*%
X154524400Y-131165300D03*
%TO.P,R1,2*%
%TO.N,/VCC*%
X157751400Y-131172300D03*
%TD*%
D11*
%TO.P,R4,1*%
%TO.N,/DP*%
X179589900Y-93029400D03*
%TO.P,R4,2*%
%TO.N,/Q0*%
X181375900Y-93030400D03*
%TD*%
D16*
%TO.P,SW1,1,1*%
%TO.N,/GND*%
X190043900Y-116045900D03*
X190083900Y-109695900D03*
%TO.P,SW1,2,2*%
%TO.N,/Button*%
X194529900Y-116048900D03*
X194568900Y-109696900D03*
%TD*%
D17*
%TO.P,Hole1,1*%
%TO.N,N/C*%
X105352400Y-28947400D03*
%TD*%
D11*
%TO.P,R8,1*%
%TO.N,/F*%
X179589900Y-100646400D03*
%TO.P,R8,2*%
%TO.N,/Q4*%
X181375900Y-100647400D03*
%TD*%
D17*
%TO.P,Hole2,1*%
%TO.N,N/C*%
X101501400Y-141759400D03*
%TD*%
D18*
%TO.P,U3,1,CA*%
%TO.N,/VCC*%
X165596900Y-95580900D03*
D19*
%TO.P,U3,2,F*%
%TO.N,/F*%
X165596900Y-98120900D03*
%TO.P,U3,3,G*%
%TO.N,/G*%
X165596900Y-100660900D03*
%TO.P,U3,4,E*%
%TO.N,/E*%
X165596900Y-103200900D03*
%TO.P,U3,5,D*%
%TO.N,/D*%
X165596900Y-105740900D03*
%TO.P,U3,6,CA*%
%TO.N,/VCC*%
X170676900Y-105740900D03*
%TO.P,U3,7,DP*%
%TO.N,/DP*%
X170676900Y-103200900D03*
%TO.P,U3,8,C*%
%TO.N,/C*%
X170676900Y-100660900D03*
%TO.P,U3,9,B*%
%TO.N,/B*%
X170676900Y-98120900D03*
%TO.P,U3,10,A*%
%TO.N,/A*%
X170676900Y-95580900D03*
%TD*%
D20*
%TO.P,C3,1*%
%TO.N,/VCC*%
X148535800Y-131169500D03*
%TO.P,C3,2*%
%TO.N,/GND*%
X151753800Y-131169500D03*
%TD*%
D21*
%TO.P,U2,1,A18*%
%TO.N,/A18*%
X106167900Y-134327400D03*
%TO.P,U2,2,A16*%
%TO.N,/A16*%
X107436900Y-134326400D03*
%TO.P,U2,3,A15*%
%TO.N,/A15*%
X108746900Y-134325400D03*
%TO.P,U2,4,A12*%
%TO.N,/A12*%
X110016900Y-134325400D03*
D22*
%TO.P,U2,5,A7*%
%TO.N,/A7*%
X111879900Y-132420400D03*
%TO.P,U2,6,A6*%
%TO.N,/A6*%
X111882900Y-131190400D03*
%TO.P,U2,7,A5*%
%TO.N,/A5*%
X111880900Y-129883400D03*
%TO.P,U2,8,A4*%
%TO.N,/A4*%
X111881900Y-128612400D03*
%TO.P,U2,9,A3*%
%TO.N,/A3*%
X111883900Y-127380400D03*
%TO.P,U2,10,A2*%
%TO.N,/A2*%
X111880900Y-126069400D03*
%TO.P,U2,11,A1*%
%TO.N,/A1*%
X111881900Y-124801400D03*
%TO.P,U2,12,A0*%
%TO.N,/A0*%
X111881900Y-123530400D03*
%TO.P,U2,13,Ad8*%
%TO.N,/AD8*%
X111881900Y-122262400D03*
D21*
%TO.P,U2,14,Ad9*%
%TO.N,/AD9*%
X110056900Y-120356400D03*
%TO.P,U2,15,Ad10*%
%TO.N,/AD10*%
X108786900Y-120357400D03*
%TO.P,U2,16,GND*%
%TO.N,/GND*%
X107476900Y-120355400D03*
%TO.P,U2,17,Ad11*%
%TO.N,/AD11*%
X106205900Y-120353400D03*
%TO.P,U2,18,Ad12*%
%TO.N,/AD12*%
X104894900Y-120356400D03*
%TO.P,U2,19,Ad13*%
%TO.N,/AD13*%
X103628900Y-120353400D03*
%TO.P,U2,20,Ad14*%
%TO.N,/AD14*%
X102397900Y-120355400D03*
D22*
%TO.P,U2,21,Ad15*%
%TO.N,/AD15*%
X100451900Y-122261400D03*
%TO.P,U2,22,CE#*%
%TO.N,/Chip_Enable*%
X100451900Y-123533400D03*
%TO.P,U2,23,A10*%
%TO.N,/A10*%
X100450900Y-124801400D03*
%TO.P,U2,24,OE#*%
%TO.N,/Output_Enable*%
X100451900Y-126072400D03*
%TO.P,U2,25,A11*%
%TO.N,/A11*%
X100452900Y-127379400D03*
%TO.P,U2,26,A9*%
%TO.N,/A9*%
X100451900Y-128611400D03*
%TO.P,U2,27,A8*%
%TO.N,/A8*%
X100454900Y-129880400D03*
%TO.P,U2,28,A13*%
%TO.N,/A13*%
X100451900Y-131192400D03*
%TO.P,U2,29,A14*%
%TO.N,/A14*%
X100450900Y-132423400D03*
D21*
%TO.P,U2,30,A17*%
%TO.N,/A17*%
X102355900Y-134327400D03*
%TO.P,U2,31,WE#*%
%TO.N,/{slash}write*%
X103586900Y-134324400D03*
%TO.P,U2,32,VCC*%
%TO.N,/VCC*%
X104857900Y-134325400D03*
%TD*%
D11*
%TO.P,R7,1*%
%TO.N,/A*%
X179589900Y-98743400D03*
%TO.P,R7,2*%
%TO.N,/Q3*%
X181375900Y-98744400D03*
%TD*%
D13*
%TO.P,J9,1,Pin_1*%
%TO.N,/GND*%
X106577700Y-80375000D03*
D14*
%TO.P,J9,2,Pin_2*%
X109117700Y-80375000D03*
%TO.P,J9,3,Pin_3*%
X111657700Y-80375000D03*
%TO.P,J9,4,Pin_4*%
X114197700Y-80375000D03*
%TO.P,J9,5,Pin_5*%
X116737700Y-80375000D03*
%TO.P,J9,6,Pin_6*%
X119277700Y-80375000D03*
%TO.P,J9,7,Pin_7*%
X121817700Y-80375000D03*
%TO.P,J9,8,Pin_8*%
X124357700Y-80375000D03*
%TO.P,J9,9,Pin_9*%
X126897700Y-80375000D03*
%TO.P,J9,10,Pin_10*%
X129437700Y-80375000D03*
%TO.P,J9,11,Pin_11*%
X131977700Y-80375000D03*
%TO.P,J9,12,Pin_12*%
X134517700Y-80375000D03*
%TO.P,J9,13,Pin_13*%
X137057700Y-80375000D03*
%TO.P,J9,14,Pin_14*%
X139597700Y-80375000D03*
%TO.P,J9,15,Pin_15*%
X142137700Y-80375000D03*
%TO.P,J9,16,Pin_16*%
X144677700Y-80375000D03*
%TO.P,J9,17,Pin_17*%
X147217700Y-80375000D03*
%TO.P,J9,18,Pin_18*%
X149757700Y-80375000D03*
%TO.P,J9,19,Pin_19*%
X152297700Y-80375000D03*
%TO.P,J9,20,Pin_20*%
X154837700Y-80375000D03*
%TO.P,J9,21,Pin_21*%
X157377700Y-80375000D03*
%TO.P,J9,22,Pin_22*%
X159917700Y-80375000D03*
%TO.P,J9,23,Pin_23*%
X162457700Y-80375000D03*
%TO.P,J9,24,Pin_24*%
X164997700Y-80375000D03*
%TO.P,J9,25,Pin_25*%
X167537700Y-80375000D03*
%TO.P,J9,26,Pin_26*%
X170077700Y-80375000D03*
%TO.P,J9,27,Pin_27*%
X172617700Y-80375000D03*
%TO.P,J9,28,Pin_28*%
X175157700Y-80375000D03*
%TO.P,J9,29,Pin_29*%
X177697700Y-80375000D03*
%TO.P,J9,30,Pin_30*%
X180237700Y-80375000D03*
%TO.P,J9,31,Pin_31*%
X182777700Y-80375000D03*
%TO.P,J9,32,Pin_32*%
X185317700Y-80375000D03*
%TD*%
D23*
%TO.P,U5,1*%
%TO.N,/74HC04*%
X182270400Y-128054400D03*
%TO.P,U5,2*%
%TO.N,/74HC04-374*%
X182269400Y-126787400D03*
%TO.P,U5,3*%
%TO.N,N/C*%
X182275400Y-125473400D03*
%TO.P,U5,4*%
X182268400Y-124247400D03*
%TO.P,U5,5*%
X182268400Y-122936400D03*
%TO.P,U5,6*%
X182269400Y-121664400D03*
%TO.P,U5,7,GND*%
%TO.N,/GND*%
X182267400Y-120354400D03*
%TO.P,U5,8*%
%TO.N,N/C*%
X176554400Y-120352400D03*
%TO.P,U5,9*%
X176554400Y-121663400D03*
%TO.P,U5,10*%
X176556400Y-122933400D03*
%TO.P,U5,11*%
X176552400Y-124245400D03*
%TO.P,U5,12*%
X176553400Y-125471400D03*
%TO.P,U5,13*%
X176554400Y-126779400D03*
%TO.P,U5,14,VCC*%
%TO.N,/VCC*%
X176554400Y-128051400D03*
%TD*%
D13*
%TO.P,J6,1,Pin_1*%
%TO.N,/AD0*%
X106575700Y-68175000D03*
D14*
%TO.P,J6,2,Pin_2*%
%TO.N,/AD1*%
X109115700Y-68175000D03*
%TO.P,J6,3,Pin_3*%
%TO.N,/AD2*%
X111655700Y-68175000D03*
%TO.P,J6,4,Pin_4*%
%TO.N,/AD3*%
X114195700Y-68175000D03*
%TO.P,J6,5,Pin_5*%
%TO.N,/AD4*%
X116735700Y-68175000D03*
%TO.P,J6,6,Pin_6*%
%TO.N,/AD5*%
X119275700Y-68175000D03*
%TO.P,J6,7,Pin_7*%
%TO.N,/AD6*%
X121815700Y-68175000D03*
%TO.P,J6,8,Pin_8*%
%TO.N,/AD7*%
X124355700Y-68175000D03*
%TO.P,J6,9,Pin_9*%
%TO.N,/AD8*%
X126895700Y-68175000D03*
%TO.P,J6,10,Pin_10*%
%TO.N,/AD9*%
X129435700Y-68175000D03*
%TO.P,J6,11,Pin_11*%
%TO.N,/AD10*%
X131975700Y-68175000D03*
%TO.P,J6,12,Pin_12*%
%TO.N,/AD11*%
X134515700Y-68175000D03*
%TO.P,J6,13,Pin_13*%
%TO.N,/AD12*%
X137055700Y-68175000D03*
%TO.P,J6,14,Pin_14*%
%TO.N,/AD13*%
X139595700Y-68175000D03*
%TO.P,J6,15,Pin_15*%
%TO.N,/AD14*%
X142135700Y-68175000D03*
%TO.P,J6,16,Pin_16*%
%TO.N,/AD15*%
X144675700Y-68175000D03*
%TO.P,J6,17,Pin_17*%
%TO.N,/A0*%
X147215700Y-68175000D03*
%TO.P,J6,18,Pin_18*%
%TO.N,/A1*%
X149755700Y-68175000D03*
%TO.P,J6,19,Pin_19*%
%TO.N,/A2*%
X152295700Y-68175000D03*
%TO.P,J6,20,Pin_20*%
%TO.N,/A3*%
X154835700Y-68175000D03*
%TO.P,J6,21,Pin_21*%
%TO.N,/A4*%
X157375700Y-68175000D03*
%TO.P,J6,22,Pin_22*%
%TO.N,/A5*%
X159915700Y-68175000D03*
%TO.P,J6,23,Pin_23*%
%TO.N,/A6*%
X162455700Y-68175000D03*
%TO.P,J6,24,Pin_24*%
%TO.N,/A7*%
X164995700Y-68175000D03*
%TO.P,J6,25,Pin_25*%
%TO.N,/A8*%
X167535700Y-68175000D03*
%TO.P,J6,26,Pin_26*%
%TO.N,/A9*%
X170075700Y-68175000D03*
%TO.P,J6,27,Pin_27*%
%TO.N,/A10*%
X172615700Y-68175000D03*
%TO.P,J6,28,Pin_28*%
%TO.N,/A11*%
X175155700Y-68175000D03*
%TO.P,J6,29,Pin_29*%
%TO.N,/A12*%
X177695700Y-68175000D03*
%TO.P,J6,30,Pin_30*%
%TO.N,/A13*%
X180235700Y-68175000D03*
%TO.P,J6,31,Pin_31*%
%TO.N,/A14*%
X182775700Y-68175000D03*
%TO.P,J6,32,Pin_32*%
%TO.N,/A15*%
X185315700Y-68175000D03*
%TD*%
D24*
%TO.P,J4,1,Pin_1*%
%TO.N,/GND*%
X116029400Y-150518400D03*
%TO.P,J4,2,Pin_2*%
X118547400Y-150532400D03*
%TO.P,J4,3,Pin_3*%
%TO.N,/AD15*%
X121072400Y-150520400D03*
%TO.P,J4,4,Pin_4*%
%TO.N,/AD14*%
X123599400Y-150514400D03*
%TO.P,J4,5,Pin_5*%
%TO.N,/AD13*%
X126118400Y-150528400D03*
%TO.P,J4,6,Pin_6*%
%TO.N,/GND*%
X128637400Y-150514400D03*
%TO.P,J4,7,Pin_7*%
%TO.N,/AD12*%
X131160400Y-150503400D03*
%TO.P,J4,8,Pin_8*%
%TO.N,/{slash}write*%
X133679400Y-150489400D03*
%TO.P,J4,9,Pin_9*%
%TO.N,/VCC*%
X136198400Y-150517400D03*
%TO.P,J4,10,Pin_10*%
%TO.N,/{slash}read_bottom*%
X138726400Y-150517400D03*
%TO.P,J4,11,Pin_11*%
%TO.N,/AD11*%
X141251400Y-150508400D03*
%TO.P,J4,12,Pin_12*%
%TO.N,/AD10*%
X143772400Y-150500400D03*
%TO.P,J4,13,Pin_13*%
%TO.N,/12V_Front*%
X146296400Y-150484400D03*
%TO.P,J4,14,Pin_14*%
%TO.N,/UNUSED_Front*%
X148816400Y-150457400D03*
%TO.P,J4,15,Pin_15*%
%TO.N,/AD9*%
X151336400Y-150469400D03*
%TO.P,J4,16,Pin_16*%
%TO.N,/AD8*%
X153855400Y-150455400D03*
%TO.P,J4,17,Pin_17*%
%TO.N,/VCC*%
X156373400Y-150521400D03*
%TO.P,J4,18,Pin_18*%
%TO.N,/CIC_DATA1*%
X158897400Y-150515400D03*
%TO.P,J4,19,Pin_19*%
%TO.N,/1.6MHZ*%
X161423400Y-150505400D03*
%TO.P,J4,20,Pin_20*%
%TO.N,/{slash}COLD_RESET*%
X163941400Y-150501400D03*
%TO.P,J4,21,Pin_21*%
%TO.N,/S_DAT*%
X166461400Y-150486400D03*
%TO.P,J4,22,Pin_22*%
%TO.N,/GND*%
X168980400Y-150486400D03*
%TO.P,J4,23,Pin_23*%
X171510400Y-150470400D03*
%TO.P,J4,24,Pin_24*%
%TO.N,/LAUDIO*%
X174036400Y-150469400D03*
%TO.P,J4,25,Pin_25*%
%TO.N,/GND*%
X176555400Y-150528400D03*
%TD*%
D20*
%TO.P,C1,1*%
%TO.N,/VCC*%
X106263800Y-93031500D03*
%TO.P,C1,2*%
%TO.N,/GND*%
X109481800Y-93031500D03*
%TD*%
D11*
%TO.P,R10,1*%
%TO.N,/E*%
X179589900Y-104496400D03*
%TO.P,R10,2*%
%TO.N,/Q6*%
X181375900Y-104497400D03*
%TD*%
D17*
%TO.P,Hole3,1*%
%TO.N,N/C*%
X187783400Y-28986400D03*
%TD*%
D23*
%TO.P,U6,1,OE*%
%TO.N,/GND*%
X186081400Y-142006400D03*
%TO.P,U6,2,O0*%
%TO.N,/PPort_13*%
X186078400Y-140736400D03*
%TO.P,U6,3,D0*%
%TO.N,/AD0*%
X186078400Y-139466400D03*
%TO.P,U6,4,D1*%
%TO.N,/AD1*%
X186078400Y-138236400D03*
%TO.P,U6,5,O1*%
%TO.N,/PPort_12*%
X186079400Y-136927400D03*
%TO.P,U6,6,O2*%
%TO.N,/PPort_10*%
X186079400Y-135654400D03*
%TO.P,U6,7,D2*%
%TO.N,/AD2*%
X186077400Y-134385400D03*
%TO.P,U6,8,D3*%
%TO.N,/AD3*%
X186079400Y-133115400D03*
%TO.P,U6,9,O3*%
%TO.N,/PPort_11*%
X186078400Y-131804400D03*
%TO.P,U6,10,GND*%
%TO.N,/GND*%
X186078400Y-130536400D03*
%TO.P,U6,11,Cp*%
%TO.N,/74HC04-374*%
X176554400Y-130533400D03*
%TO.P,U6,12,O4*%
%TO.N,/PPort_15*%
X176552400Y-131806400D03*
%TO.P,U6,13,D4*%
%TO.N,/AD4*%
X176554400Y-133114400D03*
%TO.P,U6,14,D5*%
%TO.N,/AD5*%
X176552400Y-134386400D03*
%TO.P,U6,15,O5*%
%TO.N,unconnected-(U6-Pad15)*%
X176555400Y-135655400D03*
%TO.P,U6,16,O6*%
%TO.N,unconnected-(U6-Pad16)*%
X176552400Y-136923400D03*
%TO.P,U6,17,D6*%
%TO.N,/AD6*%
X176554400Y-138235400D03*
%TO.P,U6,18,D7*%
%TO.N,/AD7*%
X176556400Y-139465400D03*
%TO.P,U6,19,O7*%
%TO.N,unconnected-(U6-Pad19)*%
X176553400Y-140734400D03*
%TO.P,U6,20,VCC*%
%TO.N,/VCC*%
X176553400Y-142003400D03*
%TD*%
D15*
%TO.P,R2,1*%
%TO.N,/74HC164_CP*%
X184690400Y-93064300D03*
%TO.P,R2,2*%
%TO.N,/VCC*%
X187917400Y-93071300D03*
%TD*%
D17*
%TO.P,Hole4,1*%
%TO.N,N/C*%
X190958400Y-141804400D03*
%TD*%
D21*
%TO.P,U1,1,A18*%
%TO.N,/A18*%
X106167900Y-110799400D03*
%TO.P,U1,2,A16*%
%TO.N,/A16*%
X107436900Y-110798400D03*
%TO.P,U1,3,A15*%
%TO.N,/A15*%
X108746900Y-110797400D03*
%TO.P,U1,4,A12*%
%TO.N,/A12*%
X110016900Y-110797400D03*
D22*
%TO.P,U1,5,A7*%
%TO.N,/A7*%
X111879900Y-108892400D03*
%TO.P,U1,6,A6*%
%TO.N,/A6*%
X111882900Y-107662400D03*
%TO.P,U1,7,A5*%
%TO.N,/A5*%
X111880900Y-106355400D03*
%TO.P,U1,8,A4*%
%TO.N,/A4*%
X111881900Y-105084400D03*
%TO.P,U1,9,A3*%
%TO.N,/A3*%
X111883900Y-103852400D03*
%TO.P,U1,10,A2*%
%TO.N,/A2*%
X111880900Y-102541400D03*
%TO.P,U1,11,A1*%
%TO.N,/A1*%
X111881900Y-101273400D03*
%TO.P,U1,12,A0*%
%TO.N,/A0*%
X111881900Y-100002400D03*
%TO.P,U1,13,Ad0*%
%TO.N,/AD0*%
X111881900Y-98734400D03*
D21*
%TO.P,U1,14,Ad1*%
%TO.N,/AD1*%
X110056900Y-96828400D03*
%TO.P,U1,15,Ad2*%
%TO.N,/AD2*%
X108786900Y-96829400D03*
%TO.P,U1,16,GND*%
%TO.N,/GND*%
X107476900Y-96827400D03*
%TO.P,U1,17,Ad3*%
%TO.N,/AD3*%
X106205900Y-96825400D03*
%TO.P,U1,18,Ad4*%
%TO.N,/AD4*%
X104894900Y-96828400D03*
%TO.P,U1,19,Ad5*%
%TO.N,/AD5*%
X103628900Y-96825400D03*
%TO.P,U1,20,Ad6*%
%TO.N,/AD6*%
X102397900Y-96827400D03*
D22*
%TO.P,U1,21,Ad7*%
%TO.N,/AD7*%
X100451900Y-98733400D03*
%TO.P,U1,22,CE#*%
%TO.N,/Chip_Enable*%
X100451900Y-100005400D03*
%TO.P,U1,23,A10*%
%TO.N,/A10*%
X100450900Y-101273400D03*
%TO.P,U1,24,OE#*%
%TO.N,/Output_Enable*%
X100451900Y-102544400D03*
%TO.P,U1,25,A11*%
%TO.N,/A11*%
X100452900Y-103851400D03*
%TO.P,U1,26,A9*%
%TO.N,/A9*%
X100451900Y-105083400D03*
%TO.P,U1,27,A8*%
%TO.N,/A8*%
X100454900Y-106352400D03*
%TO.P,U1,28,A13*%
%TO.N,/A13*%
X100451900Y-107664400D03*
%TO.P,U1,29,A14*%
%TO.N,/A14*%
X100450900Y-108895400D03*
D21*
%TO.P,U1,30,A17*%
%TO.N,/A17*%
X102355900Y-110799400D03*
%TO.P,U1,31,WE#*%
%TO.N,/{slash}write*%
X103586900Y-110796400D03*
%TO.P,U1,32,VCC*%
%TO.N,/VCC*%
X104857900Y-110797400D03*
%TD*%
D11*
%TO.P,R11,1*%
%TO.N,/D*%
X179589900Y-106367400D03*
%TO.P,R11,2*%
%TO.N,/Q7*%
X181375900Y-106368400D03*
%TD*%
D15*
%TO.P,R3,1*%
%TO.N,/PPort_6*%
X178845400Y-110208300D03*
%TO.P,R3,2*%
%TO.N,/GND*%
X182072400Y-110215300D03*
%TD*%
D25*
%TO.P,U7,1,I/O*%
%TO.N,unconnected-(U7-Pad1)*%
X122579400Y-138916400D03*
%TO.P,U7,2,I/O*%
%TO.N,/AD15*%
X123579400Y-138916400D03*
%TO.P,U7,3,I/O*%
%TO.N,/AD14*%
X124579400Y-138916400D03*
%TO.P,U7,4,I/O*%
%TO.N,/AD13*%
X125579400Y-138916400D03*
%TO.P,U7,5,I/O*%
%TO.N,/AD12*%
X126579400Y-138916400D03*
%TO.P,U7,6,I/O*%
%TO.N,/{slash}write*%
X127579400Y-138916400D03*
%TO.P,U7,7,I/O*%
%TO.N,/{slash}read_bottom*%
X128579400Y-138916400D03*
%TO.P,U7,8,I/O*%
%TO.N,/AD11*%
X129579400Y-138916400D03*
%TO.P,U7,9,I/O*%
%TO.N,/AD10*%
X130579400Y-138916400D03*
%TO.P,U7,10,I/O*%
%TO.N,/AD9*%
X131579400Y-138916400D03*
%TO.P,U7,11,I/O*%
%TO.N,/AD8*%
X132579400Y-138916400D03*
%TO.P,U7,12,I/O*%
%TO.N,/{slash}COLD_RESET*%
X133579400Y-138916400D03*
%TO.P,U7,13,I/O*%
%TO.N,/AD7*%
X134579400Y-138916400D03*
%TO.P,U7,14,I/O*%
%TO.N,/AD6*%
X135579400Y-138916400D03*
%TO.P,U7,15,I/O*%
%TO.N,/AD5*%
X136579400Y-138916400D03*
%TO.P,U7,16,I/O*%
%TO.N,/AD4*%
X137579400Y-138916400D03*
%TO.P,U7,17,I/O*%
%TO.N,/ALE_L*%
X138579400Y-138916400D03*
%TO.P,U7,18,I/O*%
%TO.N,/ALE_H*%
X139579400Y-138916400D03*
%TO.P,U7,19,I/O*%
%TO.N,/AD3*%
X140579400Y-138916400D03*
D26*
%TO.P,U7,20,I/O*%
%TO.N,/AD2*%
X143579400Y-135916400D03*
%TO.P,U7,21,I/O*%
%TO.N,/AD1*%
X143579400Y-134916400D03*
%TO.P,U7,22,I/O*%
%TO.N,/AD0*%
X143579400Y-133916400D03*
%TO.P,U7,23,I/O*%
%TO.N,/Button*%
X143579400Y-132916400D03*
%TO.P,U7,24,I/O*%
%TO.N,/PPort_2*%
X143579400Y-131916400D03*
%TO.P,U7,25,VCC*%
%TO.N,/VCC*%
X143579400Y-130916400D03*
%TO.P,U7,26,GND*%
%TO.N,/GND*%
X143579400Y-129916400D03*
%TO.P,U7,27,I/O*%
%TO.N,/PPort_3*%
X143579400Y-128916400D03*
%TO.P,U7,28,I/O*%
%TO.N,/PPort_4*%
X143579400Y-127916400D03*
%TO.P,U7,29,I/O*%
%TO.N,/PPort_5*%
X143579400Y-126916400D03*
%TO.P,U7,30,I/O*%
%TO.N,/PPort_6*%
X143579400Y-125916400D03*
%TO.P,U7,31,I/O*%
%TO.N,/PIC.GP4*%
X143579400Y-124916400D03*
%TO.P,U7,32,I/O*%
%TO.N,/PIC.GP5*%
X143579400Y-123916400D03*
D25*
%TO.P,U7,33,I/O*%
%TO.N,/Pin_33*%
X140579400Y-120916400D03*
%TO.P,U7,34,I/O*%
%TO.N,/Pin_34*%
X139579400Y-120916400D03*
%TO.P,U7,35,I/O*%
%TO.N,/74HC164_DSA_DSB*%
X138579400Y-120916400D03*
%TO.P,U7,36,I/O*%
%TO.N,/GND*%
X137579400Y-120916400D03*
%TO.P,U7,37,I/O*%
%TO.N,/74HC164_CP*%
X136579400Y-120916400D03*
%TO.P,U7,38,I/O*%
%TO.N,/74HC04*%
X135579400Y-120916400D03*
%TO.P,U7,39,I/O*%
%TO.N,/Pin_39*%
X134579400Y-120916400D03*
%TO.P,U7,40,I/O*%
%TO.N,/{slash}read_top*%
X133579400Y-120916400D03*
%TO.P,U7,41,I/O*%
%TO.N,/Output_Enable*%
X132579400Y-120916400D03*
%TO.P,U7,42,I/O*%
%TO.N,/Pin_42*%
X131579400Y-120916400D03*
%TO.P,U7,43,I/O*%
%TO.N,/Chip_Enable*%
X130579400Y-120916400D03*
%TO.P,U7,44,I/O*%
%TO.N,/A0*%
X129579400Y-120916400D03*
%TO.P,U7,45,I/O*%
%TO.N,/A1*%
X128579400Y-120916400D03*
%TO.P,U7,46,I/O*%
%TO.N,/A2*%
X127579400Y-120916400D03*
%TO.P,U7,47,I/O*%
%TO.N,/A3*%
X126579400Y-120916400D03*
%TO.P,U7,48,I/O*%
%TO.N,/A4*%
X125579400Y-120916400D03*
%TO.P,U7,49,I/O*%
%TO.N,/A5*%
X124579400Y-120916400D03*
%TO.P,U7,50,I/O*%
%TO.N,/A6*%
X123579400Y-120916400D03*
%TO.P,U7,51,I/O*%
%TO.N,/A7*%
X122579400Y-120916400D03*
D26*
%TO.P,U7,52,I/O*%
%TO.N,/A8*%
X119579400Y-123916400D03*
%TO.P,U7,53,I/O*%
%TO.N,/A9*%
X119579400Y-124916400D03*
%TO.P,U7,54,I/O*%
%TO.N,/A10*%
X119579400Y-125916400D03*
%TO.P,U7,55,I/O*%
%TO.N,/A11*%
X119579400Y-126916400D03*
%TO.P,U7,56,I/O*%
%TO.N,/A12*%
X119579400Y-127916400D03*
%TO.P,U7,57,VCC*%
%TO.N,/VCC*%
X119579400Y-128916400D03*
%TO.P,U7,58,GND*%
%TO.N,/GND*%
X119579400Y-129916400D03*
%TO.P,U7,59,I/O*%
%TO.N,/A13*%
X119579400Y-130916400D03*
%TO.P,U7,60,I/O*%
%TO.N,/A14*%
X119579400Y-131916400D03*
%TO.P,U7,61,I/O*%
%TO.N,/A15*%
X119579400Y-132916400D03*
%TO.P,U7,62,I/O*%
%TO.N,/A16*%
X119579400Y-133916400D03*
%TO.P,U7,63,I/O*%
%TO.N,/A17*%
X119579400Y-134916400D03*
%TO.P,U7,64,I/O*%
%TO.N,/A18*%
X119579400Y-135916400D03*
%TD*%
D11*
%TO.P,R6,1*%
%TO.N,/B*%
X179589900Y-96835400D03*
%TO.P,R6,2*%
%TO.N,/Q2*%
X181375900Y-96836400D03*
%TD*%
%TO.P,R9,1*%
%TO.N,/G*%
X179589900Y-102553400D03*
%TO.P,R9,2*%
%TO.N,/Q5*%
X181375900Y-102554400D03*
%TD*%
D20*
%TO.P,C2,1*%
%TO.N,/VCC*%
X104241800Y-138188500D03*
%TO.P,C2,2*%
%TO.N,/GND*%
X107459800Y-138188500D03*
%TD*%
D23*
%TO.P,U4,1,DSA*%
%TO.N,/74HC164_DSA_DSB*%
X191406900Y-103900400D03*
%TO.P,U4,2,DSB*%
X191405900Y-102633400D03*
%TO.P,U4,3,Q0*%
%TO.N,/Q0*%
X191411900Y-101319400D03*
%TO.P,U4,4,Q1*%
%TO.N,/Q1*%
X191404900Y-100093400D03*
%TO.P,U4,5,Q2*%
%TO.N,/Q2*%
X191404900Y-98782400D03*
%TO.P,U4,6,Q3*%
%TO.N,/Q3*%
X191405900Y-97510400D03*
%TO.P,U4,7,GND*%
%TO.N,/GND*%
X191403900Y-96200400D03*
%TO.P,U4,8,CP*%
%TO.N,/74HC164_CP*%
X185690900Y-96198400D03*
%TO.P,U4,9,~{MR}*%
%TO.N,/VCC*%
X185690900Y-97509400D03*
%TO.P,U4,10,Q4*%
%TO.N,/Q4*%
X185692900Y-98779400D03*
%TO.P,U4,11,Q5*%
%TO.N,/Q5*%
X185688900Y-100091400D03*
%TO.P,U4,12,Q6*%
%TO.N,/Q6*%
X185689900Y-101317400D03*
%TO.P,U4,13,Q7*%
%TO.N,/Q7*%
X185690900Y-102625400D03*
%TO.P,U4,14,VCC*%
%TO.N,/VCC*%
X185690900Y-103897400D03*
%TD*%
D13*
%TO.P,J8,1,Pin_1*%
%TO.N,/GND*%
X106577700Y-71774000D03*
D14*
%TO.P,J8,2,Pin_2*%
X109117700Y-71774000D03*
%TO.P,J8,3,Pin_3*%
X111657700Y-71774000D03*
%TO.P,J8,4,Pin_4*%
X114197700Y-71774000D03*
%TO.P,J8,5,Pin_5*%
X116737700Y-71774000D03*
%TO.P,J8,6,Pin_6*%
X119277700Y-71774000D03*
%TO.P,J8,7,Pin_7*%
X121817700Y-71774000D03*
%TO.P,J8,8,Pin_8*%
X124357700Y-71774000D03*
%TO.P,J8,9,Pin_9*%
X126897700Y-71774000D03*
%TO.P,J8,10,Pin_10*%
X129437700Y-71774000D03*
%TO.P,J8,11,Pin_11*%
X131977700Y-71774000D03*
%TO.P,J8,12,Pin_12*%
X134517700Y-71774000D03*
%TO.P,J8,13,Pin_13*%
X137057700Y-71774000D03*
%TO.P,J8,14,Pin_14*%
X139597700Y-71774000D03*
%TO.P,J8,15,Pin_15*%
X142137700Y-71774000D03*
%TO.P,J8,16,Pin_16*%
X144677700Y-71774000D03*
%TO.P,J8,17,Pin_17*%
X147217700Y-71774000D03*
%TO.P,J8,18,Pin_18*%
X149757700Y-71774000D03*
%TO.P,J8,19,Pin_19*%
X152297700Y-71774000D03*
%TO.P,J8,20,Pin_20*%
X154837700Y-71774000D03*
%TO.P,J8,21,Pin_21*%
X157377700Y-71774000D03*
%TO.P,J8,22,Pin_22*%
X159917700Y-71774000D03*
%TO.P,J8,23,Pin_23*%
X162457700Y-71774000D03*
%TO.P,J8,24,Pin_24*%
X164997700Y-71774000D03*
%TO.P,J8,25,Pin_25*%
X167537700Y-71774000D03*
%TO.P,J8,26,Pin_26*%
X170077700Y-71774000D03*
%TO.P,J8,27,Pin_27*%
X172617700Y-71774000D03*
%TO.P,J8,28,Pin_28*%
X175157700Y-71774000D03*
%TO.P,J8,29,Pin_29*%
X177697700Y-71774000D03*
%TO.P,J8,30,Pin_30*%
X180237700Y-71774000D03*
%TO.P,J8,31,Pin_31*%
X182777700Y-71774000D03*
%TO.P,J8,32,Pin_32*%
X185317700Y-71774000D03*
%TD*%
D18*
%TO.P,J1,1,1*%
%TO.N,unconnected-(J1-Pad1)*%
X163023400Y-52460100D03*
D19*
%TO.P,J1,2,2*%
%TO.N,/PPort_2*%
X160253400Y-52460100D03*
%TO.P,J1,3,3*%
%TO.N,/PPort_3*%
X157483400Y-52460100D03*
%TO.P,J1,4,4*%
%TO.N,/PPort_4*%
X154713400Y-52460100D03*
%TO.P,J1,5,5*%
%TO.N,/PPort_5*%
X151943400Y-52460100D03*
%TO.P,J1,6,6*%
%TO.N,/PPort_6*%
X149173400Y-52460100D03*
%TO.P,J1,7,7*%
%TO.N,unconnected-(J1-Pad7)*%
X146403400Y-52460100D03*
%TO.P,J1,8,8*%
%TO.N,unconnected-(J1-Pad8)*%
X143633400Y-52460100D03*
%TO.P,J1,9,9*%
%TO.N,unconnected-(J1-Pad9)*%
X140863400Y-52460100D03*
%TO.P,J1,10,10*%
%TO.N,/PPort_10*%
X138093400Y-52460100D03*
%TO.P,J1,11,11*%
%TO.N,/PPort_11*%
X135323400Y-52460100D03*
%TO.P,J1,12,12*%
%TO.N,/PPort_12*%
X132553400Y-52460100D03*
%TO.P,J1,13,13*%
%TO.N,/PPort_13*%
X129783400Y-52460100D03*
%TO.P,J1,14,P14*%
%TO.N,unconnected-(J1-Pad14)*%
X161638400Y-55300100D03*
%TO.P,J1,15,P15*%
%TO.N,/PPort_15*%
X158868400Y-55300100D03*
%TO.P,J1,16,P16*%
%TO.N,unconnected-(J1-Pad16)*%
X156098400Y-55300100D03*
%TO.P,J1,17,P17*%
%TO.N,unconnected-(J1-Pad17)*%
X153328400Y-55300100D03*
%TO.P,J1,18,P18*%
%TO.N,/GND*%
X150558400Y-55300100D03*
%TO.P,J1,19,P19*%
X147788400Y-55300100D03*
%TO.P,J1,20,P20*%
X145018400Y-55300100D03*
%TO.P,J1,21,P21*%
X142248400Y-55300100D03*
%TO.P,J1,22,P22*%
X139478400Y-55300100D03*
%TO.P,J1,23,P23*%
X136708400Y-55300100D03*
%TO.P,J1,24,P24*%
X133938400Y-55300100D03*
%TO.P,J1,25,P25*%
X131168400Y-55300100D03*
%TD*%
D27*
%TO.N,/A18*%
X107449100Y-123335400D03*
X107173000Y-109020700D03*
%TO.N,/A16*%
X108124200Y-122323400D03*
X107869100Y-107875700D03*
%TO.N,/A15*%
X115101400Y-122420200D03*
X106798700Y-112803800D03*
%TO.N,/A12*%
X178888100Y-78021100D03*
X109789000Y-108383600D03*
X109473800Y-123025000D03*
%TO.N,/A7*%
X123058400Y-130477400D03*
X114278900Y-130701600D03*
%TO.N,/A6*%
X113647500Y-131494900D03*
X123901500Y-131261100D03*
X163336500Y-66367700D03*
%TO.N,/A5*%
X106068800Y-63901300D03*
X124579400Y-132051300D03*
X101825600Y-68144500D03*
X127975100Y-62053900D03*
X114922900Y-57032000D03*
X109900000Y-130788800D03*
X159915700Y-62392300D03*
X100000100Y-95849800D03*
X126808400Y-56954200D03*
%TO.N,/A4*%
X114141900Y-128112200D03*
X125484100Y-127450800D03*
X156447100Y-111748300D03*
%TO.N,/A3*%
X133793000Y-76590200D03*
X114419600Y-124029900D03*
X125974300Y-123299000D03*
X142519300Y-65431700D03*
%TO.N,/A2*%
X150348000Y-66188100D03*
X113636900Y-126402500D03*
X138981200Y-110828200D03*
X127359100Y-126147700D03*
%TO.N,/A1*%
X110141600Y-122099400D03*
X118187300Y-108623500D03*
X143407700Y-79440100D03*
%TO.N,/A0*%
X119280900Y-109699200D03*
X119412500Y-73924400D03*
X113670900Y-121911300D03*
%TO.N,/AD0*%
X180889700Y-133410800D03*
X118914900Y-104671400D03*
X145309900Y-133720000D03*
X139792700Y-122778100D03*
%TO.N,/AD1*%
X110139900Y-102573000D03*
X138763800Y-122677500D03*
X145311100Y-135568700D03*
X181713800Y-136362700D03*
%TO.N,/AD2*%
X141816300Y-135774600D03*
X109339800Y-100827000D03*
X136079400Y-123100700D03*
X184474100Y-134663600D03*
%TO.N,/GND*%
X145432700Y-129833900D03*
X176555400Y-145411000D03*
X117533900Y-145418800D03*
X128591400Y-32540000D03*
X171464400Y-32593100D03*
X140111500Y-132645900D03*
X170153700Y-145486300D03*
X119883900Y-36570900D03*
X126631800Y-142496800D03*
X128637400Y-145414000D03*
X176509400Y-32517300D03*
X158115900Y-42257000D03*
X119497500Y-32641700D03*
%TO.N,/AD3*%
X183549000Y-136141600D03*
X134057400Y-125173300D03*
X139491900Y-136602900D03*
X107889500Y-93532000D03*
%TO.N,/AD4*%
X107439400Y-101411100D03*
X131270000Y-123121600D03*
X178629700Y-138147900D03*
X137579400Y-141203300D03*
%TO.N,/AD5*%
X178128600Y-140095800D03*
X136712300Y-140655900D03*
X101267300Y-93799400D03*
X131912800Y-132836200D03*
%TO.N,/AD6*%
X151814000Y-135785300D03*
X135579400Y-136190100D03*
X132998800Y-133337000D03*
X174919900Y-135751200D03*
X100301700Y-97519800D03*
X151831000Y-144658800D03*
%TO.N,/AD7*%
X98991800Y-97859600D03*
X151332400Y-143530900D03*
X99170800Y-75705300D03*
X174930200Y-139498200D03*
X132838300Y-134356500D03*
%TO.N,/Chip_Enable*%
X107311000Y-100030200D03*
X110974800Y-117756300D03*
%TO.N,/A10*%
X98307200Y-112494700D03*
X98562300Y-101859000D03*
%TO.N,/Output_Enable*%
X107439400Y-98622700D03*
X106223800Y-122509900D03*
X105351200Y-107639100D03*
%TO.N,/A11*%
X103141700Y-107637100D03*
X117694400Y-127019300D03*
X104113100Y-125555500D03*
X164854300Y-109571300D03*
%TO.N,/A9*%
X98521500Y-108538200D03*
X105113300Y-125803000D03*
X117829700Y-125552200D03*
X98692900Y-103426400D03*
%TO.N,/A8*%
X117426300Y-123837300D03*
X105302800Y-124802800D03*
X102224200Y-106082900D03*
%TO.N,/A13*%
X107005900Y-128599500D03*
X178661600Y-90191000D03*
X117039600Y-130286600D03*
%TO.N,/A14*%
X105480500Y-128283300D03*
X102262000Y-108608700D03*
X116558200Y-131461900D03*
%TO.N,/A17*%
X98736100Y-116693500D03*
X104288700Y-104126000D03*
X117249000Y-137949500D03*
X102782100Y-137733400D03*
%TO.N,/{slash}write*%
X105424400Y-132496800D03*
X108970700Y-113956200D03*
X130652900Y-85504200D03*
X123325900Y-90128700D03*
X101443400Y-115151500D03*
X127579400Y-135424000D03*
%TO.N,/VCC*%
X141811000Y-130098000D03*
X139927800Y-141541900D03*
X114929600Y-55935200D03*
X190439600Y-78090800D03*
X125836700Y-133020200D03*
X188243000Y-91109200D03*
X136091100Y-145355600D03*
X107889500Y-91423800D03*
X156636300Y-32550200D03*
X159741400Y-35098900D03*
X139319000Y-45094300D03*
X156373400Y-145414100D03*
X109339800Y-101827200D03*
X190960000Y-60305100D03*
X157751400Y-109032900D03*
X164873700Y-52300500D03*
X136152400Y-32624000D03*
%TO.N,/AD8*%
X131309900Y-125194200D03*
X157324100Y-56505800D03*
X114727100Y-121080300D03*
X130551300Y-115809600D03*
%TO.N,/AD9*%
X130674600Y-124390700D03*
X151613200Y-34521900D03*
X112735200Y-119766700D03*
X133081300Y-49671600D03*
X132358600Y-118484100D03*
%TO.N,/AD10*%
X129622900Y-125682500D03*
X133808000Y-110439000D03*
X108833900Y-125529700D03*
%TO.N,/AD11*%
X129579400Y-137152400D03*
X100586500Y-118173700D03*
%TO.N,/AD12*%
X99347000Y-119186200D03*
X121742600Y-140389700D03*
X132509400Y-65259100D03*
X95557600Y-139094300D03*
X114930300Y-50127200D03*
X131352800Y-33704700D03*
%TO.N,/AD13*%
X101297500Y-119562600D03*
X125358200Y-136403300D03*
X127015500Y-64531400D03*
%TO.N,/AD14*%
X99581100Y-121201900D03*
X97525000Y-135324200D03*
X124753700Y-64478500D03*
X124099100Y-141231100D03*
%TO.N,/AD15*%
X106059100Y-60377600D03*
X124885800Y-63478300D03*
X99184800Y-120186400D03*
X123579400Y-137188700D03*
%TO.N,/{slash}read_bottom*%
X130269800Y-123390500D03*
X127292200Y-116851200D03*
%TO.N,/{slash}COLD_RESET*%
X152916600Y-129141000D03*
X191657000Y-45996600D03*
X149750800Y-87650900D03*
X190572800Y-89416100D03*
X192522300Y-85369600D03*
X190722000Y-87615800D03*
X163028600Y-132239600D03*
X165211000Y-36883200D03*
X151580500Y-103558400D03*
X133311000Y-136653400D03*
X186208600Y-93143900D03*
X176075300Y-93293700D03*
X187328100Y-91608800D03*
X173275400Y-93293700D03*
%TO.N,/ALE_L*%
X128597600Y-38095200D03*
X128634600Y-117879700D03*
X129600300Y-122645500D03*
X138083400Y-142113800D03*
%TO.N,/ALE_H*%
X139883700Y-142542100D03*
X127027500Y-111871200D03*
X133806400Y-124173100D03*
X125575700Y-45646700D03*
%TO.N,/Button*%
X145676400Y-131904500D03*
X150809800Y-88850600D03*
X154524400Y-119462100D03*
%TO.N,/PPort_2*%
X186785200Y-80841000D03*
X192676500Y-59266600D03*
%TO.N,/PPort_3*%
X150973200Y-81310000D03*
X151108700Y-75663000D03*
X184565900Y-73143400D03*
X187007000Y-54433100D03*
%TO.N,/PPort_4*%
X155169800Y-81930400D03*
%TO.N,/PPort_6*%
X153415200Y-115437900D03*
X177383600Y-110490000D03*
%TO.N,/PIC.GP4*%
X144586000Y-95068700D03*
%TO.N,/PIC.GP5*%
X143144600Y-96075800D03*
%TO.N,/Pin_33*%
X140503900Y-101551800D03*
%TO.N,/Pin_34*%
X139721600Y-102491100D03*
%TO.N,/74HC164_DSA_DSB*%
X185855200Y-88825900D03*
X138240800Y-98288100D03*
%TO.N,/74HC164_CP*%
X137280200Y-99222300D03*
X184662600Y-91477700D03*
%TO.N,/74HC04*%
X156397000Y-126479300D03*
X179828500Y-130406400D03*
X135828700Y-96849300D03*
%TO.N,/Pin_39*%
X135094000Y-103331300D03*
%TO.N,/{slash}read_top*%
X144758600Y-47249900D03*
X140119900Y-47249900D03*
%TO.N,/Pin_42*%
X131680500Y-105107000D03*
%TO.N,/F*%
X173056100Y-99159400D03*
%TO.N,/D*%
X171316400Y-110755000D03*
X177594400Y-105805600D03*
%TO.N,/DP*%
X178304500Y-94202100D03*
%TO.N,/PPort_10*%
X188619900Y-119464500D03*
%TO.N,/PPort_11*%
X187699500Y-131241500D03*
%TO.N,/PPort_12*%
X191696800Y-106734000D03*
%TO.N,/PPort_13*%
X193922600Y-104106800D03*
X131210800Y-57232900D03*
%TO.N,/PPort_15*%
X183061200Y-117603800D03*
%TO.N,/12V_Rear*%
X148046300Y-32532800D03*
X189826600Y-79854700D03*
X150362900Y-140126500D03*
X150362900Y-133843600D03*
X189826600Y-45985900D03*
X167597200Y-133834800D03*
X167369200Y-110583600D03*
X153524300Y-45985900D03*
%TO.N,/UNUSED_Rear*%
X156671700Y-43051600D03*
X188201300Y-73733800D03*
X158946200Y-97539100D03*
X188201300Y-43334600D03*
X158709800Y-139568100D03*
X178865800Y-81344000D03*
X150379800Y-32560200D03*
X177822300Y-89387200D03*
%TO.N,/CIC_DATA2*%
X160734400Y-144150700D03*
X160973900Y-99535800D03*
X168000100Y-99535800D03*
X191734000Y-50561800D03*
%TO.N,/Unknown_1*%
X161899200Y-141914700D03*
X160746400Y-36736800D03*
%TO.N,/{slash}OS EVENT*%
X194126700Y-49147800D03*
X172948500Y-139948300D03*
X192522300Y-87626200D03*
X172927200Y-109533000D03*
%TO.N,/Unknown_2*%
X166589000Y-33453900D03*
X183996400Y-78091200D03*
X167684200Y-63916400D03*
X183766200Y-64263700D03*
X172202100Y-141388000D03*
X172202100Y-106857000D03*
%TO.N,/RAUDIO*%
X173329400Y-32659400D03*
X172618800Y-145265600D03*
%TO.N,/12V_Front*%
X149068300Y-134878100D03*
X146345900Y-142325000D03*
X153007400Y-47395700D03*
X196100600Y-47395700D03*
X195803000Y-121941900D03*
X149068300Y-139692900D03*
%TO.N,/UNUSED_Front*%
X178116500Y-86458900D03*
X183831100Y-79160300D03*
X148816400Y-144192300D03*
X159974500Y-97545200D03*
X187473600Y-44422600D03*
X155880600Y-44422600D03*
X157709600Y-139755900D03*
X176015900Y-91646400D03*
%TO.N,/Q2*%
X182971000Y-99074100D03*
X193007200Y-98554000D03*
%TD*%
D28*
%TO.N,/A18*%
X107731000Y-131304200D02*
X106167900Y-132867300D01*
X107449100Y-123335400D02*
X107449100Y-125806900D01*
X117570400Y-138703300D02*
X110099300Y-138703300D01*
X107731000Y-126088800D02*
X107731000Y-131304200D01*
X119579400Y-135916400D02*
X119579400Y-136694300D01*
X119579400Y-136694300D02*
X117570400Y-138703300D01*
X106854400Y-109339300D02*
X107173000Y-109020700D01*
X106167900Y-110799400D02*
X106167900Y-109339300D01*
X106167900Y-134327400D02*
X106167900Y-132867300D01*
X106167900Y-109339300D02*
X106854400Y-109339300D01*
X107449100Y-125806900D02*
X107731000Y-126088800D01*
X106167900Y-134327400D02*
X106167900Y-135787500D01*
X110099300Y-138703300D02*
X108422800Y-137026800D01*
X107407200Y-137026800D02*
X106167900Y-135787500D01*
X108422800Y-137026800D02*
X107407200Y-137026800D01*
%TO.N,/A16*%
X108065300Y-125236600D02*
X108181100Y-125120800D01*
X107898100Y-110337200D02*
X107898100Y-107904700D01*
X108181100Y-122380300D02*
X108124200Y-122323400D01*
X107436900Y-135786500D02*
X107887000Y-136236600D01*
X108181100Y-125902300D02*
X108065300Y-125786500D01*
X107898100Y-107904700D02*
X107869100Y-107875700D01*
X107436900Y-110798400D02*
X107898100Y-110337200D01*
X108181100Y-132122100D02*
X108181100Y-125902300D01*
X107436900Y-132866300D02*
X108181100Y-132122100D01*
X107436900Y-134326400D02*
X107436900Y-132866300D01*
X108181100Y-125120800D02*
X108181100Y-122380300D01*
X107436900Y-134326400D02*
X107436900Y-135786500D01*
X107887000Y-136236600D02*
X111973600Y-136236600D01*
X114293800Y-133916400D02*
X119579400Y-133916400D01*
X111973600Y-136236600D02*
X114293800Y-133916400D01*
X108065300Y-125786500D02*
X108065300Y-125236600D01*
%TO.N,/A15*%
X111194300Y-135785500D02*
X115525300Y-131454500D01*
X115525300Y-131454500D02*
X115525300Y-122844100D01*
X119579400Y-132916400D02*
X118129300Y-132916400D01*
X108746900Y-110797400D02*
X108746900Y-112257500D01*
X108746900Y-134325400D02*
X108746900Y-135785500D01*
X118129300Y-132916400D02*
X116987200Y-132916400D01*
X116987200Y-132916400D02*
X115525300Y-131454500D01*
X108746900Y-135785500D02*
X111194300Y-135785500D01*
X108200600Y-112803800D02*
X106798700Y-112803800D01*
X115525300Y-122844100D02*
X115101400Y-122420200D01*
X108746900Y-112257500D02*
X108200600Y-112803800D01*
%TO.N,/A12*%
X109154700Y-126234400D02*
X109559000Y-125830100D01*
X177695700Y-68175000D02*
X177695700Y-69350100D01*
X109154700Y-132003100D02*
X109154700Y-126234400D01*
X110016900Y-110797400D02*
X110016900Y-112257500D01*
X109559000Y-123110200D02*
X109473800Y-123025000D01*
X177695700Y-69350100D02*
X178888100Y-70542500D01*
X110016900Y-134325400D02*
X110016900Y-132865300D01*
X121029500Y-127916400D02*
X121490600Y-127455300D01*
X110016900Y-109337300D02*
X109789000Y-109109400D01*
X110523200Y-112257500D02*
X110016900Y-112257500D01*
X109559000Y-125830100D02*
X109559000Y-123110200D01*
X121490600Y-123224900D02*
X110523200Y-112257500D01*
X110016900Y-110797400D02*
X110016900Y-109337300D01*
X121490600Y-127455300D02*
X121490600Y-123224900D01*
X110016900Y-132865300D02*
X109154700Y-132003100D01*
X109789000Y-109109400D02*
X109789000Y-108383600D01*
X119579400Y-127916400D02*
X121029500Y-127916400D01*
X178888100Y-70542500D02*
X178888100Y-78021100D01*
%TO.N,/A7*%
X122579400Y-120191300D02*
X122579400Y-120916400D01*
X114372700Y-130795400D02*
X114278900Y-130701600D01*
X123058400Y-123978800D02*
X123058400Y-130477400D01*
X113340000Y-110226900D02*
X113340000Y-108892400D01*
X111879900Y-132420400D02*
X113800400Y-132420400D01*
X122579400Y-120916400D02*
X122579400Y-123499800D01*
X122579400Y-119466300D02*
X113340000Y-110226900D01*
X122579400Y-123499800D02*
X123058400Y-123978800D01*
X114372700Y-131848100D02*
X114372700Y-130795400D01*
X111879900Y-108892400D02*
X113340000Y-108892400D01*
X113800400Y-132420400D02*
X114372700Y-131848100D01*
X122579400Y-120191300D02*
X122579400Y-119466300D01*
%TO.N,/A6*%
X123579400Y-122366500D02*
X123901500Y-122688600D01*
X162455700Y-68175000D02*
X162455700Y-66999900D01*
X113343000Y-108238000D02*
X123579400Y-118474400D01*
X123579400Y-118474400D02*
X123579400Y-120916400D01*
X123579400Y-120916400D02*
X123579400Y-122366500D01*
X111882900Y-107662400D02*
X113343000Y-107662400D01*
X162704300Y-66999900D02*
X162455700Y-66999900D01*
X113343000Y-107662400D02*
X113343000Y-108238000D01*
X113647500Y-131494900D02*
X113343000Y-131190400D01*
X111882900Y-131190400D02*
X113343000Y-131190400D01*
X123901500Y-122688600D02*
X123901500Y-131261100D01*
X163336500Y-66367700D02*
X162704300Y-66999900D01*
%TO.N,/A5*%
X124579400Y-132051300D02*
X124626600Y-132004100D01*
X115661800Y-109920200D02*
X124579400Y-118837800D01*
X159915700Y-68175000D02*
X159915700Y-62392300D01*
X124626600Y-132004100D02*
X124626600Y-122413700D01*
X101825600Y-68144500D02*
X100000100Y-69970000D01*
X113341000Y-106355400D02*
X115661800Y-108676200D01*
X124579400Y-118837800D02*
X124579400Y-120916400D01*
X115661800Y-108676200D02*
X115661800Y-109920200D01*
X109900000Y-130788800D02*
X109900000Y-130404200D01*
X124579400Y-120916400D02*
X124579400Y-122366500D01*
X109900000Y-130404200D02*
X110420800Y-129883400D01*
X111880900Y-106355400D02*
X113341000Y-106355400D01*
X127975100Y-62053900D02*
X127975100Y-58120900D01*
X112938100Y-57032000D02*
X114922900Y-57032000D01*
X111880900Y-129883400D02*
X110420800Y-129883400D01*
X127975100Y-58120900D02*
X126808400Y-56954200D01*
X106068800Y-63901300D02*
X112938100Y-57032000D01*
X100000100Y-69970000D02*
X100000100Y-95849800D01*
X124626600Y-122413700D02*
X124579400Y-122366500D01*
%TO.N,/A4*%
X125579400Y-120916400D02*
X125579400Y-122366500D01*
X125579400Y-120191300D02*
X125579400Y-120916400D01*
X125579400Y-122366500D02*
X125249200Y-122696700D01*
X156447100Y-92856000D02*
X158568200Y-90734900D01*
X125249200Y-122696700D02*
X125249200Y-127215900D01*
X125249200Y-127215900D02*
X125484100Y-127450800D01*
X111881900Y-128612400D02*
X113342000Y-128612400D01*
X158568200Y-90734900D02*
X158568200Y-70542600D01*
X125579400Y-120191300D02*
X125579400Y-119466300D01*
X116111900Y-107965800D02*
X116111900Y-109733600D01*
X156447100Y-111748300D02*
X156447100Y-92856000D01*
X157375700Y-68175000D02*
X157375700Y-69350100D01*
X116111900Y-109733600D02*
X125579400Y-119201100D01*
X113342000Y-128612400D02*
X113842200Y-128112200D01*
X113842200Y-128112200D02*
X114141900Y-128112200D01*
X158568200Y-70542600D02*
X157375700Y-69350100D01*
X111881900Y-105084400D02*
X113230500Y-105084400D01*
X113230500Y-105084400D02*
X116111900Y-107965800D01*
X125579400Y-119201100D02*
X125579400Y-119466300D01*
%TO.N,/A3*%
X135787700Y-71376700D02*
X138325700Y-68838700D01*
X113344000Y-103852400D02*
X116562000Y-107070400D01*
X111883900Y-127380400D02*
X113684500Y-127380400D01*
X111883900Y-103852400D02*
X113344000Y-103852400D01*
X126579400Y-120191300D02*
X126579400Y-119466300D01*
X126579400Y-122693900D02*
X125974300Y-123299000D01*
X126579400Y-120191300D02*
X126579400Y-120916400D01*
X138325700Y-67755700D02*
X140649700Y-65431700D01*
X133793000Y-76590200D02*
X135787700Y-74595500D01*
X116562000Y-109448900D02*
X126579400Y-119466300D01*
X113684500Y-127380400D02*
X114419600Y-126645300D01*
X135787700Y-74595500D02*
X135787700Y-71376700D01*
X140649700Y-65431700D02*
X142519300Y-65431700D01*
X138325700Y-68838700D02*
X138325700Y-67755700D01*
X126579400Y-120916400D02*
X126579400Y-122693900D01*
X114419600Y-126645300D02*
X114419600Y-124029900D01*
X116562000Y-107070400D02*
X116562000Y-109448900D01*
%TO.N,/A2*%
X117012100Y-106212500D02*
X117012100Y-109122000D01*
X113636900Y-126365300D02*
X113636900Y-126402500D01*
X113341000Y-126069400D02*
X113636900Y-126365300D01*
X144967600Y-66188100D02*
X150348000Y-66188100D01*
X117012100Y-109122000D02*
X127579400Y-119689300D01*
X127579400Y-120916400D02*
X127579400Y-125927400D01*
X111880900Y-126069400D02*
X113341000Y-126069400D01*
X113341000Y-102541400D02*
X117012100Y-106212500D01*
X138981200Y-87732900D02*
X140773300Y-85940800D01*
X143310900Y-68848200D02*
X143310900Y-67844800D01*
X140773300Y-71385800D02*
X143310900Y-68848200D01*
X111880900Y-102541400D02*
X113341000Y-102541400D01*
X127579400Y-119689300D02*
X127579400Y-120916400D01*
X127579400Y-125927400D02*
X127359100Y-126147700D01*
X143310900Y-67844800D02*
X144967600Y-66188100D01*
X138981200Y-110828200D02*
X138981200Y-87732900D01*
X140773300Y-85940800D02*
X140773300Y-71385800D01*
%TO.N,/A1*%
X118187300Y-106118700D02*
X118187300Y-108623500D01*
X113342000Y-101273400D02*
X118187300Y-106118700D01*
X143407700Y-71360300D02*
X144608000Y-70160000D01*
X146960900Y-70160000D02*
X148580600Y-68540300D01*
X111881900Y-124801400D02*
X110421800Y-124801400D01*
X148580600Y-68540300D02*
X148580600Y-68175000D01*
X110421800Y-122379600D02*
X110141600Y-122099400D01*
X128579400Y-119466300D02*
X128022400Y-119466300D01*
X143407700Y-79440100D02*
X143407700Y-71360300D01*
X144608000Y-70160000D02*
X146960900Y-70160000D01*
X110421800Y-124801400D02*
X110421800Y-122379600D01*
X111881900Y-101273400D02*
X113342000Y-101273400D01*
X118187300Y-109631200D02*
X118187300Y-108623500D01*
X128022400Y-119466300D02*
X118187300Y-109631200D01*
X149755700Y-68175000D02*
X148580600Y-68175000D01*
X128579400Y-120916400D02*
X128579400Y-119466300D01*
%TO.N,/A0*%
X128282000Y-118604800D02*
X128717900Y-118604800D01*
X128017600Y-114129600D02*
X125210700Y-111322700D01*
X127435600Y-117758300D02*
X128282000Y-118604800D01*
X113342000Y-100002400D02*
X113342000Y-100143100D01*
X127435600Y-117758300D02*
X128017600Y-117176300D01*
X122993500Y-88764900D02*
X122162700Y-88764900D01*
X122162700Y-88764900D02*
X118095500Y-84697700D01*
X125210700Y-111322700D02*
X125210700Y-90982100D01*
X127435500Y-117758400D02*
X127435600Y-117758300D01*
X128717900Y-118604800D02*
X129579400Y-119466300D01*
X111881900Y-100002400D02*
X113342000Y-100002400D01*
X125210700Y-90982100D02*
X122993500Y-88764900D01*
X129579400Y-120916400D02*
X129579400Y-119466300D01*
X118095500Y-75241400D02*
X119412500Y-73924400D01*
X118095500Y-84697700D02*
X118095500Y-75241400D01*
X119280900Y-109865300D02*
X127174000Y-117758400D01*
X127174000Y-117758400D02*
X127435500Y-117758400D01*
X119280900Y-106082000D02*
X119280900Y-109699200D01*
X128017600Y-117176300D02*
X128017600Y-114129600D01*
X113670900Y-123201500D02*
X113670900Y-121911300D01*
X111881900Y-123530400D02*
X113342000Y-123530400D01*
X113342000Y-123530400D02*
X113670900Y-123201500D01*
X119280900Y-109699200D02*
X119280900Y-109865300D01*
X113342000Y-100143100D02*
X119280900Y-106082000D01*
%TO.N,/AD0*%
X183792100Y-139466400D02*
X184753300Y-139466400D01*
X107750800Y-68175000D02*
X107750800Y-67807800D01*
X106575700Y-68175000D02*
X107750800Y-68175000D01*
X142129300Y-133916400D02*
X142129300Y-132635000D01*
X112854500Y-97761800D02*
X113342000Y-98249300D01*
X145309900Y-133720000D02*
X145113500Y-133916400D01*
X143579400Y-133916400D02*
X142129300Y-133916400D01*
X112854500Y-71037100D02*
X112854500Y-97761800D01*
X118914900Y-104671400D02*
X113342000Y-99098500D01*
X110290900Y-68473500D02*
X112854500Y-71037100D01*
X108570100Y-66988500D02*
X109622700Y-66988500D01*
X107750800Y-67807800D02*
X108570100Y-66988500D01*
X110290900Y-67656700D02*
X110290900Y-68473500D01*
X145113500Y-133916400D02*
X143579400Y-133916400D01*
X142129300Y-132635000D02*
X139792700Y-130298400D01*
X113342000Y-99098500D02*
X113342000Y-98734400D01*
X113342000Y-98249300D02*
X113342000Y-98734400D01*
X111881900Y-98734400D02*
X113342000Y-98734400D01*
X139792700Y-130298400D02*
X139792700Y-122778100D01*
X180889700Y-133410800D02*
X180889700Y-136564000D01*
X111881900Y-98734400D02*
X113342000Y-98734400D01*
X186078400Y-139466400D02*
X184753300Y-139466400D01*
X109622700Y-66988500D02*
X110290900Y-67656700D01*
X180889700Y-136564000D02*
X183792100Y-139466400D01*
%TO.N,/AD1*%
X145029500Y-134916400D02*
X145029500Y-135287100D01*
X110056900Y-96828400D02*
X110056900Y-95368300D01*
X140836700Y-133623800D02*
X142129300Y-134916400D01*
X143579400Y-134916400D02*
X145029500Y-134916400D01*
X110056900Y-95368300D02*
X111150800Y-94274400D01*
X110056900Y-97193400D02*
X110056900Y-98288500D01*
X145029500Y-135287100D02*
X145311100Y-135568700D01*
X110139900Y-98371500D02*
X110139900Y-102573000D01*
X181713800Y-136362700D02*
X183587500Y-138236400D01*
X111150800Y-94274400D02*
X111150800Y-87116000D01*
X138763800Y-122677500D02*
X138763800Y-129906200D01*
X183587500Y-138236400D02*
X186078400Y-138236400D01*
X110056900Y-98288500D02*
X110139900Y-98371500D01*
X110056900Y-97193400D02*
X110056900Y-96828400D01*
X111150800Y-87116000D02*
X110387700Y-86352900D01*
X110387700Y-86352900D02*
X110387700Y-70622100D01*
X138763800Y-129906200D02*
X140836700Y-131979100D01*
X143579400Y-134916400D02*
X142129300Y-134916400D01*
X140836700Y-131979100D02*
X140836700Y-133623800D01*
X110387700Y-70622100D02*
X109115700Y-69350100D01*
X109115700Y-68175000D02*
X109115700Y-69350100D01*
%TO.N,/AD2*%
X142129300Y-135916400D02*
X141987500Y-135774600D01*
X136079400Y-130037700D02*
X136079400Y-123100700D01*
X110700700Y-93975600D02*
X110700700Y-91043900D01*
X109307000Y-95369300D02*
X110700700Y-93975600D01*
X108786900Y-98289500D02*
X109339800Y-98842400D01*
X108786900Y-96829400D02*
X108786900Y-98289500D01*
X108786900Y-96829400D02*
X108786900Y-95369300D01*
X106941000Y-69974500D02*
X106170700Y-69974500D01*
X107752900Y-88096100D02*
X107752900Y-70786400D01*
X141987500Y-135774600D02*
X141816300Y-135774600D01*
X143579400Y-135916400D02*
X142129300Y-135916400D01*
X105400500Y-67181100D02*
X106043300Y-66538300D01*
X141816300Y-135774600D02*
X136079400Y-130037700D01*
X110019000Y-66538300D02*
X111655700Y-68175000D01*
X109339800Y-98842400D02*
X109339800Y-100827000D01*
X184474100Y-134663600D02*
X184752300Y-134385400D01*
X106170700Y-69974500D02*
X105400500Y-69204300D01*
X108786900Y-95369300D02*
X109307000Y-95369300D01*
X106043300Y-66538300D02*
X110019000Y-66538300D01*
X105400500Y-69204300D02*
X105400500Y-67181100D01*
X186077400Y-134385400D02*
X184752300Y-134385400D01*
X107752900Y-70786400D02*
X106941000Y-69974500D01*
X110700700Y-91043900D02*
X107752900Y-88096100D01*
D29*
%TO.N,/GND*%
X110014700Y-139503600D02*
X116029400Y-145518300D01*
X116150400Y-121230600D02*
X113640100Y-118720300D01*
X128637400Y-150514400D02*
X128637400Y-145514300D01*
X131168400Y-55300100D02*
X131168400Y-35117000D01*
X119261300Y-32405500D02*
X118501400Y-32405500D01*
X151753800Y-131169500D02*
X151753800Y-130052300D01*
X119497500Y-36184500D02*
X119497500Y-32641700D01*
X107502200Y-95192300D02*
X109481800Y-93212700D01*
X115983400Y-28780400D02*
X118501400Y-28780400D01*
X116029400Y-150518400D02*
X116029400Y-145518300D01*
X176555400Y-145698800D02*
X176555400Y-145411000D01*
X195285500Y-101471000D02*
X193022500Y-103734000D01*
X189903800Y-96200400D02*
X189903800Y-104610000D01*
X137579400Y-130113800D02*
X140111500Y-132645900D01*
X106577700Y-80375000D02*
X106577700Y-81725100D01*
X118547400Y-146556300D02*
X118547400Y-145518300D01*
X190043900Y-116045900D02*
X190043900Y-111031000D01*
X109481800Y-90910700D02*
X109481800Y-93031500D01*
X191622100Y-87242900D02*
X191622100Y-87998800D01*
X179960000Y-142006400D02*
X176555400Y-145411000D01*
X118501400Y-28780400D02*
X118501400Y-32405500D01*
X145287000Y-129833900D02*
X145204500Y-129916400D01*
X143579400Y-129916400D02*
X145204500Y-129916400D01*
X128591400Y-32540000D02*
X128591400Y-28780400D01*
X137579400Y-122541500D02*
X137579400Y-130113800D01*
X106408900Y-81725100D02*
X105220500Y-82913500D01*
X191622100Y-87998800D02*
X195285500Y-91662200D01*
X119579400Y-129916400D02*
X121204500Y-129916400D01*
X145432700Y-129833900D02*
X145287000Y-129833900D01*
X183555600Y-110343400D02*
X183427500Y-110215300D01*
X151535400Y-129833900D02*
X145432700Y-129833900D01*
X184578300Y-130536400D02*
X182398400Y-130536400D01*
X106577700Y-71774000D02*
X106577700Y-80375000D01*
X168980400Y-150486400D02*
X168980400Y-145486300D01*
X118547400Y-150532400D02*
X118547400Y-146556300D01*
X195285500Y-91662200D02*
X195285500Y-101471000D01*
X190083900Y-104790100D02*
X190083900Y-108400800D01*
X179977400Y-142006400D02*
X179960000Y-142006400D01*
X109481800Y-93212700D02*
X109481800Y-93031500D01*
X107476900Y-96827400D02*
X107476900Y-95192300D01*
X119883900Y-36570900D02*
X119497500Y-36184500D01*
X107476900Y-120355400D02*
X107476900Y-118720300D01*
X193022500Y-104358000D02*
X192590400Y-104790100D01*
X158115900Y-43612800D02*
X150558400Y-51170300D01*
X149757700Y-71774000D02*
X147217700Y-71774000D01*
X171464400Y-28780400D02*
X168934400Y-28780400D01*
X170153700Y-145486300D02*
X171326900Y-145486300D01*
X176509400Y-32517300D02*
X176509400Y-53475900D01*
X186078400Y-130536400D02*
X184578300Y-130536400D01*
X193022500Y-103734000D02*
X193022500Y-104358000D01*
X182398400Y-130536400D02*
X179977400Y-132957400D01*
X107459800Y-138188500D02*
X107459800Y-139503600D01*
X117954300Y-129916400D02*
X116150400Y-128112500D01*
X186081400Y-142006400D02*
X179977400Y-142006400D01*
X176509400Y-32367500D02*
X176509400Y-32517300D01*
X121204500Y-139654900D02*
X118547400Y-142312000D01*
X192590400Y-104790100D02*
X190083900Y-104790100D01*
X144677700Y-80375000D02*
X142137700Y-80375000D01*
X128637400Y-144502400D02*
X126631800Y-142496800D01*
X116150400Y-128112500D02*
X116150400Y-121230600D01*
X186672200Y-63638700D02*
X186672200Y-69069400D01*
X106577700Y-81725100D02*
X106408900Y-81725100D01*
X147217700Y-71774000D02*
X144677700Y-71774000D01*
X186104300Y-81725100D02*
X191622100Y-87242900D01*
X186672200Y-69069400D02*
X185317700Y-70423900D01*
X171464400Y-32405500D02*
X171464400Y-32593100D01*
X150558400Y-51170300D02*
X150558400Y-55300100D01*
X171326900Y-145486300D02*
X171510400Y-145669800D01*
X190043900Y-116045900D02*
X188748800Y-116045900D01*
X171510400Y-150470400D02*
X171510400Y-145669800D01*
X117533900Y-145518300D02*
X117533900Y-145418800D01*
X190083900Y-109695900D02*
X190083900Y-108400800D01*
X190083900Y-110343400D02*
X190083900Y-110991000D01*
X147217700Y-80375000D02*
X144677700Y-80375000D01*
X176509400Y-53475900D02*
X186672200Y-63638700D01*
X179977400Y-132957400D02*
X179977400Y-142006400D01*
X190083900Y-109695900D02*
X190083900Y-110343400D01*
X105220500Y-86649400D02*
X109481800Y-90910700D01*
X116029400Y-145518300D02*
X117533900Y-145518300D01*
X189903800Y-104610000D02*
X190083900Y-104790100D01*
X118547400Y-142312000D02*
X118547400Y-145518300D01*
X191403900Y-96200400D02*
X189903800Y-96200400D01*
X105220500Y-82913500D02*
X105220500Y-86649400D01*
X121204500Y-129916400D02*
X121204500Y-139654900D01*
X128637400Y-145514300D02*
X128637400Y-145414000D01*
X184578300Y-120354400D02*
X184578300Y-130536400D01*
X176555400Y-150528400D02*
X176555400Y-145698800D01*
X185317700Y-81725100D02*
X186104300Y-81725100D01*
X171464400Y-28780400D02*
X171464400Y-32405500D01*
X180237700Y-80375000D02*
X177697700Y-80375000D01*
X190083900Y-110343400D02*
X183555600Y-110343400D01*
X107459800Y-139503600D02*
X110014700Y-139503600D01*
X137579400Y-120916400D02*
X137579400Y-122541500D01*
X182072400Y-110215300D02*
X183427500Y-110215300D01*
X176509400Y-28780400D02*
X176509400Y-32367500D01*
X119579400Y-129916400D02*
X117954300Y-129916400D01*
X184578300Y-120354400D02*
X183767500Y-120354400D01*
X182267400Y-120354400D02*
X183767500Y-120354400D01*
X158115900Y-42257000D02*
X158115900Y-43612800D01*
X190043900Y-111031000D02*
X190083900Y-110991000D01*
X188748800Y-116045900D02*
X188748800Y-116183900D01*
X131168400Y-35117000D02*
X128591400Y-32540000D01*
X128637400Y-145414000D02*
X128637400Y-144502400D01*
X188748800Y-116183900D02*
X184578300Y-120354400D01*
X168980400Y-145486300D02*
X170153700Y-145486300D01*
X107476900Y-95192300D02*
X107502200Y-95192300D01*
X117533900Y-145518300D02*
X118547400Y-145518300D01*
X185317700Y-71774000D02*
X185317700Y-70423900D01*
X185317700Y-80375000D02*
X185317700Y-81725100D01*
X119497500Y-32641700D02*
X119261300Y-32405500D01*
X113640100Y-118720300D02*
X107476900Y-118720300D01*
X151753800Y-130052300D02*
X151535400Y-129833900D01*
D28*
%TO.N,/AD3*%
X114195700Y-68175000D02*
X113020600Y-68175000D01*
X183549000Y-134320700D02*
X183549000Y-136141600D01*
X107889500Y-92449300D02*
X108614600Y-91724200D01*
X106205900Y-96095300D02*
X106205900Y-95365300D01*
X113020600Y-67807800D02*
X113020600Y-68175000D01*
X104555900Y-67389100D02*
X105856800Y-66088200D01*
X139491900Y-136602900D02*
X139491900Y-134213500D01*
X104555900Y-87064800D02*
X104555900Y-67389100D01*
X111301000Y-66088200D02*
X113020600Y-67807800D01*
X107889500Y-93532000D02*
X107889500Y-92449300D01*
X108614600Y-91123500D02*
X104555900Y-87064800D01*
X108614600Y-91724200D02*
X108614600Y-91123500D01*
X139491900Y-134213500D02*
X134057400Y-128779000D01*
X106205900Y-95365300D02*
X107889500Y-93681700D01*
X139716000Y-136602900D02*
X139491900Y-136602900D01*
X140579400Y-138916400D02*
X140579400Y-137466300D01*
X105856800Y-66088200D02*
X111301000Y-66088200D01*
X107889500Y-93681700D02*
X107889500Y-93532000D01*
X140579400Y-137466300D02*
X139716000Y-136602900D01*
X186079400Y-133115400D02*
X184754300Y-133115400D01*
X184754300Y-133115400D02*
X183549000Y-134320700D01*
X134057400Y-128779000D02*
X134057400Y-125173300D01*
X106205900Y-96095300D02*
X106205900Y-96825400D01*
%TO.N,/AD4*%
X104894900Y-93028100D02*
X104894900Y-96828400D01*
X178629700Y-133864600D02*
X178629700Y-138147900D01*
X137579400Y-139641400D02*
X137579400Y-140366500D01*
X137579400Y-135483800D02*
X132127800Y-130032200D01*
X113386800Y-65636000D02*
X105622800Y-65636000D01*
X104070900Y-67187900D02*
X104070900Y-92204100D01*
X116735700Y-68175000D02*
X115560600Y-68175000D01*
X137579400Y-140366500D02*
X137579400Y-141203300D01*
X132127800Y-130032200D02*
X132127800Y-123979400D01*
X104894900Y-98866600D02*
X107439400Y-101411100D01*
X115560600Y-67809800D02*
X113386800Y-65636000D01*
X177879500Y-133114400D02*
X178629700Y-133864600D01*
X115560600Y-68175000D02*
X115560600Y-67809800D01*
X104070900Y-92204100D02*
X104894900Y-93028100D01*
X176554400Y-133114400D02*
X177879500Y-133114400D01*
X104894900Y-96828400D02*
X104894900Y-98866600D01*
X132127800Y-123979400D02*
X131270000Y-123121600D01*
X137579400Y-138916400D02*
X137579400Y-135483800D01*
X137579400Y-139641400D02*
X137579400Y-138916400D01*
X105622800Y-65636000D02*
X104070900Y-67187900D01*
%TO.N,/AD5*%
X177904500Y-134413400D02*
X177877500Y-134386400D01*
X105436300Y-65185900D02*
X115476700Y-65185900D01*
X136579400Y-138916400D02*
X136579400Y-137466300D01*
X103381100Y-67241100D02*
X105436300Y-65185900D01*
X178128600Y-140095800D02*
X177904500Y-139871700D01*
X136579400Y-139641400D02*
X136579400Y-140366500D01*
X177904500Y-139871700D02*
X177904500Y-134413400D01*
X103381100Y-93799400D02*
X103381100Y-67241100D01*
X103628900Y-96825400D02*
X103628900Y-95365300D01*
X119275700Y-68175000D02*
X118100600Y-68175000D01*
X131912800Y-132836200D02*
X132171400Y-132577600D01*
X136579400Y-135888900D02*
X136579400Y-137466300D01*
X103628900Y-95365300D02*
X103628900Y-94047200D01*
X103381100Y-93799400D02*
X101267300Y-93799400D01*
X176552400Y-134386400D02*
X177877500Y-134386400D01*
X136712300Y-140499400D02*
X136712300Y-140655900D01*
X136579400Y-140366500D02*
X136712300Y-140499400D01*
X118100600Y-67809800D02*
X118100600Y-68175000D01*
X103628900Y-94047200D02*
X103381100Y-93799400D01*
X133268100Y-132577600D02*
X136579400Y-135888900D01*
X136579400Y-139641400D02*
X136579400Y-138916400D01*
X115476700Y-65185900D02*
X118100600Y-67809800D01*
X132171400Y-132577600D02*
X133268100Y-132577600D01*
%TO.N,/AD6*%
X135579400Y-138916400D02*
X135579400Y-136190100D01*
X176554400Y-138235400D02*
X175229300Y-138235400D01*
X100874800Y-96827400D02*
X100874800Y-95499200D01*
X120640600Y-67809800D02*
X120640600Y-68175000D01*
X100874800Y-96946700D02*
X100874800Y-96827400D01*
X102581700Y-67384800D02*
X105230700Y-64735800D01*
X132998800Y-133337000D02*
X135579400Y-135917600D01*
X152057500Y-144432300D02*
X152057500Y-136028800D01*
X117566600Y-64735800D02*
X120640600Y-67809800D01*
X100503400Y-95127800D02*
X100503400Y-76903500D01*
X151831000Y-144658800D02*
X152057500Y-144432300D01*
X174919900Y-137926000D02*
X174919900Y-135751200D01*
X102397900Y-96827400D02*
X100874800Y-96827400D01*
X100874800Y-95499200D02*
X100503400Y-95127800D01*
X121815700Y-68175000D02*
X120640600Y-68175000D01*
X100301700Y-97519800D02*
X100874800Y-96946700D01*
X105230700Y-64735800D02*
X117566600Y-64735800D01*
X102581700Y-74825200D02*
X102581700Y-67384800D01*
X100503400Y-76903500D02*
X102581700Y-74825200D01*
X135579400Y-135917600D02*
X135579400Y-136190100D01*
X175229300Y-138235400D02*
X174919900Y-137926000D01*
X152057500Y-136028800D02*
X151814000Y-135785300D01*
%TO.N,/AD7*%
X176556400Y-139465400D02*
X175231300Y-139465400D01*
X175231300Y-139465400D02*
X174963000Y-139465400D01*
X143705800Y-140699600D02*
X148501100Y-140699600D01*
X138211300Y-143267300D02*
X141138100Y-143267300D01*
X135310500Y-140366500D02*
X138211300Y-143267300D01*
X100451900Y-98733400D02*
X98991800Y-98733400D01*
X134579400Y-138916400D02*
X134579400Y-140366500D01*
X98991800Y-97859600D02*
X99170800Y-97680600D01*
X98991800Y-98733400D02*
X98991800Y-97859600D01*
X134579400Y-136097600D02*
X134579400Y-138916400D01*
X134579400Y-140366500D02*
X135310500Y-140366500D01*
X132838300Y-134356500D02*
X134579400Y-136097600D01*
X174963000Y-139465400D02*
X174930200Y-139498200D01*
X141138100Y-143267300D02*
X143705800Y-140699600D01*
X99170800Y-97680600D02*
X99170800Y-75705300D01*
X148501100Y-140699600D02*
X151332400Y-143530900D01*
%TO.N,/Chip_Enable*%
X124350700Y-83977000D02*
X124350700Y-88128500D01*
X110974800Y-117756300D02*
X110657400Y-117438900D01*
X108164500Y-100883700D02*
X107311000Y-100030200D01*
X129593000Y-118480000D02*
X129593100Y-118480000D01*
X110657400Y-117438900D02*
X99976400Y-117438900D01*
X129593100Y-118480000D02*
X130579400Y-119466300D01*
X100451900Y-100005400D02*
X104295900Y-100005400D01*
X99976400Y-117438900D02*
X98405900Y-119009400D01*
X104295900Y-100005400D02*
X106483400Y-102192900D01*
X107683100Y-102192900D02*
X108164500Y-101711500D01*
X129593000Y-93370800D02*
X129593000Y-118480000D01*
X124350700Y-88128500D02*
X129593000Y-93370800D01*
X130579400Y-120916400D02*
X130579400Y-119466300D01*
X100451900Y-123533400D02*
X98991800Y-123533400D01*
X108164500Y-101711500D02*
X108164500Y-100883700D01*
X98405900Y-122947500D02*
X98991800Y-123533400D01*
X98405900Y-119009400D02*
X98405900Y-122947500D01*
X106483400Y-102192900D02*
X107683100Y-102192900D01*
%TO.N,/A10*%
X97955800Y-123766400D02*
X98990800Y-124801400D01*
X119579400Y-125916400D02*
X121029500Y-125916400D01*
X99093100Y-117438900D02*
X99543200Y-116988800D01*
X98432000Y-117438900D02*
X99093100Y-117438900D01*
X99543200Y-116988800D02*
X114565200Y-116988800D01*
X98990800Y-101273400D02*
X98990800Y-101430500D01*
X98990800Y-101430500D02*
X98562300Y-101859000D01*
X121029500Y-123453100D02*
X121029500Y-125916400D01*
X100450900Y-101273400D02*
X98990800Y-101273400D01*
X98432000Y-117438900D02*
X97955800Y-117915100D01*
X98010900Y-112791000D02*
X98307200Y-112494700D01*
X100450900Y-124801400D02*
X98990800Y-124801400D01*
X97955800Y-117915100D02*
X97955800Y-123766400D01*
X98010900Y-117017800D02*
X98010900Y-112791000D01*
X98432000Y-117438900D02*
X98010900Y-117017800D01*
X114565200Y-116988800D02*
X121029500Y-123453100D01*
%TO.N,/Output_Enable*%
X132405700Y-117162600D02*
X131623700Y-117944600D01*
X131623700Y-117944600D02*
X131623700Y-118774600D01*
X132405700Y-90667100D02*
X132405700Y-117162600D01*
X132315400Y-119466300D02*
X132579400Y-119466300D01*
X108614600Y-101898000D02*
X108614600Y-99797900D01*
X108614600Y-99797900D02*
X107439400Y-98622700D01*
X107398900Y-103113700D02*
X108614600Y-101898000D01*
X126890700Y-85152100D02*
X132405700Y-90667100D01*
X105474500Y-122509900D02*
X106223800Y-122509900D01*
X101912000Y-102544400D02*
X104930200Y-102544400D01*
X104930200Y-102544400D02*
X105499500Y-103113700D01*
X126890700Y-83977000D02*
X126890700Y-85152100D01*
X105499500Y-107490800D02*
X105351200Y-107639100D01*
X100451900Y-102544400D02*
X101912000Y-102544400D01*
X131623700Y-118774600D02*
X132315400Y-119466300D01*
X101912000Y-126072400D02*
X105474500Y-122509900D01*
X100451900Y-126072400D02*
X101912000Y-126072400D01*
X105499500Y-103113700D02*
X107398900Y-103113700D01*
X132579400Y-120916400D02*
X132579400Y-119466300D01*
X105499500Y-103113700D02*
X105499500Y-107490800D01*
%TO.N,/A11*%
X103736900Y-125555500D02*
X101913000Y-127379400D01*
X176348200Y-86910500D02*
X176348200Y-70542600D01*
X100452900Y-103851400D02*
X101913000Y-103851400D01*
X164854300Y-109571300D02*
X164471700Y-109188700D01*
X164471700Y-97652200D02*
X165153700Y-96970200D01*
X176348200Y-70542600D02*
X175155700Y-69350100D01*
X119579400Y-126916400D02*
X117797300Y-126916400D01*
X117797300Y-126916400D02*
X117694400Y-127019300D01*
X164471700Y-109188700D02*
X164471700Y-97652200D01*
X100452900Y-127379400D02*
X101913000Y-127379400D01*
X175155700Y-68175000D02*
X175155700Y-69350100D01*
X166288500Y-96970200D02*
X176348200Y-86910500D01*
X165153700Y-96970200D02*
X166288500Y-96970200D01*
X103141700Y-105080100D02*
X101913000Y-103851400D01*
X103141700Y-107637100D02*
X103141700Y-105080100D01*
X104113100Y-125555500D02*
X103736900Y-125555500D01*
%TO.N,/A9*%
X119579400Y-124916400D02*
X118129300Y-124916400D01*
X100451900Y-128611400D02*
X102304900Y-128611400D01*
X118129300Y-125252600D02*
X117829700Y-125552200D01*
X100451900Y-105083400D02*
X98991800Y-105083400D01*
X98991800Y-103725300D02*
X98991800Y-105083400D01*
X102304900Y-128611400D02*
X105113300Y-125803000D01*
X98692900Y-103426400D02*
X98991800Y-103725300D01*
X118129300Y-124916400D02*
X118129300Y-125252600D01*
X98521500Y-108538200D02*
X97499500Y-109560200D01*
X97499500Y-109560200D02*
X97499500Y-127119100D01*
X97499500Y-127119100D02*
X98991800Y-128611400D01*
X100451900Y-128611400D02*
X98991800Y-128611400D01*
%TO.N,/A8*%
X105860700Y-126081100D02*
X105860700Y-125360700D01*
X102224200Y-106082900D02*
X102184500Y-106082900D01*
X100454900Y-106352400D02*
X101915000Y-106352400D01*
X102184500Y-106082900D02*
X101915000Y-106352400D01*
X119579400Y-123916400D02*
X117505400Y-123916400D01*
X100928800Y-129880400D02*
X100454900Y-129880400D01*
X102061400Y-129880400D02*
X105860700Y-126081100D01*
X100928800Y-129880400D02*
X101915000Y-129880400D01*
X101915000Y-129880400D02*
X102061400Y-129880400D01*
X105860700Y-125360700D02*
X105302800Y-124802800D01*
X117505400Y-123916400D02*
X117426300Y-123837300D01*
%TO.N,/A13*%
X98288800Y-107664400D02*
X97049400Y-108903800D01*
X101912000Y-130757500D02*
X101912000Y-131192400D01*
X97049400Y-129250000D02*
X98991800Y-131192400D01*
X117669400Y-130916400D02*
X117039600Y-130286600D01*
X118129300Y-130916400D02*
X117669400Y-130916400D01*
X105126800Y-127542700D02*
X101912000Y-130757500D01*
X119579400Y-130916400D02*
X118129300Y-130916400D01*
X100451900Y-131192400D02*
X101912000Y-131192400D01*
X178661600Y-90191000D02*
X181428200Y-87424400D01*
X181428200Y-87424400D02*
X181428200Y-70542600D01*
X97049400Y-108903800D02*
X97049400Y-129250000D01*
X181428200Y-70542600D02*
X180235700Y-69350100D01*
X100451900Y-107664400D02*
X98288800Y-107664400D01*
X105949100Y-127542700D02*
X105126800Y-127542700D01*
X107005900Y-128599500D02*
X105949100Y-127542700D01*
X100451900Y-131192400D02*
X98991800Y-131192400D01*
X180235700Y-68175000D02*
X180235700Y-69350100D01*
%TO.N,/A14*%
X117012700Y-131916400D02*
X116558200Y-131461900D01*
X100450900Y-108895400D02*
X101911000Y-108895400D01*
X105480500Y-128853900D02*
X105480500Y-128283300D01*
X119579400Y-131916400D02*
X117012700Y-131916400D01*
X102262000Y-108608700D02*
X102197700Y-108608700D01*
X100450900Y-132423400D02*
X101911000Y-132423400D01*
X101911000Y-132423400D02*
X105480500Y-128853900D01*
X102197700Y-108608700D02*
X101911000Y-108895400D01*
%TO.N,/A17*%
X118129300Y-137069200D02*
X117249000Y-137949500D01*
X102355900Y-111529400D02*
X102355900Y-112259500D01*
X98736100Y-115879300D02*
X98736100Y-116693500D01*
X102355900Y-134327400D02*
X102355900Y-135787500D01*
X118129300Y-134916400D02*
X118129300Y-137069200D01*
X104288700Y-107688900D02*
X104288700Y-104126000D01*
X102355900Y-109339300D02*
X102638300Y-109339300D01*
X102355900Y-110799400D02*
X102355900Y-109339300D01*
X119579400Y-134916400D02*
X118129300Y-134916400D01*
X102355900Y-111529400D02*
X102355900Y-110799400D01*
X102355900Y-112259500D02*
X98736100Y-115879300D01*
X102782100Y-136213700D02*
X102782100Y-137733400D01*
X102355900Y-135787500D02*
X102782100Y-136213700D01*
X102638300Y-109339300D02*
X104288700Y-107688900D01*
%TO.N,/{slash}write*%
X136453100Y-53259500D02*
X135387000Y-54325600D01*
X105056900Y-132864300D02*
X105424400Y-132496800D01*
X135387000Y-63406900D02*
X131841300Y-66952600D01*
X103586900Y-110796400D02*
X103586900Y-113215000D01*
X127579400Y-140366500D02*
X132877200Y-145664300D01*
X121707300Y-90128700D02*
X123325900Y-90128700D01*
X133633400Y-32423600D02*
X136453100Y-35243300D01*
X131841300Y-66952600D02*
X131501200Y-66952600D01*
X101650400Y-115151500D02*
X101443400Y-115151500D01*
X133679400Y-150489400D02*
X133679400Y-145664300D01*
X131501200Y-66952600D02*
X130652900Y-67800900D01*
X132877200Y-145664300D02*
X133679400Y-145664300D01*
X103586900Y-113215000D02*
X101650400Y-115151500D01*
X133633400Y-28780400D02*
X133633400Y-32423600D01*
X135387000Y-54325600D02*
X135387000Y-63406900D01*
X127579400Y-138916400D02*
X127579400Y-135424000D01*
X127579400Y-138916400D02*
X127579400Y-140366500D01*
X103586900Y-113215000D02*
X104328100Y-113956200D01*
X104328100Y-113956200D02*
X108970700Y-113956200D01*
X130652900Y-67800900D02*
X130652900Y-85504200D01*
X136453100Y-35243300D02*
X136453100Y-53259500D01*
X103586900Y-134324400D02*
X103586900Y-132864300D01*
X116730700Y-83977000D02*
X116730700Y-85152100D01*
X116730700Y-85152100D02*
X121707300Y-90128700D01*
X103586900Y-132864300D02*
X105056900Y-132864300D01*
D29*
%TO.N,/VCC*%
X104241800Y-137603600D02*
X104241800Y-137530900D01*
X156327400Y-32405500D02*
X156491600Y-32405500D01*
X175052200Y-128049300D02*
X175052200Y-108400200D01*
X175053300Y-142003400D02*
X174003900Y-140954000D01*
X187193100Y-97511500D02*
X187191000Y-97509400D01*
X104241800Y-137530900D02*
X104241800Y-136873400D01*
X104857900Y-134325400D02*
X104857900Y-136257300D01*
X140701900Y-141541900D02*
X139927800Y-141541900D01*
X185690900Y-97509400D02*
X187191000Y-97509400D01*
X136152400Y-32624000D02*
X139319000Y-35790600D01*
X125836700Y-133020200D02*
X124259100Y-133020200D01*
X96424300Y-72272900D02*
X96424300Y-132737200D01*
X122029500Y-130790600D02*
X122029500Y-129534200D01*
X156373400Y-132487400D02*
X156373400Y-145414100D01*
X176554400Y-128051400D02*
X175054300Y-128051400D01*
X112762000Y-55935200D02*
X96424300Y-72272900D01*
X109239700Y-105023600D02*
X109239700Y-101927300D01*
X147185700Y-131169500D02*
X146932600Y-130916400D01*
X175052200Y-108400200D02*
X172392900Y-105740900D01*
X188243000Y-93403200D02*
X188243000Y-91109200D01*
X136198400Y-145517300D02*
X136198400Y-145462900D01*
X156327400Y-28780400D02*
X156327400Y-32405500D01*
X148535800Y-131169500D02*
X147860800Y-131169500D01*
X104857900Y-136257300D02*
X104241800Y-136873400D01*
X174003900Y-140954000D02*
X174003900Y-129101800D01*
X187917400Y-93728800D02*
X188243000Y-93403200D01*
X96424300Y-132737200D02*
X102324000Y-138636900D01*
X147523300Y-131169500D02*
X147185700Y-131169500D01*
X187191000Y-97509400D02*
X187191000Y-95112800D01*
X147523300Y-131169500D02*
X147561600Y-131169500D01*
X148535800Y-131169500D02*
X149885900Y-131169500D01*
X103208500Y-138636900D02*
X104241800Y-137603600D01*
X187191000Y-103897400D02*
X187193100Y-103895300D01*
X156373400Y-145414100D02*
X156373400Y-145521300D01*
X136198400Y-145462900D02*
X136091100Y-145355600D01*
X114929600Y-55935200D02*
X112762000Y-55935200D01*
X142398400Y-130916400D02*
X141811000Y-130329000D01*
X107596900Y-91716400D02*
X107889500Y-91423800D01*
X187917400Y-93071300D02*
X187917400Y-93728800D01*
X181584200Y-108400200D02*
X186087000Y-103897400D01*
X156491600Y-32405500D02*
X156636300Y-32550200D01*
X156373400Y-150521400D02*
X156373400Y-145521300D01*
X104241800Y-138188500D02*
X104241800Y-137530900D01*
X122029500Y-129534200D02*
X121411700Y-128916400D01*
X139319000Y-35790600D02*
X139319000Y-45094300D01*
X149885900Y-131698000D02*
X149885900Y-131169500D01*
X187917400Y-93728800D02*
X187917400Y-94386400D01*
X186087000Y-103897400D02*
X187191000Y-103897400D01*
X124259100Y-133020200D02*
X122029500Y-130790600D01*
X157751400Y-132487400D02*
X156373400Y-132487400D01*
X157751400Y-131172300D02*
X157751400Y-129857200D01*
X160381500Y-35098900D02*
X159741400Y-35098900D01*
X106263800Y-93031500D02*
X106263800Y-91716400D01*
X164873700Y-39591100D02*
X160381500Y-35098900D01*
X146932600Y-130916400D02*
X143579400Y-130916400D01*
X147860800Y-131169500D02*
X147561600Y-131169500D01*
X191047200Y-60392300D02*
X191047200Y-77483200D01*
X136152400Y-32624000D02*
X136152400Y-28780400D01*
X147561600Y-131169500D02*
X147561600Y-134682200D01*
X174003900Y-129101800D02*
X175054300Y-128051400D01*
X175054300Y-128051400D02*
X175052200Y-128049300D01*
X136198400Y-150517400D02*
X136198400Y-145517300D01*
X147561600Y-134682200D02*
X140701900Y-141541900D01*
X185690900Y-103897400D02*
X186087000Y-103897400D01*
X157751400Y-131172300D02*
X157751400Y-132487400D01*
X150675300Y-132487400D02*
X149885900Y-131698000D01*
X156373400Y-132487400D02*
X150675300Y-132487400D01*
X121411700Y-128916400D02*
X119579400Y-128916400D01*
X104857900Y-110797400D02*
X104857900Y-109162300D01*
X105101000Y-109162300D02*
X109239700Y-105023600D01*
X157751400Y-109032900D02*
X157751400Y-129857200D01*
X143579400Y-130916400D02*
X142398400Y-130916400D01*
X109239700Y-101927300D02*
X109339800Y-101827200D01*
X141811000Y-130329000D02*
X141811000Y-130098000D01*
X191047200Y-77483200D02*
X190439600Y-78090800D01*
X187191000Y-95112800D02*
X187917400Y-94386400D01*
X164873700Y-52300500D02*
X164873700Y-39591100D01*
X176553400Y-142003400D02*
X175053300Y-142003400D01*
X106263800Y-91716400D02*
X107596900Y-91716400D01*
X187193100Y-103895300D02*
X187193100Y-97511500D01*
X175052200Y-108400200D02*
X181584200Y-108400200D01*
X190960000Y-60305100D02*
X191047200Y-60392300D01*
X104857900Y-109162300D02*
X105101000Y-109162300D01*
X172392900Y-105740900D02*
X170676900Y-105740900D01*
X102324000Y-138636900D02*
X103208500Y-138636900D01*
D28*
%TO.N,/AD8*%
X113064000Y-121080300D02*
X111881900Y-122262400D01*
X125706900Y-86113600D02*
X125706900Y-70875400D01*
X130551300Y-90958000D02*
X125706900Y-86113600D01*
X136181300Y-141873900D02*
X138024800Y-143717400D01*
X132579400Y-139641400D02*
X132579400Y-140366500D01*
X114727100Y-121080300D02*
X113064000Y-121080300D01*
X132579400Y-139641400D02*
X132579400Y-138916400D01*
X147503100Y-141149700D02*
X151105800Y-144752400D01*
X142278300Y-143717400D02*
X144846000Y-141149700D01*
X126895700Y-69686600D02*
X126895700Y-68175000D01*
X158841000Y-53398200D02*
X157324100Y-54915100D01*
X153809400Y-28780400D02*
X153809400Y-35458500D01*
X153809400Y-35458500D02*
X158841000Y-40490100D01*
X157324100Y-54915100D02*
X157324100Y-56505800D01*
X144846000Y-141149700D02*
X147503100Y-141149700D01*
X131123500Y-125380600D02*
X131309900Y-125194200D01*
X151737600Y-145630300D02*
X153855400Y-145630300D01*
X132579400Y-138916400D02*
X132579400Y-135923100D01*
X131123500Y-134467200D02*
X131123500Y-125380600D01*
X138024800Y-143717400D02*
X142278300Y-143717400D01*
X132579400Y-140366500D02*
X134086800Y-141873900D01*
X125706900Y-70875400D02*
X126895700Y-69686600D01*
X153855400Y-150455400D02*
X153855400Y-145630300D01*
X132579400Y-135923100D02*
X131123500Y-134467200D01*
X134086800Y-141873900D02*
X136181300Y-141873900D01*
X151105800Y-144752400D02*
X151105800Y-144998500D01*
X158841000Y-40490100D02*
X158841000Y-53398200D01*
X130551300Y-115809600D02*
X130551300Y-90958000D01*
X151105800Y-144998500D02*
X151737600Y-145630300D01*
%TO.N,/AD9*%
X145669100Y-141599800D02*
X147309300Y-141599800D01*
X132358600Y-118484100D02*
X132885300Y-117957400D01*
X132293500Y-54364700D02*
X133678600Y-52979600D01*
X131579400Y-140366500D02*
X133800500Y-142587600D01*
X151290400Y-28780400D02*
X151290400Y-32230500D01*
X151613200Y-32553300D02*
X151290400Y-32230500D01*
X110646600Y-119766700D02*
X110056900Y-120356400D01*
X150430700Y-149563700D02*
X151336400Y-150469400D01*
X131579400Y-138916400D02*
X131579400Y-140366500D01*
X133800500Y-142587600D02*
X136258400Y-142587600D01*
X128246400Y-70539400D02*
X129435700Y-69350100D01*
X129435700Y-63103200D02*
X132293500Y-60245400D01*
X133678600Y-52979600D02*
X133678600Y-50268900D01*
X133678600Y-50268900D02*
X133081300Y-49671600D01*
X131579400Y-138191300D02*
X131579400Y-137466300D01*
X150430700Y-144721200D02*
X150430700Y-149563700D01*
X129435700Y-68175000D02*
X129435700Y-69350100D01*
X132293500Y-60245400D02*
X132293500Y-54364700D01*
X131579400Y-136461600D02*
X130581200Y-135463400D01*
X136258400Y-142587600D02*
X137838300Y-144167500D01*
X130581200Y-135463400D02*
X130581200Y-124484100D01*
X131579400Y-138191300D02*
X131579400Y-138916400D01*
X151613200Y-34521900D02*
X151613200Y-32553300D01*
X147309300Y-141599800D02*
X150430700Y-144721200D01*
X128246400Y-85388100D02*
X128246400Y-70539400D01*
X137838300Y-144167500D02*
X143101400Y-144167500D01*
X132885300Y-117957400D02*
X132885300Y-90027000D01*
X130581200Y-124484100D02*
X130674600Y-124390700D01*
X143101400Y-144167500D02*
X145669100Y-141599800D01*
X129435700Y-68175000D02*
X129435700Y-63103200D01*
X112735200Y-119766700D02*
X110646600Y-119766700D01*
X132885300Y-90027000D02*
X128246400Y-85388100D01*
X131579400Y-137466300D02*
X131579400Y-136461600D01*
%TO.N,/AD10*%
X143726400Y-28780400D02*
X143726400Y-32230500D01*
X108833900Y-125529700D02*
X108733600Y-125429400D01*
X133140100Y-68503600D02*
X133140100Y-68175000D01*
X108733600Y-122739500D02*
X108849300Y-122623800D01*
X133335500Y-77158100D02*
X133335500Y-109966500D01*
X130579400Y-136323400D02*
X129622900Y-135366900D01*
X133067900Y-76890500D02*
X133335500Y-77158100D01*
X133335500Y-70139200D02*
X133335500Y-76022300D01*
X134055600Y-69419100D02*
X133335500Y-70139200D01*
X130579400Y-140366500D02*
X133250600Y-143037700D01*
X135785700Y-67545000D02*
X135785700Y-68622800D01*
X142407700Y-33549200D02*
X142407700Y-52845200D01*
X130579400Y-139641400D02*
X130579400Y-140366500D01*
X130579400Y-139641400D02*
X130579400Y-138916400D01*
X133067900Y-76289900D02*
X133067900Y-76890500D01*
X134989400Y-69419100D02*
X134055600Y-69419100D01*
X137651800Y-144617600D02*
X142714700Y-144617600D01*
X108786900Y-120357400D02*
X108786900Y-121817500D01*
X133335500Y-76022300D02*
X133067900Y-76289900D01*
X108733600Y-125429400D02*
X108733600Y-122739500D01*
X133250600Y-143037700D02*
X136071900Y-143037700D01*
X130579400Y-138916400D02*
X130579400Y-137466300D01*
X140863400Y-54389500D02*
X140863400Y-62467300D01*
X131975700Y-68175000D02*
X133140100Y-68175000D01*
X136071900Y-143037700D02*
X137651800Y-144617600D01*
X143772400Y-150500400D02*
X143772400Y-145675300D01*
X142714700Y-144617600D02*
X143772400Y-145675300D01*
X133335500Y-109966500D02*
X133808000Y-110439000D01*
X108849300Y-121879900D02*
X108786900Y-121817500D01*
X142407700Y-52845200D02*
X140863400Y-54389500D01*
X140863400Y-62467300D02*
X135785700Y-67545000D01*
X134055600Y-69419100D02*
X133140100Y-68503600D01*
X108849300Y-122623800D02*
X108849300Y-121879900D01*
X129622900Y-135366900D02*
X129622900Y-125682500D01*
X130579400Y-137466300D02*
X130579400Y-136323400D01*
X143726400Y-32230500D02*
X142407700Y-33549200D01*
X135785700Y-68622800D02*
X134989400Y-69419100D01*
%TO.N,/AD11*%
X100794000Y-117966200D02*
X100586500Y-118173700D01*
X135885400Y-143487800D02*
X137511300Y-145113700D01*
X134515700Y-68175000D02*
X134515700Y-66999900D01*
X137936600Y-54672300D02*
X137936600Y-63579000D01*
X129579400Y-140366500D02*
X132700700Y-143487800D01*
X141205400Y-28780400D02*
X141205400Y-49807800D01*
X132700700Y-143487800D02*
X135885400Y-143487800D01*
X139576500Y-51436700D02*
X139576500Y-53032400D01*
X105278800Y-117966200D02*
X100794000Y-117966200D01*
X141205400Y-49807800D02*
X139576500Y-51436700D01*
X129579400Y-137152400D02*
X129579400Y-138916400D01*
X137936600Y-63579000D02*
X134515700Y-66999900D01*
X106205900Y-118893300D02*
X105278800Y-117966200D01*
X106205900Y-120353400D02*
X106205900Y-118893300D01*
X137511300Y-145113700D02*
X140681800Y-145113700D01*
X141251400Y-150508400D02*
X141251400Y-145683300D01*
X129579400Y-138916400D02*
X129579400Y-140366500D01*
X139576500Y-53032400D02*
X137936600Y-54672300D01*
X140681800Y-145113700D02*
X141251400Y-145683300D01*
%TO.N,/AD12*%
X95349100Y-138885800D02*
X95557600Y-139094300D01*
X131160400Y-145678300D02*
X126579400Y-141097300D01*
X100648100Y-119186200D02*
X99347000Y-119186200D01*
X125661500Y-135655600D02*
X123953800Y-135655600D01*
X131160400Y-150503400D02*
X131160400Y-145678300D01*
X134198200Y-53096700D02*
X132778800Y-54516100D01*
X131114400Y-28780400D02*
X131114400Y-33466300D01*
X123953800Y-135655600D02*
X121954200Y-137655200D01*
X121954200Y-137655200D02*
X121954200Y-140178100D01*
X101404300Y-118430000D02*
X100648100Y-119186200D01*
X104894900Y-118896300D02*
X104428600Y-118430000D01*
X121954200Y-140178100D02*
X121742600Y-140389700D01*
X131114400Y-33466300D02*
X131352800Y-33704700D01*
X114930300Y-50127200D02*
X95349100Y-69708400D01*
X126579400Y-141097300D02*
X126579400Y-138916400D01*
X132778800Y-64989700D02*
X132509400Y-65259100D01*
X132778800Y-54516100D02*
X132778800Y-64989700D01*
X134198200Y-36550100D02*
X134198200Y-53096700D01*
X126579400Y-136573500D02*
X125661500Y-135655600D01*
X126579400Y-138916400D02*
X126579400Y-136573500D01*
X95349100Y-69708400D02*
X95349100Y-138885800D01*
X131352800Y-33704700D02*
X134198200Y-36550100D01*
X104894900Y-120356400D02*
X104894900Y-118896300D01*
X104428600Y-118430000D02*
X101404300Y-118430000D01*
%TO.N,/AD13*%
X103628900Y-120353400D02*
X103628900Y-118893300D01*
X127015500Y-64531400D02*
X127015500Y-59117400D01*
X126072400Y-28780400D02*
X126072400Y-32230500D01*
X125579400Y-138916400D02*
X125579400Y-136624500D01*
X101882100Y-118893300D02*
X101297500Y-119477900D01*
X126118400Y-150528400D02*
X126118400Y-145703300D01*
X126072400Y-56566700D02*
X126306800Y-56332300D01*
X126118400Y-145703300D02*
X125579400Y-145164300D01*
X103628900Y-118893300D02*
X101882100Y-118893300D01*
X127015500Y-59117400D02*
X126072400Y-58174300D01*
X126306800Y-56332300D02*
X126306800Y-32464900D01*
X125579400Y-136624500D02*
X125358200Y-136403300D01*
X126306800Y-32464900D02*
X126072400Y-32230500D01*
X125579400Y-145164300D02*
X125579400Y-138916400D01*
X101297500Y-119477900D02*
X101297500Y-119562600D01*
X126072400Y-58174300D02*
X126072400Y-56566700D01*
%TO.N,/AD14*%
X125610900Y-59210900D02*
X123553400Y-57153400D01*
X115497300Y-55204900D02*
X112608200Y-55204900D01*
X123599400Y-150514400D02*
X123599400Y-145689300D01*
X123553400Y-57153400D02*
X123553400Y-28780400D01*
X124753700Y-64461300D02*
X124753700Y-64478500D01*
X112608200Y-55204900D02*
X95799200Y-72013900D01*
X124753700Y-64461300D02*
X124928300Y-64461300D01*
X124099100Y-145189600D02*
X124099100Y-141231100D01*
X101551400Y-121201900D02*
X99581100Y-121201900D01*
X124579400Y-140750800D02*
X124579400Y-138916400D01*
X102397900Y-120355400D02*
X101551400Y-121201900D01*
X95799200Y-72013900D02*
X95799200Y-133598400D01*
X124753700Y-64461300D02*
X115497300Y-55204900D01*
X124099100Y-141231100D02*
X124579400Y-140750800D01*
X124928300Y-64461300D02*
X125610900Y-63778700D01*
X95799200Y-133598400D02*
X97525000Y-135324200D01*
X123599400Y-145689300D02*
X124099100Y-145189600D01*
X125610900Y-63778700D02*
X125610900Y-59210900D01*
%TO.N,/AD15*%
X123579400Y-139641400D02*
X123579400Y-140366500D01*
X123579400Y-139641400D02*
X123579400Y-138916400D01*
X98856000Y-122125600D02*
X98991800Y-122261400D01*
X123579400Y-140366500D02*
X121072400Y-142873500D01*
X124885800Y-59394900D02*
X124885800Y-63478300D01*
X99184800Y-120186400D02*
X98856000Y-120515200D01*
X121072400Y-142873500D02*
X121072400Y-150520400D01*
X121026400Y-53044700D02*
X121026400Y-28780400D01*
X119781000Y-54290100D02*
X124885800Y-59394900D01*
X100451900Y-122261400D02*
X98991800Y-122261400D01*
X119781000Y-54290100D02*
X121026400Y-53044700D01*
X98856000Y-120515200D02*
X98856000Y-122125600D01*
X112146600Y-54290100D02*
X106059100Y-60377600D01*
X123579400Y-137466300D02*
X123579400Y-137188700D01*
X119781000Y-54290100D02*
X112146600Y-54290100D01*
X123579400Y-138916400D02*
X123579400Y-137466300D01*
%TO.N,/{slash}read_bottom*%
X128579400Y-138916400D02*
X128579400Y-125080900D01*
X114190700Y-85152100D02*
X124081200Y-95042600D01*
X135698900Y-143937900D02*
X137453300Y-145692300D01*
X128579400Y-125080900D02*
X130269800Y-123390500D01*
X132150800Y-143937900D02*
X135698900Y-143937900D01*
X128579400Y-140366500D02*
X132150800Y-143937900D01*
X138726400Y-150517400D02*
X138726400Y-145692300D01*
X114190700Y-83977000D02*
X114190700Y-85152100D01*
X128579400Y-139641400D02*
X128579400Y-140366500D01*
X124081200Y-113640200D02*
X127292200Y-116851200D01*
X128579400Y-139641400D02*
X128579400Y-138916400D01*
X124081200Y-95042600D02*
X124081200Y-113640200D01*
X137453300Y-145692300D02*
X138726400Y-145692300D01*
%TO.N,/{slash}COLD_RESET*%
X190722000Y-89266900D02*
X190572800Y-89416100D01*
X193404600Y-84487300D02*
X192522300Y-85369600D01*
X152916600Y-119029300D02*
X154590400Y-117355500D01*
X187328100Y-91608800D02*
X187247700Y-91608800D01*
X187247700Y-91608800D02*
X186208600Y-92647900D01*
X133579400Y-138916400D02*
X133579400Y-136921800D01*
X163941400Y-145676300D02*
X163074400Y-144809300D01*
X163074400Y-144809300D02*
X163074400Y-132285400D01*
X191657000Y-49355900D02*
X193404600Y-51103500D01*
X163941400Y-150501400D02*
X163941400Y-145676300D01*
X190722000Y-87615800D02*
X190722000Y-89266900D01*
X133579400Y-136921800D02*
X133311000Y-136653400D01*
X163895400Y-35567600D02*
X163895400Y-28780400D01*
X176075300Y-93293700D02*
X173275400Y-93293700D01*
X186208600Y-92647900D02*
X186208600Y-93143900D01*
X149750800Y-101728700D02*
X149750800Y-87650900D01*
X154590400Y-117355500D02*
X154590400Y-106568300D01*
X163074400Y-132285400D02*
X163028600Y-132239600D01*
X151580500Y-103558400D02*
X149750800Y-101728700D01*
X154590400Y-106568300D02*
X151580500Y-103558400D01*
X152916600Y-129141000D02*
X152916600Y-119029300D01*
X193404600Y-51103500D02*
X193404600Y-84487300D01*
X165211000Y-36883200D02*
X163895400Y-35567600D01*
X191657000Y-45996600D02*
X191657000Y-49355900D01*
%TO.N,/ALE_L*%
X123087700Y-81524900D02*
X123087700Y-71377600D01*
X128745500Y-63826900D02*
X128745500Y-53090000D01*
X123087700Y-71377600D02*
X125533300Y-68932000D01*
X128597600Y-52942100D02*
X128597600Y-38095200D01*
X131655700Y-122396500D02*
X129849300Y-122396500D01*
X128745500Y-53090000D02*
X128597600Y-52942100D01*
X138579400Y-138916400D02*
X138579400Y-137466300D01*
X121810700Y-82801900D02*
X123087700Y-81524900D01*
X128634600Y-93053300D02*
X121810700Y-86229400D01*
X121810700Y-86229400D02*
X121810700Y-83977000D01*
X138162300Y-137049200D02*
X138162300Y-135430100D01*
X138579400Y-137466300D02*
X138162300Y-137049200D01*
X125533300Y-68932000D02*
X125533300Y-67039100D01*
X138083400Y-142113800D02*
X138579400Y-141617800D01*
X138579400Y-141617800D02*
X138579400Y-138916400D01*
X129849300Y-122396500D02*
X129600300Y-122645500D01*
X132828000Y-123568800D02*
X131655700Y-122396500D01*
X121810700Y-83977000D02*
X121810700Y-82801900D01*
X125533300Y-67039100D02*
X128745500Y-63826900D01*
X128634600Y-117879700D02*
X128634600Y-93053300D01*
X138162300Y-135430100D02*
X132828000Y-130095800D01*
X132828000Y-130095800D02*
X132828000Y-123568800D01*
%TO.N,/ALE_H*%
X122990900Y-67662400D02*
X126061000Y-64592300D01*
X138612500Y-134607300D02*
X138612500Y-136748800D01*
X139330000Y-137466300D02*
X139579400Y-137466300D01*
X122990900Y-68864200D02*
X122990900Y-67662400D01*
X139579400Y-139641400D02*
X139579400Y-140366500D01*
X120096900Y-85152100D02*
X119270700Y-85152100D01*
X127027500Y-92082700D02*
X120096900Y-85152100D01*
X126061000Y-59024300D02*
X125575700Y-58539000D01*
X139153700Y-141812100D02*
X139883700Y-142542100D01*
X133293700Y-124685800D02*
X133293700Y-129288500D01*
X138612500Y-136748800D02*
X139330000Y-137466300D01*
X139579400Y-138916400D02*
X139579400Y-137466300D01*
X133806400Y-124173100D02*
X133293700Y-124685800D01*
X133293700Y-129288500D02*
X138612500Y-134607300D01*
X127027500Y-111871200D02*
X127027500Y-92082700D01*
X119270700Y-83977000D02*
X119270700Y-82801900D01*
X139579400Y-140366500D02*
X139153700Y-140792200D01*
X120547700Y-71307400D02*
X122990900Y-68864200D01*
X126061000Y-64592300D02*
X126061000Y-59024300D01*
X120547700Y-81524900D02*
X120547700Y-71307400D01*
X139153700Y-140792200D02*
X139153700Y-141812100D01*
X119270700Y-82801900D02*
X120547700Y-81524900D01*
X119270700Y-83977000D02*
X119270700Y-85152100D01*
X125575700Y-58539000D02*
X125575700Y-45646700D01*
X139579400Y-139641400D02*
X139579400Y-138916400D01*
%TO.N,/Button*%
X155040500Y-118946000D02*
X155040500Y-93081300D01*
X145029500Y-132551400D02*
X145676400Y-131904500D01*
X194568900Y-109696900D02*
X194568900Y-114889800D01*
X194568900Y-114889800D02*
X194529900Y-114928800D01*
X154524400Y-119462100D02*
X155040500Y-118946000D01*
X154524400Y-119462100D02*
X154524400Y-131165300D01*
X145029500Y-132916400D02*
X145029500Y-132551400D01*
X155040500Y-93081300D02*
X150809800Y-88850600D01*
X143579400Y-132916400D02*
X145029500Y-132916400D01*
X194529900Y-116048900D02*
X194529900Y-114928800D01*
%TO.N,/PPort_2*%
X141083000Y-129514100D02*
X141083000Y-130870100D01*
X141229100Y-129368000D02*
X141083000Y-129514100D01*
X142130700Y-85152100D02*
X141229100Y-86053700D01*
X192676500Y-59266600D02*
X192676500Y-78722800D01*
X192676500Y-78722800D02*
X190357000Y-81042300D01*
X142130700Y-83977000D02*
X142130700Y-85152100D01*
X186986500Y-81042300D02*
X186785200Y-80841000D01*
X141083000Y-130870100D02*
X142129300Y-131916400D01*
X141229100Y-86053700D02*
X141229100Y-129368000D01*
X190357000Y-81042300D02*
X186986500Y-81042300D01*
X143579400Y-131916400D02*
X142129300Y-131916400D01*
%TO.N,/PPort_3*%
X150973200Y-81310000D02*
X150973200Y-75798500D01*
X187301100Y-54727200D02*
X187301100Y-71518900D01*
X144670700Y-83977000D02*
X144670700Y-85152100D01*
X150973200Y-75798500D02*
X151108700Y-75663000D01*
X141679200Y-128466300D02*
X142129300Y-128916400D01*
X187007000Y-54433100D02*
X187301100Y-54727200D01*
X143579400Y-128916400D02*
X142129300Y-128916400D01*
X144670700Y-85152100D02*
X141679200Y-88143600D01*
X141679200Y-88143600D02*
X141679200Y-128466300D01*
X187301100Y-71518900D02*
X185676600Y-73143400D01*
X185676600Y-73143400D02*
X184565900Y-73143400D01*
%TO.N,/PPort_4*%
X154713400Y-52460100D02*
X154713400Y-59181900D01*
X142129300Y-90233500D02*
X142129300Y-127916400D01*
X156054900Y-60523400D02*
X156054900Y-81045300D01*
X143579400Y-127916400D02*
X142129300Y-127916400D01*
X147210700Y-85152100D02*
X142129300Y-90233500D01*
X147210700Y-83977000D02*
X147210700Y-85152100D01*
X156054900Y-81045300D02*
X155169800Y-81930400D01*
X154713400Y-59181900D02*
X156054900Y-60523400D01*
%TO.N,/PPort_5*%
X151966600Y-117912000D02*
X154140300Y-115738300D01*
X149750700Y-83977000D02*
X150925800Y-83977000D01*
X153475100Y-84536400D02*
X153475100Y-82793700D01*
X151157700Y-86853800D02*
X153475100Y-84536400D01*
X151943400Y-63059500D02*
X153475100Y-64591200D01*
X151966600Y-119979300D02*
X151966600Y-117912000D01*
X154140300Y-115738300D02*
X154140300Y-114107600D01*
X151812200Y-82793700D02*
X150925800Y-83680100D01*
X153475100Y-82793700D02*
X151812200Y-82793700D01*
X149425300Y-86853800D02*
X151157700Y-86853800D01*
X150925800Y-83680100D02*
X150925800Y-83977000D01*
X149025600Y-108992900D02*
X149025600Y-87253500D01*
X143579400Y-126916400D02*
X145029500Y-126916400D01*
X153475100Y-64591200D02*
X153475100Y-82793700D01*
X145029500Y-126916400D02*
X151966600Y-119979300D01*
X149025600Y-87253500D02*
X149425300Y-86853800D01*
X154140300Y-114107600D02*
X149025600Y-108992900D01*
X151943400Y-52460100D02*
X151943400Y-63059500D01*
%TO.N,/PPort_6*%
X148575500Y-86991800D02*
X149803200Y-85764100D01*
X151590300Y-83977000D02*
X152290700Y-83977000D01*
X150972300Y-66589300D02*
X151073100Y-66488500D01*
X150972300Y-64926300D02*
X149173400Y-63127400D01*
X151073100Y-65887700D02*
X150972300Y-65786900D01*
X153018900Y-115041600D02*
X153415200Y-115437900D01*
X152744300Y-115041600D02*
X148575500Y-110872800D01*
X177383600Y-110490000D02*
X177665300Y-110208300D01*
X148575500Y-110872800D02*
X148575500Y-86991800D01*
X149803200Y-85764100D02*
X151590300Y-83977000D01*
X149173400Y-63127400D02*
X149173400Y-52460100D01*
X150972300Y-73982400D02*
X150972300Y-66589300D01*
X148556600Y-76398100D02*
X150972300Y-73982400D01*
X151073100Y-66488500D02*
X151073100Y-65887700D01*
X151357200Y-116428700D02*
X151357200Y-119588700D01*
X150972300Y-65786900D02*
X150972300Y-64926300D01*
X148556600Y-84517600D02*
X148556600Y-76398100D01*
X152744300Y-115041600D02*
X151357200Y-116428700D01*
X149803200Y-85764100D02*
X148556600Y-84517600D01*
X178845400Y-110208300D02*
X177665300Y-110208300D01*
X143579400Y-125916400D02*
X145029500Y-125916400D01*
X151357200Y-119588700D02*
X145029500Y-125916400D01*
X152744300Y-115041600D02*
X153018900Y-115041600D01*
%TO.N,/PIC.GP4*%
X145029500Y-95512200D02*
X145029500Y-124916400D01*
X144586000Y-95068700D02*
X145029500Y-95512200D01*
X143579400Y-124916400D02*
X145029500Y-124916400D01*
%TO.N,/PIC.GP5*%
X143579400Y-123916400D02*
X143144600Y-123481600D01*
X143144600Y-123481600D02*
X143144600Y-96075800D01*
%TO.N,/Pin_33*%
X140579400Y-120916400D02*
X140579400Y-119466300D01*
X140503900Y-119390800D02*
X140503900Y-101551800D01*
X140579400Y-119466300D02*
X140503900Y-119390800D01*
%TO.N,/Pin_34*%
X139721600Y-119324100D02*
X139721600Y-102491100D01*
X139579400Y-120916400D02*
X139579400Y-119466300D01*
X139579400Y-119466300D02*
X139721600Y-119324100D01*
%TO.N,/74HC164_DSA_DSB*%
X192483600Y-102633400D02*
X194660400Y-100456600D01*
X138240800Y-98288100D02*
X138240800Y-119127700D01*
X138579400Y-120916400D02*
X138579400Y-119466300D01*
X191944800Y-102633400D02*
X191406900Y-103171300D01*
X191944800Y-102633400D02*
X192483600Y-102633400D01*
X194660400Y-100456600D02*
X194660400Y-94529300D01*
X194660400Y-94529300D02*
X188957000Y-88825900D01*
X138240800Y-119127700D02*
X138579400Y-119466300D01*
X191406900Y-103171300D02*
X191406900Y-103900400D01*
X188957000Y-88825900D02*
X185855200Y-88825900D01*
X191405900Y-102633400D02*
X191944800Y-102633400D01*
%TO.N,/74HC164_CP*%
X184365800Y-94529000D02*
X184690400Y-94204400D01*
X137280200Y-118765500D02*
X136579400Y-119466300D01*
X184690400Y-93634300D02*
X184662600Y-93606500D01*
X185690900Y-96198400D02*
X184365800Y-96198400D01*
X184690400Y-93634300D02*
X184690400Y-94204400D01*
X184662600Y-93606500D02*
X184662600Y-91477700D01*
X184365800Y-96198400D02*
X184365800Y-94529000D01*
X137280200Y-99222300D02*
X137280200Y-118765500D01*
X136579400Y-120916400D02*
X136579400Y-119466300D01*
X184690400Y-93064300D02*
X184690400Y-93634300D01*
%TO.N,/74HC04*%
X156397000Y-126479300D02*
X155490600Y-125572900D01*
X135828700Y-96849300D02*
X135828700Y-119217000D01*
X182180500Y-128054400D02*
X182270400Y-128054400D01*
X155490600Y-125572900D02*
X155490600Y-85812000D01*
X135828700Y-119217000D02*
X135579400Y-119466300D01*
X135579400Y-120916400D02*
X135579400Y-119466300D01*
X179828500Y-130406400D02*
X182180500Y-128054400D01*
X155490600Y-85812000D02*
X154830700Y-85152100D01*
X154830700Y-83977000D02*
X154830700Y-85152100D01*
%TO.N,/Pin_39*%
X135093900Y-103331300D02*
X135094000Y-103331300D01*
X134579400Y-119466300D02*
X135093900Y-118951800D01*
X135093900Y-118951800D02*
X135093900Y-103331300D01*
X134579400Y-120916400D02*
X134579400Y-119466300D01*
%TO.N,/{slash}read_top*%
X133579400Y-119466300D02*
X134533100Y-118512600D01*
X138327700Y-81524900D02*
X138327700Y-71376700D01*
X140119800Y-47249900D02*
X140119900Y-47249900D01*
X137050700Y-82801900D02*
X138327700Y-81524900D01*
X137050700Y-83977000D02*
X137050700Y-85152100D01*
X133579400Y-120916400D02*
X133579400Y-119466300D01*
X143474100Y-54915100D02*
X144758600Y-53630600D01*
X138680400Y-32230500D02*
X140119800Y-33669900D01*
X137050700Y-83977000D02*
X137050700Y-82801900D01*
X138327700Y-71376700D02*
X140770900Y-68933500D01*
X134533100Y-104393900D02*
X134367300Y-104228100D01*
X140770900Y-68933500D02*
X140770900Y-67841800D01*
X140770900Y-67841800D02*
X142455900Y-66156800D01*
X143474100Y-65502400D02*
X143474100Y-54915100D01*
X138680400Y-28780400D02*
X138680400Y-32230500D01*
X134533100Y-118512600D02*
X134533100Y-104393900D01*
X134367300Y-104228100D02*
X134367300Y-87835500D01*
X144758600Y-53630600D02*
X144758600Y-47249900D01*
X134367300Y-87835500D02*
X137050700Y-85152100D01*
X140119800Y-33669900D02*
X140119800Y-47249900D01*
X142819700Y-66156800D02*
X143474100Y-65502400D01*
X142455900Y-66156800D02*
X142819700Y-66156800D01*
%TO.N,/Pin_42*%
X131169000Y-119055900D02*
X131169000Y-116853200D01*
X131579400Y-120916400D02*
X131579400Y-119466300D01*
X131169000Y-116853200D02*
X131680500Y-116341700D01*
X131579400Y-119466300D02*
X131169000Y-119055900D01*
X131680500Y-116341700D02*
X131680500Y-105107000D01*
%TO.N,/F*%
X179589900Y-100646400D02*
X178609800Y-100646400D01*
X174543100Y-100646400D02*
X173056100Y-99159400D01*
X178609800Y-100646400D02*
X174543100Y-100646400D01*
%TO.N,/G*%
X177987300Y-101930900D02*
X178609800Y-102553400D01*
X166866900Y-101930900D02*
X177987300Y-101930900D01*
X179589900Y-102553400D02*
X178609800Y-102553400D01*
X165596900Y-100660900D02*
X166866900Y-101930900D01*
%TO.N,/E*%
X178609800Y-104496400D02*
X166892400Y-104496400D01*
X179589900Y-104496400D02*
X178609800Y-104496400D01*
X166892400Y-104496400D02*
X165596900Y-103200900D01*
%TO.N,/D*%
X165596900Y-105740900D02*
X170611000Y-110755000D01*
X170611000Y-110755000D02*
X171316400Y-110755000D01*
X178609800Y-106367400D02*
X178156200Y-106367400D01*
X179589900Y-106367400D02*
X178609800Y-106367400D01*
X178156200Y-106367400D02*
X177594400Y-105805600D01*
%TO.N,/DP*%
X178609800Y-93896800D02*
X178304500Y-94202100D01*
X178609800Y-93029400D02*
X178609800Y-93896800D01*
X179589900Y-93029400D02*
X178609800Y-93029400D01*
%TO.N,/C*%
X169035800Y-95613400D02*
X170212500Y-94436700D01*
X179589900Y-94934400D02*
X178609800Y-94934400D01*
X169035800Y-99019800D02*
X169035800Y-95613400D01*
X170676900Y-100660900D02*
X169035800Y-99019800D01*
X174096800Y-94934400D02*
X178609800Y-94934400D01*
X170212500Y-94436700D02*
X173599100Y-94436700D01*
X173599100Y-94436700D02*
X174096800Y-94934400D01*
%TO.N,/B*%
X171962400Y-96835400D02*
X179589900Y-96835400D01*
X170676900Y-98120900D02*
X171962400Y-96835400D01*
%TO.N,/A*%
X172222700Y-98410800D02*
X178277200Y-98410800D01*
X169537600Y-96720200D02*
X169537600Y-98646400D01*
X169537600Y-98646400D02*
X170149000Y-99257800D01*
X170676900Y-95580900D02*
X169537600Y-96720200D01*
X171375700Y-99257800D02*
X172222700Y-98410800D01*
X170149000Y-99257800D02*
X171375700Y-99257800D01*
X179589900Y-98743400D02*
X178609800Y-98743400D01*
X178277200Y-98410800D02*
X178609800Y-98743400D01*
%TO.N,/PPort_10*%
X188619900Y-134439000D02*
X187404500Y-135654400D01*
X186079400Y-135654400D02*
X187404500Y-135654400D01*
X188619900Y-119464500D02*
X188619900Y-134439000D01*
%TO.N,/PPort_11*%
X186078400Y-131804400D02*
X187403500Y-131804400D01*
X187403500Y-131537500D02*
X187403500Y-131804400D01*
X187699500Y-131241500D02*
X187403500Y-131537500D01*
%TO.N,/PPort_12*%
X191696800Y-132635100D02*
X187404500Y-136927400D01*
X186079400Y-136927400D02*
X187404500Y-136927400D01*
X191696800Y-106734000D02*
X191696800Y-132635100D01*
%TO.N,/PPort_13*%
X193922600Y-105533800D02*
X193409700Y-106046700D01*
X193409700Y-134730200D02*
X187403500Y-140736400D01*
X193922600Y-104106800D02*
X193922600Y-105533800D01*
X193409700Y-106046700D02*
X193409700Y-134730200D01*
X129783400Y-52460100D02*
X129783400Y-55805500D01*
X186078400Y-140736400D02*
X187403500Y-140736400D01*
X129783400Y-55805500D02*
X131210800Y-57232900D01*
%TO.N,/PPort_15*%
X183061200Y-117603800D02*
X178173900Y-122491100D01*
X177698400Y-128760700D02*
X176479400Y-128760700D01*
X178173900Y-128285200D02*
X177698400Y-128760700D01*
X176552400Y-131806400D02*
X175227300Y-131806400D01*
X176479400Y-128760700D02*
X175227300Y-130012800D01*
X178173900Y-122491100D02*
X178173900Y-128285200D01*
X175227300Y-130012800D02*
X175227300Y-131806400D01*
D29*
%TO.N,/12V_Rear*%
X189826600Y-68525100D02*
X190243700Y-68942200D01*
X189539500Y-79567600D02*
X189826600Y-79854700D01*
X190243700Y-68942200D02*
X190243700Y-77013800D01*
X150362900Y-140126500D02*
X150362900Y-133843600D01*
X189826600Y-45985900D02*
X189826600Y-68525100D01*
X190243700Y-77013800D02*
X189539500Y-77718000D01*
X148046300Y-32532800D02*
X148046300Y-40507900D01*
X189539500Y-77718000D02*
X189539500Y-79567600D01*
X167369200Y-110583600D02*
X167369200Y-133606800D01*
X167369200Y-133606800D02*
X167597200Y-133834800D01*
X148046300Y-40507900D02*
X153524300Y-45985900D01*
D28*
%TO.N,/UNUSED_Rear*%
X156671700Y-43051600D02*
X150379800Y-36759700D01*
X158946200Y-139331700D02*
X158709800Y-139568100D01*
X177822300Y-89387200D02*
X178865800Y-88343700D01*
X188201300Y-73733800D02*
X188201300Y-43334600D01*
X178865800Y-88343700D02*
X178865800Y-81344000D01*
X158946200Y-97539100D02*
X158946200Y-139331700D01*
X150379800Y-36759700D02*
X150379800Y-32560200D01*
%TO.N,/CIC_DATA2*%
X168000100Y-95966700D02*
X171398200Y-92568600D01*
X190140000Y-80586900D02*
X191734000Y-78992900D01*
X187060000Y-79184800D02*
X188462100Y-80586900D01*
X184832000Y-79184800D02*
X187060000Y-79184800D01*
X171398200Y-92568600D02*
X177311500Y-92568600D01*
X160734400Y-99775300D02*
X160734400Y-144150700D01*
X188462100Y-80586900D02*
X190140000Y-80586900D01*
X191734000Y-78992900D02*
X191734000Y-50561800D01*
X177311500Y-92568600D02*
X184116800Y-85763300D01*
X184116800Y-79900000D02*
X184832000Y-79184800D01*
X160973900Y-99535800D02*
X160734400Y-99775300D01*
X168000100Y-99535800D02*
X168000100Y-95966700D01*
X184116800Y-85763300D02*
X184116800Y-79900000D01*
%TO.N,/Unknown_1*%
X164061600Y-66668100D02*
X164061600Y-59564700D01*
X160472000Y-55975100D02*
X160472000Y-54762100D01*
X163638900Y-67090800D02*
X164061600Y-66668100D01*
X161899200Y-141914700D02*
X161822900Y-141838400D01*
X164061600Y-59564700D02*
X160472000Y-55975100D01*
X161850600Y-37841000D02*
X160746400Y-36736800D01*
X160472000Y-54762100D02*
X161850600Y-53383500D01*
X161822900Y-141838400D02*
X161822900Y-87236100D01*
X161850600Y-53383500D02*
X161850600Y-37841000D01*
X163638900Y-85420100D02*
X163638900Y-67090800D01*
X161822900Y-87236100D02*
X163638900Y-85420100D01*
%TO.N,/{slash}OS EVENT*%
X194126700Y-49147800D02*
X194126700Y-86021800D01*
X194126700Y-86021800D02*
X192522300Y-87626200D01*
X172927200Y-109533000D02*
X172927200Y-139927000D01*
X172927200Y-139927000D02*
X172948500Y-139948300D01*
%TO.N,/Unknown_2*%
X183793300Y-72640100D02*
X183793300Y-77888100D01*
X183793300Y-77888100D02*
X183996400Y-78091200D01*
X183766200Y-64263700D02*
X183996400Y-64493900D01*
X183996400Y-64493900D02*
X183996400Y-72437000D01*
X166589000Y-33453900D02*
X167684200Y-34549100D01*
X183996400Y-72437000D02*
X183793300Y-72640100D01*
X167684200Y-34549100D02*
X167684200Y-63916400D01*
X172202100Y-141388000D02*
X172202100Y-106857000D01*
%TO.N,/RAUDIO*%
X164203900Y-136565600D02*
X172618800Y-144980500D01*
X163561600Y-94919800D02*
X163561600Y-111532200D01*
X173329400Y-32659400D02*
X171423900Y-34564900D01*
X164203900Y-112174500D02*
X164203900Y-136565600D01*
X163561600Y-111532200D02*
X164203900Y-112174500D01*
X171423900Y-87057500D02*
X163561600Y-94919800D01*
X172618800Y-144980500D02*
X172618800Y-145265600D01*
X171423900Y-34564900D02*
X171423900Y-87057500D01*
D29*
%TO.N,/12V_Front*%
X195803000Y-121941900D02*
X196100600Y-121644300D01*
X196100600Y-121644300D02*
X196100600Y-47395700D01*
X149068300Y-139692900D02*
X149068300Y-134878100D01*
X146250400Y-28780400D02*
X146250400Y-40638700D01*
X146296400Y-142374500D02*
X146345900Y-142325000D01*
X146250400Y-40638700D02*
X153007400Y-47395700D01*
X146296400Y-150484400D02*
X146296400Y-142374500D01*
D28*
%TO.N,/UNUSED_Front*%
X158285000Y-140331300D02*
X157709600Y-139755900D01*
X159974500Y-97545200D02*
X159464500Y-98055200D01*
X155880600Y-44422600D02*
X149342800Y-37884800D01*
X148770400Y-28780400D02*
X148770400Y-32230500D01*
X158974900Y-140331300D02*
X158285000Y-140331300D01*
X186378700Y-76736700D02*
X186378700Y-74462700D01*
X183955100Y-79160300D02*
X186378700Y-76736700D01*
X149342800Y-32802900D02*
X148770400Y-32230500D01*
X148816400Y-150457400D02*
X148816400Y-144192300D01*
X183831100Y-79160300D02*
X183955100Y-79160300D01*
X187751200Y-44700200D02*
X187473600Y-44422600D01*
X186378700Y-74462700D02*
X187751200Y-73090200D01*
X178116500Y-86458900D02*
X176015900Y-88559500D01*
X176015900Y-88559500D02*
X176015900Y-91646400D01*
X187751200Y-73090200D02*
X187751200Y-44700200D01*
X159464500Y-98055200D02*
X159464500Y-139841700D01*
X159464500Y-139841700D02*
X158974900Y-140331300D01*
X149342800Y-37884800D02*
X149342800Y-32802900D01*
%TO.N,/CIC_DATA1*%
X160021900Y-61175800D02*
X161101600Y-62255500D01*
X161400400Y-52972200D02*
X160021900Y-54350700D01*
X160021900Y-54350700D02*
X160021900Y-61175800D01*
X158897400Y-150515400D02*
X158897400Y-145690300D01*
X161101600Y-62255500D02*
X161101600Y-98028700D01*
X158851400Y-28780400D02*
X158851400Y-38410700D01*
X159987400Y-99142900D02*
X159987400Y-144600300D01*
X159987400Y-144600300D02*
X158897400Y-145690300D01*
X161400400Y-40959700D02*
X161400400Y-52972200D01*
X158851400Y-38410700D02*
X161400400Y-40959700D01*
X161101600Y-98028700D02*
X159987400Y-99142900D01*
%TO.N,/1.6MHZ*%
X161377400Y-34814000D02*
X161377400Y-28780400D01*
X162624300Y-141614300D02*
X162282400Y-141272400D01*
X166180400Y-90709700D02*
X166180400Y-39617000D01*
X161423400Y-145680300D02*
X162624300Y-144479400D01*
X166180400Y-39617000D02*
X161377400Y-34814000D01*
X162282400Y-94607700D02*
X166180400Y-90709700D01*
X162282400Y-141272400D02*
X162282400Y-94607700D01*
X162624300Y-144479400D02*
X162624300Y-141614300D01*
X161423400Y-150505400D02*
X161423400Y-145680300D01*
%TO.N,/S_DAT*%
X166461400Y-139715000D02*
X166461400Y-150486400D01*
X163753700Y-112679000D02*
X163753700Y-137007300D01*
X166415400Y-32230500D02*
X168747800Y-34562900D01*
X163753700Y-137007300D02*
X166461400Y-139715000D01*
X163103300Y-112028600D02*
X163753700Y-112679000D01*
X168747800Y-34562900D02*
X168747800Y-89097000D01*
X166415400Y-28780400D02*
X166415400Y-32230500D01*
X163103300Y-94741500D02*
X163103300Y-112028600D01*
X168747800Y-89097000D02*
X163103300Y-94741500D01*
%TO.N,/LAUDIO*%
X164011700Y-95106400D02*
X173885700Y-85232400D01*
X174075600Y-32315700D02*
X173990400Y-32230500D01*
X174075600Y-34399600D02*
X174075600Y-32315700D01*
X164011700Y-110889600D02*
X164011700Y-95106400D01*
X166644100Y-138252000D02*
X166644100Y-113522000D01*
X173885700Y-34589500D02*
X174075600Y-34399600D01*
X166644100Y-113522000D02*
X164011700Y-110889600D01*
X174036400Y-150469400D02*
X174036400Y-145644300D01*
X173885700Y-85232400D02*
X173885700Y-34589500D01*
X173990400Y-28780400D02*
X173990400Y-32230500D01*
X174036400Y-145644300D02*
X166644100Y-138252000D01*
%TO.N,/74HC04-374*%
X176554400Y-130533400D02*
X177879500Y-130533400D01*
X177879500Y-130533400D02*
X180944300Y-127468600D01*
X180944300Y-127468600D02*
X180944300Y-126787400D01*
X182269400Y-126787400D02*
X180944300Y-126787400D01*
%TO.N,/Q0*%
X182356000Y-91485700D02*
X182356000Y-93030400D01*
X187569700Y-89483900D02*
X187502600Y-89551000D01*
X194210300Y-99846100D02*
X194210300Y-94715800D01*
X184290700Y-89551000D02*
X182356000Y-91485700D01*
X192737000Y-101319400D02*
X194210300Y-99846100D01*
X188978400Y-89483900D02*
X187569700Y-89483900D01*
X181375900Y-93030400D02*
X182356000Y-93030400D01*
X191411900Y-101319400D02*
X192737000Y-101319400D01*
X187502600Y-89551000D02*
X184290700Y-89551000D01*
X194210300Y-94715800D02*
X188978400Y-89483900D01*
%TO.N,/Q1*%
X193760200Y-94902300D02*
X188791900Y-89934000D01*
X187689100Y-90001100D02*
X184477200Y-90001100D01*
X181375900Y-94935400D02*
X182356000Y-94935400D01*
X188791900Y-89934000D02*
X187756200Y-89934000D01*
X183060000Y-94231400D02*
X182356000Y-94935400D01*
X193760200Y-99063200D02*
X193760200Y-94902300D01*
X187756200Y-89934000D02*
X187689100Y-90001100D01*
X183060000Y-91418300D02*
X183060000Y-94231400D01*
X184477200Y-90001100D02*
X183060000Y-91418300D01*
X191404900Y-100093400D02*
X192730000Y-100093400D01*
X192730000Y-100093400D02*
X193760200Y-99063200D01*
%TO.N,/Q2*%
X191404900Y-98782400D02*
X192730000Y-98782400D01*
X182356000Y-98459100D02*
X182971000Y-99074100D01*
X181375900Y-96836400D02*
X182356000Y-96836400D01*
X192958400Y-98554000D02*
X193007200Y-98554000D01*
X192730000Y-98782400D02*
X192958400Y-98554000D01*
X182356000Y-96836400D02*
X182356000Y-98459100D01*
%TO.N,/Q3*%
X183743400Y-99327200D02*
X183271400Y-99799200D01*
X192731000Y-94509700D02*
X188605400Y-90384100D01*
X192731000Y-97510400D02*
X192731000Y-94509700D01*
X183510200Y-98012500D02*
X183743400Y-98245700D01*
X183743400Y-98245700D02*
X183743400Y-99327200D01*
X191405900Y-97510400D02*
X192731000Y-97510400D01*
X183271400Y-99799200D02*
X182430700Y-99799200D01*
X182430700Y-99799200D02*
X181375900Y-98744400D01*
X187942700Y-90384100D02*
X187875500Y-90451300D01*
X187875500Y-90451300D02*
X184663600Y-90451300D01*
X183510200Y-91604700D02*
X183510200Y-98012500D01*
X188605400Y-90384100D02*
X187942700Y-90384100D01*
X184663600Y-90451300D02*
X183510200Y-91604700D01*
%TO.N,/Q4*%
X181375900Y-100647400D02*
X183059800Y-100647400D01*
X184367800Y-99339400D02*
X184367800Y-98779400D01*
X185692900Y-98779400D02*
X184367800Y-98779400D01*
X183059800Y-100647400D02*
X184367800Y-99339400D01*
%TO.N,/Q5*%
X185688900Y-100091400D02*
X184363800Y-100091400D01*
X182356000Y-102554400D02*
X184363800Y-100546600D01*
X184363800Y-100546600D02*
X184363800Y-100091400D01*
X181375900Y-102554400D02*
X182356000Y-102554400D01*
%TO.N,/Q6*%
X181375900Y-104497400D02*
X182356000Y-104497400D01*
X182356000Y-103326200D02*
X182356000Y-104497400D01*
X184364800Y-101317400D02*
X182356000Y-103326200D01*
X185689900Y-101317400D02*
X184364800Y-101317400D01*
%TO.N,/Q7*%
X181375900Y-106368400D02*
X182356000Y-106368400D01*
X184365800Y-104358600D02*
X184365800Y-102625400D01*
X185690900Y-102625400D02*
X184365800Y-102625400D01*
X182356000Y-106368400D02*
X184365800Y-104358600D01*
%TD*%
M02*
