%TF.GenerationSoftware,KiCad,Pcbnew,(6.0.2)*%
%TF.CreationDate,2022-10-27T18:33:53-05:00*%
%TF.ProjectId,REF1329_Breakout,52454631-3332-4395-9f42-7265616b6f75,rev?*%
%TF.SameCoordinates,Original*%
%TF.FileFunction,Soldermask,Bot*%
%TF.FilePolarity,Negative*%
%FSLAX46Y46*%
G04 Gerber Fmt 4.6, Leading zero omitted, Abs format (unit mm)*
G04 Created by KiCad (PCBNEW (6.0.2)) date 2022-10-27 18:33:53*
%MOMM*%
%LPD*%
G01*
G04 APERTURE LIST*
%ADD10C,0.000000*%
%ADD11C,0.795000*%
%ADD12R,1.700000X1.700000*%
%ADD13O,1.700000X1.700000*%
%ADD14R,1.590000X1.590000*%
%ADD15C,4.680000*%
%ADD16R,1.530000X9.000000*%
%ADD17R,1.600000X1.600000*%
%ADD18C,1.600000*%
%ADD19R,1.530000X6.250000*%
G04 APERTURE END LIST*
D10*
G36*
X190883200Y-110492900D02*
G01*
X189293200Y-110492900D01*
X189293200Y-108902900D01*
X190883200Y-108902900D01*
X190883200Y-110492900D01*
G37*
D11*
X165998500Y-100649100D02*
G75*
G03*
X165998500Y-100649100I-397500J0D01*
G01*
X171078500Y-95569100D02*
G75*
G03*
X171078500Y-95569100I-397500J0D01*
G01*
D10*
G36*
X195367900Y-110492900D02*
G01*
X193777900Y-110492900D01*
X193777900Y-108902900D01*
X195367900Y-108902900D01*
X195367900Y-110492900D01*
G37*
D11*
X171078500Y-100649100D02*
G75*
G03*
X171078500Y-100649100I-397500J0D01*
G01*
X171078500Y-103189100D02*
G75*
G03*
X171078500Y-103189100I-397500J0D01*
G01*
X165998500Y-103189100D02*
G75*
G03*
X165998500Y-103189100I-397500J0D01*
G01*
X171078500Y-105729100D02*
G75*
G03*
X171078500Y-105729100I-397500J0D01*
G01*
X171078500Y-98109100D02*
G75*
G03*
X171078500Y-98109100I-397500J0D01*
G01*
X165998500Y-95569100D02*
G75*
G03*
X165998500Y-95569100I-397500J0D01*
G01*
D10*
G36*
X195328200Y-116842900D02*
G01*
X193738200Y-116842900D01*
X193738200Y-115252900D01*
X195328200Y-115252900D01*
X195328200Y-116842900D01*
G37*
G36*
X190843500Y-116842900D02*
G01*
X189253500Y-116842900D01*
X189253500Y-115252900D01*
X190843500Y-115252900D01*
X190843500Y-116842900D01*
G37*
D11*
X165998500Y-105729100D02*
G75*
G03*
X165998500Y-105729100I-397500J0D01*
G01*
X165998500Y-98109100D02*
G75*
G03*
X165998500Y-98109100I-397500J0D01*
G01*
D12*
%TO.C,J7*%
X106570700Y-83977000D03*
D13*
X109110700Y-83977000D03*
X111650700Y-83977000D03*
X114190700Y-83977000D03*
X116730700Y-83977000D03*
X119270700Y-83977000D03*
X121810700Y-83977000D03*
X124350700Y-83977000D03*
X126890700Y-83977000D03*
X129430700Y-83977000D03*
X131970700Y-83977000D03*
X134510700Y-83977000D03*
X137050700Y-83977000D03*
X139590700Y-83977000D03*
X142130700Y-83977000D03*
X144670700Y-83977000D03*
X147210700Y-83977000D03*
X149750700Y-83977000D03*
X152290700Y-83977000D03*
X154830700Y-83977000D03*
X157370700Y-83977000D03*
X159910700Y-83977000D03*
X162450700Y-83977000D03*
X164990700Y-83977000D03*
X167530700Y-83977000D03*
X170070700Y-83977000D03*
X172610700Y-83977000D03*
X175150700Y-83977000D03*
X177690700Y-83977000D03*
X180230700Y-83977000D03*
X182770700Y-83977000D03*
X185310700Y-83977000D03*
%TD*%
D14*
%TO.C,SW1*%
X190043900Y-116045900D03*
X190083900Y-109695900D03*
X194529900Y-116048900D03*
X194568900Y-109696900D03*
%TD*%
D15*
%TO.C,Hole1*%
X105352400Y-28947400D03*
%TD*%
D16*
%TO.C,J5*%
X116029400Y-150518400D03*
X118547400Y-150532400D03*
X121072400Y-150520400D03*
X123599400Y-150514400D03*
X126118400Y-150528400D03*
X128637400Y-150514400D03*
X131160400Y-150503400D03*
X133679400Y-150489400D03*
X136198400Y-150517400D03*
X138726400Y-150517400D03*
X141251400Y-150508400D03*
X143772400Y-150500400D03*
X146296400Y-150484400D03*
X148816400Y-150457400D03*
X151336400Y-150469400D03*
X153855400Y-150455400D03*
X156373400Y-150521400D03*
X158897400Y-150515400D03*
X161423400Y-150505400D03*
X163941400Y-150501400D03*
X166461400Y-150486400D03*
X168980400Y-150486400D03*
X171510400Y-150470400D03*
X174036400Y-150469400D03*
X176555400Y-150528400D03*
%TD*%
D15*
%TO.C,Hole2*%
X101501400Y-141759400D03*
%TD*%
D17*
%TO.C,U3*%
X165596900Y-95580900D03*
D18*
X165596900Y-98120900D03*
X165596900Y-100660900D03*
X165596900Y-103200900D03*
X165596900Y-105740900D03*
X170676900Y-105740900D03*
X170676900Y-103200900D03*
X170676900Y-100660900D03*
X170676900Y-98120900D03*
X170676900Y-95580900D03*
%TD*%
D12*
%TO.C,J9*%
X106577700Y-80375000D03*
D13*
X109117700Y-80375000D03*
X111657700Y-80375000D03*
X114197700Y-80375000D03*
X116737700Y-80375000D03*
X119277700Y-80375000D03*
X121817700Y-80375000D03*
X124357700Y-80375000D03*
X126897700Y-80375000D03*
X129437700Y-80375000D03*
X131977700Y-80375000D03*
X134517700Y-80375000D03*
X137057700Y-80375000D03*
X139597700Y-80375000D03*
X142137700Y-80375000D03*
X144677700Y-80375000D03*
X147217700Y-80375000D03*
X149757700Y-80375000D03*
X152297700Y-80375000D03*
X154837700Y-80375000D03*
X157377700Y-80375000D03*
X159917700Y-80375000D03*
X162457700Y-80375000D03*
X164997700Y-80375000D03*
X167537700Y-80375000D03*
X170077700Y-80375000D03*
X172617700Y-80375000D03*
X175157700Y-80375000D03*
X177697700Y-80375000D03*
X180237700Y-80375000D03*
X182777700Y-80375000D03*
X185317700Y-80375000D03*
%TD*%
D12*
%TO.C,J6*%
X106575700Y-68175000D03*
D13*
X109115700Y-68175000D03*
X111655700Y-68175000D03*
X114195700Y-68175000D03*
X116735700Y-68175000D03*
X119275700Y-68175000D03*
X121815700Y-68175000D03*
X124355700Y-68175000D03*
X126895700Y-68175000D03*
X129435700Y-68175000D03*
X131975700Y-68175000D03*
X134515700Y-68175000D03*
X137055700Y-68175000D03*
X139595700Y-68175000D03*
X142135700Y-68175000D03*
X144675700Y-68175000D03*
X147215700Y-68175000D03*
X149755700Y-68175000D03*
X152295700Y-68175000D03*
X154835700Y-68175000D03*
X157375700Y-68175000D03*
X159915700Y-68175000D03*
X162455700Y-68175000D03*
X164995700Y-68175000D03*
X167535700Y-68175000D03*
X170075700Y-68175000D03*
X172615700Y-68175000D03*
X175155700Y-68175000D03*
X177695700Y-68175000D03*
X180235700Y-68175000D03*
X182775700Y-68175000D03*
X185315700Y-68175000D03*
%TD*%
D15*
%TO.C,Hole3*%
X187783400Y-28986400D03*
%TD*%
%TO.C,Hole4*%
X190958400Y-141804400D03*
%TD*%
D19*
%TO.C,J3*%
X115983400Y-28780400D03*
X118501400Y-28780400D03*
X121026400Y-28780400D03*
X123553400Y-28780400D03*
X126072400Y-28780400D03*
X128591400Y-28780400D03*
X131114400Y-28780400D03*
X133633400Y-28780400D03*
X136152400Y-28780400D03*
X138680400Y-28780400D03*
X141205400Y-28780400D03*
X143726400Y-28780400D03*
X146250400Y-28780400D03*
X148770400Y-28780400D03*
X151290400Y-28780400D03*
X153809400Y-28780400D03*
X156327400Y-28780400D03*
X158851400Y-28780400D03*
X161377400Y-28780400D03*
X163895400Y-28780400D03*
X166415400Y-28780400D03*
X168934400Y-28780400D03*
X171464400Y-28780400D03*
X173990400Y-28780400D03*
X176509400Y-28780400D03*
%TD*%
D12*
%TO.C,J8*%
X106577700Y-71774000D03*
D13*
X109117700Y-71774000D03*
X111657700Y-71774000D03*
X114197700Y-71774000D03*
X116737700Y-71774000D03*
X119277700Y-71774000D03*
X121817700Y-71774000D03*
X124357700Y-71774000D03*
X126897700Y-71774000D03*
X129437700Y-71774000D03*
X131977700Y-71774000D03*
X134517700Y-71774000D03*
X137057700Y-71774000D03*
X139597700Y-71774000D03*
X142137700Y-71774000D03*
X144677700Y-71774000D03*
X147217700Y-71774000D03*
X149757700Y-71774000D03*
X152297700Y-71774000D03*
X154837700Y-71774000D03*
X157377700Y-71774000D03*
X159917700Y-71774000D03*
X162457700Y-71774000D03*
X164997700Y-71774000D03*
X167537700Y-71774000D03*
X170077700Y-71774000D03*
X172617700Y-71774000D03*
X175157700Y-71774000D03*
X177697700Y-71774000D03*
X180237700Y-71774000D03*
X182777700Y-71774000D03*
X185317700Y-71774000D03*
%TD*%
D17*
%TO.C,J1*%
X163023400Y-52460100D03*
D18*
X160253400Y-52460100D03*
X157483400Y-52460100D03*
X154713400Y-52460100D03*
X151943400Y-52460100D03*
X149173400Y-52460100D03*
X146403400Y-52460100D03*
X143633400Y-52460100D03*
X140863400Y-52460100D03*
X138093400Y-52460100D03*
X135323400Y-52460100D03*
X132553400Y-52460100D03*
X129783400Y-52460100D03*
X161638400Y-55300100D03*
X158868400Y-55300100D03*
X156098400Y-55300100D03*
X153328400Y-55300100D03*
X150558400Y-55300100D03*
X147788400Y-55300100D03*
X145018400Y-55300100D03*
X142248400Y-55300100D03*
X139478400Y-55300100D03*
X136708400Y-55300100D03*
X133938400Y-55300100D03*
X131168400Y-55300100D03*
%TD*%
M02*
